<mxfile host="app.diagrams.net" agent="Mozilla/5.0 (Macintosh; Intel Mac OS X 10_15_7) AppleWebKit/537.36 (KHTML, like Gecko) Chrome/139.0.0.0 Safari/537.36" version="28.1.0">
  <diagram name="Page-1" id="7c1gy-5Lz7EUthTmMpML">
    <mxGraphModel dx="2208" dy="2593" grid="1" gridSize="10" guides="1" tooltips="1" connect="1" arrows="1" fold="1" page="1" pageScale="1" pageWidth="850" pageHeight="1100" math="0" shadow="0">
      <root>
        <mxCell id="0" />
        <mxCell id="1" parent="0" />
        <mxCell id="ktNDty71DHKYMg-t7npV-1" value="" style="rounded=0;whiteSpace=wrap;html=1;fillColor=light-dark(#00254F,#00254F);" vertex="1" parent="1">
          <mxGeometry x="80" y="-80" width="1320" height="1330" as="geometry" />
        </mxCell>
        <mxCell id="ktNDty71DHKYMg-t7npV-3" value="" style="shape=image;verticalLabelPosition=bottom;labelBackgroundColor=default;verticalAlign=top;aspect=fixed;imageAspect=0;image=data:image/jpeg,/9j/4AAQSkZJRgABAQAAAQABAAD/2wBDAAMCAgMCAgMDAwMEAwMEBQgFBQQEBQoHBwYIDAoMDAsKCwsNDhIQDQ4RDgsLEBYQERMUFRUVDA8XGBYUGBIUFRT/2wBDAQMEBAUEBQkFBQkUDQsNFBQUFBQUFBQUFBQUFBQUFBQUFBQUFBQUFBQUFBQUFBQUFBQUFBQUFBQUFBQUFBQUFBT/wAARCAQABAADASIAAhEBAxEB/8QAHgABAQACAgMBAQAAAAAAAAAAAAEICQYHAgQFAwr/xABxEAABAwMCBAMEBQUGCw4SCAcBAAIDBAURBgcIEiExCRNBFCJRYTJxgZGhFSNCUrEWM3KCktMXGCRDYnOTorK0wTQ1N1NUV2N1doOUo7PRGSUmNjhERkdWdJWWpMPE0tTwJyhVZGWEhYa14UXk8WbC/8QAGwEBAQADAQEBAAAAAAAAAAAAAAEDBAUCBgf/xAA6EQACAgEBBAcHAwMEAwEBAAAAAQIDBBEFEiExExQyQVFhcRUiM1KBkaEjQrE0wdEkQ1PwYmPhonL/2gAMAwEAAhEDEQA/ANfyIi/SD4MIiIQIiZUKERPVUBO6JhCBERQoQIipAiIEAT1T5p3QoQdE+CEqAIPuREIERB2VKECdkQBECnqgL3REQgRVRAPVEQIAiJ6IUBPxREA7InoiEHZETugBRAiFGE6IEQD0T5p6ogCeqIhAiiqFGUxlEQD1REQBETKAIERQBFFVQEREBFfREQBERCD1TKd0QBMIEQDunqiqAndERChOyIUACIgQgREQoQoEQgRE9UAQIEQBOyAfNEKAiIgHqiivZAMoidkAQHCIgGURO6AfsVUVQhEwiKAJ6oipQiIgCfWiigLlAiIC9lOyYRUBFFfxQD1TCIoQIiKgJ9qIgCJ3wihQiIqAiIhB9qIiFChVA+KKAJhOyIB6IoqgHZMp6ogCIioCgVTugCivqiABE9UQBE9UQgREHVCgIiBCBEwnYoCFO6qIUIiKABRVPgqAidkKAIiBCEVRFChERUEV9URAPmiKYQFRECgAREVBPVXHoigQD1VTHVFAERFQECIgJhOyqdkARE+CAivqiYQBETKAIgRAET6kwgCYREIERB0QBFVEA+1PVEx1QoT0TCIAiIEAT8ERQBMJ2RUDKIiADshREATuiIAiY6ogIqiBAOyIndAECJnKAIiYQDsU9EyiAYT6kRARXCYRAE9E7oUA9ERFAMfNERUEVT1RAERPVQBECdlQOmUwiYUBPRXCKfUgKiIeioARE7IBjKIiAJ6onZQBCiIB2ROyEoAnZEQBERAPtROieiAdkyiKgIiZQAIiIAr6qIevzQgKDuiIUFERAEREIMp6oigIr2KYRUoT6kRCBEQIAiJ6oAiIhQiIhAr+xTsiAIiiFKoqiABMogQBPVEQBERQBEUVAVREAwiIoAidynqqAgTCBQBQq/BFQRX1REA9EREAREwhBlERAE7IiFCIiAYUVRBqEREA9URPggIqieqAIiIAEREAREUA9URFQERFAEHRRVUBERQD8ERPVCBET0QBERUE7Kjon2IhQp6qogA6FRFVARXsURAERFQRVEQBEKIQIiD8UKETt9aqEIERFChERUDumERAERRAVMJ2RQBPVO6dkBEVQIAiJ6qgImE9UIMIgRChMJlEAREQBECIQJ6onZCkVROyAImOqIQIgRChPROyIQIiv1oCImEQBMImEBFVFUKE+pEKEGEyiYQpFURAETsEwgCIiAIiBAERAgCJ9SIAiKIConxRCD8UyndEKERVAeI7K+qFPVAE7qYVygCIp2QFT1REICiYT1QoREwgHdEKIAoqnVAOyIiAIiIAidkQBOyIO6AJ2REA7Ir3UwhB2REyhR3REQEVRFAAiIqB3RB1T1QgTCeqIAnZPVEKMonYoFAUKKK91QQK+qIoCK+qKHogCqIqAnoiIAiIoQIiIUIiIQfgiIhQiBEIERFShRXuooConqiAeqJ+KICJ6orhAAmERUBEUCgKoqiAIiKgIhRAVREQBMdUTugCIiAJ2T0QDqgCYwiIBhAmEQBEygQBE7eqICKohQD0REQDsnqid0ARMIhAiJhCjCYT0RCBPtTCfNChERAEREA9UUVQAIiIAndEQDCIE6oQdkCYTsUKFFfgiAJhRVAEREA7J6phEIEPdO6IUYTsUwiAivondEACIg6oCKoiAJ3RO6AYT1TuUQDGU7J6J6oAiIgCJhEATundEA7JhE7ZQgCJjCKFARE9EAQIioCInqgHZECYQBFFQgCeqiqAKK46d1PVQBFVAqCoiZUAQIioCYT0RQD1RMIqAiK+iEIiIoUdiifJCgGMInoiAYUVRUBFFcKAIifNAET5ogCJ2RUBERQDup2VJUVBUTsEwgCp+tT1RACiY+CIAmEJRCBE+1EA7oiKFCdk7fNFQAiYT1QgTuUCIAhRPwQBERChERCDCIiAIPrREAQoiFCY6JhEARRUIAmERAEREAUwqiAKKogCIiAd0RVCET60wgH2oUeqIEKAIiYQgwiIhQifiiAIiBAE7oiEIqmUwhR6ofwRPqQAp2UVQBEKIQiqHuiFGMoieiAFMJ9SYQAIiIAn7ETCAFE+1EIEREKETCIQZRMJhCjsifNPkgGE7JjqgKAJ6p3QIBlCnqiAIiKAIiKgJhE+1CBERAEwiIAiIhR9iYQoVAO6IioCKgKYwhAn2p2RAFFVFClUVCIAiivqgCBPVEAT7URUBE7IgHwUVyogCqIUAyiIgCFE7IQJhE9UKO6eqJ0QBPqREIEREAKBEQoREQDKeiIgCIiAY6IiIAiIEIETCIUJhE7IAor6ogCgV7IEAT1TsiAIiIAiBEA7oETHRAMoExgIgCInohAiBAhQiJ2QhAFURChERAE9URCBRUohR8kyqogCIiAmEwr80QBE9UQBO6IhB6oiIUJ6J2TugCJ2QoAiYRCD1RMohQiIhAiJlCjsiKdkBcIieqEH1IqogCJhEKRVEQD1REQhFURCjKKIoCoieqoHdM5T6kUARCioCJlFAPimEKYQBECgVBURAgCJgIUACIE7oAmEUUBfVOyIqB6phRVQDCdkQqgIid1AET7U+tUBO6J+1AEQogHZERCBE7IoAiBFQERUICdUREARAiFCgVRAET1RAFMKogB6ogTOUIRXumUHVCjqhQIgCIhQDCJ2TsgCJ3RAAiIgCIiECJhEKET6kQBERCBO6KoCFE9U7oUIndEAPy7J2REIVREQD1REQBO6IhQiIhAiIgGMogTrhChERAEwiIB2RExlCD0REQoTHVCiECiqIUeqivwUQFREQBAiIB2KY+aIhB9qnqqiFHdEIT0QDCIncIB3REQDuiIgCIiAid1U7KAnZVMp6KgIiKAFTsqogKMIiKgIoqgCIigCIioCdSiKAIieqAipUVwgCIVCEBfRRFQqAiIgAREUARRVUBE9UQBERAE6p9qKAIieioHqiIoAgCJ6oB8kRFSBMIiAIiIAidMIhSIqgQD1UVV9UBPRO6IgIqiAICK4REACBEwgCiqdkA9UREA+pAidkAT1QdUQDKBFUIT1REQo9EQIhAiKoCJhEwhQiIhAiIhQieid0A9URPRAMYREHZAAnqiYQA9kwiIAiK+qAiKqIQJ3Qdu6IUiv1oiAdkREA7qKp2QD0RECAIifahAiJ6IUd1EV7oAgREIE7JhEKE+pEQDCIiAZREQBE7YUUARX1QIAoqioCIigCBEx9yAdkwiICKoiAIidkBEVCICFFUVARFEAVRFARX0QIgCn4qp6oCKplFQFOyqKAKK4QKgmFURAPRPREQBEQIAiIgCd0RAERPkhAiFEATsnZMIUdkREARD2RATuqiIAnqiIB6IgQIAFAr2RAEREA7p6oiABEwiAIE7KIC+qiqIAndEQgRFEKVERAPVETCAIE9UQAdkREA7phEQg7FET7EKE7IiECIiFGEV7KIB6pjCeqIQFO6IhQiY+aFAPVAiIQIiIAE9U9U7oUJ8ExhEAwndMJ3QBEzlEIETCIUIET4oAiIgCJlRAVERCBPiiIUYREQBE9UxhATsiqAIAgRPTugCZT5oFAET1RAET4ogGEQBEAU7qogIqmEVBMKqIoCooiAqJ6p3KAIidkAREVARAnZQBEIT1VAT1RFAExlEQDCIioCJ+Cd0IEx80RChERAO6eiBEA9UwiIAhQIgCdkTohAmPVAiABAnon4oBhEHVPVChERACidkQAonzRAMKKogCJjqmEAwiY6qoQiKrxQpcdURMIAiIhCKoiFCImEATCIhAiivqhRlMInRAO6eqp6qIB9SIiEHqiftT1QDCIiAIqE9e6AiIhQoREQD1REKAdkQdQiAJ2TCeiAJjr807oEIE7phMfNAERUBATsiIgHZEQIUJhO6IAiIgHqiD8UQhVPxV9VEARPVEA9UREAREQoyienxRAET1RAE7+qBO6AImECAeqdiiKEGECIqUBQ/eqnZQgU9VUIVKMIU9EUBFcfYndFQAidymFAO6IiAd0T0QqgIiBAEwiIBhEU+tAXCJ9iIAnREUIPROydEVKECJ8VAEwiKkCJlMIUIVSiEIeiIqEBO6In2oUIiIQqnoiIBnqievwRChERCBE9ECAJ+KuFEAREwgCFMIhQiBEIMfBPqTCIUIieiAeqJhEACoU9FfghCBFVEACdkRAFVEHzQBMKKoUFEwiAInZEIERMIUFPVE7ICooqhCIiIUK5woFUIRET1QBERAEREKVTCAIhB3QondAEVUwgCqiIBhFMKgIUJ6IiAdinZE+pCBERChB1+Sd0QgRECFCJ+1EIPVVREAREyhQiIgCdkTsgGEyiKECYREKE7IUQgQIioGEzhP/nCdlCjGECeqKgJ2THRFAE/anqiAeqgCqIAifWgVAREQBEU9FAVO6dkQEVROioCIiAFE7IgCYTCd0ARECEKphUKYQBERCjCIEQBERCDsiIhQgRPmhAiIhR2T1Qd07oAEREBPVVEQDsid0ygCImeiAiqrhyN5ndB8XdAvCllZX1UdLSO9sqZHBrIaUGaRx+AawElRtLmVJy5I8lPRdl6b4Zt39YSxNtG12sKlkuOSeWzzU0DgfXzZgxmPtXbmk/DJ4gNTVAZW6ctGlYyMia93qEt/k0wmd+C15ZNMO1Nfc2IY1s+UTFhMrYRpfwdNVVlGx+pN0LRaKsH3obRZpa1mPlJJLF/gLsqz+D3oKmize9w9V1zgOrqGOjpG/c6KQ/itSW0saP7tfobMdn3vuNVquDjODj44W1iPgV4R9sJ3x6v1s2se3o6LU2tIqPB+qF0JXa20vDPwlX19SNCac2/1lJSta+fyq2K+mIOJDS/zJZSASDgn4FYp7TritVFsyx2dKX7kaS5KuniOH1MLD8HSNB+7K+rYNPXbVUzYrJaLne5XHDY7ZQTVLj9XlsK2y614tOFbh31jdLJbdD0/7pLLUvpKuDTOjooJIJmHDm+Y9kTT8nNcQR1BIXE9ReMTpCn6WDbPUlwGOn5SraWi6/D3Hy4V65fPjXS/qOqUw4WWaGvyk4bd368gQbSa7dns5+m6uNp+18YC5RbuCLfq6ta6DanUDC49BU+zwff5kzcfcsp7l4yN3mjcLftDR0snZslXqR8o+0NpW/tXCrl4um7tTIfYdK6JoYj2E9PWVLh9vnxj8FVZnS/Yl9Q6sSL7Wp1XD4dvEbOW42zkjafWS+WxuPs9pJX1Kbw1OIadw59GW+nz382/0vT+SXL60vij79SOcW1+moubs1lj6N+rMx/FfBuHiRcRVY8mLXlLQNP6FLYaIAfy43lev9e+6P5PH+i8zlVs8KzfW5D8/wDuRtZxnFZepHE/3KnevrR+EbvS8+9qPQMefhcK13/soXU1fx78QtzjLJ90rmxp/wBTUNDAfvZTgj71w+s4nt5q+YyTbua55ic4hv08LfuYWgIoZz5yS+g3sOPKLZk9R+EDua8NFVrjSMB9fKgrJfxIavqDwedZ8oJ3I0+HH0FoqSB9vmrEH+mI3bcfe3a16/P62qa4/wDrV6dbvhuXcm8tZuTrSrYe4qNSVzx+MqnQ5j/3F9i9NiLlB/gzMPg86vA6bl2PP+0tT/PLw/6D1rMdtyLAf/0ip/nVg3U631NXO56nU19qHfrS3eqcfxkXhHrHUMbgWajvjCPVt2qRj/jFer5f/L+CdPi/8bM6x4PGrz33MsY+qy1H88vCfwd9ZNaTDuVYJHfCS0VDB94lKwpoN1tc2kg0OudU0RHY01+rIyPulX1xxDbsMbhm6+vYx/Y6prv51R05ndYvsVX4nyP8GVc/hA7nMP5rXOj3/Dngq2/sBXpz+ERvA3Pk6s0NL8nzVsf/AKhyxst/FDvNbZmSwbu65L2dQJ77NO3+TIXA/aFlnwPcbO9W5PEdpDQ+qNURamsF1bVtqG1drp45oWRUksoe2WFjDnnYwe8DnmPr1WK1ZtUXPeTSMlbxLZKG6+JxCp8JXe+Bhe28aCnx+jHdaxpP8qkA/FcQuvho8QlDK9tPpG13MNPR9Hf6YB3zHmch+8BZJeIvxibmbOb02fSO3uqxp+ihscVfX+TQUtS98800rWtcZo38uI4gQG4+nk56LF2m8RviMpX+/uJFVt/VqLBQEf3sTUonnWwVicdH4/8AwtscKubg09V4Hq1fh5cRlFG579saiRrRk+z3m2yn7GioB/BcLu/CnvVZJCyr2l1kSOnNS2iSqb98POF3PaPFO34tp/qio0td+gH9WWVzf+SnYvuReLjvRFKHSaa0FIz1a2hrYyft9qd+xZVLOXOMWYnHDlyk0Yj33b7VulSW3vSOorM4DJbcbNVQEfyowuNyVlPDIY5J44ZB3bK7kI+w4WxG2eMZqSnYPyjtXaq15wCaO/zQD59HU7/2rldp8X/S13Ih1RtNdaamcDzew3Gmrz/JlbFlXrGUudP2ZOr4z/3NDWHHUwzHEc8Uh/sJGn/Kv25Hd+U4+K2aO44uELWNZzX7ZmRkp6uqbpou31P1nMT5CvOr1Z4ee4U8YrbfYrPUO/QZarlZ2t+RdEyNg+9Trs49qqX04l6lCXZsRrG9VQVtGk4M+DTcqaOPSm49PbZn9W01h1vDUPx6Dy6h0xH2jK9bUng8acr3iTTG6d4t9P3Autsp6/I/hRGDKq2lT+/VeqPLwLG/daZrC9VFndqjwg9y6Kod+5/W+k71TDs64x1NvkP8VrZx+K6qvPhvcQ9nnkbFoWnu8LM/n7Ze6NzXD4gSyRu+zGVsRzceXKaMDw74/tMZ0XZOpOGrd3R8kzbvtdrCkZCfzk7LLNUQD/fYQ9mPnlda1jxbquSlrM0VUw4fBVtML2n5teAVsxshLss13VOPOJURhEjeZhD2/FpyPvVCyGIiIFUBE7KqAZKAYyio7IgIiIEAwmEHxRCgIOiKoCIiIQIqogCIgQo7ogRCBFVEACImUBCiqIUiqJ6IB+KIhQgwiIhQiJ2CAIERQBERUgHREKIUIiFAETunZAO6IEUAREVA9UQIgCd09UQBMfUoqgCiqeqgBTCIqQqKJ8EAREQBFVEAVURAVFCOqqAnqrlMKfagCBVRChERCBETCAIUT4IUJ9Seq/OaeKnIEsrIyewe4An6h6oEm+CP0wi7H2/4bt1t1xTv0lt3qG8UtQOaGuNGaWjf9VRPyRn7HFZJaC8JfdnUopp9T3zTmjaaT99hEklyrIfrjjDIifqlK1bMqmrtSRs141tnKJhL+K8ZZGU7Q6V7ImnsZHBv7Vs9g8OHh92ZjpKndrdaaoqB7zoLjdqayUlQPgI2nzT9kq9ql4ieCDYAMfozSdDqS5UkvuT2bT762qY4fpCtrOUEfMSrUe0FL4UHL6G2sFx42SSNbuj9tdY7iAu0no/UOqWghpks1pnqWNPze1haPrJXe+jfDe3/ANXTQGbR1NpqllGRVX+6wRBo/so4jLIPq5MrvrW/jEXeUTQ6J20pKIB2IazUVydLlvoXU8DQB9QlK6M1f4lnEBqyd7qbVVv0tTvHK6lsVogaAPk+o854+sEJv5tnKCj6nro8SvnJyO6NHeDxqisax+rNy7Vanhw5qaxWuSs5h6gSzPjwfn5ZXPargJ4VNm61o3B3JqJamNnPJQ6i1VTW8PwOuIoBFJ1+AJK106u3i3C1/A+n1Pr7VOoKV5LnU1xvVRJDk/CLnDB9QauFxU0MBzFDFGfi1gB+9Tq2TZ8S37InWceHYr4mzen3R4AdqYZ3WPStq1dUsOPJZp+ru8h7dWy1rSz7ede1L4sO2WirOy36A2nvTKWPPJRyiitNO0k+gidLj+StYhcXdyT9a8fVX2dU+23L1Z5efZ+1JGferfGC1xXxgaa2507ZnY6m73Ce4n7o2QD8Suo9U+JTxBannkfS6toNNU8gwaayWana0D5PnErx9fMsYfrTHw6rPHCx4coIwyzL5fuOwL9xDbran85t13Q1nXMmPM+F9+qY4j/vbHtYB8gMLgFxkkvVUai4zT3GoI6y1s8k7j9r3FflJNFD1klji/tjw39qQVMNXMIqeT2mU9o6cGVx+xoK2VCEeSSMO/bLimzxbRUzDltLTtPxELf+Zd5cGO9LdguI7SmpKidtJYqyT8jXl7iGMFHUOa3ne7Bw2KUQynHpGR6rg1p2S3Iv8IntO2+srrC4ZElHpytkaftEWF2DYuA7f/VtG51LtVd44XtLXC5VVJQHBH6s0zXevwWC2dDg4SktH5mWqF6mppPU7+8WjZR2lt0bFuZQU5Fu1RALdcntDiG19Oz805xJwDJTjlAAH+ZifVYG+q3XXLYPWHEJwRW/b3c2np7JuLDQRsZWPqGVYirqV5FNUukZzA+a1jTJy5OJpAFiXpvwfNe1rh+6HcPTdnz3/JVvqK7H8t0K5uJm11VdHbLjHh9DfysSdlm/WuZgKi2b2fwcrNTOa687r3OsjGC9tBZqelJHyMj5cL2bx4aHDlpF5bqHd3UNtcwAuZXahtdKB9YNOCFte0sdvSOr+hrdQtXa0X1NX/ZXqR2Wz6j4UuCOyAe27p2mv5fpCr3BhaXfZFIz8F+dZt14elldyVN50/VuB6lmqLjVA/ayYhT2hFvhCT+h66g++aNYoY79Un7E8t2Pon7lsnEfhx29zv8AOqUjr0N7qP8AnX0aHXPh4Wh7TDbLBKQOnnaZutQP7+BwKPPfdVL7DqP/ALEax+U/DH2Lx7LarHvdwAUwAj07o9/w5tv6p/7aNfqOILgKYPc0vo4/L+hvMf8A2NY+vz/4X/36HvqEP+Rf9+pql5m5+k37wnM0fpD7wtq7+IfgPGS3RukH4/V21k/+EXrzcSnAxAMs0HpiX5R7bY/bTBFn2f8AC/8Av0Dwa1/ufj/6asOZp/SB+0JzD4j71tDbxR8D5cB/QvsjR8f6HMWP+RUPE3wNOJD9tLEPn/Q7bj/kV669Z/xM89Sh/wAn4NXzevbr+Kzl8I3RT75v1qzVDomSUlgsApWucOsVRVzDkI/3unlH1OXb7N9eAusZzTaK09TOPTD9AztP97TlZPbKXLZHRmylz3J23t1r07oCpp57pW3C32qSkEkdL5jZXuiLBIeTy5ABy9cHlBz108rNnOpw6NrXgbePhxhYp76ehqC4xtcDcnik3OvkWDTi8PtsLmOLmujpGNpWub8iYXO/jLprstj0tV4ct1nL5oWQyTOL3PfBqGAEk5yXAABfZpdnOAHV1Ny2vVtkszj08yTWdZSPH8Wpmx+C2oZsaYRi65JLyME8N2zct9as1kIFs4peA3hN1lU+VYN5aqWV3VsFr1jbqk/c+N5X7XrwetNVx5tP7p3uijPVpuFtpa3p9bPKysvtGhdrVfQ1+oWvs6P6msJQLYdevBz1HTNJtG6lrrn+ja+wS04+9lQ/9i4NXeEjvRTvcae/6Eq2DsBcKyF7vsNM4D71kWfjS/eeHg3r9phV6qhzh2cR9qyevPhpcQtqkLafR9uvLR+nbr9TY+6YxlcG1HwYb76WJFdtPqWUjubdDHXj/wBHkkz9izxyaZdma+5ieNcucTpWWnhnP52KOX5yMDv2r3bHda/TFWKqy3GuslSDkT2yrlpXg/XG5q93VWkNQ6DmbBqfT1501MeoivVsqKN3/GMavixVEU/73NHIfgx4J/BZVuz5cTHpZDnqjuHTHF/vho6obLbd19VOI7MuVaLiz+TUtkC7S0v4oe/unM+2XewapPwvFkaw/fTPh/YsUC0t7gj60WGWLTPtQRljk3R5SM/NNeMLrekA/dDtxp+7dBk2u51FAT8wHsmx967CpvFf2q1pafZNf7U3xzHdDSxRUN2p+vfJkfGT/IWsEJ6rXezsd8UtPRmdZ9y4PijZ9U7l8Ae7ENHHeNO2HTNTL/Wn6eq7NJGT+vPTMYz7fMI+a/dnAdwo7v3Ix7f7mPpqx7CYrfp3VdNcAPmY5xLJj5cwWrtriPUj7V+1usFRqe70Nrt1slu91rZRBSUdLTmaeeU9mRtAySfksTwXWta7WjKs1WPSdaZsL1T4Ol9p45pNNbp0FfLk+VTXmxvgAHoHTRTOz9Yj+xdN6s8MPf8A01K0UVisurGEZMlkvUbA3621TYT9xKzI4aNqqbgE2Ur9ebx67uLK6ogbEbH+U5qigt+cFlJTQc5bPVO5BzPaOmC1mGNe9+KeuvFO3hvWv6u7aVltmntLB/LR2Ctt0dWXRg9HTy5Dy93qGODW9AM4Ljp03ZlkmqpKSXe1wNq2rFgk7Fo33Ixy1xsDudtoKh+qdvNT2WlgPLJWy2qWSlB+U8YfGfscuvoqqCcgRTRyO/VY4E/ctgOjfGC1vQHGrNu7BemE9H2Ountzmj48somDj8uYLsKbjx4Vt8ZBHudttJbquSItluF+05BcGx/2LJ6fzJh8ncrfsW91nJh8SrX0NTq2PZ8OziawOx9ftTstntPwucFO+jaYaF11T6crJyTHR2XU/lVEh+dJW+Y4d+wY1cN1v4Peo6aF8+jNyrZcy52Y6TUFtfScrfQGeB0gcfn5QXqO0KeU9YvzRjlgWrs6M16dlfVZA7gcA+/W3gqJqnb6rv1FE7lFXpqojuIk+bYmkTY+uNdC3igq9O3Wa13ajqbRc4XcktDcYH007HfAxyAOB+xb0Lq7FrCSZpzpsh2o6Hr/AAVTqOvUIOyymEDCnZPVMIAFVFftQEwnxQJ3QDuiqgQDuUREARPVEACeqeqIUJ6ImEACInZAEREIEyieqgCeidkVAREQo9UHdEQg9UCYTCAY6oiIABlEyihQVMqqBUFKJjP2KICqKqKAKop3QFQKK+qAKKqd0AVRPVUBET4oB9YREQBPVE9UARE7oBhMIqhCJ8UVQEREQBVMdMrku3u2WsN2rj7DonS121XO17Y5DaqR0sUJPbzJekcY+b3ALzKSitZPQ9xjKb0ijjOUxhpPoOpPwWcG1fhM7n6rdBU63vln0HROGX0sB/KdeCD2LWFsLcj1Ej8fBd/u4bOD/hEMc+4N2t191BDh4Zq2s/KNU4OHQtt0TeUt+B8k4/WXOntCmL3Ye8/I34YNklrP3V5msHQ23mqt0K11Jo7TF41ZUMIbI2zUMlS2LJA997RyMHUdXEBZSbb+FZvRrCSOXUjrHoOiLsPbX1ft1WG4+k2KnzGfqdK0rvLXHi16T0pbRZ9rduKmrpqeN0NPPd3x2yjhx9Ex08Qe9zP7E+UfqXRNs8VTe+m11De692nrhYwOWXTENv8AZqZzfVzJy58zX47Euc34sKwuzNtWsIKK8+ZnjXiVPSUtWZEW/wANrYLZG3Ut03e3FqLk0hzXC7XSGx0E5x2axjhKSB6ecfqX5Q8YPCBw7NiG2mh4r/c4GvjjrtP2AMkDh6Prqvke4H9Zrn/avr2rWfDD4jkMVv1Da26V3MfGGRCocyivAIb/ANrVLcsqmNy7DHc2ACTG1Yo8SHhz7lbFMqbvY437h6Rjy51da6ciupWdMmelGSQMn34i4YaXODAtGpRunuZc5KXhyRu2OVUd7HgmjsDX3i87i3xskWj9GWDSkL2lpmuc8tzqAfRzeXyo2n5EOH1rG3XvF3vVuaws1BuZf5Kd7Cx9JbZ222B7T+i6OmbGHj+FldQRyMmjD43tew9nNOQv0XbrxKKuzFHGsyrp8HI/JtLC2Qy+UwyuOTI5vM4n4lx6lfr1z16rwmmjgAMsjIs9udwGV2Jt3w87o7tGB2kNv9QXumn/AHuubROgo3f/AJmbki9f1lsylGC1k9DAoTsfBanX2FAs1dAeE7u/qY002pLrpzRdI/pLDJO+41kX+9xBsR+yZd7Wjwq9o9urU277k7kXatp6Y8008lVT2WgLf1X/AEngfPzQtCe0MeL0UtX5G3DBuktWtPU1ZyPbCznkc2Nn6zzgfeV9bS2l73rqtNHpex3XUtWP6xZaCatf90TXLZ3+7XgL2Bknitlv0tqS5RjzGtoqGbUkrnA9OSokEsbT/vjV62ovF90NZ6SKDRu2mobiyP3GxXOaltcLWjty8jpjj+KFi65dZ8Kp/XgZup1Q+LYYY6U4EN/9ZU7Kii2vulFA44L7zU01uLc+pZNKJMfUxdwae8JPeG6eTLdb/o6xRvGXx+1VNZMz62thY0n6nr6OqfF43PudS/8Ac9o3SdipHNIDa51TcZm/PnDoW/e0rprVXiAcQOr2TQz7j1VrpZTnybJQUtFyfwZGxmUfy1P9fPwih/o4eLZlhpXwdLRSztm1Zupca6k5ffgslpioXNPylmfN0/ihfQdw3cDO0VNLHqrWVp1DWU78SC7audPUtI7g09JIwenby1rT1ZrHUOvqkVOqdRXjVFQBgS3u4z1jgPl5r3YXxYoo6fPkxsiB7+W0Nz9yvVMifxLn9OA63TD4dZtNpOJbgW2zgjk0zpey3Sqp+kb7ZoySWoH1T1ELc/Xzr9rx4vW3Nstwj01t5qyrMY5Y4awUdBEB6AFs0hA/irVdknqST9agVWzaX2239Ty9oWftSRsJv/jF6orIcWHay02yb9e53yWrH8lkMf8AhLgV38WLe+4Qujprdom1cx6SU1rqZXj+6VJaf5Kwz7KrNHAxo/sMTzb336GwTgu4/tzNb8SVi05uRqqC7ae1FFNbqaAUNNRxUtaQJIHgsYHuLjG6ENLsEyt9QFwjxEK3c3aHiKu9FTbhazi0jqSBl5tlJHqCtZTwBx5J6drWvDAGStLgwD3WSxhYdW6511luNHc7VVPobpQTx1lHVRnDoZ43h8bwfQhzWlbPeOS30fFTwQ6L3psdO11dZI4rvLDCHSOhp5gIbhAMDr5UrWuc49AKZxWnbVDHyITUVuy4fXuNyqyeRRKLl7yNYFzrKq8yGS41lXcXk5LqyqlnJ/luK9IUNI3BFLTg/HyW/wDMv3x93yTK7WiONvy8TxZDHH9GNjf4LAF+nO7H0j96idfmvR5115gucf0j96dfj+Koac/RP3Kcr/1XfchCdSfVFeR36p+5ORw/RP3INSFOivIR6FUMd+qfuQak7qYGF5eU/wDUd9ynlu/Vd9yA/OacU0MkxGfLaX4+OB2W0/iqpn8OHhmaU2/LZKK63antlgqWsf1ZPJmqreo/Rd5VQ3+PhYEcK+3A3Z4j9udKyxMlpKq7x1VXFMPdkpqYGpmaf4TIS3+Oss/GF12K7X23Oi43SD8nW6pvc4DvceZ5BBD0+LRBP/LXIyv1cmqrw4s7GL+nRO3x4GvnnJdnJBPzUc9xGC4kfAlTsgXXOOfi+kp5Tl9PC8/F0TT/AJFaemipJRJTsNNIOz4HGMj7WkL9lP2qaI978u5nMLLvHuHpmIR2fcPV9ojHQModQ1kTcfUJMLsDT3G/v7peHkoN1b7IB2NzZTV5++eF5/FdIKBYZUVS5xRkjfbHlJmVunPE83/sDw+rvti1GP1brZI2A/Wad0S7K014wevqIj90O32mru3HX8mV1RQE/wAtsywI6osEsLHlzgjPHMvj+7U2g6W8YnTNY8jU22F9tcY/Ss9xprhn7JPIX0mcZPBtujNLV6y0VQ2+slzzzan0O2pmcf7ZBHN1+fN6rVZnHqmVrvZlH7NV9TOtoW/uSZtOZtNwDboRSVFsvulbHUz45X02qJ7TK0n9WCWZjR9XIvxufhL7W6utftmiNy9QQtkJLKiaSjulNj4DkjjcR/HWrZ7RKOV7RIPg8ZH4qUsTKGojqKQeyVDDlk1K4wvafiHMwQp1K2Hw7n9eJeuVS7daNgGq/B51tQxA6a3H09eX/q3e2z2/++jfPn7l1Bqzw1uIDTNRI2m0jQ6lgYMmpsl5p3NP1MnMLz9XKur9KcUW8WiZYXWXdLVtOyEBsdPU3V9ZA0DsBFUeYzH2LvvZ/wARLiZv2rbXpe0/kXce/wB3nFNR0VyszYnud3c4vpnwhrWtBc57hytaCT0CjWdUtd5NLxPcXiWvTdaZ0Xb+FLem5ahprLFtPrCKuqJxTskq7RNBStcTjmfUkeUxg9Xl2Fsc2p2W2t8Nna2o1/uDdae7a8qITFLXQx88skhGRQW2J2DgnoXnBd1fIWMHKzv/AHO4gbTw27Q2/Uu7FyoRe3QsilotPQvPt9Zy5fFRxSP53NBz1e4AAczi3PTF7UvG1wjcS0UVLubpmtpBTtdHT1OqLE5z4muILhHUUjpXRAkDJDm9uq5s8i/LXGL3O/TvN+uinGfuv3n4mBHElxMau4ndduv+pZTRWymLm2jT9PKX01siPoDgeZK4Ac8pALj0Aa0NaOpgVtGi4BeFzfYPm2t3BkoKjyuZlFp7UMNzijz6yQVHmSt+rmb9i6s1x4QW4NrkDtJ6607qOENJc27U89smPTo1pZ57HH5nlC6dWdjQSh2fVHNuw75yc9d4wMQdF3frfgh3328BfdNsb1WwcxAnsPl3RpAP0uWnc6Ro/hMBXSdxgls1wloLjFLba6I8slLXRup5WH4FkgDh9y6ULa7FrCSZoSqsh2os/GWGOoGJmMmH+yNDv2rnO3m924e0xgbo3XWodOU8L/MbQ0VweaQu+dO8uid9rCuFYLcZBGfiphepQjNaSWp4jZKHZehmXt/4rW82lxBDqGl07rama/MstXRuoKt4+AkgPlj6/JK75tXiebKbv0FNaN2ds6ujp3yZc2uoKe/W6H+zPQSfdCVq7VC0J7Px58UtH5G7DOuj2nr6m1Cg4Y+DLifcBt/qCksd3qHOeKbTF4dR1bsdT/UFSHBrR8REPrXVu5vhCavtZkqdBa3tmoYMucKC/wBO6gqGtx7rWzRh7HuPbJZGFr+mhjqMeaxshHYvGSPqPp9i7e2z4ut5toGRQ6a3Du7LfG1sbbbdXi5UjWD9BsdQH+WP7WWlYerZNXwbNV4MzrJx7fiw09D426HDxudssJX630LebDRxcvPcTB7TQjmPQe1Ql8QJ+BcD8l11G9srOeNwew/pNOR962L7Y+MDdKZ8NPuNt7BWxEkS3LSlSY3tb6YpagkOPx/PD6l2fDFwU8X8g5Y7DYNVVPXlw7Tt186QZJwPLbUv/urc/FOuX1cL6/qg8Sm34M/ozU2EWxjdTwgLlSCaq2215HXxgt8u1arg8t/Ljr/VcDcE57Awj5u9Vhduzw67mbFuc7XOi7pYqEEN/KfIKmgJJPKPaYi6ME4+i4td8luVZlN3ZlxNOzEuq5o64CqgcHtDmkOaeoc05B+oq4ytw0yBERCj0TGEwiAeqYwgQIAnqiBAE9UHdPtQBO6YQICKoiAd0RFAETKKgBERAAiIgACfNFFAVE9UVAUVRAT5oqFFAFUT0VARAiAiqZRARVFMYQFCIiAndFUQD0REQBX1UQIQoUVTKAiJ6J6oUIiYQg/BCvdsdkuep73TWayWytvV4qiRT2620z6ipmIGTyxsBcegJzjHRZw7EeFBrLWPs903Qu7dD2l2HGz218dTc5B1yHydYYPQjHmnuCGla12RVQtbHobNWPZd2EYJwRSVNXT0sMb56upe2KCnhYXyzPJwGsYAS4k9MALKjZnw1d5N2DT1l2t0G3Vklw41WogfbCzJBLKNh5w4Y7SuiWU1x4i+Frgbpau07Y2Km1jrNrTHPLZXiqmc8tHSpuchcGtJb1ZGX8pz+bCxF3k8Q7erd+eeCDUR0LZHuyy2aWc6nkDQSW89Wfzzjg4PIY2n9VaPT5OR8GO6vF/4N7oaMf4stX4Iy4ouEbhX4RqakuW7uqaPVF/Y1kzYtSzhzXkHBdBa4cmRhz2e2XHxXx9d+LPo/R9vbZNqNup62jpmOgp6m5llroYQOjDFTxh73M/sSIj9S1lPcZaqaqkc6WqncZJqiVxfLI4nJLnnJcSeuSUVWBGT3r5OT/B4ec4rSmKSO/t1ePLfHd3zYa/Wk+nLZI7m/JmlGG3RDoQWmVpM7mnPUOkI+Sx+jibG972tHPIS57+7nk9y53cn5lXupI9sLOeR7Y2frPIA+8ro11QqWkFoaU7bLX7z1PJF2btfwybr70Mim0boK8XahlbzMuc8Yo6FwzgltROWMfj4MLj8llvtp4QeqrnKyo19ru22OmDmudQ6dp3Vkz2/pNM8wYyNw7dI3hYbcuintyMteLdbyia+ZWs8vMmA1pDuYnHKR2IPofms+eBrjH37nudDp0aUv+9OjvNFO+vjiJq7d1z/AJvkLYXgDJ5J3g9gJGgYXZbNK8D/AAqvDrpXWvcDU1OyRhZWynUVY54PVpgjBp4XgjALmR/WuObjeL0ylpfyfthtz5ETGNbBXapnbGyIDpyikpicjA6fnW/UuZdZLLW7CrVeL4HRprWK96dn0RkXxLeHrt1xDGe9UMP7gtbzO8x97tdO1zKhxOXe1U4c1kxOXe+C1+ce+QMHqOx+F7sztJZmX7dfcGuutHTv5Zpq2tisVsPN0aHcrvMB+H57qsOq3xCOIOt1G28jcOWlkYT5dBTW2lbRNaTnkMRjcXD05nOLh+ssr9nfEL264h9PnbviI03Zrf7biJt0qIuaz1L8kNL+cl1HKA4ESFxaCC4SMOAtaVGbjw03tY9+nM2I24t8+S3vM+lBxQ8F3DfJE3QWlaPUF2pHmNtXpuxe1VLD8fbqrl5x82yuXXmvfGE1PXc0eiNurZaWh5Aq9R10lY57Pj5EHlhp/wB9cuH8Vfhs6j209r1btZ7RrXRD2+0OtsbvPuVvjIzlmP8ANUI6YLcyAEZDwC9YTRvbNG2Rjg9jhkOB6FbmPi4t639XJ+bNXIyL6Xu6aI7519x1b87jBzK/ce5WmkLy9tLpxjLW1mf0fMiAlI+TpCujbxW1OobjJcLvVVF3uEnV9XcZ31Mzj83yFx/Ffki60Kq61pCKRy5XWT7UmOYnpnI+Cdk7lfnNURUxAllZET2D3AH7u6yGJLXgj9EyubaN2M3J3EZTy6Y291TfaWoPLHWUlom9mP1zva2MD5ly720j4YO/uqHkV1jsmkmgZD75eY3F31NpWz9frIWCeRVX2pJGxDGtn2YmKfZAtiWk/B1vdQyF+pt0qKikBHm01lsrpwR8ppZW4P8Ava5pLwO8JOytTINw9xDcayOLmkoNRaqhoyfm2Cm8qQ/Ie99q1JbRoXCOrfkjYWBbzlojVzI5sIzI5sY+LyB+1fnT1EdbO2Cmd7VO84bFTNMr3H5NaCStoEW/PAftVRBmnNH2nU08Tunsek5a6cEeoqKyMA/Xzledw8WvbvStC2m0TtVfZIm9BBVOorZEPsidKf71eeuXS+HS/rwMnVKo/EsRr+sfD5upqZsUlp2w1ncIJMck8VgqWxO/jvY1v4rtSw+HJxCX0xF2gWWiB4B8+6XmjiDfrYyR7x/JXdGq/GD13XYOmtutOWXoM/le4VFwP3RtgH4rqjUviYcQl/qfNo9WW3TcR709psdOWj7ajznfiop5s+UUvUOGHDnJs5nZ/CS3krvKfXag0Tao3d2+2VdTI35YbA1p/lLPnhb4XavY7Y27baaq1HBre0XGeqf5IoHU0UFPUsAmpgHSPLmFxkfk46yu6LUXf+Lne3U0nmV27Oroz8KC4mib90DWBc44R+JjVuleKHQl11XrPUN8tFfWfkevF3vM9RH5dSPKY93mvLQ2OUwvJ+DStbIxsq2vWclw46JGei/GhPdinxMsavwttjtIlzNR7qakt7IwAxtRdbdSFjfQOL4Mk49enxXzBwb8GFqPLV71087x3FVr6hYf73lXU3iz7Ow6W34suuoqWJ9Hq+3eVO97Q8itpAGO7jDQ6B8GB6mJ6wjZTwsPuQxM/gxtH+Resem2+pT6V8SX2102OLrRs5PD9wI2dxfVbi2iuazry/u8fJkf71ICfsXjLorw8IBiS7WWXI6/9Ut3f+yYrWd5jm9nEfUU53frO+9Z+oy77ZGDryXKtGymbT/hzU5y6qtb/qud7l/ZIV4Gu8Oi3kEQ2ycj0FHe5/8AIVrZL3Z+k771OY5+kfvXrqP/ALZfcnXtf9tGyuPW3h508nMyy22QDr109d3D++jwV9SDfHgFom4h0jYJm98v0NUy/i+BawPtReXs6L52S+5VntcoI2iP324DJm4fo3TYHy2+nb+ynX4/0W/D/kcS7TNgjz+toquA/CBawMBF59mwX739z17Rl8qNnk+5Ph6VBzJZLAz48ukLmz9lOF+Mmu/Dtccvtlhbn1/czdmj/kFrIwqSfins2Hzy+5faLf7EbruE2ycLuqNT3fU2xtptDr3Z4G0dZV0lDVU76eOoJLRyztb9LyXDmaM4aRkAkHiHEQzg01nu3dTurdbNJrmgjit1Y2ou1fTPiDG87GYie1mQJO465OCcjA4R4PGlfZNvNytUc/8Anje6e14PwpaYSZH21bvuWtrcfWJ3D3H1fqtnOxl+vVddGNJPRk1Q97B9jC0fYtCrF6TJnGM2lHv14m7bk9HRCbiuPcbG37M8Ad8Y1tFqywWtzhkPj1rVQkfZLOQPtC+fBwOcIN/n/wCle98znO7RUWtrbN9wdG4rWkSXDqc/X1X5up4ZPpwxP/hRg/tXSWFZHlazndcg+1Wjan/0JzaK8wc9h3I1VJzAFrzVW+rb/e07c/euNXLwbYXv5rfu/Uws9G1enY5jj62TxrWd+TaTP+ZIAflGB+xfYsupbzptwdZr1dbS8HIdQXGeAg/LkeFFi5Uezd90XrOM+dRnDqPwgNxqSUiw670rdYx63GnqqFx/kCYLrTU3hjcQGn5eSi07Z9Tt9ZLNfIWgfZUiErqeycUe89glZJR7ta0HKctbVXqWqZ/JmLxj7F2fpvxKOITT87H1OsLfqGFmPzF3slMWkfAugETvtzlN3OjylF+pd/ClzTR1lqPhW3n0pUyQXLanWDDH9OWjtMlbEPn5lP5jT9hXWF1pp7FVPpbpT1FrqmHDobhA+neD82yAFZ76T8YHXdET+6XbzTl6z/8AZFfUW4/dI2cfiuzbD4vmh7pTGHVm2eoqJrxhzLdPSXFjvr53RE/cp0+ZDtVa+jL0GLLs2aGrWGWOc/mpGTH4RvDv2LzILT1BH1raezio4I9yaaSbVGjLPZ6mccpN80OTP1/2anhkA+sPC8oNi+A3cWiM1m1Bpe0T1Awx1Hq+agmYT8IJZwGn5Fn2J7QceE6pIdRT4xmjVdhFtCvPhIbe6ptsdVoXdC+0schJE9a2ku0Dh8GmNsR/vyusdUeD/uHRy/8AU9r/AEveIR3fdaOpt7vuZ5w/FZI7Rx5cHLT1MLwLlxXEwe0vpe8631HbdPaetdRer7c5hT0dBSN5pJpD1wPQAAEucSGtaCSQAStqW0212gvDP2VuG4Gvqmnuu4V1hbTSezYMkrz7zLdRA9eTmGXv6c3Lzuw1jWt5Zw6cLti4GdqL3ri82ys1zuF7Jz18unqCStqOTI5aOgiDefk5i3meQ3mPvvLWNAZq94mt/wDV2/e6dVfNcNlstTT81Pb9O1AfCy1QE58prZA0l5wC+QgF5x0DQ1rdSVj2hZ0cXpBc/M3I1rChvtazf4PR303y1TxD7g1er9W1IfVSAw0lDC4+z2+nzlsEQPp6l3d5yT6AdfDII64+pAMgEdQfUdkXbhCNcVGK0RxpzlZJylzPykpoZX874mOk9H8vvD6ndwu2tB8Vu8u2bo/3Obm6jpoYo/KjpK6r/KNMxvwbDVCRjf4oC6qTKkq4TWklqeo2zh2WZr6E8WTdzTvs0OpbJprWFLH++yiGW21kv++RufGPsiXdFr8U3aLc+3R2rdHa2409NM/ldFJTU18oWD9Z/NyP+6IlawFFpS2fjy4qOj8jbjnXJaN6m1EbPcDnE3I9ulL1ZdN3yrlDI22K4vslWX/COhnDWH7ISuvdzfCB1BSPlqNvtfUNzhLiW0Gp6Z1NIxo9PaIA5rz9cTR81rvljZOzllYyVv6sjQ4fiuw9teITc/Z0QN0Xry+2Gkh5jHb2VRqKFpPf+pZueL+9Cw9VyKvg2/RmbrVFvxYaeh97czhD3n2ibLNqTbu8NoIw57rlamC5UrWNP03Ppy4xj+2NafkunYp46gExSNlA78rgSPrHos9ds/F115YhFT670faNWQANZ7baZnW2r7+897HeZE8/Jvlj6l3BU8SvBtxWSBm4FkpNO3yoe2MVOqbcbfVHA6EXGncWtb1/Smb27J1nJp+NXqvFDq1Fvwp6epquUWyfWvhQaX1lafy9s5ucJaCeN0lLT3gx3GjmJJIDKyDlc1gGBktlPTuVidutwO72bOMqKi76IqrxaonEflXTTvylTloGS9zGDzo2AfpPjaPmtmvNot4KWj8HwNazDur46aryOicqSMbM0ska2Rn6rxzD7ivGKVk4Jje2QDoeU5x9fwXmt00+KZ2dtZxN7rbKugj0dry8WyghbystVRN7ZQBuckCnm5mMz8WBp+BWZe0/i+VjGx0W6Gg46uF2RJdNJyYOMAAGknd1z1yWy/U1a7KCkqLlcaW30VPNW19XIIaejpYnSzTvJwGxxtBc4k+gBWWuyPhi7tbqCCv1MyDbWxyAOD7vH59xe0joW0jHDk69CJnscM55SuZlVYmm9dov5OljW5LelfFeZk3NsVwhcaPmVOhbvRaU1ZMOZ8On5Ba6zmDf65b5Whj25cOZ7Y8uI6PWNm8/hdbt7cedWaVfR7l2eMFx/JwFJcGtDckuppHcr+vQCORzj+qOyycotAcJnAHLFX6guVPqXcGkxLC64ubdLw2QDnZ5NLGOSl6j3ZC1nfBkK6z1V4w97fqyB+mNt6IaWhkPmxXq4ubX1cfoWuiDo4HfI+b9a5lM8lS/02rj/wCR0bY0Nfr6J+Rr2u1rrtP3aptV1oau03WldyVFvuFO+nqIXfB8bwHN+0L1ey21Wzin4XuNW2Uth3LtFHYb1yhkMOrGtpnxu6Od7LcY3ANy7AAEkbnfqei6b338Je/2XzrptHfm6lt4aXtsF/mbDWN6DDYakARyZJOBKI8ADL3FdKvPinuXrcfnyOfPBbW9S95GvlOy+rqnS170LqKosOpbPX6evdP++W66U7oJ2j0cGuHvNPcOblpHYlfKXUTTWqOZKLi9GgqConqqeQndECFHqiKZQF9UREIEKIhQieqIAiIhAieqZUKECeiFUBMonqoAiY+aKgd1FUQBP/nCeiIBlMJ+1PVQhFURUoREQBAiIAieqIQIiIUYREwhB3KZREARO6IUIo5waBk/SIaAASST2AA6k/ILNThs8MTXO7Ipr3uHJU7d6Xd7woXxg3iqbkdo3AtpgRze9IHPBH73ggrXuvrojvWPQz1UTuekEYeac05d9YXylsdgtVbfb1V59nt1tp3z1EuBkkMaCcAAkk9AASSs7tjPCivt1p23veLUDNI2qNplksdonjlqw0Zz59UcxRAYBPl8+QT77SF2xqbio4euBKyVejtpdPU2q9VNPl1rbTMHNdK09664uDi9w5n+43zC05byxghYD788V+5vEhO9usb+W2QuD4tOWoOprbGQQQXR5LpiCMh0rnkZOMDouf0mTlfDW5HxfM6HR4+L8R70vAzzvXGVw3cHNmqtObM6apNV3ce5O7T7x7PI4HI9pucnO6b6bschmI6j3VhDv5xnbq8RQmo9RX38labkyP3N2EupqJzenSU5Mk/YHEji0HqGtXRgADQAMNAwAB0CLYpwqqnvP3peLNa3MssW7HgvIjWhjA1rQ1rRgNaMAfUFcJhci0Dt1qndbUTbDo3T1w1PdyAXUtuh5/KaTgPlf0ZEzJA5pC1vXut5yUVq+CNOMZTekeJx39q+hYLBdNV3ymstitVdfL1VZ8i22ymfU1MuBklsbASQACSewAzlbANlPCfnZSs1BvRqqKy2+FntE1isU7Q6NgAcfaK145WAYcHCNvbqJVz/AFBxwcO3CNZ6nS+y2lKTVFewhk7tPkQ0Ujmnoai4vDnVDgHHDm+d6jmC5k85Se5jx3n+PudKGFot6+W6jo7ZfwpNyNcMgr9eXWj29tjsO9iY1tfcnDI6FrXeVFlpPUveQe7F3jHT8GXBLN5j5qPWuuaPI5nOF+uwlY/9UfmKWQHpnEPQd+iwi3z40t2+IE1NLf8AUslo07KC06d09zUdGWEYLZSHeZODgHEji3OcNHZdFxxthYGRsbGwfoMGB9wXnq19/HInovBHrrNFPCmOvmzYDux4uurb359Jt1o2g05SkuY25ahkNbVFp+i9sEZbHG4d8OfKO3RYibncQ25u9AkZrbXV6v8ASS4Lre+o9moiR2Ps0IZFn5lpK679EwtyrEpp7ETUsyrbeciRsbEwMja2Nn6rAAPuCqIts1AEB+74L9KaCSsrqaipopaquqntigpYIzJNM8nAaxjQXOJJ7AFZIbU+Hdvluo2OoOmI9F2x4LhW6tlNG7ocYFO1rp89yOZjAfisNltdS1nLQzV02W9hH78JHHdq/hjnprFXMn1Xt0ZPfskkg9ooA4+8+je7t197yXYY45wWFxcst92OEvafjw0U7dPZa8UNj1XUvkNQ9sZipaqpxzPhr4GjmhnBcCZGjmIeHEStcwr52mPCx2r2ytIvu7e41VcKOmeHzHz4rHbQMdWSPc50pHfqJWZ+AXv0/G5wucKVorbLtBpuS+1E/Sf9zlI5kU0jObk8+uqSDKBzOw5plwCcd18/bZG2zfw097yXB+p3qoyhDdyWtPyYR2DgY38v+p66wwbY3SkqqF3LUVdwlipqEdcc0dS93JMPX81znHosj9DeD7q+vDJNY7h2eyDmBNPYqGSueW+o8yUxBp+fI5ZM7DcZ1n4yNKXzS1iu9VtHuY2Ivpov6nuEjWNIIng86Py6hvTlewsDgCccuWvWBPGXLxG7W61ksO5u4eob1Z7iHfk6422rfRWu6RDGR5EHlsZI3I5onAkdwXNIcc0b8q6zoXJQa+/+DDKnHqh0ijvIytm4HeEvYp0n9EfWbbjVtj8002qtUMpHHAySynpzCXfwcOzn1X403Gnwh7FPgdt1ott0q428gq9L6XZTyDA/TqKkROd9YLlquip4YXF0cMbHerg0An7e6/QnPrlbPUN/4tjka3XlHhXBI2Las8Yq7TMnh0vtdS0j8/mau93l0ox8XQwxDH2Sfauj9Y+Jlv8AasmcaPUdq0nA8cpgsNoi6/x6jznA/MELFlPRbEMHHhyh9+Jglm3y/docy1fvTuJuFDLBqfX+qL/TSOLnUtfeKh8GflEHBg+xq4TFTQQHMUEUZ+LGBp+9foOqi3IwjHgloajnKXNnlknuSfrUKBPVezGPVFcIQe+DhAReMsXnQvjyW87S0OHofQ/Yeq8X1dPGcPqIWH4OkaP8q+vp/S971bMIbFY7tfJnfRjtlunqXH6hGwry2kuLMkYz5pGz/iBqXcYfhrWnX0LfatSWKlhv1Qxgawiqo+eC4tI9G8ntLw31wz5LVb0d1aeYHqCPULaH4Wts13pa26+291zoTUln01Xhl2oZb7ZZqame948irhL5WgOL2iFwZjsJD9eNWo/DI3xtesrxa7DpenuGnKatlgt14q71SQ+00oefJkczmL2u5OXmBb3B7riYt1ePOdUpJJPVfU6+VTO6MLIxeveYoeiqzJovCg3xrADJW6JoMj6FReKhxH8ilIyvcb4R+9jiP+qHQDR/tnWk/wCJrf69jfOjS6lkP9phUmVm3F4RW8rnDzdT6DjHqWVVa8j7PZguT27we9ZSEe37l2Kl+Ps1nqJsfypWLy8/GX7yrCv8DX8otjA8HC6ADO79K0+uNLPOP/TF5Dwbbg49d5IB8hpNx/8AbF49o43zfhntbPv8DXKn4LY7/wBBrrR33li+zSTv/jUd4NtaMcu8cJPz0m7/AOMT2ljfN+GPZ9/h+TXEgGSB8VsVl8HG8Any926F3w5tMyD/ANrK9Kr8HbVbI3ey7oWaV4Hu+bY54+v2Tux9yvtHG+Y89RvXcdi8Nt1j2d8KnUmrqeZ9BX19uvlxjnHRzaqSaampnD5+5Bj7FqwiiEETIh2jaGfcMLdhu5wp6hvXBHa9j9IXGzx3GmorXQz110fLBTzezzRTTSDkZI4GR8ROMH6R6rCZ/hI72NORftBPB/Vula39tGtDDyqYOcpy0bf4N/Lx7bFGNceCRhWphZcX7wt9+bQCaSi0xfHfqW+98pP92hjH4rhNz4AOIe0QmWfa6ulYPWjuVBUE/U1lQXfgutHLolymvuct4t8ecTH5T1XY144cN3LCZfb9q9bUzIvpzfufqZYh/Hja5v4rr25QTWWpdT3KCa21DDh0VdA+B4PzD2grPGyEuyzC6rFziz88ovyjqqeV3LHPDI4/otkaT+1fsWkdwR9YXtPU8NNcGRAEVVPJOoOVJGNmGJGiRvweM/tVQIXXQtvq36drWXK3VE1prKc87KugmfTyxn4h0ZBB+pbbOFHTeqeGbZe87xb+7g6rc6ajD4NPXy8VNU2307i0sa6CR5Bq5SGNDPpMBDOji8Dorw5eEejvAZvpuIKei0lZi+qsdPXkMimfFkvuEznYa2GItPJnu5rnnAYzm6a43eL2v4odeimtVRPTbc2Wd35HoiDGKyTBaa6Vp6lzgSI2uHuMd2DnvzxL/wDWW9BWuC5v+yO3Vri19LY+L5I7Suvi6bqSakrqm06X0nBYJJ80tvuMFTJUxQ+jXzMmaC/HUkMwCegwF2VYvFh0Nragda9z9pKp1ukDQ4UElPd4JD6l0M7YiB8hzla0PVVbL2fjtaKOnoaazrk+L1NpUOkOBTiSfI21Vlh0he5mtjayiqZdN1Ebz2EdPJ5cMjvTox4XGdwfB75mVFToLcqQDANPQanoGyB38Kppy3H1+SVraka2VnJI1sjP1XjmH3Fc3233u3C2dfEdE62vmmYI5DIKKjrHOo3O+LqaTmid9rFi6pfX8G1+j4mdZdNnxYfY7Q3K8P3ffbEVE1RoiTU1vhIaa7SlQ2va/I9IPdnwP7UsfK6mmtdynttdBNQXGBxZLRVcToZ43DuHRvAcD9YWbW2ni07o6WEMGs9P2TXVLGCHTw81rrXn0JcwPiOPgI25+KyHpOPbhk4jrdBZ9z9PstDyOSKLWdnZVUzJHjDjFUx+YI8Z+m4xkd+i89Yy6fi16rxR66vjXfDno/M1NYRbWNWeGBstu9aBftp9ZVOnaWowIJrXWsvdqOD72GveXk/wZgB8Fiduv4au9u2TZ6ugs9Hry1xBzzPpqfmqGsHbmpZeV5cf1YjItirPosemuj8zXswbocUtV5GK/dAvYuNDVWa61NruNLUW66UrzHPQVsLoKiF47tfG8BzSPmF666CafFGg01wYVBI7E5QIqQ+3onW+pNtbo+5aQ1BddK3CQAPnstbJSukAOcPDCA8Z9HAhZcbT+K1uvot0NNrK22vcS3NzzSuYLbcDntiWJpiOPgYgT6uHdYdWez3HUV4pbRZ7dWXi71bi2mt1up31FTOQCSGRsBc7ABPQdMLOPh88KrVerfZ73uzcv3FWMDzDZKCVktylbg/vsvWOnH0T08x2Mg8h6rm5fVUtb0v7nRxXkt/p8vwZG6NuHDF4i0dc2bS8MGtaSH2msgqYDbr1A0+4JfPgd+ejBI/Te0ZbzNBIC4BUeDlYH6tZNDuheI9KB4Lrc+1wOryz1aKvIYDn9IwE/Wvc1rxx7FcImnZ9E7F6WodTXCE8sklpfyW1soGOeorTzPqngEfQ8wkAtMjSFioPEs4gG60F/wD3VW91MHlw0+60Rfk3k/0vH7/j+y87n/svRcmmnLerobjHu1OpZZjLRXaOXkZlbj7n7H+GhSUtj0pttX3HWNypnPiqTA9j6xo5OYzXOdpy0kAmOHnDD+gzIWEm9PiCb0bzunpnajOi7DIcC1aW5qUluTjzKnPnPJacOAcxhx9ELL/b7xBNmOJrTsWid99K27T09QQ3zLqwVVmllLeTzGVBAdSv995Dn8oYO0pK4Zv14UsVbb3ak2Ov0dbSTRmpi05eavzI5GEFzRSVvXofcDWzcwOSTKF6odVM9MqPveL4o8XdJbDXHlw8Ea4mRtjLy1oBceZx9XH4k9yfmV5AL7OsdHX/AG71PV6c1TZqzT19pD+et9wiMcgGSA9vo9hx0e0lrh1BK+OF9JFprWPI+fkpJ6S5ni5oewtcA9ru7XDIP2LurYjjC3V4dXQU+ltRvrNPx9P3OXzmqrfy+90jbkPg6uJ/NOaCQOYOHRdLIvM64WLdmtUWFk63rB6G1fSfGpw/cY9jptG7z6ZotMXWXLYWX94dReYc9aW4N5XQPIaPpeU73g0F66a4jvCw1PouOovu01dNrWxtaZXWKtkY25wtwD+Zk91lSPpHlPI/GAPMJWBrmh7S1wBaehBGQfsXfXDnxrbl8NclLQ2e5fl/SEbhz6XvMjn0zWE5cKeTq+nd1djlyzLiTG5ct4lmO97Flw8HyOpHKrvW7kR+p0XW0VTbK+qoa2mnoa6kkdDUUlVE6KaCRpw5j2OAcxwPcEAr8ltXo79w5eJfboqO608mjN1YoA2NpkZT3ZmAHHyZceXWwjld7rg4tbzHkjLgVhLxMcFG4XDFUzVt1phqLRnNiLVNshd5LAThoqY8k07jlvclhLgA8nIGenMjOXR2Ldl4P+xr3YcoLfre9E6CURF0TnhERChFVEIERXCAiFECAImU/agCKqeqABERChE9UwgCIiECIiFCmMFPVVQBERUD16IiYQDHqiBEATuiIAndEQBRXsiAvZRE7oQFAndRxDWlziGtAySTgAfMoUvZdj7GcPWu+I3U7rJoa0e1mAj226VZMVBbwexmlAOD3IjaHPIBIbgEjIPg+8OzUG+sdu1drd1Vpbb6QCengDTHcLuz9Exgj8zA4dfNPvOGOQAODx3pvvx86D4atMN2v4fbNaqyrtrTTOuNOzmtdtd+lykHNXP3LncxbzHL3vdzNXLty25dFjrel+EdOrESj0l70R29w5cG+0nCTXWSs1BerZe9yrm90NFdr5LFA90mBzRW+ne73CAepbzSHmOXcp5R87jt2P4gt66GW2bf6rs9NogwYqdORzS2+tr3EAOZJUYc2Rh973OaJhBw4PIBWozXGsL5ubqat1Fq661WpL5WOzNXXF/mPIzkMaOzGDOAxgDWjoAFzbbDib3X2a9nZo/X96tlDA3kjtdTP7bQtbnJAp5+djc/FgafgVqPAuUlbvpy8+RsrNp06Pdaj5HzNythNxdlfMZrTQ150zSwuEftktL5lDk9g2pi54T9jlwKORsrA+Nwew/pMOR94WwfbDxetR23yqTcTQlBeaYlrX3DTc5pJmsxhzjTzFzJHHvgSMHyXYMWoeBrineH3CitGhtSTse8urI3abqmuccczpoy2CZ+eoBfJ9S2OtX0/Gr+q4mHqtNvGqf3NXK+ppbS161xqClsOnLRXX+91X7xb7bA6eZ4Hd3K3s0erjhoHchbI6nwfNN3S/0tdY917m3R8wjlFPLbYKmrkiOCeSqa5sZ5gejjC7GR0cu79YUelvD02ZMm2O0151dX1PuVNRbqd9RNK5jcuqbjVNa57WAFxGGloJLWtY05Hme0q3pGlayf0LDZ8k9bXojGbYvwsBRWs6r341FBYLRSxmpqLBbaxkYijbhzjWV2eVjQA8ObF2BBEowuV7heIptPw8abdojh80dbrv7Plja6GE0lnjkA5TIXACWsfloy4YDwQfNKwY3z4o9wuJm5e0aw1B7Va4389PYLdmG20rhnBEIJL3DLvflLnjJAIHQdXZz3K9Rw53Pfypa+S5EllQpW5RHTz7zszefiS3K4gKgu1zqysutv5ueKzQYprdFgktxTsw1xbzEB8nM/Hdy6z7dPh0A+CZwi6kIRrW7BaI5k7JWPWT1CIoXBjC5zg1gGS5xwB9ZXo8D1V6AFxIAHU57Bd77BcE26/EO2nrbFYhZdNSgOGo9QB9NSPb8YW48yfODgsbyZGC8LNO08JHDHwZ0FHe95dT0erNQlokhhvzOeKQ5IzTWuLndI33gCZBLggHLVo25tVT3V70vBG/Vh2WLefBeZr62i4d9yt+ZgdCaOuF8og4sfdCBT0EZBAcDUylsZIyCWtLnY9Fm5tZ4SlJaKT8s7wa9hhpIAZJrbpt3kQMaCDmStmaHFuMghsbCPR6+Xu94tdwfA6z7RaMp7Nbo4/Iiuuo2AyMZy8o8mjidyM5cDlL3kYxlnosI90N5Nd713AVuvNW3TVD2vMkcFbNilhccAmKnYGxR9h9FoWvpmZHP3F+TY1xKOXvM2XHip4S+D2nqbbtpaqXUF6DTFK/SNP7bLID7wE1ymdyvbnGQJXlv6qxy3X8VndjWwlp9H2+07d0Di0tmhaLlcB35gZZWiIA59IsjHRywt6AADoAMADsEWSvZ9MXvT95+ZhnnWSWkFuryPr6v1ff8AcO8C7arvtz1RcwOUVd5rH1cjG5zytLyQwfJoAC+QcnqTk/NVTK6KiorRHPcpSerZ7Fur6u03GjuFvrKi3XGjlbUUtbRyuinp5WnLXxvaQWuBGQQtlvD5xb6N4ytGDZTfyko/3RV4bFb7w0CniuU4GGPjI6U9YM5AbhrySGj3vLOsr1UfG2Rpa7qD8Dj7c+hWtkY0b1x4Ncn4Gzj5MqH4p80d68V/CRqrhW1Y2C4+Zd9IV8xZaNRsjwyU4z5E4HSOcDPTs8Aub2cG9F9lsk4P+MrT+/WlnbDb/mlvEl1ibQWu73R+G3duRyU878gtq2kNMcwIMhDeolAMnTO8vhk7s6L3JntGgbLLrnSlSDPbbq+tpqeSCPPWGq8x7QJWdPfaC2QYIAPMxurTluEuhyeEl39zNq7FU0raOKfcYg+qn1d1nroPwhdf3pjZdXa3sOmGOaHeRa6aW5zN+LXFxhYD6dOYfWu7qPw6OGzZKhZctzNUz3OJ7Q0yarv8dsoy8dyxkJhz/Bc5y9T2jRHhF6vyPMMC2XGXA1MS1UMDuWSaNj/1HPHN93crsfR3DvupuA6ndp3bbVV1gn/eqttqlhpXfPz5QyPH8ZbKI+M7hD4fYiNBWe311bCfJc3RemwJXYGOY1UjYmSfwvMJPzXV2vPGJuM3tEOiNs4af3vzFdqS5lxLf7Kngb0Py85YutZNnwqvuZeq0V/EnxOmdI+F1v3qhx/KFrsOkGgj/Pq8Nkc4fJtK2Yfe4LuzSvg51cvs8upd1WxjvNSWWyD7mzTSn7zH9i6B1h4lu/8Aq2d5ptT23StPI3ldTWG0QtH1h9R5zwfmCF0dqzeXcLcBkkep9fao1BBIS51PX3iofD17gRB4YB8gMK9HnWdqaj6InSYdfZi2bKJfDu4Y9ppRUa511XuZgAx6m1TT26Ek/KJsJH8pfkKjw+9o65zOXRV2n6/1qq1IPn1xUBapW0VNG7mbTwtd8RGM/evY5nYxzHHwynUZz+Ja36cB12EOxWjafH4gvC1thVFujtvayQg5bUab0lS0LCfjmV0J/BfCvvjIW2GXksW09xrYfSS53yGkP8mOOX7srWZ3QBels2jnLV/Ux9ftXCOiNju3Hiz6m1Nuxpe1X7R+nrJpK53KGhrKhlbPJUUrJXCNsvmPDWYY5zXOy36IPbuOd+JDxL7w8POutHR6Jv1FZdNXu2TkOfbIaqZ1ZBKPMyZAQG+XNDgY9H9/TVJLGKiKSLPKJGlmfhn1Wznikf8A0znhtaH3QANTftPRUlyqpRHzSPexxorg3p2bzl0h+UIWrdjU0XVyUfdfB/2NunIsvqnHX3lxMT6vxB+ImuaWy7o1bWn/AFPaLdCfsIp8/iuJ3Pi13vu8nPUbt6wYSc4prl7OPuja1dTEYOD6dEXXWPSuUF9jkvItlzkdiScR+7830t29e/U3U1Y0f3sgXrz7/wC6dS0Nn3R1zUN+EuqK9w/GZcCT1Xvoq/lX2J01vLef3OQ1e4mr7if6r1hqSpz1/PXurf8AtkXz5NR3mV2ZL3dpHHuX3KoOf79fOQL0oRXJHh2TfOT+59Sm1RfKN4fT3y7wP/WjudQ0/eHr6UO5es6f971lqWP+Be6tv7JVxnCI4RfcOkmv3P7nLm7va/j+hr7VrP4Ooa0f+tXKNt9zN0dV6/0ppyh3N1pSz3m80VtY9mo6wcpmqGR5/ffQOJXVSyE8P7STNZcYG3VPNCZqW3z1N3lIH0fIppDG4/766Ja98YQrlLdXBeBnolZOyMd58/Ey88VnfjVW3l12403o3Vl20zWSx1t0uD7RVvppZI2mOKAOc3BLS50xwemWj4BYS0PGbvrbg3yd2NTO5e3tE8U3+HGcrsrxQ9VO1JxdXagIwNP2a32oY7Eua+qcf/SW/csT1rYePDq8N6JsZd81dLdZkPD4hHEXTNAj3PqXADA8+zW2T7802fxXL9P+KRv1ZADV1+mdQkf/AGnZOQn7YJY/2LEj1RbLxKJc4L7Gusu9fvM+tN+MFr6kd/1Q7eaauzfha7hU0B/v2zLsjTPjE6XqiBqfbG/2xuOptFwpq/8ACTyFq9CLXls7Gl+3T6maOffHvNqDeNzhB3PnfPq/QDKKVxw+fUmioat3XueeBsx/FevBpjw/N0JpH0tbpW0Tydj+VK2xBpOezHviaP5OFq3wqXEjB6j4HqvHs+K7E5L6mRZ7/dBM2gT+FtszuNbpazbXdS7DLsiaGuo7zSRg+mGta/75F1jrHwgtwrY8HTGvdNX6MAl35Vpai2SfUOTz2n7cLAqnjZR1MdTTNFLUxnmZPTExSNPxDm4IP2rt7RfFtvXt68Pse6WpmMazy2U9yrBcoWt9A2OqEjW/ZhToMuHYs19UVX40+3DQ5Lq3gE3/ANHsmmqNt62500Z6TWStpq7nHxbGyQSf3mV9Phl4HNd72bq0tl1XpbUGjdJ0Dm1F6rrrb5aKR0PcU8Ala0ukkI5eZuQxpLjkhrXdwbA+JbvtqnXemNGS6c09uBX3arZSsaKeS31cmer5HSRF8bWsaHPc7ysNa1xWbXFVxoaT4VJdOUl4t1df7peXvkFvtckQlhpWYD53eY4DHM4Na0kc55sEcpWrbk5kH0Lit5+BtV4+NJdKnwXiYaeJJxS298DNg9vJaWk03ZmRU9/dbsCIGIARW2Pl91rI+VpkA9Wsj6csjTr9Jycn1Wz2biH4Ht+G1TtYaMoNL3KtnL5am8acdQ1UsjiS57qyj5sEknLnSjr1Sfw7uHDel1TLtVunLS1RALaWzX2mvNNAMesby6X75QveNk14sOjnBx89DxkY8siW/GSfkawlFnDuF4SO6enBPPpPUentZ00bMtgn8y2Vcrv1Wtd5kX2mRoWMe4nDnuntJ537r9vtQWamhx5lf7Gamjbn/wC8wF8X98upXlU29iSObZi3V84nXXZUrwiminGYZY5QO/luDl5gLaNVrTmEDi05Bx8wgRCH19I6vv8At9dxddK325aZunY1dnrJKWRw+DiwgOHxDgQVlftV4qG8OhzFBqiG1bh28EcxrYhQVvKB0a2eFvJ9ronH5rDhMLXsx6ru3HU2a8i2rsyNqdNxycMXFDbKazbvaUjsFY9oiifqehbUQRPecHyK6HLoQOmXu8n8F8HcnwqdF6/tH7ptkteMo6SrY6akoq+oFztcwPRoiqmEysZ0PUmbr6LWWMjt6rvPhD0ZvlqjXT2bHV10sc8MzHXC6xVBgtFOew9ra4OimIDs+UWSPIyQ3oSObPEeMnOmzdS7nyOjVkrIe5bDX0Ph7y8Ku62wfmzax0bW09oY7AvduHt1A4cwa0mWPJi5iQGiVrHHPZd3cNHho6+3hfS3nXLarbvSLsP5KiIC7Vjc9o4XDEAIDvfmHN2IjcDlbJ9Wb/aY4adA6d/o1a/tEeoKhnkvqqG3yxurpB9J8VHGZpOUe6HPHu5IPuczWjjO58dDxrbH1dNs/vH+RI5D+dr7G9r/ADAWn+pqpo5Z4A4dwCx2D1DgeU6D2hfKCTWi+bR6G3HBpjLVcfI6m1Rvzw5+HtZ6vTGhbNT37WvL5dXb7RI2eukkGetfXO5vL94fQJLm83uxALAriI41d0eI81FDe7v+QdKS5aNM2NzoaWRmegqH556g9BkPPJkZDGri2+HDFuJw2XA0us9PPo7Y6QMp75b8z2ypcc45ZwByuOCeSUMf0zg911eV1cbFpX6ie+/E52Rk3a7mm6g3DWhrQA0DAAGAE9UV7ldQ5hB+1drbE8UO5HDfcGyaK1A+K0ukMk+nriHT2yoJwSTDkGNxwMviLHHHUkdF1SFQV4nCNi3ZrVHuFkq3rB6G1/Q/FhsBxy2Oj0Xu3p2h0/qV55aekvUnLC+Vx70Fe3lcx5wz3SY3nPKA8ZK6B4j/AAtNZbdsqr3tjVT6+0/GC91pn5WXenaASeXADKodOzeR5JADHHJWDrmtewte1r2O7tcMg/YsnOGvxAdyuHptHZqmc640VDiMWW7Tnz6WMDAbS1Jy5gADQI3h7ABhoZnK5LxbcZ72LLh8rOpHJqvW7kLj4mM9TTTUVXU0lTDLS1dLK6CopqiN0csMjThzHscA5rgQQQQCF+a243vS3D74m2mp7hYa9+ntxaCA5qTAyC70Q6BoqYM8tVACWdQ5zRkhkjHFy108Q3C5r/hkvraPV1ubLaaiTy6DUFBzSUFYSC4NDiMxyYDvzbwD7pLeZvvHZozI2vcmt2XgzXvw5Vrfg9YnUoUTsrhdA55Y3Ohmimje+KaF7ZYpY3Fj43g5a5rh1a4EdCOoWd3C94nF30hFBpHeds2rtKyhtM3UfledXUkRHKRVMx/VUYHUuA83HMSJScDA9FrXY9eRHdmjZpvnQ9Ys2ScRnhx6f3MsDdyeHatt1RS3Fjqz9zdPUM9grGuyS6hlzywu5sjynfm+uAYuXB1x3K31lmudXbrlRVNtuVHK6Cqoa2F0M9PI04cyRjgC1wPcELtjhx4qdecMOoRWaWrfbLFUTebcdM1z3GirMgBzgB+8zYAxKzr7reYPaOU7BtSaI2a8ULbg6h03Ut0tudaohHNM6NorqJ5HSCsjGPaKdxGWSA+h5HNPmMXPVtuE9273oePevU6LrqzFvV8JeBqZTuuZbtbRat2L1xWaS1ran2u8U/vxuaS+nrIScNnp5MASRu+Pdpy1wa4EDhq68ZKaUovVHIlGUHuyWjHdO6BF6PAwiJhAOidiiIAiZ6ogCFEQoRECAJ3REARPwRAAE7IgQBQJ2V9VAPRETsgCioRUBEKIBhMIiAIifFAP2onZEA9UH4qKPeGjJ7fIZP1AeqF014IOe2Jpc84aPVbHuEPgKsm3umW7w8QLKW10dDF7fR6cvGGQUMQwW1FeHdDKenLAejOnMC88rP14RuE7TnDbos7/AG/xis9TQRtq7RY7izJtmf3uaWPBL6x5IEcIBMeR0Mh/N4x8XfGTqbiq1OYiKixaAoJSbXp3n6yEHpU1fKcPmPo3q2IHDckue7j2WTy5Oqh6RXN/2R1q64YseluWsnyR2VxneIjet733LR+309Vp7bx4dTVNaAYq69M7O5v0oadw6cnR72/TwHGMYXhoY0NaA1rRgNAwAFUXQpohRHdgjn3XTvlvSYROy5btVtVqne3XVBpDRtrfdr1VgyFueSGmhBHPPPJ2jibkZcepJDWhznNBzSkoLek9EjFGMpvdiuJx20Wi4aivFFabTQVN1utdKIKWgoojLPUSHs1jB1J//wAlbJOHbw39K7Vad/oi8RFfbS2hY2rdp+pqWC10ABBzWSE8tQ/PKOQHys5H53mBHZOg9stofDK2sk1drCvZfNd3FhhdcGRB1bWyAZ9koIifzcQ6cxyM9HSOwGhuufiT4pNb8UGqDcdTVHsNip5S+16ZpJSaOhb1DXHt502CcyuHckNDG4aOM7Lc57tPuw8fH0Ouq68Nb1nGXgZTcSXimXWueNPbGwt07ZqVwYNTVtCx007WnDW01LI0tiiIH0pWlxBwGMxk+ntl4u2tbOYqfXujLXqakHKw1tjmdb6po/Se6N/PHI4/Brox9SwFz1RbS2fjqG44/XvNZ51+9va/Q2u1G5nBrxoOP7pobbprVlQC7z74z8h3PmI5Afa2OEcx6jDPMkH9iupN6vCU1DZ4ZrntTqeLVNHyl7LLqBzKesxgYEdSwCKQk5+m2MAfpFa/HAPaWuAc092uGQfsXZWzvEbuXsNUtOh9YV9noQ4ufaJXe02+TJBdmmkyxpOMFzOV2OzgsPVLaeOPP6PkZllVW8L4fVHG9w9tdW7R302bW2m7lpa5FzhHHc4DGyfBwXQyjMcrc9OZjnD5rjWDnGOvwWzjZbxI7dv5X27bjc7aP90dZeHtgbHp+kbc6SoPN1fLRzZdHGxvvucHS8oaT0Xc1d4X+wtTrmn1Ayw3KloWFz5NNwXOUWuZ5yeZzDmRoBOeRkjWdAOUjofD2g6Xu5ENH5cT11GNvvUy4GrPYfhl3E4kbs6l0RZDPb4ZPKqr7XOMFtpXDGQ+bB53DLT5cYe/qCQB1WwDTXCvw8cCunqLV2797pNXasIL6T8qQeY18rT9Ghtw5i9wLmDzH85acO5owV2Fxlbr7s8PuhYLPsttYIdN01K1r9S2ynhqIbS3D8sht0Q5hygB3mvYYm5wWu9NPeodV3bXV+rL/fb1V6jvNWf6oudwqTUTyY6BpcScADADRgAYAAAXiDuz+Lluw8Fz+pkkq8JcI6y8TMvf/wAUzXu4T6q1bc0p280+4lguEnJPd52e8M83WOnyCOjA97SMiQLCy5XCrvN0qrncauouVzq3mSprq2Z09RO493PkeS5x+ZK9fv6p3XVpoqoWla0OXbkWXPWbCJhPrWwaw7Ii5fthtBrjeu7OtmhNLXHVFVG4MlfRRgU8BIJHm1Dy2KLODjncM+i8ylGK1k9Ee4wlN6RWpxBeE0zKcAyPbGD0HMcZ+r4rYZtf4TdRR2x1+3k17S6ctVNGZ6m32GRmYow0OJmrZmhkfKc83LGRgdH+q5seJThE4Q/Mh2x0xBrLVMHMw19mh9rkD8DPNc6kkcjv9hc8Dr7q5ss+Le7TFzfly+50IYLS3rXuowu2r4Kd6t4TBNZNCV9BapXM/wCm2oD+TaYMcMiRvmjzZG/OON3dZXaG8Je16ctjr3u/udFQ2+nj56qn0+1tJTxYweZ1bU59344jYfgQurdzvFU3h1q+SDSsFn29oC7MbqOEXGtA9Wumnb5f2thB+axS1trvU+5lwbXaw1JdtV1jCSyW9V0lV5eTkhjXktYOvZoAU3My7tNQXlxZ73sWnkt5mzy3b78GPCQ8t0RQW/UWoaY4NXpqkN4rjkAE+3yu5AOn0RMAPQL7OxfilaW3a3ZpdH3nSk+iqC5v9ntV3rLlHO2aoJ9yKZjWARF/ZpD3guw31BWo0kkAeg7D4LxkibKx0b2hzHDBaexXh7Mqknvtt+LC2hNSW6kl4Gf3iKXriH2g14KmXcrUb9t73O78kVVley2spXnLjQzup2sc54bksc535xoPctcBgHUf1bXS1tQXVdbM4vkqahxlle49yXvJcSfjlbOuCriWtHFVt5ctgN5Sy83eehdFQV9ZJia70zPewXd/a4MNeHj3nBgk+kx7jgzxLcPd94Zd1a7R94c6sonN9qtN25cNr6MnDX4/RkaRyPb6OGRlrmksOahJ49iSkvyesuLnFXVvWLOrC4nuSfrURF2DjjGUCIOiFCJyk+hX4vrqWM4dUwB36vmAn7gVORUm+SP1VXK9K7Sa91xA2o01oTVOoaZ3ae12OpniP8cM5cfau2bL4fnELfYopoNsqumhk/SuNzoaUt+tjpucfyVhlfVDtSS+pmjRbPlEx6WzfwxLjS7t8Ne6+0d0mkdCyeeMk/1ukuNM5mGfMSx1Dv4wXS2mfCd3qvQhluVx0hp2NxAkjnuE9VOwfENih5D/AHQLM3gz4EavhS1ZedQVOv5NSSXa3MoZrbT2sUlM1zZBI2TmMj3Pc332g+70kdkdscfPyqLKt2MtX3HVw8e2ueso8GaZjR1dve+jronwVtK91PURSDDmSscWPaR8Q5pUW13dTw4tnLjubqnVWsd0bpp78v3Ce8G3trqCibCZnufJh00bi5vOXkHAwOnUgk8SpOEXgr02HOuO81LdA3qW1mvKNpPy5YAw/ctlbRqcdUm/oa8sGbk+KNaAB9AqGOz9F33LZXV6P8O7T0ZFZdbVXlvd8d9u1YT9kUhH3BfpQ6q8Oq0tDIaOzTjvmost4qvxfE5Xr+q1jVJ/QdQ/9iNZ5aR6EfWFMLaXS7y+H3QNHlWTSUoHT87oatl/wqQr2378cAsjR/1O6NwPX+h1U/8Awa8PPn3UyPfUF32L/v1NVIGewyvLy3Yzyu+5bUJt6/D/AKhpElh0gwH1bt/WM/EUa+bPub4eVZlr7VptgP8ApekrlHj7W04RbQm/9mRHgLusRrBMbx+i4fYs3/CM07LXcQ2qbz5Jkpbbph9OXkdGS1FVDy9fQltPJ9mV2dPqHw6a5+H0lpYSe8VpvMI/vYwAsnOD7TPD/Q2LUt+2Ehp/ybXVUVHdamCascHTQML2MxVElvK2cn3QAefrn01svNc6ZRdclr4rgbGNh9Hapb6ehqC4n9Tv1jxIbpXd8wnZNqWuiikz3hhlNPH9nJC1dYraLqPhM4MNTXitmZuxQW2tqqiSWSOi17TEiR7y5wDZHv8A0iei/Fvha7J6oh5dKbt32eZw5muNfbq9uPjhkLSR9q2K8+mEFFprTyNezCsnJtNcTWAg+tbHrr4N1W1j32vd2OR2PzcNdpzpn5vjqR/grgN08IjdyCQ/k/Vmia2MetRPWUzj9ghkH4rYW0MaXKRgeDeu4wfRZR6h8M/iDskxjpNJ2zULB/XbTfacNPzxUGI/gutNQcJe9ml5nRV+0+rnOZ9J1DbHVrPsdAZAfsWxHJpn2Zr7mCWNdHnE6nRe3qC0XDSdxfb79b62w3Bn0qS60slLK362yNaV6jCJGhzCHt/WachbCafIwyjKPNaAJnAJJAA7k+idlknwHcMg4kt5GR3indJojTgjuF6/VqXEnyKP6pC0ud/sbHjILmlY7bI0wc5cke6q3bNQj3mT/ALtPY+GjZC/8Ru5OLe+tt3m25sjcyUtsJaWFrTgGaqf5fKO5b5QBHO4LA3fbeu/cQu6F41xqAOgqK1wipLf5pkjt9I0nyqZhOOjQSXEAcz3Pdgcyyi8UTiQ/d9uNBtVYKtjtL6TkbLchT8vJUXTlIEeQT7tOx3LgYxI94cMxtxg7lc/Drc28mztS5eSN/LsUEsevkiglvYkfUvyfTQyP8x0TDIOz8YcPqcOq/RF1NNTmJtcUduaA4uN6NsGtZp3cy/Q07WhjaS5zi5U7GDs1sdSJAwfweVZPbeeL3rezBkGtdDWbUkI5We1WWpkt04H6TnRyeax59cAxj6lgKotSzEot7UUbVeXdXykbT/6Yzgw4pKgR6703QabvlZK0Gr1Na/ydUSOx3NxpncrQPi6Zv1L09a+FHt/rq0svm1O4dbbqaqDpqdlZJHeLdK39FscrS2QNz+kZJPqK1fAkdjhfe0LuBqfa+6G46O1JddK1r+XzJbPWPpxKGnIbIxp5JG59HNIPwWp1Kyvjj2NeT4o2lmV2cLoJndu6vh8b57UmWaXSJ1dbI+XNw0lIa4HP/3ctbUdPUiMgfErHIEc8jD0kicWyRuBDmEdCHNPUH5EBZvbTeLHudpDyqXXNmte4FCM5q4sW24ZJ7lzGmFwAz08thPq5d/VO9XCDxuclNrSlpdMaumbyQ1GoWC03FmByt8uujd5cgBceWMyOye7FOs5NHC+Gq8Ue3j493GmWj8GapOysbHyyxRMY6SWR7Y4442lz3vJwGtaOriT0AHUrYJu54RepbZVuq9sdX0V8trzltu1OTTVUTcDAbURMcyXPU9WR9PUruHbDh62j8OnQTNx9zbrS3zXflmOKrZF5jmzOb1pbXA73i8g8plOHEcxcY2FzW+57Rq3U6/eb5IxQwLN7SzgvE6N4Y/DIrr/AG6LWu99VJpLS8UIrf3O+f7PVywgc7nVsuR7NHyj3mNPmYJ5nRFuFzbfHxINI7Rabbt3w62S2GmoGPpY742mEdso+pyaWEYNQ/mLj5jsRl3vfnQ4rFjio41Nc8UFfLRVb3ac0MxwNPpiimLmS4PMJKuTp578gHlx5beUYaTlxx8znuvMMSd76TKevl3I9zyoUrcxl9T6+rdX37X2pKzUOprzXagvlYcz3C4zGWVw9Ggno1g7BjQGtHQABfpovW2odt9S0+odKXuu05fIMBldbpjFIW5B5H+kjDgZY8OafUFfERdTcju7unA5m/Le3teJsW2H8VaG4ULdLb7WCC5W6pj9mm1Ha6QSRyMIDXe2UWDkEc5c6EEHIAiXLdzvDr2n4itNO1zsDqe2WOWs5pI6akl9psk8hy4sLG5fSPy5oLWdGAY8rK1eDouW7Xbs6w2U1SzUOiNQVWn7mC3zTTuzDVNH6E8R92VvXs4dO4IOCuZPBcHv40t1+HcdKGapLcvWq8T992dmtabGaoOn9c6eqbDXvLvZ5JcPpqxoxl9PM33JRgtyAeZucODT0XC1tN2i4/treJ7TL9vN+9P2ew1dcPLM1cOezVr8dHMkeeaklGTy87uhALZeYgLp3it8MW/7dNqtT7Tir1bpgF0s2n3ky3OhZ3zCR/mqMdRy/voHL++dSFWa4y6PIW7L8MlmGpR6Sh6owUReMb2yMD2EOaexHqvILrHLa0A6IVVAhD39P6huuk79QXyx3Kqs96oJPNpLhRSmOaB/Ylrh8QSCD0IJBBBwtl3Dd4gOk+ICwHazf+3WplXc4m0jLtUxNbbLqcjDZ2npTzkgOBGGFw90xu5GnWEjmh7XNcA5rhgtPUELUyMaGQve59z70blGTOh8OXgZg8avADdeHqoqtXaKZV33bV5MkrXky1VjJ/RlPeSDJ92Xu0e6/sHvw+HYeoWefArx/u0MKLa/du4Ct0XO0Ulr1BcXc5toI5RTVTnZ56Y/RbI796+i7MeDH8Xj74GRstUT7jbf0Zk28rJA+utsA5hZZHno5mP+1nuPT/SyQPokcunRkTpmsfI59z8TbvohdDp6PqjCZAgP2hF1zkgLkGgtfaj2t1db9UaTu9RYr/QuzBWU59DjLHtPuyRux7zHAgrj6dl5lFSWj5FjJxe9HmbbNtty9svE42mn0bri2w2LcW0wmofDSuxPSv6N9uoHuy4xE8ofG7PKSGP5gWPdrj4h+HbVvDNuDJpfVEIngmDprXeadhbTXOnBA52fqvbkB8ROWEj6TXMc7geltVXnQuprZqLTtzqLLfrZMKiiuFK7EkL8EHv0c0glrmuBa5pIIIJC2ubS7oaF8TLYa56D1xTwWnXtsjZPUw04xJBKAWxXKiz1LCSQ5uSWlzo35a9rn8WUZ7PlvR41vmvA7MZQzobsuE1+TUeQncrmu82z2pthtxrporVlL5F0oSHxVEYPkVtO4ny6mEnvG/B+bXNc04c0gcKXajJTipR5M48ouD3ZcwiIqeQiJ3VARAn7UARE9UA/aiIoAiIqQIifghQiJ6oAiFMoAiIgHqnqiIB6ooqPrQBERACioUQgTsiIUmcLYj4e3CrZdKaZPENuvHDbrRboH3CwU90byxU8LBn8pyNIySQPzII6D84AS6Mtx74GuF5/E3u6ynucDjobT/l1t9fkt9oBJ8mjBHXMpaS7GMRtf1Bc3PbPiX8VLdfapftBpOYwaP03OI7u6nwyOurojgU+B3hpyBlpwDKO35ppPJypyusWLU/V+COrjQjTB5Fn0OmuMTi4vXFXr0TM8+16DtUrhY7M84cehBq6gA4MzwTgdRG08oyS9z8f8ImV0aq40wUILgjn22ytm5yKoi/Wko6i4VlPSUdNPXVlTKyCnpaaMyTTyvcGsjY0dXOc4gADuSFk104mJLV6I5DtrtvqHdzXVn0dpWj9vvt1lEULHEiONo6vllcAeWNjcuc7B6DABJAO1kT7W+FtsQyE41Hru8jmcGkR11/q2t7k9fIpYi7p3bG09OeR55/ibUaA0p4ZvDbctwdaQR3Pci8xRxT08crfMlqHAuhtlM/qGxtILpHjmzyvkPMGMa3WRunupqfevXdy1hrC4flK+VxAPIC2GmiH0IIWZPJEzPQdSSS5xLnEniPXaE9FwrX5Z2lu4MNXxm/wftu9vBqzfbXdZq/WdyNxu9QPLjjYC2nooMktp6eMk8kbcnpklxy5xc4knhiiq7UYxglGK4I48pOcnKT4hE6p9i9HkLvDhi4QNdcU14d+Qom2bSlNKIq/VFbEXU8LvWOFmQaiUDrytIa3I53NyM9p8DvARXcQlVS6y1tFUWvbKF/NFC1zoai+uB6sjcMFlPkEOlGHO6tYR1e3uHis8Riz6Gs39DPh/FDSQULfYptTUELPY6ONvQw0DAOR7vTzsFjQPdDyQ5vKuyZzn0OMtZd77kdSnFjCPS38F4HPdQ7lbE+GZpqbTGk7a7V25dWxjqyBszHXCclvM19dU4Ip4scpbE1v6QLYzlzlr73b4s92t6tTi9X3WlztzYpBLR2uxVctBRURBJaY2RuBc5vMfzjy5/zwAB1PVVM9dWVNXVVE1XWVMr6ioqaiR0ks0riXPfI9xJc5xJJcSScr8uyy0YcK/en70nzbMV2ZOfuw91GXGyXia7ubVMgt+oZINyrFHhvl3qQxXBjRno2saCXHJyTKyQ9MZCyPp9b8IHHPP5Wo7ZBoPcGsyPOri20XGWV3K3mZVMPk1TiSA1ry9xxnkC1bhR7GyMLHtD2Hu1wyD9ilmDXJ79fuy8Ueq82yK3Z+8vMzp3w8KDXujXz3Dba7Qa9teSW2ytLKK5xtz0AcSIZsDqTmI/BpWFOpNOXfRt9nsmobTX2C9QAGW3XWlfTVDQex5HgHBHUEZB9Cu4dkONLdzh9igo9PalddbBC0MZp/UQdW0TGgEBsfvCWEDOQI3tbnGWlZt6F439jeMKK36E3m0NSWS8VsgpqL8pgVdFJNIWtAp6tobLTyuJOMhmMYDySFg6XKxviLfj4rmZujxsn4b3WasviuYbVbPa03w1N+QNDadq9RXFoBnMGGQUrTnDp5nYZEDg45jk4w0E9Fsmm8H/QsmvPb4tc6gh0eXc/5AEUTqhp78grD73Jnp1YX4/Tz7y/Pf7jY0HwaUdTtJszo6hdqC1crKpkkD4bfbpHMaeaU9JKuZzeQkg9eYF0hILUe0Ol9zGWsvwhHB6P3r3ojjmgPDg2u2F003W3EPrO33CKnwX25tSaO0RvwSIy48s1U/plrRyB3UeW5ehuj4qGntD2xul9idCUcVspAYqa53Wm9it8beY9YKGLleWkHILzFg92lYEblbo6v3j1O7UOt9RVupbuQRHNVuAZTtPdkETcMhb/YsAz3OSuLL1HCdj3smW8/DuPEsxVrdojovE53uzvpuDvtcG1evdWXDUgY7nio5nCKigOMZjpow2Npx0zylx9SVwT0A+4fBUKLpxhGC3YrRHNnOU3rJ6hMoi9ngqg6p6r97bQ1V4u1NbLdSVFyulU8R09BRQunqJnHs1kbAXOJ+QU105npJvgjytlzrbJdKK522smttzoZ2VVJW0zuWWnmY4OZIw+jmkAgravaJNO+KNwpupq72K0bq6ZPKZh2obhyHlkwAXeyVTW9W4IGHAczoQViHtX4bO+G5sUNXWWOi0LbpGte2fVFQY53Nz1xSxB8gcPhJ5aza4cuCDTPBnfjuDqPdmq9pZTvpKl07qe1WiWJ4+hM2Qvc/ldhzSZBgtzjqQuDm3Uy0dcvfXLT+Dt4dV0NVNe6+ZqS1Vp+56E1FdLDqOjdZrzaql9JW0dS5odDK04IznDh2IcCQ4EEEghcy254eN0N3W08mjtv7/fKSoB8q4NozT0Tsf8A3mYsi/vluf10/aC26Zu+/lNo6z7gVFHRCq/L2nKCkuVdUQwEsLoJi4BxjAdkh4IbGRk8oAwf3F8YHVN1e6PQWgrVZ6UkiOt1FUvrZXs/RcIYSxrHfIyPC915t+QtKq+K56nmeHTS9bJcDim3nhObuam9nm1PeNO6KpXj85CZX3Ksi+uOLliP2TFd42bwmNstH2s1+vty77WxQHnlnp30topA34P5myOA+fmBYR6642N9txHYum517ooslzYLC9lqY0H9Emnax7h/CeV0xdqqov8AXyV11qai7Vkn06m4TvqZXH5ukLisrpzLO3Yl6Ix9Ni18IQ1Nosll8P3ZSshkqKnSmoK7l7uq6vUvOR+tG0zxg/xQvXh8SLh22uNRHt7tZcoZT9GS0WGhtMEvwy4va/H1sWr1o5G8rcNaOzWjA+5O+VVs6D+JNy+p5efLX3IpGwzU/jFajqoJGab2uttum/Qnu97kqh9Zjiij+7nXUGqvE94gNRP56C+2LSzf9Ls1ljeB9tS6YrFJAs8cHHhyh9+Jhlm3y/dodwam4wd8dYyCS47saqjcOhbbK0W5n8mmbGuPaY311lp7cfS2trpqfUGo6rT90p7oGXS8VNR5rY3gyRnneej4+dh+TiFwD1TAccOAc09x8R6rY6CtLdUUYOns3tXI2I+Lrt3Q3v8AoZbsW1sNfQ11O+xzVeWvjexzTVUbmDHqDVe965atdkUbIf3uNkf8BoH7Fswucsm+XhE0lVLHHV3rSFFGWhvUw/kyq8ou/hGkYSf4a1okYJHfqtLZ70rdb5xbRuZ/bUu5o8jK8/puP2qZPxP3qd1e66hyyZye6ZOe5+9EQoBOe6ocfiVPVEIUOPxP3raXwEV821Hh9bj61eCD7RfL3TlxxzCCmbC0A/wqYj61q0jHvt+tbLrg2o0R4NFNBG/yaq5W6Drn6ba27hzh9scrlydoe9GEPGSOrgaKUpeCNZVNSMgpYYXxxu5GNa7mYDkgdfT4qG30hOfZYAfi2MA/gvZeeaR7viSV4911NEc3flrrqfR0/qG8aUlEljvN0ssgOQ623CemIPx/NvC7DsXFXvXpypZNQ7tayc5nUMrLu+sZ/Jn5wR9i6sTsvMqoS7SR6VtkeUjJ6weJVxC2SqbJUaxt99ib/WLrYqblP1ugbE78V2ppjxftxaGo5tRaD0teqcdAy11NTbn/AHv88fgsDEWtLCx584L+DYjmXx/dqbPrH4vWjL9SyU+sdrb5SUzxh0Vtq6W5scPgWy+TkfYvzO8XAZvJBHHqHSVo0lVTPyBV6emtMpce5dU0gDftMmFrFwvJri3sSPqK13s6pca24+jM62hZ+5Jm0i3eHbwy7w1FTUbebk3CXlbzey6e1JSXOGD4czZGSyfYXrIaz8Pdz4duGi+aK2OdSDWM0ck1PddQy4M9ZJytfUyFkZbztjGI28nJmONrvdyVgx4Wuw1DdtY33erUsVPSae0hFLS2+rqeVkfthj5qidziejYITjLhjmmJBzGutt6fEA3O1nvjddXaF1peNLabheaWy2uB7TTOpWEhs09PI10b5JCTIS9pLQ5rQcNC5k6LrrXTGe8o8ePLXwOjG2qutWyjo2cF3D4Ot8tuXST6h241BVRuL5ZLhbWtuzHdSXSyPp3SObk5cS9rScrpfzW+a+EnlnjJa+Fw5XsI7hzT1B+sLPHbnxddw7EI4Na6PserqdsYZ7TbJn2yqJ9XuDvNjcfk0MC7hq+N3hQ4j6QQbpaSNprBEIm1GqLCKksz3bDV03mOjAP6RMa6HWMmr4tWq8jS6vj3ca56PzNV6q2fXbw3Nh98KWoumzW5b7Y3LcxW24xX6ggGOxY5/nNJ+c3T4LHDc7wx979v3Sz2i3W3XtuZzP8ANsVWI6lrB2LqefkPMf1Y3SLPXn0T4N6Pz4GvPBtjxS1XkYnoF9HU2nLxom6m16ktFx03dAA40N5pJKOcD+BIGk/ZlfOxg9ei6Caa1RouLjwaGUHRPVeLntjY573BrW9SScAKkSPJd+8LfBbrfinuQnoY/wAg6HieW1mpq6Evifg4dHTMOPPkyDnqGNweZ2cNPd3Bz4dj9d25u4W8sUuntEQxmopbHVSGlnr4mjmdPVOJBgp8Do3Ie8ZcSxoHP9/is8SRlPRP282DMFk09Rwihk1RRwNiAjaOXyrdHjEcbWjlExHx8sDDZDybcqdsnVjLV977kdWrGhXHpcjl3I7k3N4ldqvDs0HS7W7fUEmqdU0rBIbVLXvk9mdIBmetnIcGOdjnELGgkEYbGwhy+NpHjt2E4sdNwaM3s01R6Zq6g4ay+YltplILQ+CuaGup34z7z/KIzgPK1WSSPmmlmlkfNNK90sksjy98j3HLnOcernEkkk9SvEjIIOCCMEH1XlbNr3eLe94h7QlvcF7vgbAuIPwqLxaYJtQbNXf909qePObp26TsbVhjiCPZ6o4ZMMEkCTlPK0e+8lYEXe0XHTl3rLTeLdWWi7Ub/LqbfcKd0FRA7vh8bwC3pjuu4OHji/3K4aKyCHTN1Fw0wH802l7s50tC4EkuMXXmp3HmceaMgE4LmuxhbAbNrDYDxNdNR2i+ULtM7kUcGYqd8rIrtR9CXOpZ8ctVADzZaQQO742EtK89LfhvS5b0PFc/qe+ioylrV7svA1J+qdl3jxP8IOuOFi9MF9jbedK1cpit+p6KItp5ndxHMzJMExHXkcS12DyOdyux0cF1q7I2xU4PVHLsrlVLdmgiqiyGIEBzS0gFpGC09cj4LKvhD4/dVcOElNp2/tqtXbcczWi3c/PWWwdiaRziAWf7A4hvT3CzJ5sVECw20wvjuTWpnqunTLegzaXxN8FWjuLDSB3j2Kr7fLfrnE6ufTUrhFR3136XNnHs9VnIJcG5eOWUNOXt1d3C31dnuFXb7hSVFuuFHM6nqaOridFNTytOHRyMcAWuB6EHsu5OFvip1Xwu62FytEkly03WSN/LGnnyYhq29AZGZ6RzgAYf64DXZHbOriz4aNK8aO1FHvhtDyVGr30In8qFvIb3BGC11NM39Gri5Sxru+WmJ2W8hj5ULJ4M1Va9YPk/DyZ05whmw6StaSXNGqoIoDnr1GCQQ4YII6EEehB6Eei8ZZo6cAyyMiz28xwbn712tTj6PXQ80XONCbFbk7oCnk0loHUl/pp3csdbS22VtIT86iQNiA+ZcsidD+FdvjqmNk16j07ouPn5XxXO4mqqA39ZrKZr2H6jKFr2ZNNXbkkZ4Y1s+zEw+7jHcHoR8Vnx4e/GpHYH0myu5tRHcdHXJpoLHcLliRlGXjl9gn5+j6d4PKwu+gT5Zywt8vndr8JrQOirVPddy92riLfE0OkqaGOls9ND8eeWczHHzy1flPcuALYeok8ikt24N7po8OZHHVai9oPbIc8upOb6i3C5eRk0ZMHCMXLw0XI6ePj248t6UkjHrjz4OXcNOvKW66Yp6mo271FO5tvb5bpXW2rOSaEuGS5pGXRE+8QHMPMWczuodL8MO8GtZI22ba7VtVHKOaOomtMtJA4fESzhjD963BcM/G1t9xRXm8WTTFLebNdbXTsqvYb5TRQyT05cGGWIRyyAta4ta4EgjnZ06rGHiW8S3dLZ/dPUGh6HbmwWKrtFSYxU3qsnuArKd3WGojbF5Ia2RmHYLnFpy09WkLFRlZT/AEFD3l4mS3Gx+NzlwfgY9aW8MXiA1DUcldp6y6Wjx0lvV7iIP2UomK7W0t4POs61rjqTcmxWd/YNtFrnrxn5ukfD+xdOan8SXiD1HO90GsqPT1O8EGmstmpmNH1PmbK8fXzBdN6p323M1yyaPUO42rLxBKcvpqm9VAg+yJrmsH1YW5uZ0+1JR9OJq7+HDsxbNgD/AAs9nNv7U2o3E3gvFKWjmdUmroLRAficSMecfx193Q9FwQ8LmrLbqu2a8ttXqa3+Y2muUGoqq7SsD43MeDFTOewgtcQQWY9e4C1RCgpQ4vNPE5xOS57A4n7Tkr92nkbhvuj4N6BR4Vli0ttb9OAWZXXxrrRt/wCJzbbRHiEbAO1ftVc6bUGqNOSzfkisia+nfM9oaZ7fMyVrXN8xvIW84bh3lOBDXO5tQLg5rnteySKRjix8UrS17HA4LXNPUEEEEehCyF4IeJ+Xhl3hhrLjO79xF+MdDfosEiFgOIqwAfpQlxz0OY3PABPLjuPxQ+GdmhNbU+7Omqdv7mtVTCO7Np2t8umuRblswx+jUNBJOD+caSTmUBeMfXDu6vJ+6+X+D3ell1dNHtLmYLqImF2jjBE9UQD1RAiAIndEAT1REKEKJ2QBE7ogCmFe6IAmE/YiAInqiAIiigL2TKYyipB9qIhQAlTCuPRRClX60tJU3Crp6Sippa6uqZWQU9LA0ukmle4NZG0DqXOcQAPiV+Sy58MfZWPdTiMj1FcKcz2XREDbo7maCx1dISykafm3lllBHrC34rBfaqa5WPuM9FbtsUDJ3cW60/hv8Elr0pZamH+ihqYvjFVGQSbhKwGrrB1BLKePlYw4PUQBw94rVQxojaGtJIHqTkk/En1J7krLvxEb1rrdniLvVT+5HU8Ok9NM/ItpmdZasQShjuapqGu5Cx3PLkB7ejmRRLESqlbQS+VVF1JL+pUsdE77nALTwYKNe/J6ylxZuZrlKahFcEeSL8WVlO84bUwOPwbK3/nX7NaXDoOb6uq6WupzGmuZO4We/hX8NMes9YVu7moKZsln07M6jskMzctmr+XMtR1PaFjg1vQjneSCHRLBO1Wa4X67UFqtNM6su9xqYqKipmfSmqJXhkTBn4vc0La3xe3+h4MuB+wbWaZqWsvF4php2Coj9x7mOYZLjWcpzgv5pOx919S0jsuXn2S0jRDnL+O86eFBJyulyiYP8c3Es/iU3prKm31Bk0VYHSW2wsGeSZodiar7nrM5owen5tkYIBznHn4IGhoAaA1oGAB6D0CLoVVxqgoR5I0bbHbNzkETsiymIErLvgI4LXcROo36t1fA6LbSzz8jo3EsN5qW9TA34Qs/rjhjJ9xv6ZZ0Tw+7I3fiH3bsehrO59Ma15mr69jC4UNEwjz5z6ZAIawHAL3sGRlZxeItvfatkdubHw57aclmpH25gvLaGUh1LbyCI6UuHvc9QeZ8hJ5iwHm5vOyuZlWzclj09p/hHSxaoqLvs5L+TrXjj48X7mNq9strakWvbikb7DWXK34jN2a0cphhLcclIAOX3ceYBj6Bw7CEAMAa0ANAwABgAKgAAAAAdgAmFt0UQx4bkEal18r5b0h2QIEHRbBgHZAgXevClwjat4qdUSQ2wmzaRt8gZddSTR80cTuh8iBv9dn5SDy/RYCC49Wh2OyyNUXOb0RkrrlbLdijgezWymst/tbQ6W0Tajcbi7DqiolJZS0MROPOqJMHkZ0OAMud2a1x6LZlo/aLZLw1ND0+s9b17dR7gVQeynrzTiStqJOTDoLdTk4iYA7Dnkg+/wDnJAC1o8d3uIrazw6NBR7Y7Y2emvGtxCJXULpOYxSvYMVdzmb7znuGHCMYc5vKG+WzkI1ebkblam3e1lW6r1heJ75fasBj6ibAbHGCS2KJg92OMZOGNAGSSckknjpW571fu1/lnWbqwVw4z/gyf1l4qG89615BetPus+mdPU7xyaZfRsq46hmc4qahwEhcexMRjAwMA9ScgbLudw6eI7TUdl1xaDoTdRsXk0cpqWw1juvRtJV8oZUtyTiGVuRl5EfTmWrkfJeLmNlaWvaHNPXB/A/WtqeBVoui91rvX9zWhnWavpPeTMleJrgK3G4b21V4EX7s9ERe8dQWuEh9M3GSaunyTEBg5e0ujxy5c0nlWNYcHtDmkOaRkEHIKzd4UvEw1PtbPS6a3SlrNZ6Oc7y2Xhx866W5pGBzE9aqIHqQ784ASQ5+GsXb/ERwAaI4gtJjc/h6r7VDV10JqW2ihla21XVwPvCIjpSz9C0jAZzNAe2M871ihlWY8lXlL0l3fUzTxq747+O/oaxE7r3b1Zbjpq811ovFvqrTdqCQw1dBXRGKeneO7XsPUfsPcZC7J2I4XtyeJCuDdFaefPaQ/wAubUFwJp7ZAfXMxBMjhkZZE17hnqAOq6crIQjvSeiOZGqc5bsVxOqQD6LsHZ/h+3F37rPJ0HpOuvtO1/ly3LAgoISMZD6mTEeQDnlaXO+DStiuifD/ANiuGDTjdY716lodTz05EhkvrhS2lkjcvDIqTmJqH4BHLIZOfHRgPRcQ3p8V622Gj/c7snpSB9HTs8iG93unNPSRsb7oFPRN5XluMcpkMeMYLCFy3mzue7iw183yOlHDhUt7Ilp5Hjtp4VemtC2k6n3z19Sst1GBJU0FqqfYLfEObH5+tl5XuaQQDyiIgno4r79y49+HHhhtUtg2V0S3UdQ0Bj57LTihpJnNdykTVszTLM4DqHhsoP6y127p7y653uuzblrzVNw1PURuL4Yqt4bS05wATDTsAijyB1LWgn1JXDTknJOfrVWFO3jkzb8lwQeZCvhRHTzMs90fE73s3CdLBZa+3aBtjg5vlWKmEtS5h9HVM4cQ4frRsjKxe1PqO8a4uv5T1NeLlqW58vKay9VktZNgdhzSucR9QXzT0T0XQroqqWkI6GhPIts7UjNXwzuKSXarcqPbS/1bRozVlSG0Rl+jQXNwwzB9GT4EZb1Ak8sjAc8niPiB8KbeHPdFt40/Rui2/wBTyST0DY48RW6r6ulo8joGnJkjBx7vM0A+WScV3NEjS0kgH1acEfAg+hHfK277Cars3iI8HN10RrKpYdYWtjLdcazkDpoapg5qO5MbzZ98NBd1aHObOzo1c3ITxLlkR7L4S/ydGiXWqnRLmuRqJ9O6BfY1dpG87f6rvGmNRUht99s9XJRVtOQcNkYcEtOPeY4Yc1w6FrmkdCvjrsJprVHJlFxbTCYT0V+ap4IgRA0u7An6ghQi/J9VTxHD6iFh+D5Gg/tX1LFp67aombFZLRcr1KTgR22gmqST/vbCvLklzZ6UJPkjZB4W0lJuXw97y7W1pd7PNVPMzs9RBcKLyXY/jU8h+1a0DRVNtc+irYnQVtK91NPE8YcySNxY8H5hzSth3hY6J3G233q1PDqHQuqtO6cvFiAdV3ey1FJA6qgna6Ec0jWjJZNPhcE4hfD63n1BxBbh3LSGjm3fTVzvU9zo7jJdKOmY4VGJ3tDXyB45JJJGdW/o9MrjVXV1ZNilJJPR8zsW1Ttx4aLijCwIFlXbvDF3/rnATafsdtz3NVfYiB/c2uXKIvCT3tlja43rQcJcOrH3Wsc4fdR4W883Hj+9GisO9/tMLEWbMfhE70v+nqXQTB8q2td/7MF7n/QhN2SwE6w0UH46jNYQPt8peevY/wA6L1O7viYNJlZxSeENu636Gr9EPP8AZSVjf/Uleq7wit6fTUugnf8A52uH/sydex/nQ6nd8phJK7y4ZJB+i1zvuGVs14zpH6R8NHZiyhvlvq26coJW9urKF07s/wAaHK6kd4Q28tQ0xzan0JDFJ7j3MrK17mtPQkD2YZOM+qzO45uFnWPELtlozSehKuxUFLYq8VksN6nmhD2spnwRBjo4pOoEjs5A9Oq5+TlU2W1aS4J8ToY+NbXXPVcWaWgiylvvhm8Qdplc2m0rab2B+lbr9TjP2TeWVw+88CvEBp8F1XtXeZBjJ9gqKSr/AOSmcfwXVjlUS5TX3OW8a5c4s6KRc8uuwe6dijkkuW2GtaGOPq+WbTtZ5bfmXNjLfxXAKqVlBUOgqneyTt+lFVAxPH1h2CsynGXJmJ1TXOLP0UUikZP1ikZKP9jcHfsXkRg9eiyGPTTgyL6Om9O3TWWo7Tp6yU4q71eKyG30MBcGiSeV4YwEnoBk5JPYAlfOWdPhO7JHWG7N43KuEBdatJwmjt73ghr7hUMIe5p7HyqcuyD2NQw+i1si5UVOx9xs49XTWKJ2px13+18J/CLo3YfSVUWVl7pzRVU8YLJJKGMh9dO7B911RM8NIOQRLKB2WsL1XcnF9ve7iC4hdU6ogqBUWKCX8k2UtPMwUMDnNY9pwOkrzJN1/wBNx2AXTaw4dLqqW92nxZlzLeks0XJcAgODkHH1IE9FvmieVJK+gr4q6klko66F3PHV00jopo3DsWvaQ4H6iu/tt+PbfbbF0DKTXtXqKhjeXuodVRi5Nk/sTK7E4HybKFj/AIVCxTqrs4TimZYXWV9mRsh0b4pujtxbXDYN7trqaroJC0TVdthZc6J7ycc76Occ7GgdfdMp+S5VNwV8L/Ffap7xs5quPTty5HSPj09VeZFE5xwDUW6f34h0OGNEOfuWrMd1+9Dcamw3Kmu1vrKi23KkcH09fQzPhqIXehZIwh4PX0PqudLAUPeok4v8G/DN3vdujvIyd3n8ODeTaZ1RVW60M3CsUWXCu04C+pDc4HPRu/O83riLzAPiu/OEjgz05sPo8778QT6e0fk2FtfbrHdG+5a29OSepZ1L6pxIEcABLC4dHSkCPIbhLuG520fD7ddZ8ROtXi3xUzK2mpbzA3260UbGkn2mZo55ZpC5uInBz2kNbzOe4sbxOu3c4bPEY09btI3y7XKxX+OZ01ttlznda7jBMcsD4fedBO8tBwzMuATloOVzJ5V9idcnrFPRyiu46UMemt76XF8kzCbi+469U8TdTUWG2tn0xtuyXmjs/MBUXENPuSVrmnBGRzCBpLGnHMXlrSMXu56nOVmDxB+GbuZtCyqumkgdydNR5cTboeS6QNz+nTZPm9wOaEknBJjaFh8OpcPVri1zSCC1w6EEHqCPgV3MR0dHpRyOLlK7f1u/+DuqonZbppBfrR1lRbq2lrqOomoq6klbUU1XSyuimglaQWyRvaQ5rgQCHAgjC/JO6jWvMqbT1Rsi4V/EEsu5thO1PEJFQXGnuLBRQajuETPZa5jiA2GuZjljkzjEww13Tm5HN5n9LccfApX8NtfLq7STKi6bYVUuDzEyT2KRzsNhmccl8BJAZMeoJDH+8WvkxFLQ9pa4BzSMFp6ghbAOALjXdHLSbI7ryx3zSl3j/JdluVzAlEHOOQW+q5+kkDweSMuyWkiN2WOb5fHtoliSd2Py74/4OxVdHKj0N3PuZgB6oskeOPhNn4Xty2G0QyybfX975bJO95kNI4dZKJ7jk5YDzMLslzPVzmPKx3tVsrb7eKa0Wqhqrrdqp3JT263wPqKmZ36rImAucfqC6dVsLa1ZF8Gc2ymdc3W1xPWQ9Gk5wB3PwWY+zPhbbs7iiCt1bNRbbWh4DuWtArLi5pAIIp43BjO+CJJA4HuxZIN4e+D3g8c2TcG8W3U2pocO8nVM4udWOZvTktsLS0NOMhxiOM/S9Vp2Z9UXuw95+CNuvBsktZ+6vM1m7fbZax3ZrjSaJ0reNWSte2OR1po3zQwl30fMlx5cY+b3ALZj4e/DVv8A8P2oqmTUz7HZdB3Zz5bjpqquBq62OoEeI6mAQtMMbyQxrz5h5mNGRlrSON7geLjp3T1ELTtdtzU1FPBF5NPVX17aClh5ejeSmhD3OZgDAJjP1LFfcnxBd+NzBNFLrV+l7fKQfYtK07aEMPyn96f/AIxatiy8uO64KMX48zag8bFlvKTbNjO8vh/7F6u3Au26Gr5a2wUkjTWXmliujLfap3jrJUzkNDo3O6c7myMBI5j7znOPWFLxK8FvDW8DQun7ffLtRPMQqNM2M1tWPiRX1GGvHzExXyfDa4hm7zaO1LshuPVS6iqPZJ5qGW6zunkuFul9yppXvd7zjG6TIy4kxygDAjWAm/8Asxc+Hzd3UOhLm6WdltmDqCskB/qyif71PNnABJb7rsdA9jx6LVox3Za6L5v3eXg0bF16hWrqoriZnbh+MJe6nzoNB7dUdAA/81X6nrXVDnN+dNByhp/34rGrXXHlv3uAyaCs3Hr7RRyO5m02noIbaI/7FssbfOx9chXQaYXZrwqKuzE5M8y6zmz3NQXe4auujrnfrjW3+5PADq271UlXM74ZfKXFenkkAJ6otxJLgjTcnLmzlG1+4972e3E0/rXTjwy82WqbUwxucQydnaWB+P0JGFzHfJ2RggFbDPEM0PZOJHhw0hxD6JZ7Q+3UcbqwtAMr7ZK7D2Scod+cppySWg4bmoyThay1sZ8KrdGj1ZYde7GanaLhaKyllutDTTlzmPp5QIa+n6uwG5fHIGtHeaUrlZ0XXu5MecefodPCmpqVEuTNc5HKSD39VFyfc7byt2i3I1Rom4ue+q0/cZrf50jOQzxsd+amx8JIzG8fwlxhdSMlJKS7zmyi4ycWUKJhAF6PJCA4EEAg9CD6hbTuB3V9r4uuETVOx+sKgzXGxUbbUyeQB0vsLwXUFQ0HAL4Hx8gx28iMk5ctWS734Ht3nbK8TujbvLL5Vnus37n7plzWt9nqnNYxznO6Bsc4gkJ+DXfFc/Oq6WpuPNcUb2Hb0dmj5PgdM6i09ctIaiu2n71C2nvNorJrdXQtPM1k8MhjkAPqOZpIPwIXzvVZieKbtgNEcTDdRUsDo6DWFrjrnOwAw1cB8icNA/sBTOPxLyfVYdrYotV1UZ+JgyK+iscCqd0RbBrhECvogIiIgCIiAIiIB6oiIABgoieqAIEQIAieiIUeiIiAInqqhCFERAFMd1VEKFtH4BLlb+G/gX1tu9d6NtSysrK26sbG8RyVUNOG0tPBzdcc00cgBwcGXK1bTS+zwSy4z5bHPx8cAn/ItpfF7RDZrwzNC6JdA2Ce4R2Kz1DGZ/fgG1k7v4z6eQn6yuTtD31Cn5n+Dq4K3d+19yOPQeMoS8NqdnJY29i6DUzHkfY6mavt0XjD6RqQ1t02y1BCw9HCCupJ8fY5zMrV965Ki9PZuN3R/LMa2hf3v8GzS5eIPwr6wqxLqDZa4Vkzz789x0pa6vHzJEznH7l7c++3APqqmLbno2wWYEdR+4aopnj+NTQf5VrA6Z7J9RXl7Or/AGya+p7WfNc4o3BcL+1XB9uLrx+p9nbNHcNQ6Uliq3T5u0cdHJKJGxO8uqIjJPJJjDTyluehAK5ZxPbdcPHEJqe3WLcLcC223VGn/MghoKXVUNFV05mEb3B0Dnnq4NjPVmcY9MLqLwfNOQ0e0u4epchk9dqFlve4np5dNSROb/fVMi1haw1O/cXV9/1XXxRvq79cqq6zBzAcOnmfJjr6AOA+xc6vGlbkzSm/d73xZ0LciNdEZOPa7jZ7dvCK2yvltbPpXcXVNKZBzRz1MlHcICPkGxMJH8ddS6w8H3XtvdH+5bcDTd8Z15/yzR1FscPqMfnhx+wLAi3vfaKttTb5ZbdUtOWzUUroHg/IsIK7T0xxUbz6OqY57Vurq6MMHKyGsusldC0fDy6jzG4+xdDq+XDs26+qNHp8Wfar0OwNS+HLxCacfO4aDjvVNCMmos94pJg8f2LHvjkP1BmV0xqzaDX2gKZ9RqjQmqNOUrDh1Rc7LUQw/ZIWch+9ZBaT8T/f7Tb3Guvdi1WD2berKxmPtpnQ/iFkVsL4qepNxdwtH6Kvm2tvmrr/AHWntrrlaLvJFHAJHYdJ7PJE4kNbzOI8zsO6jtzalrOKkvJlVWJbwjJo/bw99L2Thu4U9Zb+6qjaya7U8tXEXkMkFupi5kELC8DD55ucgA4fzwfALW/rzW963L1rfNW6im9ovl6q5K2rPM4tY5x6RsySQxjQ2Noz0awD0W7Tir392c2spbDo/eCjFwsmqxMPZ57X+UKZkcBjcZJo2hzgA98fKWtcQ4ZGOXI6Ct3BPwjcRNG2TbTU4t1XyGd0WltQ+fK0HoPNpaoymMZ/R5GFaGNlKEpX2xfvd/dp4G5fjOcI1VyXA1VIs8ty/CJ1/YRLPojWNm1ZTNa53sl1ifbKr+xY1zfMjef7J3lhYsblcM+6+0Ec82r9vb7aKKBvNLcI6f2yijHoXVEBfG3v+kQu5Xl0XdiRxrMW6vnE60USKRk7C+J7ZWDu5jg4fgvds1muGo7zb7PaaR1fd7lUxUVFSMIDp55XhkcYz06ucAtptJamsk29O87a4VOGS+cUu5cen6B0tv0/QBlRfbyxvSjpyThjCRgzSYcGA5xhziMNOc/uLbiy0zwY6Ct+z20FHQ0mrqejbHFFCwSU9gp3ZImmDs+bUyZL2sfkuLjLLkECX9Nz9T2jwzuEez6U0xJT1m4t8LmQ1T42u9pryxpq697TjMcQ5GsaQf6wwggkrU7WVlVc66rrq2qnr6+rmfUVVZVSGSaoleS58kjz1c9xJJJ7lcSEXn2dJP4a5Lx8zszksGvch23zJXVtTc6+rrq6qnr6+smfU1VZVSulmqJnkufJI93Vz3EkknqSV+KKrtpaHGbberCIipAsgOCrcTeXSO7VPa9naSe/1NaRLdNOzE/k2aEYDpqlxIbAQMATAtdnDffzyH1+E/g/1bxVajk9g5rHo2glEdz1JNFzMa7uYKdp6SzYxkfRYCC45LWuzs3Z4h9pfDr0U/bba6yUl5135LZJqN0nOY5XN92pudQPec855hECHFpAaImFpHKysiMv0IR3pPu7l6nVxaJR/Wm91GUeuOH3bzd+52G+a+0JYb/f7ZGBFJVw+0tjyMui5nNb50YJdgSNxk83KCVh3xscb+5nD5fm6B0dt/FoO2+WYbZqe5Qx1EVVCwAA0ULPzLOTp7shc4NcOaJvRa+tTb+biav3Op9xLnrG6v1nSyc9Hc4ZzD7G3r+agjaeSOLq4GMDlcHO5ubmJOw/h94wtAcZ+j2bR75Wi3Q6orcQwSP/ADVHdZOzJKd+eanqhk+4CCT1jPvcjeW8OeNu2WLfiu7wOhHKhfrCt7r8fE1na01xqTcnUUl+1ZfrjqS8vy3226VDpnsaSTyMB6RsBJwxgDRnoAvhBZF8X3BhqXhX1Eapjpr9t7XTcltv5YOeFx7U9WGgBso7B4AZIBkcpyxuOq+jpnXZBSr5HBuhZCbVnMiqIsxgGVAqB3X0NNacvGtbuLTpyz3HUd1I5vYbPRyVc+PjyRhxA+ZwFG0uLLGLk9Io+f29V3Rwi8Q9Twzb2WrVD3yO05VYt1/pmdfMonuGZA3By+F2JBjqQ17cgPK7N2x8MHe7XzY6i8UVq0FQOLCXXyr86pdGe7m08HN1H6sj2FZK0HhzcPmxVqp7nvFr593Lmua4Xq6R2WgnI6/m4o3tlcQP0fNfn4ei5eRmYzi6297XuXE6VGLfGSs5aeJxfxWtgaS4Wyzb6aaEE1M6OC336emc0xzQvwKOs5h0dguEJdk5a+HHRq186O0FqncSR8ektL3zVT2Y5xZLZPWBnXu50bC1o+shbp9ieJfYfdiuj2i0BXR3W32uztZTUFVb520clJDyxGKN1Q0ebyAx5BB905BIBxjzxL+JnqzZfcjU23en9s7Zbq6wVIpmVl7uD5Y54S0PilZTwNZysfG5rmjzcgHBAIIGhi5GRBdBGGrXjw4G/kY9M30spaLyMWdH+HFxAatlpzJoun05SSjIqr9dYIQ0f2UcRlkH1FmV3HpfwfdfVzj+6XcPTdlbjI/JNBUXA5+fmOgC6e1n4kHEDrGabytY02mqSYYNJYLXBEG/wZJRLID8w9dJap3e19ruF8GpNeap1BA4kmC5Xupli6/CMv5R9QC39zNnzko+nE0d/EhxUWzYK7wztjdtqaN+5W9NdSzA5zLcbfZoXj4Fr2vdj6nqts3h8bUV0ftVfaNU19P2kdU3C/NefmyLzIfwwtYzKGmiOW00LT8fLbn78L2C4kAZOPhnop1OyfxLX9OBeuVw4V1o2e0XiF8MO21W+TRm0VfTzt+hV2bS9Bb2v+B5nSMeB9bcr5d18ZCON722naKeaP8ARkuGoWQn7WxwSftWtUIF6WzaOctX9Tw8+39ui+hsN0P4tOttQ7o6Xt110jpi06Ur7rTUVfK2epkqKeCWVsbpWyEtblnPzHLOoaR0zkdjeI/xRbu8Pu4OkqDRN6orLp672mabzJLZFVSvqopuWT3pMgAMlhwAPjnOemqepa59NKI8iTkJaQezh1H44WynxLnM3Q4XdjN0w0+fUSQZa3s1lwoRM7P8eCMfatW3Fpqvr0j7r1RtVZFltM+PFGMFw8QLiIuTHsl3RrY2O64prXb4SPqLafm/FcPufFbvXdnc1Ru5rNv/AItd304+6INXVX4IussemPKC+xy3kWy5yOwn8RG7b3Eu3Z164nv/ANVNcP2SrwdxA7rvILt1tdk/PVNf/Orr9X1Xroa/lX2PPTW/O/udg/0wm7WMf0Wtfj/901386qeIvd3qBu5r7/zorf5xdeqBXoq/lX2HTW/M/udw6B3o3k1vr3TOmot4dfxSXq70VsY/901WS0zVDIs9X+nOfuWf3ij786+2Yk2vptC6qrdMm6G6SVrqNkbnTCEUojzztd2Mr+3x+pa8+Fa2y3Xie2jp42lxGqrfMQPhHJ5pP3RkrJ7xftQvrN79C2POY6DTklYPk6oqi39lKFybaoPLrjotEmdOqySxpyb4nTFv8Q3iLtxZy7mTVDG/oVVmt8gP1nyA78Vzyx+K1vlZ4BFVwaPvrsjMtfaJon4+uGoa3+9WHSLfliY8ucEaKy71+42D2HxiNV00A/LW19muUuR71uvc1IP5L4JP2rmlm8XzSV7gdT6t2nvFPSydJI6Cvpbi0j4csohz9q1iBMZWB7Oxn+38mVZ964GzUcUHBJufHUR6m20pdPOl6yVNx0Y1szs+omohI4H58wX4U+xnAhvAzytMa3pdJ1L3e62m1JPQzOJ6YbDX5H2NYtaPzUka2ZvJI0SN/VeA4fcV56go8a7JL6ntZ2q0lBM2V6l8H233Foq9G7r1DKRzOaGG8WmKrD/hmaCSLp8+Qrvm1cMesNkeB+9bY7dVNuuevq+kqBPcpZHUcc9RVPxPIx3UteyE+XGSR1jjJxhYI+GDtzfNZ8RkNVa7pdbNpjTlP+VbxHbayanhrHkllNTSiN4a4OeHSFrgQ5sD2noVz3ir8Rjc6zcQGprRttqWntOkrBUfkptPJa6epFZPCSKiVz3tL8eZzMbyOALYwcZJzz7a8my3oN/e3ePHh9zoV2UQr6Xd3deBi5uJwtbtbP075NU7dX210FPHzPr6eAVtJE0dMunpzIxv8YhdWQzx1GfKkZJjuGOBI+seiz+0B4vutrS8Raz0JZL/AE2GtE9iqJLdM34uLJPNY8/IOYF2mOI/gz4qZnRa/wBN0Gmb5VSNBqtT20W+pkcB3/KVM4hrR/ZStz8FvdZyKvjVcPFGn1ai3jVPj5mrJOy2g6u8KTbjcK2Nvm1W4tZbaOpzLTiZ8d5t7x6Njka5kgbn9IyP+1YtboeHDvptoJ6iDTdPra2xM53VWlqnz5AM9vZpAyYux1wxr/rKz151FnDe0fnwNeeFdBapaoxjRftcKCptF0qbZX009vudK8x1FFWQugnhcO7XxvAc0j5hfiBk9Fvp68UaLTi9GRzgxpc4hrQMknsAtk3h68GNBpq00++W60MNDFSRG42G33bEUVBCwc35SqOfADg0F0fN0jb+cPvFpZwLw7uCKHdiupN0tf0TX6IoZi+z2moZ7l3nYf3+UHo6njcOje0jm9fcaQ/4fiB8bFRvtf6nQOjK/l23ts/JVVFO/IvtQx30y4fSpmOGWN7PcOc5AZjj32yyZ9Wpf/8AT/sdeiqONDp7efcjjPHHxn13Evqh9h0/PLR7ZWufmo4CHRvusrcgVczTghucmON3UD3nAOOG4ryxsnYWSMbIw/ouGQvLufii6dNMKYKEORzbbpWz35GVvDb4i+5GxRpbPfZpdwdGx4jFBc6g+3UjBkf1PVHJIGR+bl5hhoa10Y6rL++bWcO3iR6erNRaRuLdN7gxMDqmspoGQXSnfyANFdSE4qIwS0c+Tnk5WSjBWpNfS01qW7aM1FQX6wXOrsl7oH89LcaCYxTwnBBw4ehBILTkEEggg4WldgxlLpKXuy8jcqzZJblq3onY/EPwv684ZtStturreJbZUv5bff6AOfQV2QTytcRmOQAHMT8O6Et5m4cepgPitovDJx26W4m7M3aDfa1Wx10u8TaKGunjDbfepM+6x7e1PUkhrm8pDXPH5ssdyMWMnGlwLXvhkrX6jsT6i/bZ1MwjZXSe9UWl7jhkVUR3Y4kBs2ACcNdyuLS+UZUlPochaS/DLdipx6WjjH+DFVEwuS7ebZ6s3b1PHp3Ren67U16e3nNLRMBETMgc8sjiGRMyQOaRzRkjqulKSitZPRHOjFyekUcaHVcr222i1jvbeXWPROmK/VFaMMnFGzEFODnBmncRHEOnQucPl1WwDaXwxdHba6bk1nxB6ron0dIwS1Fppq00drpgSRioqiWvlOXN6NMbebp+cBX4bp+J7o/bOyjSHD7oqgNvpuZsN1q6P2G2RZIJdBRsDZJM5d7z/KHMM++CuXLMdr3MaO8/HuOnDEVek75aeXeZaWDh/rt1uF/Te3u/Qo9TXynhh9urLbUyc3mwyHyZmTkNeJvLDQ94xzF0o6td1xw11xo7IcGdbedCbSbae3aitszqGvMFN+TqdsrCQ5s9XK10072nrkNeHA9H46rE3azj23T0zvlZNba11vetSWJs7YLxaHyBlG6jfhkj46WMNjbJGMSNLQCSzBJDjnvzxX9kqGR2lt6dOthnpbqIrRd5qYhzJ8sL6KqBaMEFodEXk9QYAFzY4zruVWQ/dlx4ctToSyFOp2U814mOm8PHzvXvI6SGp1U/Sdok/wD6XpPmoWnoRh8/MZ35B6jnDT+qsdY4mRFxYxrC45cQOrj8Se5+1eai+jrqrqWkFofPzuna9ZvUD8UQIsphOVbVbl3PZrcrTOurQHPr7BWsrRE1/IZ4hls8BODgSROkjPT9NbF/FG24tW5uymjd8NMujq4reynjnrI2hvtFqrS0wSEn3jyTPiLW+gnkK1fg4IPw6rbXwcxM4j/DmumgJnipraWkumlPNqsOEcgDn0jh/a2TUxHw5AuNnLop15C7no/Q7GE1bCdMu81J+vwTHVfnTSmopoZXfSewOcPnjr+OV+i7COQ009GOiIipB3Xa3CjuI/aniU241J5rIaaK8Q0VXJI7DG0tUfZpnO+TWy831sC6p9V+Fdn2Ko5SeYROLcd8gEj8QFjsipwcX3ozVScbE0Zw+LNtwNL8Qdl1XTwtiptV2Yec/PWSrpHiJ5/uMtMP4iwlC2U+KSWa64etktwXNaJZ6lrW8p6BtbQGc4+2nb9y1rBaOz5N46T5rh9jazklc2u/iAiIukaA7r86iF09PLG04e5hDT8HY6H78L9Eb0cPrU5hPR6o2NeIZON4uDzYjduVwmub3UoqDCB5cft1FzTg/DE9PG3HxWuVbFLk78oeC1RVFTiSWjlhZC53doj1F5TcfxOi11nuVzMDhCdfyyaOnnr3oz8UERF1DljGE7q/UohRlE74TugARE9EAwoqiAJ0RAgBRE7oQIiIUJ9SfBEAREQBERCBAgRCgoiiA/CubzUNQ34sLfv6f5Vtq8XoCLh/0TEwfm26vgwB2GLfWY/atS9ZGZqOoY0Zc6NwA+eDj8Vtt8Qvm3q4CdOa+owIoKeazaoMQ94+VPH5Lmj+CKzJ+TSuPmcMimT5anYw3rRZHvNTAT1TGPknddg44RCiA2hcB1wl0h4dW6l9pjy1FNLqG4Md/Zx0bQ0/8WFq4pGeVR07O3LExv3NC2i+G/bf6I/BPu3ocSh1TVXG6W9sIdhzI6q3w8h+QLnyY/glauKCTzaCmf3zEzJ+fKM/iuTh6dNcu/U6uWn0Vb7j90QKrrHJJ6rIXw+aGG48Z+18U8bZI21FdOGn0dHbqlzT9jgD9ix6z9iyP8OeRsfGvtrznHMLmwfX+Tqgj8GlauT8Cfo/4NrF+PD1Oz/F1vEtZxHaWtnmc1PQ6UjmDB+i+arnDvvbCxYOvhike1742ukb1EhHvD6j3H2LMnxXKd0HFZA95yJtL2+RnXsPPq2/taVh0OqxYKXVoehlzJNXy0O5Nu+Mfeva4sFi3HvUtI0NaKG9Si504aOzGtqA8sH8BzVlLtx4wOpLfLHBr/b+33anc8B9dpmpdSyxs9T7POXte4/KVgWvbui92YdFvaieYZd1fKRtRn3L4JOLSoEupqK06V1PVF0r571TusNdz9uZ9ZG5sUju2AZX5+HouZ7DeG9onaDeyz7lWHWNw1HY6GlkltlsuMcM5bUSM5G1HtMfK2RgjfJyt5Mgua7n6YOnvHOOU9WnoWnqCtqHCvrYcPPhb3LcChY2C4mK7XCm5mczG1b6ySlpstPdvM2HI+C4+Xjzx4JVTeknpp6nVxr45EtZxWsTE7xEZNyLzxB6h1DrfS94sGnIJxZ9PT1cPNRGkZksLJ2ZiL5XF8rml3MOYNP0ABi+DkZHUfFbBdqvFnubaN1k3f0PSantksZhqLjp9jY5JGcuHebRzOMchcc55XsGM4Z6LsWPhn4S+M6Ket2vvkOkdTFjpJKPTz/Y5YyGgZltk7QBG0kZdExgcf0z3W1XkzxYqu6vRLvXFGtZjwyW51T1b7matlQsrN7fDV3g2jFTXWahi3HsERJFVp9hFa1nQAyUTiXkkk9IXS9Bk4WKIOHyMORJE4skjcC1zHA4LXNPVpB9CupVdXcta3qc22myp6TQWSXBbwcXfil1g6rrxPbNvLTOG3W6M9x1VIMO9jpz/phBBe8fvbSP0i0HgPDRw/XriX3btujLW99HRFvtd2ubcf1DRNcA94z3e4kMYP1nAn3WuIzs43uKe0cMehqPYXZgRWC60tEymrKu3OIdZKVzchkb859qlBLzISXtDzITzva4aWVfPeVFPaf4NzGpju9Nb2V+T1eL/jdsmwdiGymw8VHbK20xmhuF1tzAaeygE89PT+j6rOS95yIyTnmkLuTWdUVE1XUz1NRNJU1NRK6aaeeQySSyOOXPe45LnEkkknJK/KONkUbWMaGsaMAD0V9VsY+NDHjouL734mvfkSvlx4LuQXi+NssbmPAc09wV5YUW2aq4cjY5wc8cFBuhZmbJ78eRfaO6wi2W++3T321wd0ZS1hPeU9Ayfu8gcx8z3nY/8a3BZdeF3UjLnaDUXbbi5TclDcZffloZTnFLUO9T+pIfpAYPvDrjE+NsrHRvaHscMOaexC2+cA24t74oOHa76O3U01W6gslLELdBqC6UzvZr7RnLQ3zT++TQuZyulb1JDHc3PzFcO6LwZdPV2XzX90dmmSzIdFZ2lyZqEe4RsLnuDWDu5xwAu8Ni+DDdriCENZpzThtenpRkai1AXUdC4dcGPLTJOOhGY2ObnoXBbDb1w3cMfApphuvNU2OrvUrK3yKCrvUcl2n9ocHSRQQxBvlMcBGQ2RzWnoOaTJWNm9viu6+1dNUUW29npdB2nJay41zGVtzkbk4cGnMMORjLcSkEdHL2su3J4Y0eHizz1WqjjfL6Hc+k/Df2P2EsDdT70awjv7Yjh7rvVttVpa/6TWtia/nkd0I5XSODv1PRfnqfxM9ltmLH+5/ZvQ8l9po8OibbqNtktQJ+k7LmeY53TriEh36y1l6t1dfdwL6+9aovdy1Jd3jBrrvVPqZQP1WlxPI0egaAB6BfHJz3/FelgOz3sibl5ckeXmqC0ojoZLbr+IpvlumZYWaoZoq2yN5fYdJRGlf3OCal5dNnHQ8jmD5BY11s0tzuM1wrppa64TuL5ayrkdNNI49y57yXE/PK8e6Lo1011LSEUjQndZZ2mcm2y3Hu+0O4um9b2Jx/KthrGVkUYeWidgyJYHEdeWSNz4z8nrPDxNdAWrdPbXQHEPo7NXaamjgorjM1pDvY5zz0krwOjDHK90Ts9czNH6K10hbIvDM1zad3todf8PesD7Xb/ZZqqggc73n0FSeSpZH0w0xTvbIHZyDUAj6K0M2LqccmP7efobuJJWRlRLv5Gt31Rcq3S23u2z25OpND3wc10sVY+kkl5eUVDOjop2j0bJG5kg+TlxXsunGSklJcmc6UXCTix6IiZXo8BEyiA8mHD2nuAQtkVyim1/4NdvqpmefXWSmZJHk5LG0V1MWfshY4fUVrbWzDgzim194aO8OnfKNRLSnUFBSxYyS59G2oZj+PNn61y89aRhPwkjqYDWsl4o1oOHK9w+BIUXhTSGenhkx9ONr/ALwCvJdQ5mmj0ZcYRO/plXlPwKAmEV5T8D9ycrh+ifuQhkV4edobd+MvbZkjBJHTyV1Y4EduSgqOU/Y9zFyfxQ9Qm98Xd4pC7m/I9lt1ABjtlslQR/6Rle14WFrbX8WlNOcg0OnrjUNx8S6nj/ZIVwbxAa6O58Zm6U0R5mNq6ODOPWO30rHD7CCuTzz/AEidblg+rMfE+1MIuscoYRVQIQq8SQ0EuIa0DJJ9Aqua7J7ZTbz7waM0NE2Qsvt0ipqkxEczKUZkqXj+DCyU/YvMpKEXJ9xkhFzkorvNh+xNOOCnw7b7uPLHHHrLVVM26UwIYX+dUhsNti645msY5kzmnqOaZaugHNGHSOmf3dI85c89y4k9yTkn61sP8XbdJj75oTay3FsVBbac36ugiDeQPdzU9IzA+jysbUnl+D2H4LXgubgRbg7pc5PX6dx0M6SUlVHlEqAkdjhFV1Dln1NJ6sv2gLibhpa+3TS1e4cpqrJXS0cjh8CYyMj5HKyt2o8UrePQT4YNTfkvcS1sIDm3GIUVaGAYDW1ELeXPqXPieT8Vh6i17Meq7tx1NmvItqfuyNr1u4xOF3i6t1NZN1rBRafur4/JjGsKZjWRF3V/s9yjOIhkY5i+Jx+C9DUvhK7f6k1VY7vpDWNxodGz1LZ7laZpBWial+lyUtSCHsDhhmXmQ4eXA5aAdaG32hL7ulrazaP0xR+3328T+z0sDjhmcFznvODiNjQ57nY6NaVtl15qrSvhmcKNs0zYJIbtq+rbLHbY6loa65XF4BnrJWA5EMZLSQD0aIo+bLg5cLIqeLOMMeb1l3HaosWRFzuitF3nUHia8SF129o7bsVo621GlNPz2yMV1ZBA6lZU0gAayhpHYDTEGgCQx56Yj6DnB1sNAaAAMADAAHZbHNtPEi0TvHZP3EcSGi7U+21Pum9U1I6pt/NggPlgdzSU7x6Sxl2HOz+bAyvicQvhiNfZ/wB2+wl3ZqrTtRD7WzT8lY2okdESSHUVVnEzOUjDJDzEN6SPJDVs4tscRKm6O6/Huf1NfIreT+pVLVLuNf6q/Sqpaigq6ikq6eakq6aV0FRTVMbopYZGnDmPY4Atc0ggg9QV+QXc5nFa04MvZRMohDxkjbNG5j2h7T3BW0Xw+OMH+jHaZNkd03R325y0UsNqrri0TflikEZ82kqQ76crIwTzH98jDub3mEvwE2I4edc8R+qn2PRNq9qEHKa661RMdDb2u7GaXB949SI2hz3AEgYBI2P6d2W2B8OHTFHrDXVwbqjXzw/2KuqadsldPIAOZlvpOYiEDsZM5HOQ+UNcAuNtCdU49Fzn3ac0dnBhbF774R8zru2+EW6o3kvX5Q1V+T9q4ZxNbYqImS61EThn2d73gtiEZPL5vvue1o6NLiW8x3F429lODrTVRt/sjpyg1DdqdzvMZa5D+TYJy0AvqavLn1Mo93IaXuPKWuewhc81dr+Tjx4FNZ3HRBuGn9QSwVEL7RTVLnzNqaZwkdRPezlD2zxcrcfRInGc4IWmuneyWnifEA2JzQWtAwAD6YWtj1SzG1ky7PDQz5FscZJ0x7Xedh7z79a84gdQflfXWoJ7u+N7pKS3t/NUNCD6QQA8remBznmeQBzOJXAM/endPVd+MIwW7FaI4c5yse9J6svp1GR6grabwstfxYeHHqfbasc+qvVjhqbBSOmlw4yQtZU21/Ts1nNAz5+SVqxWwbwd9WNpNwdzNMOLnPuFsobpG0no3yJZYnkD5ioi/khc7aMdad9c4tM38CWlrg+TRr2p5/aIIpsY8xofj4ZGcLzXMt57DS6W3n3EsdFGIqK16nutDAz9WOOslawfY0BcNXRhLeipeJoWR3JuPgwqpjP1J2Xsxj5raB4Od6qJtIbo2hzyaSmutFVxs9BJLTcrz9ogZ9y1fraH4O1tfFobc248mIp71S07XY7mOlDiPs80feuVtPTqz18jp7P16dejNbGuLSLBrrU9rAAbQ3iupQG9gGVMrR+xfDX39fXmHUm4GqrvTY9nuN6r6yLl7cslVK9v4EL4C6MNd1amhZ25aeLCIiyGMEL8ax3JR1LvhE8/bynC/ZdicOe3Dt3d/NvtHCnFVT3O8QGshLg3mo4T59T1P+wxSfXkBeJyUIuT7jLVFymoozl8RW2yaF4KdiNGXF7RebfV22CVuepdTWmaOU/ynt+8LWr2WfnjB6ybct1dvdKNZgWezVF1e8Hu6qnbE0H6hSPP8ZYCfYtDZ6fQKT722bue/wBbRdySCIi6RzgrGMyMGe5Ci9i3WS4aluVFZrTA6ru1zqIqCip2fSlnmeI42j5lzgo3otWWKcmorvNh+s4ZdH+Dnpe2VjDHLeJaKWJrumWz3c1rMf72AfqWugLZR4pVVQbabCbNbR29zpIqaaOWOTmHMKe30gp2cw/snVDD9bD8FrXXM2fxrlZ8zbOjn8Jxh4IImUXTOYEVUVAREQF9VERChETuoQIEwmEKMJ3CIqQJ6oiFCJ80x96ADqorlAgBHVET1QD1TsiIAiIgDehB+C21cCVbR8R3AdfNsrhPyVNvguGlZpZMSPZDKwyU0wb6BrJ2Nb84T8FqVwsvfDF3xi2p4g/3NXKcQWPXMMdsLnYDWV8Zc6jcSevv880IA7ulj+C5u0K3ZS5R5x4nRwbFG3dfJ8DEmutlfZa6qtt1ppKO6UM8lJWU0ow+KeNxZIwj0Ic1wX4LNPxSdhHbb71w69ttN5en9aM56gxsxHBc4mgSjo0AebGGyDJJc5kxWFi2se1X1Kxd5q5FTqscAmEQfWtgwGdnhHblR6d3p1Zoqpkjii1NaY6yl8x/V9TRvdljR6kxTvcflD8ljnxd7VSbMcSeu9NCBsFudcH3O2COMsj9jqiZo2s+IjLnxZHrEVwbbDcW6bQ7jaa1tZ2ufcbBXx1zIWvLPaGN6SwFw7NkjdJGfk8rY/4k+1Ns302N0rvvooflM2qijnqJoIzz1Vmnw8PIwXZge4PwccrXzk9sLjTfV8xTfKfD6nXgusYriucTVyExhPUphdk5AXY/DZrUbccQ+2uo5KgUlNRagpBVTk9GU0r/ACJifl5cz11x2XjNCKiGSJxwHtLSfhkYyvE4qcXHxPdctySkbAfGE0YaLczbrVgJ5bnaKq0OGOjTTTNmZk/MVMmP4JWAAW1feOhm4z/DdsWsaNjq/V1io47y5ox5klZRh8FfHgAn32CoLWjHMTGtU7XB4a5h5mOALT8Qey52z5/pOt84vQ386Gk1NcmXCIEHRdQ5p5R9JG/WFshqnPungtxmjic8w08IkYwZIEN/Hmn6gGOJ+S1urZX4ZeoLVvBw+7pbHX2rky72iSJj3NLm0FfEY3mJp9Y52yOJxgGZnxXL2hrGEbPlkmdPAa35R8Ua1XfTd9ajHuhqYKmJ74amneJIZ4nFkkTgchzXggtIPXIK+rq3SN22/wBVXnS9+h9nvVlrJbfWMGcebG7lLmk4y1wAc09iHA+q+SukmpLXuOdo4S070ZYbG+JXu3tD5FDfqpu5On2YBpr9MW17GjPSOtALickfvzZO2AWrK2l1nwq+IbJFQ3qkGltxp2iOE1ZbbbyXYDWiGoaTHVgdeWMmTABJjC1RBdwcHeln6z4rNp7Y0AlmoIbiQf1aVr6o/hCuZkYdSTth7rXejo0Zdjarl7yNmti2TPh+8L24dy0Bb7huFrioLqoVEdBzVFRI54ipgYogSYadj/Mc0d8TOHLz4GnCtu1TfrhW3OurpLncK2okqautmfzyVE73F0kj3dy5ziSc/FbSuMfxAtX8PPErbdMaetdsu2nLbaoai7W6tzHLVyzvLhyTNyYnMjjbynlcD5r+ZrvdLfK3TcLfiLnyqigOid0po+ZzY+S33h78Auc14BirmgMI94PLWgktjytDGssx101sdVLjr/k3siuF/wClXLRx7jVb3RZJ8TnAVuLw2R1F4c1ustER4LtQWyAsfSjHeqp8uMQyD77S6PtlzS4NWNYIIBByCMjHqu/XbC6O9W9UcOyqdUt2aC+hp7T111bfqCx2K21V5vVwk8mkt9DEZJp34zhrR8ACSewAJJAGV56a03dtZahtlgsNvlut7ulQykoqGEgOmlecNbk9APUuJAaASSACVtS0tpXbLwtNlv3RakdDqbdS+wmnzTHFRcZhyuNLS8w/M0kZLS+QgZw1zgXGONa+Tk9DpGK1k+SNjHx+m1lJ6RR15sp4euiti9Lu3M4lL1a2UtAxlSNPPm5rfSuxzBlQ4dauXOGiFgLCQWgTBwXX3EN4nOqNV8+m9n6Y7f6PpmCmiuJp2C4zxhpbiNvVlLHg4aGgyDlaeZn0RjZv3xE654ktVtvetLl50dO53sFnpSWUNvae4ijJ6uPTMjsvdgDIAAHWSwV4jnLpcl7z8O5GazKUFuY/BeJtV4KOKGx8WW3dy2S3gEF81E+jfEx1eMfl2iaAS7mGP6qiwHEtw7DWytOWvLcCuKXhtv3C9uhUaauQnrbJVc1TYr1I33a+lBHQkdPOjyGyN6Hq1wHK9pPVVnvNfp28UF2tNbNbLrb52VVJW0zuWWCZhy17T8Qf8oPQrbNtjrnR3ib8N1y0dq9kdo1/ZxG6rNOwF1JVcrhBcaYE+9E/3g5hORmSM9OV7sE4vAs6WHYfNeHmZ4SWbX0cu2uRqO7phcm3N221Bs/r286N1TRijvlpm8qYR5MUrT1ZNESBzRvbhzTgHBwQCCBxgd12YyUkpLkceUXBtMqeiAJlejyFzfZDdmu2J3c0tr23tfK+y1YlqKeM4NTSOBZUw9emXROeASDh3Ke4XBJ54qbl82RkZPYOdgn6h6ruDbLhH3j3d8uXTO3t4koHtbI243SMW6jcw/pMlqOXzB/aw4rBbKtRaseiZnpjZvKUFqZgeKztRQaiseiN8dMPjrrfWww2q4VdLl8c9PKDLQ1IwMcuXSMLyevmxAdlrjC3U7JcLurv6Ti77KbtXG01zpoqmgttVaZpar2SkeGvpi4ytj5pIJi4tAAaGxxAHoV0ZS+FRtft/aXV+5u79xFM059qhNHZKYD4OM3mn+/C4uJm10wdUnro+Gnejr5WJO2SsitNeZrJDSewJX4urKdj+V1RE136pkGfu7raBVaU8P3aCaldcLlY9U3CLp5huNbqAyuHXL44XSRfe0BIfEd4dtrzUM262kroqhnuxy22xUFpglH8MvEgH1x5+S21mzn8Opv8Gt1KMPiWJGuvS21ut9cwOn0zonU2pIG45pbRZKqpYM/2TIyPxXb1g8P3iD1LDBPT7a1dHTy/1263GjpCz5ujdMZB/JWQOp/GI1ZWRFum9srPaZMHlku13mrQfnyRRxfdzfauqdU+J/v7qJ4dQ3qxaVA7ss1kY/PzzUumXrpM2XKCj6vX+CdHiQ7UmzmGmvCN3auckT71qjSNhpngc4glqa6dn8Xy42k/U9Z7cIvClDwtbcXnS0mpJNWOu1xfcJ6h9EKSNpdDHFyNj53/AKMYyS45+AWonUvF9vjqyp8+4bs6qjee7bbXC3s/k0zYwFlF4Wu/WrLzv1f9Laq1deb9R3ixPqqVl7uc1Y4VVPMzpH5rnYJimkJxjIjHwWjl05UqXKyS0XHRI28a3HVijXHizl8XhW7Q6KjDNY7xXekibhjf6ot9uwB2BMjZCcBKXg64L9PSYuO9MFwcOpZX68oo8/ZEGLCfi+0XHpDiq3Yt89NE6R+oqiuaXxhx5KoNqm9SPhOupGQRxD3I2M/gNAW1XjW2QUna+Jr2ZFVc2lWbOqzbTw97G0Nrb/ZK8gYLmaruVTn+5TEL5rrR4cVKT+ctz8d8Vl8kH4OK1th7gOjnD7VfNf8Aru+8rIsFrnbL7nl5/hWjZU2Tw5Y+zbQQOuS29OVdU+HLUPMbjZmk+uLzH+PT9q1p+Y/9Z33pzuP6R+9Oo/8Atl9zz13/ANaNzPCVYOE6l3GuFZsXPbp9XMtcjagU9xr55G0Zlj5yGVDy0DnEWSBnqB2PXgW7GyvBpuhuTqqtv+4Nt07rGS5zsvAGrfYZRVsPJKDFO7lBDm491uOnRdR+D3p0Vu6O5GoM+9brLRW8A/CoqJZD/iwWHe/9ey77/wC6Vax3PBU6tu8rM9fd9slA/ABc6vGcsmcFY9UlxN6eQo0RnKC49xsGt3hj8P2tGc2kt17/AF7n9YzR3u3V7MfICDJH8ZfDung3jzXPtO7sjW9eSK4adbJ9746hn+CtaRoaV3U00BPx8puf2LkWmddan0S4u05qe/adce7rRdqmlz/c3hdDq2THsXfdGl1nHl26zL/UHhIbwW+SV1q1Joy8U7foCWpqqSZ/y5TC9oP8ddX3rw8eIexid7tuJK+CLP523Xehn5h/YsMrXn6uXK+DpfjZ350azkt261/nb8LuYbn+NTG934rtXTHiq75WGJkdfHpLUnvAuluFpkglcPUAwTNaD8+Q/UvOmfDk4s9LqU+eqZjpqfYzcvRMEk+oNudW2alj+nU1dkqBCP8AfGsLPT4rLDwj9tG6o3n1LrueBstDpe2CippXtcOWsqnEFzScDLYYpGuHoJx8V2HpXxjoDNBHqnaupp6cNzPV2O9MqHfMthljj+vHP9qzhj3d0U/Zu37gakqKfSWlr7QU9dK7UMkVOWsqY2+WyYhxbzlrmtwHH4ei0cvKyFW67Iaa95t4+PRv9JXLXQ0f8Sm6jd7d/dda0ikE1Dcbk+O3vAIDqKACCnIB7c0cbXn5vK6zW2E8A3Crvm+aTbrVTaKVnvuj0bqaKujaT196KUzBo6/RHL9i6l114PWrKHL9G7jWe7sc4n2e/wBBJQuY30HmwmUOP+9tW9Vn48YqD1jp4o1LcK6UnNcTXyp2Xem43A9vltfG+oum3lzuNCHECs06W3SMgdS4shzK1vzdGF0WHjzZIj0ljcWyROBa9hHcOaeoP1hdKFsLFrCWpzp1Tr7UdCrxc4MaS4hrQMknsAvId1lH4fnCz/TEbttut8pDLoPSssdVcRIwGOvqfpQUeD0c04D5Bg+4A048wFS22NMHZLki1VO6ahEyp4E9lLFwpbGXrfrcxwtNzuNt9pYKnHPbrYSHRRNb6z1DvLcW5ySYowA7mB188QO+N84jN1Ltre+g076r8xQW/nL22+iaSYqdp9SOYueQBzPc84GQBkT4k/FY7eTcN23unKvn0Tpaqc2oli6NuNyZlr3Z9Y4cujb2Bf5jsuHIRhh+C0MOmTbybe1L8I3su1RSor5IA46jou9OGDjA1zwu3kCyzG9aRqJQ+u0rWTFtPIc+8+B2D7PKevvNBa7pztOAR0WgXRsrhbFxmtUc+uydUt6D0NtG7/D3th4jG2ke6G2FyprPrl0QiNZMzyzJPG0ZornE3Ja9ow0SDLmtLHNMkfKHasdZ6Lv23WqrnprVFqqbFqC2y+TV0FUBzxnuHAjIexw6te0lrgQQSCuX7B8QGruG/XsWqNJ1fR/Iy42mV5FNc4Wkny5R6OGXckg95hJxkEg7Ot29pNvfEr2GtmudF1cFu1jSQvjttxnbiWlnb70ltrmt68nMfmWFzZY+ZriJOPGU9nyUJvWt8n4HXcYZ0N6PCa/Jp7cQ0FxIDQMkk4wPisw+D/w8NRb/ADKHVutH1Wk9vJWCenDByXC7tP0TEHD8zCR181wy4Y5G4cHjs3hj8P8AtO2liqN2OJF1DZrVZiamLTVfMx9NCGOw2Wtc0lspLsckDch2Wh3MXcg6q4xvEC1FxAS1mlNHvqdL7bdYpGtJirbw3sTOQfzcJHQQjuMl5OQxuWzIsyJdFjcu+Xh6GKuiGOukyOfcjvbezj90Bw5aUG2PDpZLVVS0LXQOvELee10T88rnMOeatn6EmQuLS4gufIeZq106y1nf9w9T1uo9UXmsv9+rXF01fXyc8jhkkNb6MYM+6xgDWjoAAvitAa0NAAaOgAHQBAtyjFrx17vF977zUvyp38HwXgZxeE9u+/Se9150DVTYt2rqEz0sZycV1K0vwBnA54DLzHGT5LAsf+MHbOLaHia3C01SReVbW3H8oULGR8kbKeqYKhrGD9VjpHx9P9LX58IFdNbuKraSWmc6OV2oqeElnQlj2vY8fUWuIPyJXfXi3WhlFxL6drYmCP27ScHmY7vfHV1Dcn+K9o+xamnR5vD9y/g2dekxNH+0wnKIEXWOWFnN4Q1rqJuIXWFzawmlpNKmmkeOwfLWQuYPtED/ALlgytn3hcadpNpeHrcvd/UHmU1trJpJDKWZDqC3RPLpWfHMr6kfXGFzdoS3cdrx4HRwI63a+BgFxFyCfiL3akb1a7WN4IP/AOdlH+RdfZwub6R273I3+vdZd9O6Pvuq666VktXV1VtoXup2zzSOkfzzuAjZ7zz9JwWRmhfCr3u1XHHNe/3O6JiL+WSG5XA1dS1v6wZTNfGfqMoWbp6qYqM5LkY5UW3Tk4x4amHn2pjPRbNNOeD3ZLe/z9WbrXGsomtzJHabTBQFvTv5sz5ug/gr3KXhX4IdtI5Gan3Et2opYjh8V51swyg/2mlfF93KtZ7Sp/Ym/RGZbPs/c0jV+8iJuZHCJv6zzyj7ytrvCZK7hl8NzUOv6135OuFxpbjqanZV+6DLKPIoGj+2iOm5fj5oXPNg7Dwfbm3+t0/tno/SGpLjaacVdRKdNPnbCznDWk1VRCWlxPYc5ceVxAw0kcg4jOPXbbhn1jT6PvVBe77eTRsq5aawwU8jKRjiRG2UySxhrnBpcGjJ5QCcAtzzMnKnlNUxrfPVrvOhj40cZOyU16mmbS21utNRUkDbLo3U165WNbzW6x1dQCcderIyO65Ezhz3dkPubS69d/8AtetH7Ylnre/GNtVPM5tl2nuldFn3XXG9w0px8wxkuPvXwp/GSub4yINnqaJxHR0uqXPA+wUY/auh0+b3VcPU0+hxObs1Zhgzhj3lk6DaLXX26fnb+0BV3DBvO0f6EOuvr/IMx/YFlzL4xGrZPobY2Ng/s71O79kAX4Dxgta597bfTpHwbdKkf+qV6bM/419ydFi/P/37mJLuGfeVmObaHXn2aeqD+xqzi8LXhk1PpDXOq9wNb6Wu+mKijo22i0Ut6oXU0kjpSJKiZrXgOHK2OFgcOh55B6EL3do/E63G3n3Cs2jNM7Q2atvN1eWRk3+aOKBjRzSTyu9mPLGwdXYyT0DQXEA9+cZHG/bOFF+nrZT2JmrNTXcPqHW38oCkbTUjPdMz3COR3vP9xg5fe5ZDkcmDo5GRk2/6dw0cjcooor/WUuCNW/GJrW67q8Ret9YTWq6Utoqa32K1yT0NQxj6SmaIY3sLmDAfyulI9DIV0Z+UKXPK6piY4ej3hp/FbOLd4yNHM5ouG0dbTsPd1JqCKYj7HwsXLaTxcdp7hTNiu2htaRud0c1tJQ1LB/6SCf5K2oX5NMVDoeC8zWlTj2ycnbxZqfinim/e5Y5P4Dwf2L9CCO4IW1pvFpwU65DqnUuk7LRVLhhxv2gjLKR/DjgkH4r06XTHh9bo1Jmp6vRtrmd1H/TWrsOM/BjpIR9mF79oSj26pI8dRjLjGxGrBZl+FtsadyN+ptaXCl57FomEVEbntBZJcZmubA3BHXy4/NkyDlrvKPqFkNReG/w07oVs8uidx7tN0yKXT2pqO4Rx/wAuOV+PrcuVbn1GnPDb4Pa/TulrpLV6uvNRUxWqrquRtVV3Cf6VW5rWluKeIMP0eXEUTCcvGcN+cr4dDUnvS4GWjEdMulsa3UYKeIPu/FvDxRaklo5BLadNtGm6J46B5ge51Q/vg5nfI0Ed2xtKxv7LxjYImNYCSGjGXHJPzPzVC7FVaqgoLuOVbY7Zub7yp3UVHRZjCEKeqIB69EKKeqAqInqgCJ6ogGEREAREQBPVEx2QgREQBPVE9UBFQiBCgoiICqJn0TugIvJjnxua+KaSnmY4PjmicWvjeDlrmkdQQQCD8QoiBPTijb3oO/WrxKOC64afvE9PS69oGsp6yUhuaO7Qt5oKwNA92KYdTyge6+aMH3SVqUv+n7ppO/3Kx3yhktl6tlRJR1tFL9KGZhw5vToRnqCMgggjIK7e4P8AiUrOF7eGj1C/zqnS1wa2h1BQxE5kpubLZmt7GSFxL2+paZGAjnys1/Ei4XKPdTRkO+23wp7jXUtvjqLsKDD2XW2cnNHVxubkPfEwg5/Si9fzbGnhVvqN7rl2JcvJnbmlm0qce0jV16oB1Ua4OALXBzSMgg5BHoVR1XdOIAevzWfPhl8T9FZaufY3W0sE+mb8+T8gmuIdCyolz59A4O90sn5nOY3oOcvbhxkaBgMFSHMw7mdGWkOD2ktLSDkEH0IIBB9CFrZFEcitwZsUXuiakjv7jS4W6rhc3Wfb6ON82ibyX1Wn6txLiyMEc9I9x6l8OQASTzMLHZzzAdALZ/w4b6aO4+dlqzY7diqh/d/S04dR3EyM86vMTSYq6nOcipiAPmM/SHM7qx72t1/b7bHar4ctcVOmdZ0RpZGucaK5NYRSXKEHpNC/sQQRlmeZpOCFq4t740XduP58zaycf/dqXBnAUA6r8GV1NI4BkzZD8GZcfwX7uY9reYw1AYf0jTyY+/lXS1Rz9yXgZ1eFhxIwbfbg3Da2+1TKeyasnFVappntYyG5hgY6Ikj+vxsYBk/Tia0AmRdV8fHDI/hx3nnltNGINC6mfJX2YxgBlLJnNRR4AGORzuZgxjy3tGSWOxjHJXwwuBFV7PK1wexzXmN7XA5a5p6EEEAgjsQFtf2C3j0Z4jnD7cdrNw6ym/og26nbJLPE1rZXvj92G6UwHQPBIEjW4ALnNIDJAFxr08S7rEey+0v7nYp/1NPQzXFcjVMmVznezZnVHD5uBWaQ1jSikr4SX01Y0EU1wgzhs8Dj9JrvUfSactcAQuCNe130XtP1OC68JxmlKL1TORKEoPdkjzXY3D1vbdOHbd+w66tgkqI6F5iuNBGce20L8CeHuAXYAezPQPjYT2XXJY4D6Lh9igyEnBWRcZcmSE3CSlHuNiXiX7EW/Wun7LxE6CfHc7JcaOmbfJqb6MsDmtFJXAEA9AWxPz1AMXQcjitduMH5rO3w3eKW26emqNjdwHU9VozUTpIbO64YfBDPNkS0MjXZaYpy5xaOg8xzmkHzRjpjjP4Rbrwr69xSRzVu3t3lcbHdHEuMJwXGinPpKwA8pPSRgyDzNe1vMxbHRPqtndyfijp5Nauj1iv6mPHZZB+H/daezcZW19TVzNhhkq6ula5x7vloKlkY+svLR9qx9C+rpTVNboTVlh1TbWNkuVhuFPdaZr+zpIJWytafkeXB+RXQuh0lcoeKNCme5ZGT8TJfxPLJVWvjAv8AU1DXMjulottZT59YxG+EkfU+JwWKYBDo3glr43B7HtJa5jh1DmkdQR8R1WyvxSNAUO5e123W+2mR7ZbWU0VLV1LIyC+31gbLSSuyfdayUhuMZzU/Ja1Fq4M1ZjxXhw+xs5kXXe5Lv4mcXC34m+p9upKPTe6xqta6VP5pl7DfMutE0gAeZ29qjGOufzo5nHMmA1dpb5+H5oHiC0kNy+HO7WmnlrGGf8jUswFqr3Zy5sX+o5upHJgMDgGuZGeZy1mdl3Rwh7vaz2m3z0hBpC6VFNBf77b7bcbT5n9S3COWdkREjD7vOA93LIBzN69cEg4bsV1t3Y73WvszNTlKzSq9apmZ/Abw4x8M2iNY767uWyWxXa2U1ZDR2+thHn26jgLhPKATgyzuYWM5e8YbyuImIWAe929GoeILcu6631LK8Vda7kpaEv5o7fSAkxU0fbDWgkkgDme57j1cVu44q9oZuIHZDU+3VDfILJdbxDFNTy1DedrvIqIpsPaCHeWXNYxzm/RDwcH6J0Y7kbb6m2j1nX6V1daJrLfKI/nKeX3myMOeWWN46SRux0e3p3HQgga2z7I3zlbN+/8A2M2dCVVca4L3TjPfsiJ6rvnEC5ns9u7qXYvcO0610nVCmu1vcQ6GQnyKyB2PMpph6xvA+tpDXNIc0EcMXjJI2Fhe9wYwd3OOF5lFTi4y5HuEpRknHmbWuJHbfTfiF8NVp3Z23pmP11Zqd5joxg1MgZ71Ta5sdedpJfFkY5iC3DZi46ovaYhAycyNbE8Atc84/wDkrZp4YOxO9O3epK3VV1p26X26vVMW1VlvTHtra2VoIgqYYOhhIIIL5MF7DgMOWPbkLuro3YHg+or5vDctu4X3WuurZ5K2gtxr6sVkzicxGUllKHO5jzB0TOYgZ5nNB+dryliTdEfeXdp/B3rMfrUVbL3X3mrDZ3g63f3zdTz6a0bV01mm5SL5fAaCh5DnD2ueOeVv9qY9Zo7c+FHo7RVrF/3i166up6ZrZqqjtkotltiA+kJal5817P7IGJdVbu+LFuVq3zqXQdjtmgaJ3RtbU4uVw6HuOcCFmR3aWSY9HLD/AF7uFqndS6tuWs9R3XVdawny5LvVvnbCCckRsJ5I259GNAW7u5l/aagvLmam/i0dlbzNoLeJjg54VCYNCWm23q705EZl0fbRcKkg9cm4SkNeP9+J+S6a3N8XnWV4M1PoLRFq05TkuY2uv076+pLf0XNij5I2O+RdIPrWAR646/Yi9w2dSnvT1k/Mxyz7HwglH0M9eDDj23Q1VxJ6Z0/uNrL8t6d1D5trbFPQ0tNHT1Tm89M9nkxNJc57PKwSQfO+IC6i8SPav+h/xZajq5IDNQ6nghvtHJUOdMRzjyp2Bzs4xNE9waOjWyMAAGFjlabzcNOXe33e0VBpLvbamKuoqhveKeJ4kid9j2tWz3j4tNt4nuDPRW9mnoh59ljiur4mOMjoqSpDYq2A8owXRSiNzieg9nesNkI4uTCcVpGXB+pnrnLJolFv3lxNW/ZuAcD4DoETGDj1Tuu0cYIiHuhCd13dwS6oGj+Ljaq5OAd5l4/JxBOP81QS037ZWn7AukvVcn2svzdKbqaHvjsctr1Bba45+EdXE4/gFhujv1yj4pmemW7ZF+ZkF4nGl5NP8YWoqyQ4bfLXbrmxuOwERpT+NKfvWKwWd/i/WGSm3y0Nej+9VunJKRpx3dBVucev1VIWCC18KW9jw9DNmLS+QRE9VvGmMIiIDZd4Nttkio93bi796mqbVStPzjiqHn/lgtcF+uH5W1Dea7PN7VcKufPx555HZ/FbTvCGpo6fYfXVe7Ac7VUkTj/Yx0FIR/hlamreS6gpnHu6MO+/r/lXIxXrlXP0OtkrTGqR7CD4oi65yR8ETuiA5Bt7ombczcDS2j4Huil1BdaW1CRoyY2zStY9+Pg1he4/ILPfxeNxYKN+3G1duEcFJRxv1BVUrYwGsDQ6low0+gA9q6fJq6j8Lfb392fFNT3ueN5pdJ2qouQeG5YaibFNCxx9PdknePnGusuNfcUbpcU+4t5hc40VLcPyNSAvDm+VRtEBc0j9F8jJXj+GuVNdNmRXdBa/VnVg+hxG++TOjfZovObKI2tmaQWysHK9pHYhw6gruDQ/FzvXt1y/kLdDUbI2tDG09yqRcoWNHo2OqbIGj6sLqJVdCVcJ8JLU58bZw7MjOLQHi27o6eNPDqrTOnNX0kbMPkpvNtlXKf1i9vmxZ+QjaF3FHxc8KXFoKa37uaPi0zfJRHE2s1DTBrWuJ6MiudMeaNgPcyGIfELV2mf/APC0Z7Ppb1h7r8jchn2rhPijZPuF4T2ndXWhuoNl9xY30tRGZaajvcja+hnJd08usg99jAMjq2UnHdc931uMXh48Dtr0hpdzxqy8O/Jhv1PE5rRXzsL6utdIMcrg1rxCHHmHLEAHCN2OvPCN22utkotcbl3C51do0gYzbKWhdUOioqmVhElRVvjOG5iDWxtk/spgT0X2tN+KpoTXOptQ6Z3I0VH/AEOq+sngoLsyE1kclFz4iNbRvaXYc0F5MfPjma3k6Fy5E+nlZ0be/GD1OvHoowU9N1yNYUUbYY2RtHKxo5QPkvJbI9+PDU0vuJpduveHW8UdRTVcbqmLT4rmzW+sb2/qOpLj5Tshw5HuLMnGYg1a6r5Y7lpi911nvNvqrTd6CUw1dBXRGKaCT9V7T1HQ5B7EdQSF38fJryF7nPw7zhX49lL1lxXieigUXsUNDVXSvpKGgpJ7hcKyZlNS0dJGZZqiZ55WRxsb1c9xIAA7krb5Gqk29EeVvt9ZeLjR263UdRcbjWTNpqWipIjLNUSuOGRxsHVziSAAFty4Qdi6XgK2g1JrrdjWMNknu0UNRdLeZw6ht/lh3lxtwC6epPM5pMeeY4Yxr+UOdxrYHYPQ/h77UT7u7vVNO/Xs0HlMih5Z30bpGnloKFvaSoeAQ+QHGA73mxNc44E8S3FFrHif1l+V9RTGgs1NITadO00pdS29nYE9vMmIPvSkZOSGhrcNHDslPaEujr4QXN+PodmuMMGPST4yfcZr+LlYLrqbb3bjWtovNRcNENqnQ1FHTzc1G6WeMPpKwNaMOyBJGHuJA8xnLgudnWR6LaFwYTScVXARrnaK8TNq7lZWz2WhkqJHuMcZjbUW6R5z2ilw1oHQNgaMLV3DI+WJjntLJCPfYenK79IfYcrPgPcjKh84sw5y3nG5cpI8kRF1TlGQvh+6U/ddxgbdQPgfNTW+epu0zm/1sQU0pY4/LzXwj7V2J4r9+gvPFRR0cEvM+z6Xo6SoYP0JZJ6ibH8h8R+1dn+EdteKCbX27d1c2jttPT/ufoqmZ4ZHytLaitkdzdA1vLTt5s4y2QehXU1Zw67oceW/utdwtPWwWnRV4ur3UWqL9G+nppqGINgpzDHjzJiYoWn3QG82Q57SuG7YdclZJ6KK0+p3FXLqihFcZGHznBjC5xDWAZLicAfau3douE7dvfSKGr0homuqbRLgtvNxLaGhLScFzJZceaAe/lB62G6X4SOG3gqstJqbdW/W7UN+AMkNfqhrXMc9uA72O3N5uYjmaejZXt78wXXe9Hix3K9XBmndldHS1NVVTto6W63uB0k9TK5xYxlLQsPM5ziW8hkcM5wY16ebZdwxoarxfI8Rw66+N8uPgj8NtfB4rZ/JqNxNxGU7TkS23SdL73yLaqoB/wCR+orJbevfLZDgp2z07t1ebVLcbVNQmlo9IW+lZXTS0gJDpJmzPDORziQXSu993Njmw7Hpbb1uouGDZu9br8Ruvq6+6sq6djqm3skZ7NQf6XQUdPHyxOne7Ae9oAc4DrysL3ak9794r1v5ulftdX5vk1dzlHk0TZOdlFTMGIadpwAQxvdwA5nF7iMuK0aq7c6z9WWsY+Hj5f5Ny2yvDr/Tjo3/AN4mZutfF/v5g9l0JtparPBEeSGe/wBc+pBjHQDyIBGGdPQSELH/AFx4gu/uvBURy6+lsNHOc+y6dooaIR/JsvK6b/jFjwou1DCx6+Uf7nInmXT4Nn1tV6sv+vattVqi/wB31PVNGBNe7jNWuA+AMrnYX2dotn9Tb2a9oNGaJtTK29VfvuyPLp6OAEB9RUPA9yJuRk4y4kNaHOcAeScOvDjq/ib123TmladsNLTckl2vVSwmltkLicOfjHPI7DuSIHmcQT7rWuc3ZBrbWO1nhe7PjT+lqOO+7jXuLzmRVLgau5StBb7XWOb1jp2HmDWDAzzNYMl7xiyMlUtVUrWb5LwM1FErV0lz909PWGs9A+FvsPTaU02ItUboX1hqG+0jlfXVGOR1bVBpJipYz7rIgcnHI0kmSUarNS6lvGs9R3K/3+5T3e+XOd1VWV9Qffmld3OB0AGAA0ABoAAAAAXua711f9ztYXXVWqLpLeL/AHSXzaqrm6Z9Gsa3syNow1rB0aAAF8ALLjY3Qpyk9ZPmzDk5HSvdjwiuQREW8aJAvKON8sjI443yyvcGMjiYXve4nDWtaOpJJAAHclWGGSomihiiknnme2KKKFhe+R7jhrGtHVziSAAOpK2ccInCBp/hg0jLvpvrPS2i522D2uit9cQ6OysPRsjwM+ZVvyGtY0EtLg1oLyOXUyMmOPHV8W+SNzHx5Xy07u9nJ+F7aHTnh/cP183Z3PLKfWF0pWGpp42B89LETmC2wZ6ulkfyl+CGl+Mnli51rR3g3Yv2+O5N81xqWQG6XWbnEDDmOkhaOWKnj7e7GzAz3ceZx6uJXZPF9xa3zir12yrfFPaNFWt7m2SxyEc7QehqajBwZ3j0BIjaeVpJL3O6CwtfEolFu63ty/C8DPl3xklTX2UVECi6ZzS5wjnkNPM/DQOvMemFFmT4f/BPUb9ahpNfaxoeTbO1z81PBUM6X2pjdgsDT3p2OaQ9x6PcPLGcScuvddGiDnMz00yumoxO7PDf4drVstt9d+ITcJkFmM9tkktbquDl9gtYbzyVZGM88wHugDPlgYJ80gYUcUnETduJ3dqv1XWCajs0INHYrXMA00dGHEt5gMjzZD77zk9SGglrG4738Q/jRbvdfZdu9FXAS7e2qcGtraZ35u9VcZ6YcPp08Th7v6L3jn6hrCsK+60cSmUpPJtXvPkvBG9l3RjFUVvguYwiIuscodUQdkQBMIihAiIqUd0REARECAYTCIhB6p6oEQoREQD5IiYQBE/YhQBMIg9UA9UREARE7IQioKIhQDj5LPHw1+MmPbS7Uu0ms6sR6UudQRYbjM/DLZVSOJNM/PaGVxJaf0JCQciTLMDl4vjbKxzHgOa4YLT6ha99EciDhI2KLpUT34m1Hdnwj7FrTcK733SOuG6HslwlNSLELGKuKllcSZBC4TxhkZJyI+UhmSAeXAHr2TwgND2yF8uqdzNR1rGN5nyW+Ckt7BjuSXslIH2r8eAbj5g1jSW7afde4A317RRWXUNc/wB26tI5W0tS49qjGGtef37oD+c6ydB8c3ADe9mb1c9caUpa3VW3k7n1U4mkkq6yxnqXNmLy50sAGS2Y5c0DEnYPf8/GWSrOr227vhw5/U7slTKHTQr3jIqDhH4KtANkpdSa6tV1qIR+cjvuvGwyj5GOCWL7uVfhSXzw9dtqvkih0nc5mdvMoq6+t+9zJmlas4YYog10McTARkOjaBn5jC/Yvce7iftXR6hKXbtkzn9eUezWja7ReILwr7VVJOitIVI5c8sul9IR0QORg4MghPbp1Xc3D3xz7W8Td/l0/ZXXKzagY101PadR0scM1VG0AukhLHyMfy56tDucAE8vKMrR0Cv2oq2qtlfS11DV1FBX0krZ6arpJXRTQStOWyRvaQWuBGQQV4nsuuUeDevieobRkpcY8Dc3xOcdlZwv6njtl+2ovtbbat5FuvtPWwNoazoDyh5yWSDrmN4DvdyOZpBXRcvjJwteAzZ+rLfi7UUQP3CAr8+HfxANJ74aWftVxF0VtlZcom0jb/WRtZb7h8BUjoKaYENLZWkMLuoMRa3PUfFx4cOptmH12qNvo6zWOgmjzpKVg825WpmevM0daiEd/MaOdozztIaXnRqx8eEuiyYaS8dXozdstulHpKJar04na7/GVlBIZsw97fQu1Q0H/FV7Nv8AGLoXyh9dtBWUzv16a/QSnHr9KFn/AMgLWhG9ssbXscHsd1DmnIK8l1fZ2Np2fy/8nM6/kLvX2Nz2zPGXsxxm3F+hbxpw092LRVU9i1jRUtRBXFueY055pGPewdS0hr8EkAhriPlb73fhm2A1LS2zcDYi12u11bW+zajg0PSVNtneQSYmywtL2yDlOWOY04GQCOq090dVUW+tpayjqJqOtpZmVFPVUsropoJWODmSRvaQWuaQCHA5BC2H8PPiTWfWVi/od8RVuorpaK2P2Z2pZaNstNO3Aw2vp8EDqP31g5clvM1mC9c6/BdL3qtXHvWvH6G/RmRu92eikc0pLh4fG5dSyi9n0napnHmzPSVtiAz/ALKRC0fyl79w8M3YHdyiqLntrri4UMRAEbrLeYbxQxn4kSc7z9QlC6x4gfC9bcbezWOwF2pr/YKyIVMOnaivbKHRu6tdRVhcWyMILcNld2BIkOQ0YB3XT1z0ZqOahudsrtN6hoXDzaapgkoqynd3GR7r29MHPY+hWSipWrXHuafg+76Eutdb/VrTXkZt6/8ACE3HtMUx0rrHTurKYRkuhuEM1rqHn0a0DzmE/MuaspuGR24G6G3d/wBj+JXby5VVVQ0DA28XOL2iku9GSAwPrIi6M1cR5DzteJDhr+j2OcdZ+h+L7e3byYSWXdHUbmABop7tVflOANHoGVIkwP4JCzC4f/FQ1rqS7wab1boi1324zt5aWus1W6gMjmtHSSOTzG8zupy1zQP1cLzk0ZcoaS0lp38mi0X4yfu8Ne7uMbeMTgwv/CxqX2qnfUXzbyvl5LbfJADJA85xTVWAA2QY91+A2QDIw7LRjiMtPwK3aaW429kt4zddCazmi0jey6S33PSmvadlO1xBDXRl7i6nlDiejQ/mcOvKsT+KnwtrlpdtXqfZkz3qzMDpZtJVEpkrKduc/wBSSuOZ2gE/m5Dz+77rpCQ0ZsbOa0ryeD8fEwZOEnrOnivA+74cm8On939qNQcNuvfLqIJKOp/I7Znhrqqgky6aBhI/fYHuMjCCXBrgWgCIlYXcRfD5qbhn3IqtJ6ijdUUzy6W03drMRXKlBw2QHsJBkCRndrvi1zXHgliv982/1bSXW01dVYNTWOsEsMvllk9HUxu+i+N46EEFrmOGCCWkEEhbZdrN29s/Ev2Zq9D62oYrTrighbUVdugeGz0sg91twoHuyTGS7BByWcxjkDmua5/qzewrHdFawlz8vMQ3cuvo58JrkahV2bwvMbJxObRB2C391ltPX4iYEfiAvpcSvC5rLhd1h+StRxe32Wre78laipoy2mr2DrgjJ8qYD6URPoS0ubhy4Fttq2PbzcnR2q5ozNDYL3Q3WSMd3MgqI5Hj+S1y6TnG6pyg9dUc9QdVqjPgZ1+KBu/q3bjid25qNK32ssNxsunXV9NUUj8Dnmq3Nka9p92RjhSxhzHgtcB1C7P0fqzbXxStnX6b1VDDpXdmwwmZr6TrPRPOG+10vMcy0kh5RJC4+6cNcQ4RSngfjC6FkfPtnruli8ylc2qsdVVAjAc4NqKZvzyGVJ+z5rXtpHV972/1TatTaauc9l1Ba5hUUVwpiOeJ/Y5B6Oa4EtcxwLXNcWkEErkUY8b8aM4cJrk/8nUuvdN7jPjFn3t49ndU7D7hXDRusKEUd1pPzkU0WTT11OSQyogcfpRuwfm1wc1wDgQuFLbLo7V23Hik7KS6a1TBBpfdGwxmY+ygOnt8rsN9spC45lpZCGh8Tj06NcQ4RSnWXvLtNqbYLX110frKiFHdaAea2WLLoK2nJPJUwOP0438px6tcHNcA5pA38bK6TWuzhNc1/c0sjG3NJ18Ys+RorRd+3F1da9MaYtU971BdJfJpKCnxzSO7ucSejGNALnPdhrWgknotoG2vDbs/4feh4NyN27rR6g1wxrfZpPJ81sNR9LyLZTnq+XOB5zgHYHMTEwuC+tw07WaR4AOGu4bpbhQtp9a3KiZPci5odVRh/vU9qp2nGH83KHgdHScznO5I2lus3e7ezVHEJuFW6x1ZVGSsnJZSULHE09up85bTwj0aPV3d7suPUrUcp583CD0rXN+JsqMMGCnJazf4O8eJbxFtxN9xV2awPl0BomTmjNFb5z7fWxnp/VFQMFoIBzHFgYcWudIMFZNeH/u5aOJ7YfUuw+4h/K1Za6AwRe0O5pay1PIbG9rjk+ZTPLWB2AW/mHDLslatv2rm2y27V22J3U03ruzB0tVZ6nzZqUO5fa6Zw5Z4D0P04y4A4OHcru4C2LsKDp3Klo1xXqYKcyfTb1j1T4H47wbXXbZPdLUuhb24y3CyVRg9o5Q0VUDgHwVAAJwJI3MdjPQkg9QVw9bOvEy2gtu8G0Wl9/dFYuMVDQw+2zwMOaq0T4khmweuYXvyRjIbNIXfQAWsXsVnxL+sVKT58n6mHKp6GxpcnyCIi3DTC2UeFvrWj3M2n3L2N1HKai3+TJU00DpTzuoK1roqqNg/RayX38/GpK1rrIHgK3NdtbxXaGq5JXx2+9zu05WtjGfMZVYbCD8hUNp3H5ArRza+kolpzXFfQ3cOe5ak+T4HSWp9LXDQmqr3pi68v5VsVfUWurLDlplgkdG4g+oPLkH4EL5YWW3if7ZnQvFLW3qGItoNXW2C6tLWcsbaiMezztHxP5uJ5+cqxKDSQSASPjhZqLOlqjPxMN8OjslEgRfi+tpo3crqmFrvgZG5+7K5Lprb/VetC4ac0rqDULm+los9VVH/AIuMhZnKMeLZjUJvkmfAX5VUjqenfM36UWJRj+xId/kXdWmuDPfXVzv+l+0+pY/nc4I7cP8A0l8a5pbvDR4hr22WnqdF0NlbJG5glr79SEDIx2hdIVryyaY8HNfc2IY1raaiZI+MfbjPTbQXRgzFHLdaVzwPV8dNI0Z/3py1qrc/xZ8J+seIzYHb/S1DdLLQ6wsdVSVVbWV8kpppC2jkgnDHMYXHL3tIy0ZA64WL9t8HrWkz4xctybBRsIHO6ktNROR9QdKzP4LlYWZTTQoTlxWp0MvGstt3oruRgAi2Px+DVV8wMm8sYHqGaVwfvNYV7bPByo42jzd46jm9eTT8LR+MxW57Rxvm/DNXqF/gvua1OyLZpTeDzYXNw7dy5SyepitFMB93OV+n/QcrM7AbuxdM+ubNTn//ALU9pY3zfhjqF/gvuTw879NorgH3pv8ACeWa3XG93CI49YrXTkY+1i1hUTSyipmnu2Jg/vQt521HBzb9reGbV20NNqirr4tSx3JlTeXUrGSRmri8olsYOPdYGjGepB7dhjK/wa6UBoj3erWgDAD9OxO/9cFoY+ZRXZZOT5vwN+/FtsrhGK5GtFVbHKzwbLgxjnUm79PK/B5WVGly0Z+ZbV/5F1xqnwl947M2Saz3rSOooWjLYWVVRRzv+pskbmfe8Lpx2hjSfCZzpYN67jCoKLurVnBZvvojlNz2q1BOD+lZmR3Qf+jPefvC6n1Lpu9aGqXQ6jsV309UsBd5F3t09K7oM9pGBbUbq59mSZrOmyL0cWbFvDggGy/ChvLvJUxESP8AaJKeOboyaC3Uz3M5T/ZTyzs+tq1rRumkYHVL3S1L/fle45LnuOXkn5uJK2T8RlJUbC+Fpt9oSSKSCv1IbfSVkUmWSwPme+5VLSO+Q5joyD+stbZySSe56laOF78rLvF/wbuY92MKl3IiHunomPVdQ5hF9bSmk7vr3VVn0zp+l9tvl4q46GigHZ0sjsAuPo1vVznHoGtcT0C+SFsK8K3ZihopNU756pENFaLJDNb7TVVRDY4cM5q6ry4dA1mIg8HHWcHstXJu6Cpz7+71NrHq6axR7jmXHRre2cJ/CzpDh+0bUBtwvFu9jrJ4/ckbb2ke1zOAdlr6qVzm9iCHz/qhaxO3bAA7Aei7K4jN7K3iI3m1Hrqq82GjrpRBbKSXvS0EeW08eMkNcRmR4BxzyPK61XjDpdNXvdp8We8u3pbNFyXBHcPDZxUa44YNTsrdNVZrdPzzCS5aYq5SKKtBADnN6HyZsAYlaO7W8we0cp2I690BtV4nm0Y1Ro+shse4lniELKmpYG1dDIcuFHXMb1fA48xa8ZwcvjOedrtRi5vs1vTqTh+3Bt+uNLVPk3ChBbUUr3kQ19KSDJTTD1Y4Doe7XBrhgtBWLJxN99LVwmvz6mXHynH9OzjFnxNdaIv22mrrrpbVFsmtOoLXP7PVULxzODjjkLCPpteCHMc3IcHDC2U8KnD9pPgk2kq99N5mCj1e+nJpKKZgfNa4pBhlNBGfpVkwOHHOWg8gLWiQuyvG1+3W9l4253oummPMv9ttsdfaZ66Mtmp45oxKxs0YyHviLy5odny3lxbgnK1AcW3FdeuKvX35TkMtBo23SPZYLO848uMnHtEoHQzSAZPcMaQ0ernaMbrNoaVL3Uu1/g3HVXg6282+R8LiT4kNUcTu4j9Tahd7Fb6YPhs1jik5oLZTkjLQf05X4aZJcZcQAMMa1o6n7Kjoi7sIRrioRWiRxZzlZJyk+Jsd8G6pAuu8NMZMc8Nlmaw/J1c0kD+SPuWDm/Flg03vvuXaKWEU9JQaputPBEOzIhVyFgHy5SFmn4OdFJNrbdWrbnyoLda4HfDmdLVOH4NKw84m7g25cSO7dYHtMLtV3Nof2HKyodHn+87rlUcM230R0r+OJXqda4XK9qtsNQb07hWbROl4PaL3dJmsDnAmOliz+cqZcZ5Y425cT64AGSQD35wm8AGteIw0l/vPn6O29cWvF0nixV3Fh6kUcTh9EjH5945Pey0SYIG0jSO3O1HBftRerja6Ck0vp620pq7rdZiZaqq5AfemlOXyvJJDWfF4axoyArlbQhV+nXxkTHwZT0nZwR7tg05t5wr7AW/T91uFBZ9D2Gg9lqau8PY2OoLsmV8gd0e+Z7nuLACXOeQB1AWC/El4rtXcGz2PZagNupR7h1Zd6YeY4AnrS0rxhoIAIfOM4JHlA4KxO4oeJ3U3FDuFLe7tJPQ6epZHNsunjJmKgi7B7mjo6dw6vf1PXlB5WgL0eHzho13xMaldbNIW5v5Pp3htwv8AW5ZQ0Hrh7x1fJ1GImZccgnlblw1qcGuqPTZT48/L/wCmxbmTnLosdHCw3VW72vohz3fWmtL5MIo3yyPq66seG9BzOJOGtHyaxrfQBbPOGfhe0XwJ6Aq94N5LlQN1lHAQ1xIlitDXtP8AUtIO81TIMtc9oycljMM53SfWoqDYvwvtBOqaqpdqTci50oaXhrHXe6nP0Y2Z5aWl5gSeoaAwZdI8DOuLiL4ltZcTmtRfdVVDaagpS5tqsVK4+yW2M+jc/TkcAOeVwy7sA1oa0e96zO9ytbtfj4+h5Shhrfse9M+3xY8VuouKjXDbjXNktWlLc9wsth5gRTtPQzS46OneO57MHut9S7o4IvcstkuOpb1Q2iz26ru93rZPKpbfQQOmnndjOGMb1d0BJ+ABJwuxCEKYbseCRyZzndPWXFs9PPQrJXhM4F9Y8TtXS3io87S23gk/PX+aL87WNBw6OiY7o85BaZSORpDvpuaWLI3hx8Nqx7fWc7icRNfbqWkoAKr9zdRVsFBStHZ9dPnllPNj800+X0AcZA4tHF+KnxNavUlDNovZETaa02yI00upxF7PVTRgcobRREA08fKOkjgJOo5WxloceZZlTvl0eKtfF9yOjXjQpXSZD+h3VvjxR7acAmhI9qtpLRRXLWMDDI+i5zJDQyPAzUV8oPNJM/ofLzzkBuSxnJnVlq7V173A1TdNS6mutRe9QXSXz6y4VRBfK7GAAB0axoAa1jQGtaAAAAF8gkue97nOe97i973uLnPcTkucT1JJ6knqU6rbxsWOOtecnzZrZGVK/guEfAIn4J0AzlbppBfe0JoDUm6Oq6TTOkbLVahv9X1hoaMAuDcgGR7iQ2OMEjMjyGjPUrvLha4GNd8Tc1Pdmg6V0HzHzNR1sJJqQO7aOI48056eYcRjDuri3lOYWvOIHZbw69K1m321Vog1RuE9g9u5pxI5szRytluVU0ZLgS5wgYARkgNia8OXNuzN2XRUren/AB6nRpxG10lr0ifrstwwbacAGiX7rbx3mgumsohyUr42mSKjlcDinoIiA6aof1BlIDsA4EbA8nCHiy4vNVcVWqIX1rH2TRtulL7TpyOXmax/Ue0VBHSSctJA/RjBIb1L3P683f3l1jvtrGbU+t7zJeLk4FkEYHl01FGf61TxA4jZ0GcZc49XOcSSuE/FMfFcZdNc9Z/x6C/KTj0VK0j/ACO6IoF0jnBCQ0FxIAAySewC84oZJ54YYo3zTzPbFFDEwvkke44a1rR1c4kgADqSVsh4QvDkodPWuHczfmKmo6ejZ+UKfS1xkY2mpImDn8+4uJ5TgDm8knkaB+cLiXMbq35NePHem/obVGPO96R5eJ1LwWeH1d99aig1lr+nqLHto3lqIaV5dDVXxvdoZ2dFTOGCZejnt6MxzeY3lfHRxz0OobRNs/s5UQ23Q9HF+T7neLQBFFVxMHJ7FR8mA2mAAa57cCQDkZ+byZPi8cPiBVm87K3QW3NVPbtv+sFddY8wz3pvUFjexjpj8OjpB3w0lpwkaAAAAAAMADpgLSponkTV+R9F4G5bdCiPQ0fVlaA0AAAADAA9AiKLrnJKgREIOyIiFCFEUIETCICK4RFShMImMIQeqKK4QoREQBET59kBP2K/NCiAIERACMFCVFUARPtRAETCIAndFO6AqIqhDwkiZNG5kjQ9jh1a4dCs7uDnxJrntfHR6N3Yqaq/aQaWxUmo3B01bbGduWcdXTwDuHDMjBke+OUNwTTK17qK8iO7NGzTfOiWsGbQOJvw2dN7n2o7gbDVFtpaqthNYLFS1DPyVc2uHM19HI3LIHuz0APkuy3976uOsy9WS46avNdZ7zbqq0Xehk8qrt9dCYZ6d/6r2O6jp1+BHUZC7n4YuMXXnC1czHZJm3vSU8gfWaXuEzm07jnLpIHgE08pGcuaC13QvY4gEbCZDw++J1pEBr32fX1vpcj6NPfLU0P+HVtRT8zv7OP85+hIenLVt+D7t3vQ8fA6Uq6c1b1fCXgagk9V3xxMcGW4fDFVzVV5pRfdHGTlg1TbYz7Pguw0VDOrqZ5y3o4lhJw17iCuh8Lr12QtjvQeqOTZXKp7s0QgOBDhlp6EEZBWV3Cd4gmsOHT2PT1+bU6z28YWRi3yy5rrZGOn9SSPOHMDcfmJDy+6A10eTnFL6k7KW0wvjuzWqPVV06Zb0GbWdyOE7ZTjt0xU7h7PahoNPaqmLpKqeiixBPUHr5dfR9HQykg/nGhrzzFxEo5Vrp3s4fte8PF+Fr11YZbU2V7mUlziPm0FbgnrDOByk468juV4BGWjK47oHcHU+1eqYNSaOvtbpu+QDkbWULwC9mQ4xyMILJYyQCWPDmnAyFsV2Q8TfRu51i/cXv7YLfRQ1kbaea8Ck9ptFb1OPaadwcYDkN6++zOSTGAAuXu5OH2ffh4d6OmpUZfa92RrJwnY9O62Yb1+FnprXNqZqvYfU1HS0lZGKiCz11Yaq2VEZAw6mq2874wQCQHeY0l3QsAWvncvavWOzOovyHrnTddpi5nPlMrmDyqgDGTDM0mOYDI6sccdj1W9Rl1X9h8fDvNG7Fsp4tao5pw/cVW43DRcufR9482yySGSp03cg6a3Tkg5cGAgwvPT34i0ktbzBwGDnxZOI/hv49bLR6a3QtFPpHWePKo23ScQyxyHoPYbi0N5skt/Nv5S49DG4Baqfr6fJRzGyMLHtD2O6FrhkH7F4uw67XvrhLxR7pzJ1LdlxRmpxEeF5uDti6ru+30r9xtNtLpPY2tbHeKdg5jgxjDKnADRmPle4npEsS9Kalu+2WvbdeaOEUt/09XtlNHcYHN8uaN3vRTxOw4A4c1zSAcErujh747N1OHv2W30d1/dXpOLDP3PX+V0jIme6MU8/WSDDWkNb70YyTyErNK2bucLviBw0lt1ta4dJ7hGMQ07bnKKG4teQGhtLWsw2obzSHlicSSckxLWduRjrS+O9HxX90bKqov96l7r8D0dc7Ube+JvtBBrzQzqXS26NphFJV0s+MCUNBFJV8oy+I4zFOB0ae3RzBiNtBxW70cGerqrR9cKupt1mqPZa/RGo5C+OnAIOKeX3nQczSXMdGXRODw7leCCu9b5wVb58GW4H9EPZG5jXtspuYTWzkDK6elzzOp6imBa2pZgNw6IiTmw5rGkK8Qpb4g+nrTctAaGltm9GmOej1Dpi61UdDcKWnyCGnzvLEsTXk8rjyua52OUcxWrVKv4balU/HnE2rFZpvrhNeHJnblDVcNPiVW6L26nOl9zmQhroxKyjvcWBk8j+rKyIBhxkSBrTktjJXT1LwU7ocGO5tBuJpl82vrNaC6UVNlg5KzyiAJIp6Q8xc17XOaXQmQ497lYQCMGdW6M1JtrqV1n1LZrnpi/UT2zNpq+J9NPHhxDZY3eoy08sjCQcdCsr+HrxQNxdrGU1o1zE7cjTrMMFRUSiK7wM6DInI5Z8DmOJQHkn98WaWPbSv0HvQfc/wCzMCurtely3ZLvM8drN/dmePjb266Wq6alr5ZID+VdJXggVUABx5sZBBIa7BbNGQ5hLc8jsBa7+MHw+tU8O7a3UNg9p1fty4PL61jOattbMdqtrRhzMf19ox7p52s93mzHpNK8N/HvXx6t0Te6rRm6lGBU/lKyTfku/wBHIAMPmh7TAFzQZQHfqtlC7q2lum8OjrszR+6lBTa2oJHOZQa/sELImTNweWO4UWQ6CQ4PvxB8XvNDi05LuXXdLFm3XwXfF/2OlOqN8Up8fBoxv2qq4ePnw+LjogyQHX2maeG3xyTvBd7bSta+iqMkktbPGAx0hx1dOBnlWrSenqKOpmpqymmoqynkfDPS1DCySCVri18b2nqHNcCCD6hbw9u+Dq1bH791WvttrmdO6evsMtPqDRz4y+hkz78U1JgjyHMl5jyEPZyyyNZ5YICx58QrgHr9aXW4bqbZW32u8yR+bftOUrfzle5o/wA1Uzexn5QA6MY8zlBaDJkP28TMrrtcdfdlx9H4GplYs7K012l+TW/oHXl/2u1paNWaWuD7Xf7VMJqapb1HbDmPb+lG9pLXNPQglbgtubhtR4jW3OkdV3m1MbqPSV0gq6m3teBUW2sY5j3wOJB8ylnDGnth7cfRew8ml1pDuo9CQQRggjoQQexB9Ctj3g1uH5X3l694bJj76/8A/ktzaVa6Lpo8JLvNTZ9j6R1S5M658Vbeqv1lvvBt7G+WCx6OpopXwEkNnrqmJsplIzghkLo2NJGQXzYPVYTrbHxi8O+neM/Qty19tjPHUbh6RqqyzVdIwBrq51LK5s1DMO7JmkF8Lj0IeAfcka5upzDmktcx0b2ktcyRvK5pBwQQexBBBHoQs2z7ISoUI8Guf/fMx58JK1zfJ8gg6dR3+KIumc02XeFfvbQ6u0bqLYnVDIq2nggnrrTT1LQ6OooJnYq6UgjBDHyc+CSS2dw7MWEnE3sVV8OO9eoNETeZJbYHNq7PVSnJqLfKSYXE4GXN5XROOMc8TsdMLi+1W5t12W3J05ruykG42CrbVtic4NbPFgtmgc4g4bJE6RhPpzZHULanxecOTePLavbfXO21bbYbsGtqaaru8joIprdUxhz45CyN7udkjYyG9mnzR3K4c2sLK33whPn6nainl4+7+6JqBC/OSaOBwbJI2Nzuga44J+odytnGi/Cy2/23tDdR717jCaip+R09PSzstFsjJ6FklRI7zXtJxgh0R+S++OLDhC4X2GDbbTVLf7vBzQ+0aXtQmkyB057hUFoe35tkefksz2hGT0pi5fwYY4Lit62SiYEbb8Im827Ucc2mturzJQva1zbhc4222lew9nMkqCzzB/ADlkvonwiNyK98dRqPX9g0pIwsmhdZ6ee5TxSNIc05d5DQWuAOQT2Xq7heLjuRfzPDo7Sdi0fSyM5W1FfJJdKth/WafzcQPyLHj61jVrfis3l3HmfJqDc7Us7Ht5H01DXG307h84aYRsP2gqPrtvhFfdntPEp48ZM3BcTXDJt3vtYNN3PdO8VNDT6SbNO6509cy2wFsrGNm81zshkbnRsd9IEFo97GQcZK53h+7L3JxjpbDqi5ws5vLg9t1IyT7SZYA76yF+Hhr6qo99eH/czZLVtTNXRQtk8p1TLzy+wVzHtcI+bJzFO2R3Mc4MrPgFravdguGk73c9P3dnlXWz1k9urYgchs8MjopB/KYVo42LKUpUTm1u9y4Jpm3fkKEI2xjrvGyGDxM9jNtoXt242Xr6STJGILdb7RE74dY3ud97VxfUfjFaoq4SLBtdabZL6Pud7lqx/Ijhj/AMJa9wEwF0ls7H11a1fmznPPu5LRGY178VrfK7wllNTaOsx9H0domld/xtQ4fguC1niH8RVc9wG5L6SN/Ty6SyW6MN+omBzvxWOarThzfkQVnWHjrlBGF5d7/cbVt6d2Ncaj8MHTW4dJq272zVBprTPXXe1VBo6icuqm082XRYwHF+Ty4yR8Mg6z79udrXVZzfNa6nvTsYzcb7Vzn++kK2F2Sin1V4MdRETzS0drqpPspLu94+5sK1nyD84/HbJWlgQh+otOKkzbzZzW5o+aPzqYxXP56l0lS4+s8r5D/fEr1/yVR/6lhz/AC9rGVPVdfRHM35+LPW/JlGP+1YP7mP8AmXmLbRn/ALWi/kr90HcJovAb8/Fm0XYICy+EfqmtpZH0Uz7PqOYSwPdG5rxU1LGkFpBHRrR0Wtel11qi11LpKLVV/o5A44fBeKpjvvEi2L6Cro7R4M1zne7l8203en/jS3aeIfi4LWY85e76yuTgxTla2v3M6mbJx6PdfcdjWviT3gs0jHUe7GuImsxyxv1BUzMGPTlkc4fgufWnxBuIezNYyHcuoqomkZjuFqoanm+RcYA7++WPXRQLoSx6Zc4L7Ggsi1cVJmbWn/Fs3itvs7Lrp/R18gYB5jm01TSTyfPmbM9oP1MwsgNmPFYt+6G4WndIXba+5Wmpv1wgtdNUW66x3CNskrw3mka6OJwY3q5xAcQ0E46LVN9qyx8MHQv7seLe017ziDTNqrLw4Oblr3uaKWNvyP8AVL3D+Aufk4eNCqU93TRG9jZd87Iw15mwfin3q4cLfqGk263vdb6md9Ky6QQ3K1T1MULXufG14liY7ynnkf1y08o6nB69U03AZwob703PtzqH2R7GiWT9x2p21haD+vFOZwwdR05Wn6lghxva9/oh8WG5NyjLxS0Vy/IsDHOzyso2CB3L8jK2Z38ddEmCMzNm5Gidh5myt917SPUOHUH7VgpwJKuMoWOLa+hmtzY9I4ygmjO7dzwk9f6Uhkrdv9R0GuqcBx/JtfG221w6+61ji4wyHHUlxi7dAsMdb6D1NtlefyPrDT100vcznlprtSugMoBwXRkjlkbkH3mFw+a7R2041t7Np6mI2fcG6XKiY5pdbdRSG6Uz2t/rf54mSNp/2ORqzB0J4n+3e69mj0xv1t7S09JKW+bXU9ILranvAdmR9O9plix0xyiU9e4Wwp5mP21vry5mJxxb+w91muTSuk7trvVNm0zYqcVN7vNZFb6GJxw100jg1pcfRozzOPo1pPotmfHffrVwp8H2kdjtJzOiqL3CLY+VoLJH0MWJK2d3KcB88r2tcD0cJ5cdl3Jw6cK/D5b9eU+8G0s8FwY2llo6aO3XX2230ksgaZJGNdzPim8txYWcwDWyOHIMrXh4j2oNVag4qtQP1TZ62yUdFEy22CKsYAyooIxzefC8e7I2SR8jzglzchjsFuBrq5ZuRGPKMeOj8TN0Tw6JS5tmMRyevqqFFcLvnCHqsy/Dn4Qmb6azdrvVtAyp0Bp6o5IaWpbmO617cERlv6UMWWufno5xaz3gJAOguHLYK+cSW69r0XZXmkhkHtVzuZGW0FE0gSS49XkkMY31e4ZIAcRsU40+Iaw8HWzNo2X2tb+SdS1NuFPTGjfh1moSSH1TndzUSu5+U/SLjJKTloD+VmXSbWPT2pfhHUxKYpO+3so7D0dxxWrXPGhctm7cyil05TW+opobrh/m1d4gIfNCw55fKbEJm/RyXwuwS3C1dcWWw0nDhvtqDR8bHCxuIudjkccl9BM5xjb3JJjc2SEk9T5WezguvdvdZzbX650xq2gafP07cqa5xx8xHmCKRrnMJ74cwPafiHH4rYp4w2jmVVh2w1lAyNvs9bV2eaYD3pGzRNniBPqAaeQgf2RWvXV1LJhCPKS0+qM87Ot48pNcYs1mK+qBZI8JnA9rHiguNNdJBLpnbyOX+qdQyx+/VBp96KiY4fnHZy0yn3GYd9JzeQ9i22FMd+b0Ryaqp2y3YIzL8IXQ7rVs1rPVktO+Ke+3z2aB7xhs1PSwtY1zT6gTSVDfraV+Og+CLazhlstXuvxC6mt+p74yeSuqZK8EWmnqZHGRwhpy3nqpS4ycvOCXdOWJpGVk7VXTTfDFoDTOhdGaYuF6rmUzqWw6Ws7Oaeq5HNEkssrsMiYHytdLUSuAy8n3nODXdbXXbW36cuY3x4mdWWqeo0+Xz2iyRvcLDp39QwRubz1lYcZ81zeYuIEcY5I8fHyvnOcrE9FL7s+pjXCMYw013fwct213U1vuV5mvb5bo9p9qLfE+qpqW+hn5VukDY3l1VVFx5KGnaC1wYOaRxZzF7GYD9cfG/wAZdx4rNWW/RGhqWtk0JTVjRQUtNA91ZqCsBwybyQOfywSfKixzHPO8Z5Wx946sG83iaVrKSw09Vtdw/snEjLhdoSJ71yEcshhDgZxze81nMIWluXPe9rQO5TpHQHABpiOm222n1XuXr64QnNRbLZLW11Q31dVVojLKeLLGjy2AdcERnq5Z6ujx5KTWs+5dy9X4mOxStjup6R734+hjjw3+F3VV1HFq7fOuGm7DBGap2maapEcxjb7xdWVIOIWco6sjPNg9ZGEELkPEF4kWmtr9Pjbrh0tduhpbeH0jdRRUrRbqMDOfYocYndzFx81w8skZxKHZXTvEFNxccTNS6PUu3erqDTgf5kOmbXbXQ0LOoLTKC7mqHjAOZDgHJa1ucLous4Wt6KIDzNotbEY/rVklk/wMrowrV8lPKmn5dyNGVjpW5jx+p19e75ctTXuuvN5uFVd7vXSebVXCumdNPO/tl73Ek4HQegAwMBegXNYwvc4MaOpc44A+srv7aDgW3n3g1B7AzRly0dQRke03fVtHLb4IWnP0GPaJJndD0Y0jOOZzQcrO/S3Cnw98CGmKbXe6F6g1De4ZGiC7X6DnY2oHvBtFQsDsP6AgnzHtxnnAytu7Npo92PF+CNSrDtte9PgvMwg4deA7dDiFlpK+K3O0do+Xlc7UV9gcwSxnB5qanPK+fIdkO9yM4Pv56LOO43zh+8MbSctJbad2otyq6mJMPmsmvNw6jBmkxy0lPkN6Ya3DCWtkcDnoDiE8Wq960pqqybUUbdH2+VpY6/XWSN9ze04/eYgXRwfpDmcZHYIIDCFgrWV1VeK+ruNbWVFzr6uV09TXVU7p5qiRxy58kjiXPcT3JJK1lTfmcb3ux8F/c2ZW04i0qWsvE7U4iOKHXvE3qEVurrl5Vngk8yh05Qucy30ZAIDgwnMkuC7Mr8u94hvK3DR1L3TCLrwhGuKjBaI5M5yslvSerARfe0NoLUu52oY7FpCwXHU14dgmjtcBldG0kDnkcPdiZkjL3lrR8VnXsZ4UtfLTs1FvXqGHTtqgZ7RLYbNUtMoYBl3tNYfcjAweYRB3Q5EgWG7Kqo7b4+HeZasa27srgYJaH0NqLcvVFNpzSdkrdR32px5dBb4ud4bkDnefoxsBcMyPLWjPUhbCtkvD20TsRpo7mcSV7tHkULWVAsE04NtpXfSDahx/zXLnAELQWEggCXmC5Drfjv2M4VNO1OjthdK27UdezLXz2keTa2ygcoknq+r6t4w05YX8wBBlaVr43n351zxB6mF91xfZbrNE55o6GMeVRUDXHqynhBIZ0wC85e4NHM52Foa5GZyW5D8s392jE4v3pfgym4pPEz1Dr9lRpbaMVOitJMHkOvgb5NyrGAYxCB/mWP4EfnSA05j6tWDDcAEAYyST1yST3JPqfmvJRdGmiuiO7BHOtvne9ZsYUVAXhJI2FhfI5sbB3c44C2DDz5Hl6Lm20Gy2sd+dYxaZ0RZpLvcTyuqJnHy6WhjJ/faiUjEbO+O7nYw1rj0WQPC54cuu99J6S96rirNA6GJa81FVDyXKvjz2p4Xj820gfvsox7zS1jxnGS+7nGJtZwP6al2t2R07b7zqGike2rDZXOoqKoxh76ucEvqajIaDGHZAGHPZyhq5d2Z73RY63pfhHSpxOHSXvSJ93bXYDZnw6NGxbg7kXymvOunROZDXvi5pPNI609spers4IaZD7xBJc6NhLRhJxacbesOKO4S2sMk0zt/FIHU+nYZeZ1SWnIlrHjpI7I5hGPcZhv0nDnPS25G5mqd39X1WqdZXupv99nbye01JAbDHkkRQxj3YowSSGNAGSSckknjIXqjD3JdLc96f8eh5uy9V0dK0iTvknuioRdI5xPVVFOyAqIiAgCoTCZQBERCBO5REAREwhQnoiKAYRECoCYT1RCD1RO4RChMJ3RAEREBAqiIAmMohQBO6d0QDCdlV4oConqiAuOqiK90IeK9u1XWusN2o7pa66qtV0opBLS19DO6CeneP0mSNIc0/MFeqqFGk1oz0m09UbCuHDxS6mmhj0rvnQsvdnnYad2qaKlDpQxxwRWUrRiRnKSC+JucDrG4kuXMN+PDf0NvVpobgcPt4tdC+uY6pjtNPUB9mrsuJd7O9ufZn55hyjMYIDeSPBK1iBdi7IcQuveHfUTrvoe+Pt7ZXh1ZaqgGWgrsY6TQ5AJwMc7S14BOHDK5VmE65dJivdfh3M6leYpx6PIWq8Ti+t9Dah201TV6Z1ZZqvT1/pSfNt9czlfjJAewjLZGHBw9hc0+hK+CtqGkeM3YDjK07R6P3v03bdN3z6MLrw/FEZD9J9JcByup3HkHR5jPUNDn+vV++vhM6ksb5rptJfYtUWzBeyxXyZsFc0YGGxVOBFNklx/OCPAx7zj1VrzlF7mQt1/gk8JyW/Q95GACA8pznBXINd7fan2tvpsusdP3PS9097kprrTOhMwBwXROPuytz+kxzh818DH2fJdNSUlrF6nMlFxekkdj7LcRO4nD5czU6F1NU2qkkl82os8/5+3VJPLzc9O73Q4hoBezlfjs4LPPbfxMtst5dPjSm/ejaO1R1AayWqdSflOzTvA+k6NzXSQHOMZDwO5kGFrECuevTotS7Dqv4taPxXM26su2rhrqvM2ZbneF5oPdGxjVOwutqOipakF1PQ1FZ+UrPMRgYiqWF0sQyHZyZRk4DW4WCu8PDjuVsJM4a40jXWaiDwxl2jAqLfJkkNxUx5Y0nGQ15a7HcBfC203Z1pszejdtC6muOlq17g6X2CQeTUEZx50DgY5QMno9p7rOTaTxc7lDTstm62iIrzSOb5ct20xhkjm8oH5yjmdyvLjnJbIB16M9FqbuXjdn34/k297Fyefus13ggtDgcg9QR2Kj2NlYWPa17D3Y4ZB+xbQa7hY4YuNSjqrxs3qmk0Vqnl8yoobRCI2RkFoJntUnIWNHbmi8tpc4nmesS96eALebZXzaqbTh1jZGdfytpUPqw1vU/nKfl86PAGSeVzBn6ZWxXm1WPdl7svBmtZh2w96PFeR83Yzjg3d2BbBQ2bURv2nIgGtsGo+espmNAADYn5EsIAHRrH8gPUsKzn2n8V/bLVE8B1/p2v0FdeR0ZuUcZudEG9DjzY2CZvMR9ExcowMuWpuGaOdpdFI2QDvynOPr+H2rz9e/VLsGi/i1o/FFrzLqvdfH1N5m8ez+03HbtvTinvtBd3UjjJa9Tadq4qie3yuAy3IyCx2AHxP74H0XNa5utXfDw5d39nJJqu3Wv+iLp5rvduGm4XOqmNzgGWj6yNJ7nyzK0AdSFjVpyluUuqLezTkVxdqWWQNom2MS+3vf6eUIfzhP1LbXwS2ni1tzbe7c2utz9FFrP6l1ZJ51+bEWkh0b4exJLcipc545cYaua42bPXuWJrwf9joxlXndqDT8TUc2qqtOXuGZs1XZb1QzZhmBkpKqmlaf0Xe69jwfh1CzJ2J8UrcrbYU1s1xSxbj2NmI/aZ3ClusTByjpMByTYAccSND3E9ZFs+3U13tTa6V2n9ydQ6Po6etj5jatVVtKxs7M9/Kmd7wyPh6LFqp4LOELfS5TUWhdQWyivDnunlZobVcc0mPX8w580bW/wWABeXm1ZEf16np4lji2UP9Kw792L4ydqOIOOnp9Mamhp77I0F2nruPZLgw4yQInH87gd3RF7R8V3asFHeD7tDLjzNYa+eGkOH9XUILT6EEUeQfmF3rX6y244HdsbXSa23Dvb7TLVOhpLhqmqqLrXTPwD5bfLjc8taB0AbhufmuNbCpy/QbflodOErEv1UjgHFh4eWj+ISWr1JYJY9Ga+kaXPuFPDzUlxd3HtcIxl3ceawh45ve5w0NXUPhybM7g8Oe+u4mj9b6cmtrLnZqerpbpADPQVvs1S9hMM4HKTipDvLdyyAEEtC7qo/E44eqirbDJrGto4j9GpqbDXsid1+Pkkj6yAu89u96tA7t0/naL1lY9TARiR8Vsr45pYmnt5kYPOw/JwBWd2ZEKnVYnu+ZiUKZT6SL4mri3b9VPBhx8bnzPnfUaLvOo5jfbfEC4iCcidtQxoH75CZ3EdPeZzt7lpHKPEj4WaBkUe/u3baat0ve2xVN9bbiHRB0oBiuUfL7ro5eZokI/Sc1/XneRnLxFcHO2vE0yCp1Vbamkv1ND7PTX+0T+z1sUfNzchJDmSNznDZGOA5nYwSSuMcNPDLqbh/sN82zvF8odw9prhTzyUbbhCYKyhdM4ieifD70ctPI1xfzBzMPMg8sh+W7Cy4RcbocJLg14owvHlJSrnxi+XkaQwMH5rsnYzh119xG6gfatDWU10UDw2tu1U4w2+hzjrLNg+9g58tgdIQCQ0gEjNfSvhGSjem6Nv2oohtRS1Bnt8FHM78qVkJ6sppHEYiDM8rpGkueGjlDC7mZybiX49tJ8N1ldtLsRarU+52mM0clfTxA2yzPyeZjGjpUVAJc53Xla93vl7udi68s52tV4q1k/sjmQw1XrPIeiX5Fl4SeHfgk05Sas3rvtJrLUcgJpaW50/mQSSDuyktzeYykc7QXyc4aeV35sHp2rwu+IPpbiP3VumiKTTtVpSNlJ7TYn3CoiMlwZHnzmOjZ0ika0tc2Nrn5a2Q5HLhafNW6uvmv8AUtZqHU14rdQXysOZ7hcJjLK4ejQT0a0dgxoDQOgACaQ1deNvtW2bU+nqo0l8s1XHXUc3XAkYchrh6tcMtc3sWuIPQrxPZ7tg3bLWf4R6jnKE0oR0idscbW32ptveJHVNn1debpqY+Z7dZ7neqqSpklt8zi6ENLyQPLIfCeUAc0RwACF0gST6k/WtpfHRo+08WnCNpffPSNMZbhZKH8quhZ78hoHgCtp3kYy6B7C8+g8mUD6S1ZgfPIPqFtYNvS1JPmuDNbNrcLNe58UAUQJldA0DJvw4dyW7b8WmmGVE8VNb9S09Rp6olmJ+lKBLThv9k6eGJg/tnzXt+JXtt/Q+4rr7WQxMhodU0VPfYWxsw1spBgqBn1cZIfMP9tHxWMFvuVdZLjSXO2VL6O6UM8dXR1EZw6KeN4fG4H0Ic1pWyDxHYqHfjhb2m3uskBdFE+P2iOJzX+zU9dE0PbI4esVTFFGfg5zh0XKtXQ5cLO6XB/2OrV+rjSr71xNbCIEC6pyShT0RRCmzjhQuo1V4W+7FsfiT8kUOpqFox25qd1SP+XytY0bvMjY/0c0O+8ZWybwrpG672M3w28lbmGSZshz2IraF0B/xZa07c7mt9KSckws/wQuViLduuh5nTytZVVy8j2EHdO6fauqcwID1H1oqz98Z/CH7UBsYbmDwUh6B/X7Hajz+wrXN6lbMNZ0jaLwZrZG3Ic+12qTp6l93hd+1xWs8+q5WA9VY/wDyZ1c9fD9AiDKLqnJC2OeFJQ0uhNu96N07sGi10TYaUzgDmjjpKaSqqMH4ETxfa0LXG0ZIHxWxbT0g2W8Ie610R9gvOunTNLJf697dVimHKPnRRhw+QK5m0PerVfzNI6eCtJufgjXZPcqu9VE1yr5DPX10j6upkd3dLI4yPJ/jOK/NU45zgYHwRdJLRaHOb1bZFJJmwRulccNYC4474C8sLvjgd2Y/o5cSulbPVQNnsdof+X7s14a5jqene0sjc13RzZJjCwj9Uv8Agsdlirg5vuMlVbtmoLvM7aKtqfD78O2GpayCg3DurBK1krAXfliuOfeactc6nhHUH3XCl+a+Js1xl7XcZum6bazfbT9soNQ1kjY6WabmZQV82MMfTzZ56WoOS0M5gSThj3F/IOivFT3rfr3fGi0JQzudaNGU+KgNPuSXGoY17+xw7y4TE0Z6tc+ULCiSNsrHMe0PY4YLXDIK41GErqelm9Jy46+B1rsvordyK1iuGhk9xl8D994XLiy8W2on1Dt3WTCGmukoHtFDI76MNVygAk9mygBriMENJAdjNBTz1dRDT01PNV1Mz2xQ09OwvkmkcQ1rGNHUuc4gADuStinAZxW0O61lk4fN4S3UNvu1M+jstdcyX+1RhmTQzP784aC6KQkE8vLkODM804bfDtp9jeIHU+t9Z10FVojSUntWlqqvkjBmzHzmqqeoDDTNJZkhoc8GQBoa3OSOZLHjKvI7S5eZ5lixvcbKey+fkco22smnvDP4Sq3U2p4WV2vr2WS1lLG9ofWXFzHez0Ebxn81CObLsuxiaQD3g1aqNb62ve5GsLxqvUtc65X+8VLqusqXZw55wA1o/RYxoaxjezWtaB2XbvGdxNVXFBu9UXalkkj0baOej09Sv5gDDkc9U5pxiSYgO6gEMbG09QSejrbb6u83OkttupKm43KseI6ahooXTzzv/VZGwFzj8gCtjEodad1valz8jBl3b7VNfZR+MFpq9QVMFqoITUV9wlZRU0Te75ZXCNjR9bnALcN4mm2V11lw26bsum7Tcb9daHUdA+koLdTPqaiblhnid7rQegY9zi44AAOSsaODTw8ty/6Kmjtea8tEOlNOWSviuzbfX1INxqpIx5kH5mMOEYEojc4SOa73ccvVbYlys7LiroSreu6dHDx5KqSnw1NbfCf4Woo5qPVO9jIqqVjxLT6LglbJA0j6LqyVpxKc9fJYSzoOZzwS0bHaCgprXRU9HR08VJSU8bYoYIGBkcTGjDWtaOgAAAAHQAL9+y6H4luM3bzhkoXQXuuN41XLF5lHpi1ua+rl7crpOuIIyT9OTGQHcoeRhcmdl2ZPjxfgdGFdeNHhwR3xgA59V0VxG7ibAaQmtdVvFX6VmrbWTPQUF5gZX1UJeRmSKlDXyZPIPfDOmO4WsPenxI95d1DUw0N7i270/JzNFHp0+XUFnNlvPWv/ADnMB0zF5QPXouo9seHndHfOtfV6O0Ve9RCqkdJLeZmGGlkeeri+snLWOd1yfec457FdOrZrh790930NGeape7VHe/g2Qap8XXay0tmh07pbVeoXxnlildTQUNNIPQh0kvmAf72utLj4zVSyJ5h2fhg6EMlq9VAD5EhtL1+rK+ftx4SdXTULrvu1uHR2G2wMMlRRac5SY48Zy+sqGhrMeuIiP7Jc7od0+CfhJm59K0NFrfVNK6NwrbRAb7W84bjzGVszvJiPxEcjB1+iruYa4VQc39dApZD42SUV+T39l+KHix4hp46rS21ujdPaclw5uoNSw10VKWkEgx5kZJPnGMxsLc93NzlZpam15Z9rNEC+691FabPS0sLRWXOY+yU75eXJ8tj3ucC4g8sYc9x6AcxWsfdjxa9wNSx1FHoDTNt0TTuaWC43GT8pVwPN0exuGwxnHQhwlHVYYa63A1PujfRetYahuWqLqAWsqbrUumMTSSS2Jp92JuSTysDR8l7Wzp3PWaUF4LizFLOrqWkW5M2XbneL5pOxXd1JoTQtw1lRRlzXXS5Vv5KhkPo6Jhikkc0/2bYz8lwih8ZG5sA9r2fpZnZ6ug1M5uR8g6kP7Vroz3yvB72xuY1xw955WM7uefQAdyfkF0Y7NxorRrX6s0Xn3yfA2aHxQ9nddMDNwNl7hO0jGPZrfdmD6xI5hx9Q+xfXZrXgF3qZTUlfZ9LaWrH+8GT2mfTr2E/rVETYmf8AGELE/Zfw7t6N4XQ1U9iboSxvPvXHVLXU8rm8wB8ukA85xwcjnEbTj6SzHsfAnw4cLNjptRbvamp9R1keHtn1VVNp6KSVmSRBQsP50kH97f5x6dFzroYtT3a5vXwT1OhTLImtbIrTzOI6t8K3QG4enxftmdy3+zTeY+nbWzxXe2zEdAxlRFyyMAI6uLpSPgvY2X8Ii3UE9LcN1tXG9luHSWDTbX0tKXA/RfVOxLIwj0Y2I9e69fcrxV9J6Ctf7mtlNAx1VFSMMVJXXKH8nW2HrkGKkjAkew9eh8nqsfbZ4oW/9Bf5bjUXqwXOke7ItFVZWMpWDHZro3tm+eTIV6hDaFkGk9F58zzKeHCSbWr8jKviK43NFcEcku1u2G3FPSXmmibJ/VFKbbaonOYOWToBJVvPu8xaRn/TCQVrx3n4k9yuIGoJ11qqrulv5+eKzU/9TW6LBJbinZhry3OA+Tndj9JZvaW8VbROv7b+Qt4NqXSW+UNZJLb/ACrvSSOPQufTTNY9rR8B5hXvTcNXB/xYSSu2t1lS6O1RO55jobRUmmc+THrbKoA8g+ELYx/ZK0uOI9b6nr48xapZC0psWngayM5AHwGB8lFl7u94X+8W3Uk1TpuGh3FtDOYiS0yClrgwNzl9NM7BJ6gCOSQnHZYpai05d9G3v8jags9ysF5w0/k260M1NU+99HET2hxz6YByu3XkVWrWEkzjTx7a+Eonz1CQ1pJIAAySTgAfWskdn/D33r3ekjnGmToqzu+lctWB1GSARnkpsGZxwcjmaxpx9ILMnTfBzw58F9potWbwakpdT3pmXU8moWA075B0PsltZzmVwD255hM5pAcC3017c6qt7sXvS8EbFWFZPjLgvMwk4duCLc/iPNPcLRbG6f0lIQTqS9sfFTysyATTxj36g45sFuI8tIMgKzeotpuGbw76Glvms7g3V+4jY2z0promVdye/oQ6joh7lO3njdyyuwQSWmYrpniK8VbU2so6iybTW+XRtoeCx1/uTGPuUren7zF70cA+kOZ3O4ggjyyFgjcrhVXm6VVyuVZU3G51chlqa6umdPUVDz3dJI8lzyfiSVqqrJyuNz3Y+C5/U2HbRi8KlvS8TKziU8R3cTfOGtsWnebb7Rs/NE+moJ+e4VsZx0nqRjkaQOrIQOjnNc94WJLWtjY1rGhrQMBrRgBeSBdSqmumO7WtDm23Tues2RFUWYwkTCdwqgBRECAhRVEAQIEQgROyIUBEQoAiKoQnY/BERChET6lAERFQEwgRAEQIgCd0RAPVERAPtRO6fagHdE7p0Qg+1ET1Qo9E6J6ogGE7Ir6oQiIiAqn4ImUKRzQ5pDgC09CCMgruLZDi23V4fHQQaS1TM6yRuBOn7uDV25wySWtjceaIEnJMLmE+uV08gWOdcbFuzWqPcLJ1vWD0NomjvEz2g3nsP7m97tER2WCUAzPqaQXm0yOAHvkBhljcSTjMbg39f1Xz9xPDQ2y3osL9WcP+uKGhilJEdF7b+UrPI8Ae42VpdLA7rkjMgGQORq1mAkHp0K5Ft/uNqrabUbb7ovUNw0vdhy81RbZuQTAHIbKw5ZKzIHuyNcD8FzXgut72NNx8u46Uc2M1u3x18zl28nDFuhsFJK/WukK232xjsC9Ug9qtzgXcrT7RHkMzjo2QMd8l1axwewOaQ5p6hzTkH7VsM2a8XK9WyCG27q6RZf6YN5HXvTfLDUOby4zJSSODHuJ7lkjB8GLs87FcIfGoZKvQt0o9M6rlHM6DTsgtlaHNbk+ZbpW8jwCfeeIuvXD/AFU65bTwyIfVcivEquWtE/ozVKECzQ3e8KrdfQfmVWjq63bj25oB8qDFvuAGMuPkyOMbgP7GXmP6qxFvuk79pfUDLDe7Bd7NfXlobarhbp4atxcfdxE5nMc56YBz6LfqyKrlrCWpo2Y9tT96J86jq6i3XGluFHUT0NwpXiWmrKWV0U8Dwch0cjSHNIPqCFl5sn4om6m1kMVHq32bcixRNDAbpKKS4RtAwMVTWkP69SZWOcf1wvh7HeHDu9vFLT1d2tn9DrTzzl9fqOEtq3NyQfKogRISOh/OmIEHIJWT0WkuELgSqAzUNSzcLcWmHM6OphbdrhHICw4ZTtHkUhBw5pfyPwT77lz8m7Hs/T3d+Xl/k38aq+v3nLdXmdm6T0fsP4i2ianVtZtvcrRc8+U+8VNA+21xkLeXnirIvcqmt5SBlzwMDma3IB68tvg8aNg1TLPX7iajrtND95tsNNTQVY69BJVBpDhjoeWJhPxC+Jrbxh6CASRaN2xrqlpZ+bqtQ3OKl5HfOGESkj5c7ViLuZxyb37pajiu1Tr65aZjgdzU9s0rO+30kPboQ1xdN2/rrn9yOgOFoU4+ZxUHuR83qblt+KtHLSTNj2t9QaF4CtOzW3a7YrU2pLvLAJJKmw2WplhcObp7ZdHMkcR3IaDIW4A5WggrXru94hG9W8VVUUf7qn6Mtgdg2jSnNRPYQSMSTkmoJwcEczGnH0Quy9q/Ff3U0a2Gl1nabTuDQszzVH+dlec9syRtdC7H9qaT6n1Xe1Vxa8IXFPG2n3O0zFYrrMI4RVaotXlS/Uy4UxcY2D4ukZ9S9QqnjS3rqt/z5iVkb46VWbvkasZGMlqJZ5GiWeVxfJNL78j3HqS5xyST8SUEbWyxytAjmicHxys917HDqC1wwQR8QVs31J4XO126dA++bNbpOp6J7nlrDPDfLfnGBGyVj2yMAPcukkPyWN+5Hhob67exPqKOyW3W9Exrnvl0zWh8rAD0BgnEb3OPwj511K87Hn7uuj8HwOZPEvj7y4nF9sePLfTap8MdFrqq1Dbo385t2qWC5Rv/ALHzXETtb8mygLKjRPi3WXUNrNm3Y2xM9FUQ+VWVNhkZW09QScEOo6jlIZjuPMkPyWunUViuujLs+16itVw07dGAF1DeKSSjnAPb3JGtK9DGACvU8PHu97d+qPMcq+rg/wAmz7+hdwN8TRkfpu+23Q99qnsHlWuudYqkPx9BlHUAQu74JZEQTnr6rietvCE1BaKxt2233Jpp62F4kpG3umfRVEGOocKylJJd8xGFrrkY2ZnI9rZGfqvAcPuK5rt9vTuBtO+H9xut7/puGJ/mCkoa9/srnf2VO4uicPkWELB1S6taVWcPB8TYWXVP4kNH4ozasm4nG9wu+XFqHStw3M07GSwGqaLy4MacukFTSn2luR6zscB8F3fs/wCKxtTri4RWbWsFZtnfS4RPF0InoRJzBvL7Q0BzPiTNHG0AdSsUNAeK9vHpZkMGo6DT2t6drsyTVNM631kg+AkhPlj6/KXcsHif7Pbo0UVJurs9VuY1/uMfS0l9pox+sfMEbx9kZXOtxpy7dXHxi/7G9VkVrs2fRmwWmr7LuJpN81sukN1sl0pnxsr7TW8zJI3AtLopondD1OHNOQexBC1Z7ueEhrzSstRUbbX23awtLOZ0Fuuj/Ybi1vN7sYfgwykDGXkxZOfdCyr2J4huEOwXm4VugNQaW0LXXRjGVtNLFJY4pC3JbmGVscRcMuAc0Z6kA9euVdi1HatUW6K4Wa5Ul2oJRmOroahk8Tx8Q5hIK50LbsOTcE0vNG5OuvJjpPj6H89G4+0+tdnriaHW+lLvpWbzHQskuVK5lPM4d/KnGYpB82PIXE2OD28zC17fi05C/pNraKmuNLLS1cEVTTStLJIZmB7HtPcFp6EfWukdbcDOw2vwDdNr7BTyAk+baIDbJCT6l1MYy4/XldWva60/Uj9jnT2YtfckYjeE9vlR3K16n2V1A6OaJ4lu1niqiHMngfhtZShruhw4iUNAORLKT0asMuKTYip4bt7r/opwkdZ2EV1kqJDkz2+VzvKyfVzC18Tjjq6InsQtpei/DW2t223M0/rfSl21dYrlZK1tZT00N2bLTv6Fr4n+ZG55jexzmOAeCWuIyvX8Q7hLu3EnonT9w0hT0kus9P1T/KiqqgQNqqOVuJYecjAcHtie3mIA5XD9JY6syqGVvwekZc/JmSzGnPH3Zc1yNMaqyvsPhe7/AF4q2w1VmsNhjPee5XxjmDp8IGSO/Bdr6N8HjV1YA7Ve5Fms+CCYbHbZa0uHqBJM6IA49eQ/UuxLOx4c5r6cTlRw75ftNfIPVbG+CGk/pkuBvdrZOeQTXK1vmNrY/DI4vaQaqkJd68tZFMT8BgLmVR4evC/tBVQya/3EqZJeXrS6j1RS2yKQ+uGxNif9nMV3Xwv0HDHojVdys+y92026/wBypmuqYLdfJa+eeKIkjrLK/IaXk+78clczLzIXV+5F6rRp6eB0sbFlTPWUlx4aGkI1TI2j2h7Kabs+KV4a5juzmkH1ByPsX60AN3qmUtvZJcKl55Ww0cT53uPwDWAkrcLvrxNcOvDDubXWS77amp1a9jK2pmselaUOkE2XiQzyGMSEnmy4F3vBwJ5gQOsL34xNhoHNi05tRda2nAw03K7U9DgenuxMmW3HLvsSddTevmarxKYNqdmhgZaeHLdq/GM2/azW1VHJ1bL+5+qjjI+PPIxrfxXYNt8PziIu9O2an2vrI2OHQVl0oKd32tfPzD7l3xqTxg9c1mf3P7c6ctgP/wBp3KorT/eMhXDLj4r++NfFyxUWirYR+nS2ioef+MqiPwTpM6S4QS9R0eHHnJsyf8NXho3L4ebruJJryxU9lgvcFtFK2O4w1TnPhdU84IjccdJm9/x64xcp/Ck3tlr62nZLpGkpYp5Gwz1d3lAkj5zyODWU7yMtwcHr9XZd68APGvuXvjvzXaV15erdW2uaxVFZRwU1tZSubUxTQ9AW5JHlySHBP6I+HXo/iW42d+9E7+7i6Yt24dTa7Ta75UUtFSU1roQIqbIdE3nfA57jyOHvEklaUFlrImk0pPRs3JPGlTFvVxXI9yPwjt7DgnUWgGg9wLhXHH/ogX0aLwhN1pnH2zWejKUf7AKyb9sbF0BcuNDfe7D8/uzqVhPQ+zSwwf8AJxNXwJ+JbeOd5c/dzXZJ/V1FVMH3NcAt5V5rXGa+xpOzE7omVD/CB3KEmG670k6P9Y01WD93/wDNeFT4Qe5rGZp9c6Rmk/Vlp6yMH7QHfsWKb+Indx4P/wBLWvcfD91FaB/yq9Sr4hN2IqSoe3dTXXO2J7w46nriQQ0kf11OizFx6RfYKzElolF/g22a94T9Wai4ELPslbLrZhqalt9qpZq6qfM2jL6eoimk5S2MvI/NkNywZ6ZDc9MMD4SO9Yd11DoA59Dcq0H/ABRZH+IjuNqvRfCbtnXWLVF4sN2uF2t8VVcLXXy01TMz8nVEjg6RhDiC9rSevUgZWuei4nN5LbLz0+7mtwR+jLfZ5W/dI5y0cOvIcHKqSXF9xt5NlCklZHXgd91/hSb5ULCYanRlwI/RprzO0n+6UrR+K4VePDo4h7Rkjb0XGJo6yW+9UUmfqa6Vrj9y+JauOziCs3Sm3VvDzjGaylo6r/lIHLlVn8S3iGtUzH1Gr7beWtIPlXGw0wDvkTCIz92FvJZ8e+LNT/RPxR1Df+G/d+wwztq9qta07wOQSfkGofHzHo384xrm9yPVZreKS+La7ZTYnaulqYjbqJr3FznAFwoKSOmiJz8TUOP1j5L3uHDxN9zN1d3tI6JvOiNNV4vteyjdPaJqmkkp48F8s3K90ocGRse/lyM4xkZysiuIvi72Q253Ki273Qs0t0f7BFXuqp7Iy5UMLZXPAY5o5pA8iLmOIyMFvX0Wjbdf08Okhxjx0RuVU09DLo5cHwNJ4BwD3HxCLaxLorgT4j5DT2Wv0pp69VGIKZ9oqH6dqhI4gN8uneImSPJwADG/Oey6j3f8IzV9hfU1u22q6LVNE0OfHa7+PY61oGOVjZ2AxSuPXq5sQ7LoQ2hU3u2JxfmaM8CxLWDUjAIdSB8VtJ4A9K27hd4SdY75athdDNeqZ10jjeeSQ26nDm0kTeYDD55Hve0g4cJofgsG9K8I+5GoN6dO7aag0jfNM1d2rhTVFTV0bhDFTM96pnjnGYpAyIOILXkFxaB1IWZ/io7iyWnT2hti9H26qLJ4o7tW0FrppX8tFAfKo6cNY0gsMjXPLf0TTs+IWHMsV7hjwfB8X6GbFrdKlbJcUa3tRaiuWsdRXfUN4kbPeLxWz3Gtka3lDp5pHSSED0HM4gD0AC+b6rvPbTge3x3TqGR2/b26WWkc9rH3DU7Da4Iwf08SgSvb/a43LMvZ/wAIWz26alrtztYz317eV8ll09GaOlLgfeY+ocTLIwjp7ghPzW1Zm49C03vojVhiX3S105mFHCJslq3fHfPTdLpVktLFY7jSXW53xuRHa4opRIHF3+mvMZbGwdXHJOGtc4bTfEE0VujuZsnT6N2vtEt1qL1cWRXnyqyClIoGxve5hfK9uGvkETXYJJbzNIIcQuX125GxfCFZKDSAulh0VE0MNPp+2ROmrZOYYEhp4WvnkLuXrI5pLiOpJXGL1xZa0v8AWml2v2C1trJrHZdctRBumaGSMgYfDJVjzH/UY2/LK+fuyLMi6NqjwXLU7dNMKa3VvcXzMR9ofCI1PdquKr3L1hR6ft+Q51s00PaquRpByDUSsEcTgcdo5M9eo7rP3Zfht214eLXJForTVJaqh8XJVXabM1dUjoT5tQ/Ly0loPLkMB7NC4lUS8SWu4IWQUugNqKWohcJZpKmp1JcKd5HQsYGU0GR83SD5Fda694NNKXajjvXEJvnqrV1I14M9Pd7zBY7G52Me7TRBrY/4r8lYrL7ch6Wz+i4/x/kyV1V0r3I/VnaW5HHLsZtVM+nve41omrmczXUVoc64zNcP0HNpw/kd0/T5V1xpvxQNo9XebHaaDVVxrSTHSWyhtbauurn/AKsUEMj3D65OQLhDtZcBOylMaGioNC3ieJuWCitL9QzOI9BPyTdfrePrXGb/AOLToPSNBDbtt9qrlPRsBaG3CWns9PH06FjIRM4j5FrV7hjKa9yqTfnwJO7cfvTSOS7mbncW3EVFJZ9tNsqvaLStS7ypL9qOuhpbq+M5GeU5fTgggny43vBb7sg7LrnSfhNstVPVaj3h3Xht9IDJU3I2ZoZ1PUyyXCrz1JOSXRfaumdfeJ9vtriMxW25WfRFMQ5pbYbcJJnNPo6WpMmCP1mNYVjZrLXWp9x6yOr1dqW8arqY8iOS+V8tX5YPUhge4taM+jQAurTi5EVpFqC8uL+5zbcqh805P8Gxhu4vA/wsTj9ztnpNxdTQGPNVbYDfqjmHaRtVUO9njPxET2/UutN2fFt3B1LHNRaA01bNEUjmuY24XF/5Srh1917G4bDGcd2ubKPmsFScR5J5WN9T0AC+tpLR2odwKuSl0rp676qqYxzPhsVvmrXMHxPlNdgfWtmODTF71r3n5swdcun7tUdPQ+nuNutrXd+4e2a31Xd9VSiR0scVzqnPghJ7+VCMRRj5MaAuKDo0NAAaOwHYLI/Qnh37+a9NNINEfuboph/mvUldFSCP+FE0vmH9zWSWgfB4qHezVGvNzBFGMmooNM28DHT9GqnJ/wCRXuWZjUrTeXojGsXIuerX3Nb7iGML3ENY3u5xwB9q59tbsFuRvdIwaF0Td9RU7i5v5Qjh8iha4dwaqUtiBHw5ifkti50zwQ8JtQ03KpsmqNUUodGW1sz9RXAytOesDQ+OCTI6HkjA+IXCdzvGAk8p9Jtlt8IIwGiK5asmDQ0DoR7JTuPToMEzD+CsPW7reFFb9WZliVVrW6f2PmbReENd7g2Gu3Q1tDZ6UDnktOl2iabBbnDquZvIwtPcNicOnR3qu2qfdng94IS6HSsVvvurYW8sktgj/LN2eSOV4fWPcWRZx1jMrB3w1a593uJjdHfgvZrbWdxulud2tFO4UlvAySP6ni5WvIzgOk53Y9V1gxrY2BjGtYwdmtGAPsTqdt3HIn9FyDy6quFMPqzNrejxWNy9cGeh0JbaPby1P90VjuWuubh1yed48qPI9Ax5Ho9Ya36/XXVt7mvV+utffrxOAJbldKp9TUvAGADI8l2AOmOwXoBO636seqlaVx0NG3Itu7bCKMIlqoqaPMtVK4Mjp4gXyvcegDWDLiT8gsi9qfD83x3ZMM0GkXaUtknMPylqyQ0DRjB6Qcrqh2c9D5YB+K92W11LWckjzCmyzsrUx1HRexQ2qp1DdaS00NBU3e6VLwymt9FA6oqZXnsI42AvJ+oLZ3ozwqdt9u7XJqDdzcGoutDSBs1SyKRlmtkbf0myylzpS3OPeEkf1dennceObhr4WrdPZ9l9FwakuAb5L57HTClppS13aa4SgyTdyQ5olB+K5zz1Y93Hi5P8G/HC3Peulun0eBPZDib0u63XTWmvK7Teh2OY9uj780XStqIg0crOaQl1E3B+i15cC3BjC7q334/Nodipam21V6OqtUU5LDY9OhtVNE8EtLZpMiKEgjqHvDh6NK1g768de72/gnoblfhpnTkoLHWLTTn0sUjSCCJpubzZstdgtLgw4zyBY9xxtgjDI2tjYP0WDA+5a62dK6XSX6LyX+TNLOjVHcp4+bMxd3/FH3e3Bnlg0oKLbi0Oy1raBjayue0jBD6iVvKOvUGONpH6x7rEm+X26aovNReL7dK6+XipwJrjdKl9TUy4GBzSPJcQAAO+F6KLr1UVU8K46HLsvst7bJ6oqizmAd0ynqiAIiICKohCAIgT0QBPVEQBEQhAETsnqhCKoiAJ6Inr3QoTsqFEIOyIEQo9UTKIAiIgCYQdEQBEKIAiBEARPVEATHVMJ6oAOyImMoB6p6og6BAEREIPrTGERAETsiFCIiECInRAO6haC+OQjL43B0bx0cwjqC09wfmF5DsiFT05GR2zfiBb07Nugpm6kOs7Kw4Nr1VzVZAyM8lRkTMIAwAXOaM/RKz42Y8UbafcNlPR6vNTtre3uEfl3Umege4k/QrGN5QAAMmZsXU4691p5ynoudds+i7u0fkb9WddVwb1RvE4lNudb8S+3dMNn946TTdrmie2dtua2anuoJbytNbA7zYWjBB8vPMHYIIWsHcHw+N9tsRUvfoWTUVvhP8Am3S1QyuEnzEPuzn+5ldF6Z1LeNEXT8p6avNx0zc8cvttmrJKObHqOaJzSR8ismtuPE33z0GGQ3G62vXNE0NY2LUNCGTMaO+J6fy3FxH6Tw9atePk4q0paa81ozZlkUZPxdUzFq82+r09dZbXdqSptNyhdyyUVxgfTTsd8CyQNcD9i9cgtPUFv1rZrbPFB2k3Xt8Vo3e2nnbTOkHR1NT32hYcdZHNe1kjf4sbiv1pOHrgl4k5mR6F1dBpO81Mx5aSz3d9vqJnn9FtFWtcMD4RxgfNZuuzr4XVtenFGPqcJ8appmsVBkdjhbA9wfB/1bb8zaH3AtF8YXE+y6ho5KF7G+gE0Pmte7642hYz7h8Fm+G2GX3nbe8VdIObFZYWtukPKO7neQXPYPm9jVs15lFvZma08S6HOJ1FYLxcdJ3eK62K5VthusJzHX2qpkpZ2H4h8ZaVkvt54lm/OgfKiq7/AG/WlFGxsbafUlA1zw0dz50HlyFxH6Ty9Ysy4pquSln/AKnqo3Fj6ecGOVpHcFjsOB+xUgg9Rj61lnTVcvfimY4XW0vg2jZtpbxV9vNwrcbNu1thUQ0cpa15pWQ3miefV74ZGse0fINkK+5FsFwU8U0pdoq+WzTt8rJcNp9N3M2qrc4d2tt845QPm2Hr8Vqt7LwlijqABLGyUDsHtDsfetF7PjF60ycfrwN2Oc3wsimbDdxfB+1LQSyTaE3Ctt1ic8ltHqWkfSPYz0HnwB7Xu/3pqxx17wH79besmmrdubhdqON/KKnT00VyD/mIonedj64wuB7f8Qm5+1Xs7NJbg6jslLTnMdBHXumo2/8A5ebni/vVkRofxWd6tMsghvtNprWkLXc0s1ZRPoqp4+AfA4Rj6/KU3c2rk1JfZl1w7OacWYg361V2lbpJbL7QVliuTPpUd1ppKSYfxJGtP4L1cZaHDq09iOxWze2eLNt7rW2TW7cbaW5toZQA6no5KW8U8g/s2TeScfLlKrtSeH/vLVQGuttj0lcpW4EfsNZp7yz/AGT4RHAT/GKdcth8Wp/TiOp1z+HYjWO73mFrurT6HqF+tnrKnTtxir7RVVForo+rKq3TvppW/U+MtP4rZvT+HJw6bqGoft3u5Wy1JOWQ2y/UN3gi/ilheR9b8rgurfB41lRNDtMbk2O8uOSWXm2TUGPgOaJ8wP8AJC9LaGPLhLh6o8dSvj2H9mYy6O40N9dCOJtm6eoahp6eXepWXRmPh/VLHkfYQu3LN4rW+trphHUx6PvL/wDTK+zzMd/xNQ0fgvg6l8MniCsEpZRaatOp2g4MtnvcDQfnip8krrDUXCbvXpWqdT1+0+sHyA4LqC1Pro/5dP5jcfPKumFb8rKnmVeJk/prxf8AcKjnLtQ7f6YvEJ7MtVbU0DvveJh+C77298WvanUEdNFqyy6h0VWPbmaV9KLhRxn4CSDMjh9cQ+paor/pW+aRqH09+sN3sdQz6cVzts9M5v1iRgXw/wAo0nb2qAfIyAH8SvE9n4ti1S09GeoZmTB8Vr9Dfro/jM2P11FG+07paY5pCA2CuuDKKck9h5U/I/Pywu3qK4U1xpmVFJPFVU8g5mSwPD2uHxBGQV/Nd7RTVTQwywTj9Uua8fcvctFVU2KtjrbTPPa6yM5ZU22Z9PI0/EOjIIWnLZEX2JmytptduJvu15wkbM7mV1XXaj2203X3GrkMtRXtoWwVUzz3c6aPleT8yVx7QfAfsjthrW06t0ppGey3+1yumpauC917uQuY5jgWPnc0tLXOBaRgg4PRaf7FxUb06bmY+h3W1kC3tHV3aWsYPlyz84/Bc+ofEY4jKFzc7itq2D+t1dhoHZ+stiafxWJ7OyordjPh6syrOx3xcfwbGOMjgPtvFff9P6gh1Q7SN8tdLJQS1ItwrW1VOX87GOaZGcpY8yEEH+uO+SxQ1N4PWvaMf9Tu4emrufhdKCooen1xum/YuF2jxXt9LXTiOem0beDn98rbRPG4/wByqGj8Fy6zeMDuJAGi7aA0tXn19jq6mlz9Qd5q91059EVGLWiPM7cO17z5nANUeFzv1p9o9itunNS564tN7DCPlipji/auv7/wK7/6bjMlbtXeZWAdfydUUtafuhmcfwWU0HjLXBrR52zcEjvV0eqi0fcaNfXt/jIW6QgV+0lfTt9TS36GbH2OiYs6t2jHnBP7f5MLqwu6Wh0PwF7U7haC4xtvam/6E1Vp6kIuMUs90s1TSxBjqGfBL3sDcczWDv3x8l+fiQ7R6isfFZqm/QWK5T2TUFPRXCnrKShllh5xTtgkYXsaQH88BJaTnDgfVZR0HjA7dOP9X6D1lT/+LmhmH41DV9iDxc9nZ3Bsum9d0uR9J9tpnj+8qisHSZav6Z1d2hm3MZ1dErOGupqcm09dqZhfNZ7pCwd3SW6oaPvLF6boJWNc50E7Gt+kXQPaB9eW9FuRt/inbEVTQZ7hqKgJ7tqbDUEj+QHBfRd4nXD6Kdzxqy5Okx+8/ufr+b8Ysfitjr2QudL/AO/QwdSpfKw0pflCk7+1wf3Vv/OvGWaOuhlgpnipnlY6NkUOXue4ggAAdzkrcjB4lvDpBVPqI5LpHO45MzdNTBzvnkMyvou8UfYVseW3a/PP6jdP1Wf8EBV5t/8Awv8A79CRxKU9ekOu/FB221dqLabayyaV0ve9TMtte81LLLQS1boQyj8the2JriASXdSMdPmsB7Jwg74ahIFHtLqxvzraD2Mf8e5i2VVniw7JUrcxU2rq0/qwWQtJ/lvaF8Ko8X3aNhxFpDXsvwcaCjYPxqs/gtSizLpr3I1m1bXj3T3pTMIoPDr4jKgBw2zljaf9OvdtYR9ntBXKbH4XO/l3JFTa9O2P0zcL4Hf8jHIsj7r4xml4nEW3bDUFW309ruFLASPqaXrj1R4y0vMfZtmy9voZtUhh+5tK5Z+m2jLlBL/vqYeiwU+Mvyci4NfDo15sRv1bdd6zu+maygtdFVspILNVVEs3tErBEC4SQRjl8t03UHOSOh6kds7zeHFozfreK+6+1Vq7U8clxZSxRW21SU8EVOyGFsfLzvie52S1zunL1eVjDffGE1xVNIs+22n7c49jX3Soqv8AAjjXEa3xZt76xhbFadEUWezoLVVvI/l1WPwWvLHz7J9LyemhnV2HCHR9xmpY/DB4fLVAI6zSddqB4IPnXW91jzn+CyRjfwWSOh9FWXbjSds0zp6kNvslthEFJSmaSXyYwSQwOkc52BnABPQYA6ABaZbv4lHETcn5g1rQ2nr2obBSY/41si45dOPTiAuoIqt1rpGCOvstJQ034xwBeZbOy7fiT1+rCzcaHYX4N7PRMg/H9i/ntuXE3undS4V272spWO+lF+6eoiaf4rJGhcGuWo6nVFQ51wvFbfKh5941VbNVud/Kc7KLZEu+aD2iv2wbP6I9SbpaM0bG6S/6ssVjjb3fcrlBTgfa9wXTOs/EN2B0VPLTybg0d6qo25EOn6ea48/yEkLHR5+twWlew7V6m1G4Osehb7dj6G3afqZj97Yiud2PhO3t1JO2Gi2m1i1x6B1da3UbP5U5YFlWzaIfEs/g8POufZr+5nvqzxg9C0cZfpbbvUt5qs8pN2mprdGWg9Pea+Z+O/QsC6Z1f4u2591mkbpvR2ltPUr24Arn1FxnYfiHB0LPvYV1pYvDU4hrzM1lTo2hskTsAS3O+0uOvqRC6U/guyLJ4Q+61XOw3bV2jbZAe7qR1XWPb/FMUQ/FZVXs6rvT+upj382fJaHSGsuOnfzXNO+nuG511oqZxJEdjhgtuM+gkgY2TH1vK6Rvdxq9TXSW53qsqr3c5eslbc531Uz/AK3yFxP3rZVYPBztdLMyXUW69fWU/wCnFarLDRn7HyyS/sXZeiPC34foJahz63UGs2wuMMrKy/4bG/1aRStiwfkV7Wdh1L9NfZHh4mVZ25fk1AveIowXuDGDp7xwAvp6W0ve9dVxotMWS6amrB/2vZaGatk+6JrsLY3dd5eBnh5vFVabPtw3U97oKp9NVUzNOS1tTSTRuLXAy3ItwQ4fouPZfM1T4vUVqo3W3b7amOjo428tLPergyFkY+BpqdhA+oSBZ1l3WfCqf14GLqlVfxLDHTQHh3797gvpnjRY0xQzgn2zU1bHRhnw5oWeZOD/AL2FkjoPwfDFHDV7g7meVE1pdU0OmaFsYaMdxVVBd0+ZhC6F1p4m2/ur5HeyaitWkqdzOV0FgtMfX5+ZUGZ4PzBCx91puVrHcpzXau1df9VBpy1l4uk1RGw/2LHO5G/UAFOjzbe1JR9C7+JXyi5GyyPQvAvw1GGW83XTurL5T5hcbpWv1HVl4/XpYvMjjdn18pgC+TqnxbNE6VoYrXtttncqyjhDoovylLBaaWIDsWRRCVxb64IYfqWsOKNkLeWNjYm/qsaGj7gvJVbOhLjbJy9WeZZ8lwrikZaa18UXfnVco/JVysejIWkkNs1qbO9zfQOfVGUEj4hrV0BuBvduJuqJmav11qHUNPK7mdR1lxkFLn5QMLYx9jVwsZPzX5S1MMBDZZo43Hs1zgHfd3W7DHpq7MUjUlfdbwbZ5RxsiZyxsbG39VgDR9wXlhdo6A4Wt4N0hE/S+22oa+mlZzxVtVS+wUsjfi2epMbHfxSVkzt94Rm5F+Ecur9XWDSMD2B3kUEUl0qWH1a4fmowfmHO+1eJ5VFXakj1DFus4qJgr3K/a10VTfbrBbLZS1F0udQ4MhoaCF9RUSO+DY2AuJ+xbTncCXCtw9UzandLVwutR5XmiLVV+ZRscW9SYqaAxOkzj6J8zPzX4XbxIuH/AGMtM9q2f0JJd2uDXhtktcdkt8ru3vySMbITj9IRPz8Vp9flZworcvwjaWFGHG6aRiftb4b++W58MdVPYKXQ9tkaHtqdVzmCVwzggU0YfKHAdcSCPPxWVOnPDC2a2gs8d83h3DmutNHJiQ1lbHYrUcjoxx5/NJz6+cM/BY37oeJ7vXr580FkrLZoC2v5mtjstMJ6osPYOqJw73h+tGxixZ1HqC7azvLrvqO7XDUV2eAHXC71clXOQOw55HE4HyTosy7tz3V4IvS4tPYjvM2mwcbfCjw20jqLbHTrbrUtaaeR2kLGIy/l7ebWT+WJW/2QfIfXquht0vFq3L1QyWl0Rp6z6FppGcorKpxulcw5+k0uDIW/UWSfWsGyS45JJPxJQLJDZ9EXvS95+Zjnn2taQ4LyOS7hbk6t3Zu4uetdS3TVVYHOdG66VTpWQ5OSIov3uIZ9GNAXG+rj1JP1qZVXRjFRWkUc+UpSesnqREVXo8BTsnqiFCIiAeiYT7UygCnqr6p6oAid09UAREUIE9URUowgRPVAET8UQgTCYT1Qo7IidkAwndEQBMIg7oBhERCBPVEQowiIgCeqIoAiIqAieiIAE7oogKiiqgCZ6ZRFQEyn2ogCKK4QBMog6IBjCHsECIAO6BMJ6IAiIhCovFVAEREA7LxljZO3llYyVvwkaHD8V5IheXFHYO23EJuds/7PHo3X1/sNJBkx2+OsM9E0nv8A1NNzxf3qyc2/8WzdXThhi1Vp7TmsaVjSHyQiS2Vch9CXs8yP7ogsIkC1bMWm3txRtQyra+UjaJS+JHw+7001FQ7r7a1VM9oJ57xZ6e90VOSMHkewOlGfiIgv1o+Gngn4iBH+4jVFDYLnVSFzYLDf3UlU89OgoqvmDR9UQWrZeE8MdQMSxslA7eY0Ox9603s9R40zcfrwNtZ7fCyKZsZ174PN1g8+bRG5NNVguPk0OpLcYsN9A6ogJyfmIgsddf8Ah6b+bfmpkfoZ2pKGDGKzTNbFWiT+DCSyc/3NdQ6H3d13tk1jdIa21FpmBrw8U1suk0cBI/Wh5jG77WlZDaH8ULfjSR5bpcrFrWEuHu3u1thka0dw2SlMXXHq5rk3M2rlJSXnwG/iWc4uJi5qjTd50PcRb9S2W56arsZ9lvNDLRy/yZWtK+awh7Q5p5mns4dQVsz014ueldR0klu3C2qr4qKRgZKbRVwXSKU+vNDO2Ihvyy4r6Ud74Bd96iBlXQ6c0lc5GZ8ualqNMmMn9aSPyoXO/jOTrl1fxan9OJViVT+FYau8d1Q9wPRxH2rZ7dfCl2w3Btou22m6t0ho53F0dQ91LeqTB7BjmeW4gfOQn5rrLVXhAbj0FQf3Oa60teoB+lc4am3PP2ME4/FZI7Rx3wctH5mGWBcuS1MCH0VNK7mfBE536xYM/f3XN9K7y7h6Diih03uBqqw00bg5tNQXqoZD0/2IvLCPkQu6r34a3ERaKlzKfQ9Heo2kgTW6/UfKR8QJnxH8MrhV+4Md9dNNc6t2n1NIG9D7BBFW/wDISPz9iz9Nj2cN5P7GPosiHHRo5bpvxGOIXTcsPNryO9U0eB7NeLRSyh4/snxsjkP18y7g0T4t26091oaC47eab1RUVUzKamorE6rpKmqleQ1kbATPzPc4gAAdcrCW46I1NZtQ01guOmL7Q3+pc1lPaKq1VEVZO5xw1rIXMD3EnoMBbB9jdltMeH1tsd7t5Im1W4dXGaWxabp3NfLRvkYfzMZ7GdzciSX6MbOZoJyebSya8WMU1BNvkl3m5jzyHL3paJc9TOXWO+do2e2epNc7oth0ZKaaI1VpjqhWyMq3s5vZIXNA8+QHmHujB5XO6NBcMRrj4rmzd8nc25bZ6prKM/RdUUNuleR82OqOn3lYC8RXEXrDiY12NR6smZBBTNdFa7LSuJpbZEcZbHnq6R2AXynq4gAcrWta3q3Cw0bLgo71r4+XcertoPe0rWq8zZZVcd/CRfJ+a5bGVM73d5avRtrm/ZK4r2o+IngV1JEW3DbO12Zrh18zQhjP8qnjd+BWsjCvRbT2fW+UmvqYFnSX7UbIq2++HTcjzVNup6Ykdo7VfacD+QwALxp7R4cdydyQV9LSuPq+4X2DH8twC1v5wrzu/Wd96dR/9svuXr3/AK0bKG7A8B9/ANFuZRWwO9BrN8WP7s4oOCbg4u78UW+x5j0DabXVtkP3Ojctax97qev19V+bqaF/0oYnfNzAf8idTsXK1hZkHzrRs+p/Dg4ablg0G897qAexi1HaZR/iy9oeFFtTc2u/JW6Oonk/RcZrdOP72EZWrQ0FKe9LTn/eW/8AMobdRkf5kg/uTf8AmXnqt/dcy9aofOpGz6p8HexTN/qTdi6MJPTzbRTSdPsc1fMk8Gp+cxbykD059MMP7KoLWmLbSDqKWJvzDAFfydSZ/wAzxj+KvSx8pf73/wCUTrGK/wDaNlJ8GurJ93edmPnpX/8AvF4u8Gut7f0Zoj/+1SP/AG1a2PyfSn+sN6fWobbSnvTxn6xlOr5X/N/+UFfi/wDEbKP+g1VfMAd5oyP9yv8A/eL2GeDWBjm3kld8eXTUY/bUla0PydSj/teM/WFPyZRf6kgP+9hOgyv+b/8AKHWMX/iNnVP4OdrDg2Xduvld6iOx07f2yFe4fCD0ZbyPb90741oHXFHRxfi4FYBcNVPDR8Se0ckEMcUg1haG80bQ04dWRg9vkSu5/FDo4ZuMK/GWJkv/AEotpHO3OPzbx0z9QWrKGT0yqdvNa8jYjLH6J2qvk9DJk+GPsBaIQ677uX+LA6uN4tdO3H1GnP7V6zeB/g9sTiblvF5h7YrtcUEX+A1i1gewUg/7Up/7i3/mXm2lgYfdp4WfwY2j/Itnqlz7VzNfrVXdWjabHw9cB1miIrNcabuOO5k3Cke77oqgfsXzKzTHh2WPmdPXWSqx3EV5u1Zn7GyOytZLWhn0cN+rovLzHernfeosGXfbL76F68v21o2Z0msPDus5Bit1mqi05Hm2G71QP8uJwK9mo4kuBWyY9i22slzDejTDt+HE/bNE38VrCyT3JKgT2dDXVzk/qPaEu6KRsyo+PzhP03UNls2yVbTSM6iWg0ha4D95maV9C6eL7oy0wti03tffqiFvRrKyqpKJoH1RmXC1eqhevZtD7Wr+p46/auykvobDLx4xmpKqM/kfau12+Q9n3C/S1A/ksgZ+1df3rxYt7rrE9lJbtF2fP0ZKe2VE0g+2SoLf71YZjKmVljgY0eUDG829/uMibr4hfEReBKx+5c9JDJn3KC00EHKPgHeQXD+VldfXTiR3dvRf7dutredsmeaMahqYmHPpyxvaPsXW7iI2FziGN/WccAfaV+9noqnUVcyjtNNU3aseeRlPbqeSpkcfQBsbXElZlRTDlFIxdNdPvbPC5VU99qXT3OoqblO7vJXVElQ4/a9xXZ3DZxD6m4Xtwo9TaWZFUUc7WwXWxSO8unucAOeVxAPJI3JLJQCWkkEOa5zXfU0hwZb664cRa9qtRxco+ld4WWxpHxBqnR5+wFd3aU8JjeS+R0814u+k9MxP/fIZauesqI/4scbWH7JFgtuxd3dnJaGeqrJ3lKKZmnqnUu0XFfw61u4NFt1FujSGEe3Wqkhibf6F7ADLFGejxUxAghjXgvbjyy8PaH6Ya5tH7bObbJLPbvMf7NJP++Oi5jy8+P0sYz8wVuC4T+Ai48Ket6jVB3arbjR1dN5Nws9Na46Oiq8A+WZeeSQkxlxLXt5XjJHNyuc13yd59t+B6XVV61Rri6aRbequYz3CCg1NOx8sxA5nmkpZ/pnGXEM94kk5JJXIxsmGPKUYayi+Wmp08jHlkRi5NRZqJmkZAAZXshB9ZHBv7V9fSmk79ruqdTaYsN31NUN7xWW3T1rv+KY5bI2cU3BLtFHTDR+3NPqSWE+5U2nSLXTs+ZnrfLcfr5ivmaj8YpkLZKfTG1DxGByw1F4vbYuX4Zhhif8AcHhdHrWRP4dL+vA0eq0w4WWfYxc0RwB7+a9EEtNt3V2WjkdyuqdQ1MNv8sfF0bnGXH1RlZE6D8HrU1aY5tabj2y0tD/fpNO0D6svZ8p5jGGu/wB6cF1XrHxSd99UtEdtr9PaPaD9OzWoTSEfN1U6UHp6hgWPOud5dwdzRKzVuutSajp5XF5pbhdJnU4J78sAcI2j5BuFd3Ns5yUfTixvYlfJORsTqOErgw2JFU3Xutae/VtMeaSkv+pwZ4yOuBSUfll38Escvxbx78LuyEz27X7Zy11WyHliuFg05T2yOX+xfNPyTfbyO+1avooY6c/mo44s/wClsDf2Lz7lTqCnxtm5fUjzt3hXBIz11t4vuvrqOTSegtP6dYQQZLtVzXOQfAgMEDR9R5ljrr/jT3y3Ky27bmXqlpiXYpbG9tri5T3afZ2se8Y6e+5y6U7otqvDor7MF/JrTy7p85Ee0S1MlRJmWpkJc+eQl8jyfUvOXH7Sqep69UTutvkajbfFhTCqKgDqiFBlAO6IgQBE9UQgPX60QJhCjKIiAipTunqgHxT4IiAKdlVCoComOiKgiqiqAIifggCIigCJ9auVSERE9VCjCYRPVUgREUAREzlUowiIgCfsRFCBE9E9fgqUJ2QogCJ3UQFREyoAiJjCoCFEQBMJ2TCEHZFVAgCIgQBE9EQoRE9UAREQBPVMIhAr6qJ3QBETHVAEREARFUB4qhEx6IUdkycEZ6eo+KJlCHt2G6V+lbrFdLHX1djucRzHW2upfSzMPyfGWld4ad49OIPS1Kymot0LjU07ABi7UVJXPP1ySxF5+1y6E9EWKdVdnbimZ4XWQ7MjLG1+KHv7QD+qLtp66HGM1lia0n6/LkYuX2fxct3aWdn5S0toi4wDuIIKylf/ACjNIPwWD/ZFrPCx5fsRmWZev3GyOx+MhLzwsvW0hx2kqLZqEOP2RywN/F67f0xxt8M/FJNQWPXFoo6CvEpbRUW4NogfD5jm+8YqgmSFhOA3q9jnYAAWn1eLmNe0tc0OaRgtIyD9YWvPZlDXuap+psR2hau3o0bmN1/D64ZKDT9wvd5tsW3VCwtM15pr/Lb6eAucGt6SyGBuXOAALcZIC6gsnhp8Pm4sUrdC7yXe8zsbnmoL1bLkxh9CWxwg4+0L1PDn4n7fuXpeXh73LYy8NkopaeyTXEiVlfRBh8yglDupfGwEsP6UYI90xjmxH4zeFKXhb3YNtihNZpO6h9Xp65SN/OeW0jnp5H9zLEXNGc+81zHdCSBz6a7o2uiVrUu7vTOhZOp1q1QTXeZIat8HfV9GS/S+5Nlu2ScR3m1y0ZaPQc8T5Afr5R9S4PcPCa3voY3OguWiLg70ZDdaljj/AC6UD8V2z4bfErc9xLXqLZDWmqbw6urqGaXTl7Ncfb4o/LLZ6eKd5LvMiGJouji0CT9GNoWO+8u7vEdwybs3vRFz3a1VUzW57ZaSuqZxNHX0j8mGoa2VrxhwBDgCeV7HtyeVZ4Ty+kdO+tV5c0YJQxtxWqPB/g87n4aHELQAGDSFsuZ+FHf6YH/jCxcfrfD94iaBhdNtbXOH/wB3ulvmz/JqCV7FP4h3EZTABu500jfQTWW3SZ+s+zg/ivuW3xM+IShe10uqbRccYy2rsEA5vr8ss/DC2v8AXL5fya3+i8zrOv4SN7rZzedtJrB3Kevs9s88H6vLc7P2L5EnDru7E4tk2l18w/7l60/iIitsXBFxgXbiq2/1VT19DarPuBYHBr207JfYZ2TNeaacMLy8DmY9j2B5+hkOHOAMSqnxY95dOXOttN+0No5l0t9TLRVtOz2yExTRSGORmPNf1DmuCwQysqc5VqC1RmljY0Yqbk9GYe3DaPX1oaTX6C1bQBvf2nT9ZHj74lxqst9ZbXFtZQV1G4dCKijljI/lNCz0p/GB15Gfz+3mm5W56iO41LDj7WFfXp/GPvsYb5+0tulOOvl6kkZn76UrOrstc6k/qYOhxXysa+xrmdX00f0544z3w88v7VPynRnp7XB/dAtlDfGUqiBz7NRO/g6q/wCejUPjKztaXf0FmDoe2qm//Br10+V/w/8A6RVj4r/3TWwbnSH/ALbg/ugT8p0eP81wf3Vv/Ot0+/XHO3ZfZDazcSm0ML27XNPBUttkl0FN7I2SjFTgy+S/nIyG/RGcE9Oyx/HjJz9c7LMx8tVN/wDg1iry8m1b0KtV6o9zxMet6Ss0NbH5SpMf5qh/lhT8p0ece1Q/ywtlf/RknY67MED5aoZ/8Kv1/wCjJMI97ZmXPy1JGf8A2ZZOny/+H/8ASMfQYn/KYY8I2nazWPE9tVSWyKSpdT6korhK6OJ7mshp5BPI4kDAHLH3PxC7k8RLROrdZ8ZGrW2TSl/vUcdDbKeJ9stFTUiTFNzkNMbHA9XkfWD8Cu5D4ysrekey5+A5tUtaPwpCuQ7a+LHcdydydJ6Sp9oo6OS/3eltban905l8kTShrpC0UgyGgl2M9m91qWTylZ03RclpzRtQhjuvoVZrqzX4OHzdh4BG1OvSD1GNK1+P+SX7Q8Nm8NU8Mj2j17zH1dpqsYPvdGB+K2kcY3iEs4X9w6DRlr0dHqq5z2xlyqaie6eyxUwfI9kcfK2KRznHy3OOeXALe+emLt18X3dCWYm3aJ0dSRHsypkrKhw+sh0f7Flqycy2KlGtaMx2Y+LW91yepjtQ8HG+d05fJ2n1S3P+qKVkH/KSNwuQ0/h9cRVZGHRbXVzRj+v3a2xfg6pC7On8Wve2ZpDbLoKn+BZa6xxH31f+Rcduvig7/XJzvZ7xp+1g9vY7E04+rzZHrJvZzfZijHphrm2z5Fu8NriJrZGtn0LR28H9Orv9Fgf3N7yuX2/wn98qxjXS1mirfnu2pu9Q4j+RSkfiuEVXiO8Rjnl43IZTRjLnCOwW/AA6n6ULj+Kzt15v9uFtB4dds1rq6/Cq3S1DQQxUdY+ljpnsqK2QviAjjY1okgpnF2OXqYTnPVa91ubU4puOrenD/wCmeqrEsTcU+HiY12jwhd1ah+LprPRtCz40ntlUR9hjjXOLf4N1U4xuuG7zWtyC+Ki02AfqD31J+/lWEl74kd3NRSyvuG6utagS/Tibf6mGI/73G5rR9gXBLtd7hqB4fdrpcLo79avrppz/AH7ytrocx87Uvoa/TYseVeps4k8LDZnS9H5uqt1dRQ+X9OX2+3UEYHzD4XEfylya+eHLw07MaardT67u18l0/RNDp6i/398MIycBv9Ttic5xOAGtySSAASsO/Dr4UKHfzeF17vlpgm0RpN0dVWMkp2ujrqwnMFKc/SaMGR46ghrGuGJFzTih3B1Rx8cVVu2t0FUul0jZ6uSlopWkPpeeP3ay6y8pw5rMmOPr1GOTDpiDzpxu6V1u16LjJ+BvwdXRqar015Iyw4aNA8He5E12j2t0RY9S/kxrZKusutgrKhsHMfdHtFfGRzHGQ0OzgE4wuudyvFd0dtzeqrTO2GgGams9tc6mjugro7dQOe1xBNPHHE8yRfB3uB3XAIwTwPjY3T07wvbVUHDLtMX0jn0ol1Vc2y5qXRytBMUrx1M9SDzSHoGxFrWjle0N17tAaA1rQ1oAAAGAB8FkxsKN+tlrbi+Wr/LMeTlunSEEte8zW1D4tO8t0E0drsmjbHE4EMkbSVNVMz+M+ZrT9rF07q3jj381vEYrjujeaSLJIZZWQWzAPpzQMa/H1uK6MRdaOJRDswRy5Zd0uDkfS1PqS863rRWakvV01HVgY8+8181Y/wC+Vzl8yJjIG4iY2IfCNob+xXPRRbKilyRrOUpdplznuorlOy9HkZREQBTuqiAfFECIAndE7oB2RO6IB2QoooAqiFUBE9UQgROqIUftT16oEQBRXuiAIp2RQpURTCEKomPsVQD9qKfNXugCd0T1QD5IiBUgKInxQDuiIgBREQoREUARE9VQMIiYQBETKECInZChPVEHVCAqKqKFKiYRUF7ooiECIg+SFHqqFEwhAiIgHdEVQEwiqiFHZO6BEIECiuEKERB9aAdkREAQInohBhECIUIiYCAIEwgQgTKdk+aFCIUQDHVERAEREB7NsuVZZbnRXK3VktvudDUR1dJWU7uWWnmjcHRyNPo5rgCPqW3WyV9k8Tbg2qaGu9ltmure7klLCQ23XmFmY5gCCfIma7tg/m5XtBLmZGoFd+8E/ElLwz72UN1ral8ejrz5dt1DFlxayEu/NVXKO7oHOLs4J5HStHUhc3NodkFZDtR4r/B0cO7o5dHPss6ntVz1RszuRTV0DH2PWelLqHGCY5NPVwSYfE/Bw5pIcxwzhzXH0K2N8cmjLRxZ8J2ld/dH0hddLLRe21MMY55TQOPLWU7yB7zqaVrn5zgCObH0lxXxWuHEU1ZRb36fhbJQ1ggt+ovJy4B2AylrCR05SOWBxyB+84By4r5PhS70U8N/1RstqAx1No1FDLc7XT1IDmOmDOSsp8Ee8JIg2Tl7fmpT3ctOyzpqYZdfajz/ALm5XDorJY8+zLka/wAdeoII9CPVD2XY/EVs9LsDvbq3QjvMdRWur5rdLI7mdLQyjzKZxdgczhG4McQMczHfBdcBduE1ZFSXJnFnBwk4vuMj/Dy3RO1nFdpIyzCK2al8zTlZ05smfDqfHwPtEcIz8Hu+KviG7aDbPiz1k2Gn9nt+oRDqKlAdzc5nby1DvlmoimOP7ILHOCuq7XUwV1vmfT3CklZU000Zw6OaNwfG4H4hzQti3iX0FHu9sTs3vfZ4Wsiqo2U1Q2P33thrYGzRh7h/pcsRZ/ClK51n6WXCfdJaf4OhX+riyj3x4muVEBRdQ5g9FC3ny09Q4Y+9VVn74z6x+1AbBuMUMufht8Ndzb1fA6zU2fkbTOx34sC18LYNvAx+ofCS2nrOYONurLaD09GTz04/wlr5+1czA4Vyj4NnSzuM4y8kMphEXTOaRZQeGvo9+r+MDSlQI2ywWGkrrxO14z0bCaeM/WJKlhH8FYweq2BeEBpyn/dvulrCpd5QtFqo7c2R3RoZNJLPL1+Qp4vvC0c2e5jzflp9zdw4718fIxv45NYR644uNz6+Eu8ikubbQxrj9H2SGOB+Pl5jJT9q6NAX0L/qaq1pqK76jrcmtvNdUXOY/wBnPK6U/wCGvnrYqhuVxj4IwXS3rJMiK/igCzGE7X4VdmHb+7/aP0dLAZrRLVCuu+Q7lFBARJM1xHVvmYZED8ZQslPFq3dbqbdzTu3VDMPYdKUXttdHGSB7bVNHIxw7ZZA1rgR6VBXYfhc6Htm2G0W4e+ep2OpKN8U9NTVL48llto2mSplYQfeD5g5pGO9MMLXhuDry47pa81FrK7DkuN/uE1yli5y4Q+Y7LIgT15WM5GD5MC5EH0+W5d0OH1OvL9DFUe+R8AIGyPc1sML6mdxDI4Imlz5Hk4axoHUkkgD60WVvhr7I/wBFviQobzW03n2DRUbbzUl7csdVkltFHkHoQ8PmHp/U+PVdG6xU1ux9xz6a3bYoeJkxvbdYPD94DLPoK2VTabcLVUclPPVUzh5vtUzQ+4VYcMEiJjhDG4dQTB8F47O6Pt3hw8IF13J1HboJd0tSwww09BO080U0jSaS39cENjAdLNjBJZJ1dyMX76Y0yeNnjyvOt62J1XtXtTK2021xyae4XKJ3OeXB5XATEyuLc5bFTBww9YqeIRxIjf8A3vnobTUtqNGaSfLbbY6NwdHVT82KmqBGQQ5zRGwgkFkYcMc5Xz1NcrpKnx96X9kd62xVRdn0RjZer1cdTXu43i71klxu9yqZK2trJcc888ji57zj4knoOgGAvTT1RfTJJLRHzbbk9WMJnKIqQJ6hRUIBlERAEQJ2QgREQoRPVEA7J9qfgndAEREAyiiqAYTCdkQAqKogHqieqdkARECAIiKAdk7IiAKIrlAETsiAJ9aJ8FQETCYQBE7IgGUREIMIn4ooB6qqIqAifbhEKETuigCJjKKgIiYwoAiYUVBU7oEQBEPREARPwTugHZEUyoC5RE+xUAoor6oAiIgBRECEGMp6onqhQiIEA7oiIQIiiFKiIUAT1REAHRB1REA9O6oUV9UBERMIB2RPREAT7Ux9qYQAKKoUBFUU7oCqYBBBAc09CD6hVRAbevDl3Nt/EHwvXLbbVrIrxPpphsFbSVByam1yxn2UuxjA8vnh6dfzGc5KxR3n4Hd1uELX1HuHtzT1GttNafr2XWgqqMF9fRsjeHeVVwNw6RhYXMdJHkObzOc2POFwfw99649luJexOr5/IsOp2fuer3OJ5Y3SvBppT1x7swa0uPRrZXlbM+NLdzX3D1o207laTgor7p+01LaXUWnq5gYJqed7GMqYqhvvxPjkAZjle0icuLfcBXy9vSYuS4V8p9z5H0lbhkUKcucTFnxK9IWfenZPbviF0i0VNEIIaSumZgv9gqiHQGQh2GmGocYy0ZIdUOB+itb+Oq3ObIcQe0XHJt5qzbSCw1emaist00l20/JBHG4Mmf8AnamnljBY8iaQO8wgO5yHFvXrinud4RuvtPGao0Jqy0auo2tc9lHdWOt1Yf1WNe3niecfpOMYz8Fs4eVGhOi73WuWvga+Vjyuatq4mB4PZbG+FYjiJ8OTdDapxNTetM+0/k2liJ80g/1fRHPznbJGPkzCwk3P2A3K2X812t9DXvT9LE4NdcJKbzqHmPYCpiL4iT8ObKyF8Knc79ynEw/TpqDJbtX2qak5I3tMZqqbNRE8/VGKloH9mtzM0to6SD13eP2NXFUq7dya014GG8MwqIY5W/Re0PAPwIz/AJV5rsLiI22Gz+++vtGNg9lpbVeJxRxc3Ny0cpE9N1/tMsf3Lr30XQhJTipLvNCyO5NxKjfpD61O6A4Xsxmw6uibV+C9bZnjmdSVjCM+nLqJzP2Fa8T3K2C6arvyt4OOrqZve2XKVnQ9uW9RT/setfb+j3j5lczC/wBz/wDpnTzXruehET1UXTOaXK2K8HBO3nhx776wkBo6yvN3FJU9i4R0MdNDg/KYvH1la629XN+ZC2Na55duvB30taKh5jqdS+xeUc4LzVXI1zh/cg/7Fy8/jGEPGSOlg6KUpvuRrhii8iKOMf1toZ9wx/kXmhOST9qfauoc7XXmF+1Dbq68V1LbrXTvrLpWzMpaSnjGXSzyODI2AepL3NC/ENJ7An6llJ4au1DN0eKezV9REyotGj4H32pLhzM9oH5qlZkdA8SP80A9/IPwWG6xVVym+5Gait22KKMkeP270XDZwf7fbE2GZntF1iio6x8TeXzaSlDZKqU4OWumqHR5z0cHyhayvUlZ8cV/D5vnxa8S+o71YdCVlJpSzvZp213C+zRW6IwwkmSZrXnzJGPmfK5r2McCzk+HT6Oi/CWms9ukvW7e59u0/aaUF9XDp9gaxkY/SdWVQa1n9xP1rk419ONSt+XvPi/HU6eRRbkWe6vdXia+IIpKqrpqSCKSoqqmRsMFPCwySzPccNYxgBLnEkAAAlbmOB/h/rNk+FKsh1BPPonVmqBPc7nXyeUyptYe3y6cczwWtdFE1j+V4Ia97wR3C+dwoXPhn0jucNAbJWpmptTQ0M9VdNV08ftRhij8tji+umILxI98YDKbmZkk4aASumtaXes40vEZodAyVL63bLbmd1XV21xBpp5qQtEz5YndJC6qeyn659xj8D3nZ1sm+WVrDTdiuL1/HA2MfHjj+9rq3wO2eLHU2nuBTg+g0Nt2HWq63ous9qlMvNVc0jS6sr5Hgtc6QM5jzj6MkkWAG4A1ARxtiY2NgDWMAa0fADssovEZ3udvFxJXa30k5k0/o4OsVExpPK6oa4GslwezjKBFkdxTtKxeyulgU9FVvS5y4s52bb0lm7Hkgqoqumc4ImPVRAVERQBERUAJhOyHogCJ6ogHqiKYQFQKKoAor6IgIqphVQBPkiBUBE+pPtQBERCBMIgQpO6o7phFAE9VAiAvZPqRPVARX1+KIEA+pE9UVATKIEATuid1AEyiKgIiIAnw+KIhB3RE9EKAg7IigCfFOyKgiqYRACoqmUAUVRQDqplVEA7IieqoAHRRVFAERMKgiqgVQBMInogCIiEGPtUVRChAmUUAUVRUBMJ6IgAUVRAFFeyftQERXCIB6IieqABAERCDCiqBChRX1TKAfUiIgCBE7IAor8EQHi+JszHRvzyuGCR3HzHzW7zhc19bOMXhAp6TVGbhVVVBPpjUrA/84ahkYjkk5sdHyMdHOCB7pkGOoWkULNvwpd5/3D74XLQdbOW2zWVLzUzXHLWXCma57e5w3nh80E9yYowuVtGnpKd9c48TqYFu5ZuPkzp/ZfUd34MOMO3Q6jk9mOnrw+xX2QhzI56CYiN1RjGSwsfDUt+PK1ZUeIpqvdPhs3zsm4GgtcXuy2fVdGYZqLzvaqFlbTsDDmmlDoRzwmMjDQcxyEHJK+P4uexrLbqbTW6dDTNFHeWCwXoxhrf6oY1zqWU46uc6PzYy49hFEPULnU8p4zvDC80ltdrTR1NzuzzyyGvtrevzdJPSk/bUfJaMpws6LJktU/dkbsYShv0p6acUdebb+L5qu2clNr3Qdsv8HutNbp+odRTNbj3i6GXzGPce/R7Au09GcX3BxqbWNt1XWaWptB6spKwVNPc7hpb2eo89wLC99RSNe0jDzkyPx1ye3TVSx7ZWNew5Y4BzT8QeoVc1sjCx4yxw5XD4g91vT2dRLjDWPozRjn2xek+Juc4uOEXYndDUlJrXcXVkm393rmMoBc4LzT2+OvcxpMbXidrmPe1oIGMHlAHUAY6HqPCJsWo4m12kd5pJLZIeaJ1TZ4K8Fp6j85DNED9YC8dWvk4m/Citl0eBcdR6EbHJM1p5nB1ueYJS8nu51G4yH4lwWtqCGGmlbNTN9mlHVstMTE4fMFpBWni1XuLjG3RxenLU3Mm2qMlKcNdeJnZf/CF3Rpqgix6z0jdKYZw+vbV0Lz/FayYfiuu754ZfEHZqjkpdLWm+tzjzbbfqdrfrxP5R/BdGWjefcawQtitW4usbVE0e7HR6irI2j6gJcLkdFxXb2W0Dyd3NZu+U92dN/hhy3lDMj+9P6Gk7MSX7WjYZsTwj7iWvgL3L2r1Lb6Kzaqv9ZXVFvpZq9k0TA9kBi55IuYNy+Jx6ZxkH5LFCXwwN/Gl7/wAkaekyc4bfmgn741k5wLcRW4O6/D5vYy9aprLxqzTkEk9rudVHE+WDzaF7oRgMDX8ssL3DmBznByOiwkoOPPiCNNDIN1LwTIxryHUtE4ZIB6ZgK0aVlqyyMGtdeP2Ny3qzhCU09NOByyXw1OINj+UaPtrh+sNQ0uPx6r6dv8LvfqtkYya16ct4d+nU30ED+5xOP3Lho8QDiHbjG6Vx+2224/8Asy83cf8AxDSDrulcPstlvb+ymW5pnvviauuEu5/k7Nk8JLe2SF5F/wBAxuLSA111rCR0/wDE8LLric4O9b7r8L21W1+lrlYIq/SRoBVz3Somhgl9noH02YzHE9x955OC0dPuWu2h4uuILXOobZZ4t1tRitutbT0ETad0EI55pWxDAjiGOr/RZieLBvLq7QN42xs+kNYXzS0lRBc6qvFkuElI+dodTRw85YQSATLj6ytC2OU7q4TkteLXA3apY6qnKMeHedZ2HwgNyqqRgvmu9KWthOHOt1PVVpA+XMIV2BS+E3oHRtHJX7hbxXBtub9KakgpLRGz65JzN0+1YA3bercfUFK6muu42srpTu+lDW6jrZWH+KZcLhMlLDPK6WWJs8rupfMPMcftdkrf6DKl2rdPRGl0+NHs16+ps0GgeALZiSkF31BataV8JDmyy3SrvpeR6PipeaH07OYAslLZu7tbtRwp3rePQekLfpzTD7dJXUtFTWmO0ur5GvdDTMcxjMgSyFrWuIPuyB3YrSPZrDcNVXe22C0RGa63aqhttFC08vNPNI2KMfL3nhbG/FH1FQbY7NbUbKWKUtpIhHUysEmJG0dDC2Gna8DuHyPDs/GArQyMX9Supzcm+evgjdpyd6uViikkdE668T3fnWD2ttl3sui6YZHl2O2Nlkc34OkqTL1+bWtWNutNe6p3JrIqrV+przqypjJMT73Xy1QjyTkMa8lrB17NAXwAei92y2G4asvVssNni9ovF2qobdQw8wbzzzPEcYye3vOHVduFFNK1jFI48r7rmouRsY4Hqam4ZuCfcnfmvhj/ACtd45pLcJslr4qdzqejiIxlvm1T35x3a5h9F8PhGrpeFngp3I37vDvP1XqyT2ayOqSHvqHNe+KneQ7BPPUyTzPGesbA70XZXGhok3m1cP8Awn6OqHxMuk8Dq6ZjgJae10EXIZZG9Ac/nJR+s+nwOpXQvid7nW/92ek9ldL/ANSaT2/t8HnUcL3eWKt0IbBGc9/JpuXBznNQ4dwuFWnkz0f73q//AOVyO5NqiGvdFcPVmEo5+pllfPKSXPlkJLpHE5c4k9ySSSfmqoFV9KfNt6vVj1RRX0VIEREBFUT8VAFAqnqFQCiIgIiqIAiJ6oAn1IiAIiICdFUQIBnKZREAQIihAp29VU9FSkVTH2J2UAREQBRVRAEVRARFUwqAiDqnVARVEUAyiJhAERM4QBERAFFUQBETOFQEREARMYRQBE7FMKgipQdkCgBREH1oAifaioCIooCp9SeqdlQPVERAMIgRAEREIERPVAEQIhR9SftTsiAIiKECInZUoTCJ6oAiJ6oQJ+xAhQoREQBUqJlCBRXsiFCIEQBEQICBVFMIChPmndEIMdei+hYL/cdJX+036zTNp7zaayG4UMzgHCOeGRskZIPcczQD8QSvnoFGk1oz0m4vVdxvV1ja7Fxx8IE4tb2RU+rrM2qt73vz7FXMPPG17gO8VRHyPx35Hj1WDfhQbr1Git4NVbX31klE7UMDqiGiqeYOguVHzNnh5COjnRc/Nn/UuF9Two+I2PTWp7ltDfKkR0F7kfcrDJIThlYG/wBUU2fQSMaJGjoOZkncvAXGOPXbS9cK/FVat6NM0L2WO6XKG+xTsa5lPFc4zmqpZHjt7Q1rn+8Rz+bMBnlK+YjV0crMOXJ8Yn0rs34wyI93BmOXE9tMNjN/tb6Lhh8q3UFe6e2gZIFFOPOp2gnvysf5ZPxjK6tC2KeKdou2690fthvnpl4q7TcaSO1z1LQffpp2mpon8v6IDjO0k+srAtdmF3MO3paYyfPkziZdfRWtLk+JsQ8JnV1Df6XdTaa8YqbddKRl3io3D3ZI3t9krQfrBpfvKwG1dpGq2+1ff9J17mvrbBcam0zub2c6CV0fMPkQ0OH1ruPgV3H/AKF/Fdt/cJZXxUF0q3WGraw4D2VbfKj5s+gn8hx/grnPie7cDQ/FXcLtC0MotWW2mu7eRnKxs7AaaZoPYn8zHIfnKtaH6WZKPdJa/VGzP9XEjLvjwMTAnVE6jC6pyzYn4QMMVym3utMx9yso7SCzPUg+3McfxC1y0LHR0cMbxh8bRGR82+7/AJFnv4QF4MG9mvLUHYbWadhqizPfyaoNz9nn/isM9yLD+5XcrWVixj8l3640OMdvLq5Wf5Fy6fdyrU+/RnTv441bXdwON9kCBRdQ5h2nwq2Z+oOJ7aWiY3m/6qKGpc0erYZPPd+ES758V+/R3jijoKKJ5LbVpikgkjz0bJLPUSn72mNcL8N6yS3jjN0LK1gfFb4bjXSZGcNFHLED/KnavhceOoYtUcYG6FXA4vhguEFvHXsaekgieP5bXrlyW9mrXuj/ACdNaRw213s6FCInouocsyd8N/bZu43FnpqWeNk1FpmmqNQTsf6ujAhgx8xNMx4/tZ+C9DxCty/6JvFnrKSKYT0GnvK03SHlwWinBdOD8f6olnGfg0LJXwyqG37RbBbwb23uE+zwCSCIPaGudTUMDpZPLce/mSzOZj1dEPVa5Lhdq6/3Crul0mdU3S4TyVtXM7vJNK8ySOP1ucVyqv1cuc+6K0OrZ+lixh3y4nrrLrwv9qTuFxN09/qIDJa9G0Mlze8xh0Zq5QYKZjvgcOnlB+MIWIoGT8PrW2LgB2d1Porg0vd801BDQa916+Wqt1ZWDyvY4CPZ6OZ/M087I2+ZVNaAecSYH0sr3tC3o6Gk+MuBjwa9+3e8OJybbG/26t3W374m9RSPOmtOQz6V0+5xBzb7cC6tmhP0XtmqWuDCOuWvH6S1E6l1Nctb6ku+pLzIJbxeq2a5VjwMAzTPL3gD0ALsAegAWybxEK+zcN/CdoLYnSrnR090eyCUOa3nloqQtlnlkLcYkmqXQlxAAdzSrWPla+zYe7K3x4L0Rnz59mv6sKK91MLtHIKiIEACd0RQBE+tFQFFUQBETKECJhAhQnqmECAiqdwn2oCKoiAiqIgCeqJjr0QBERCBP2J1RCgd0UVQDKIiAeqiK+qgARFEBU7oiAJ6phRAVMoEQBERUgRBlFAEwhRChEHRFSBECIAiKfJClU9U9UQFREQBEwnqgIr8ETsoCdkCqd0ATuiKgKZVQFQBEUVBURFAT1VREAREVARE9UBCqieqAEInqooC4T4IiAJ1RFQPVExlPVAET7UUAUVRUD609UTCAKK909UAREQBPVEQBPrTCIAiIgCiqID97fX1dpuNJcLfVzW+4Uc0dTS1lO4tkp5mODo5GEdnNcAQfkt4/D/vlZuJjhVh1Xf7NDf5I6KWk1HYmUTaoS1dO3M0Tacgh/mANkZH1yJWDutGIWcHhSb1nRO9V12/r5+W1axp/OpA8kiO407HOAHXlb5kHmAnGSYYwuRtKjpKukS4x4nUwLd2fRvkzNfT+3OznEHwl6j2/wBqLxQVeirlTzNo2U1XLM211T3efFmORxkh5Jg2XynBuOoAAOFqF3e2I3A2EuklBrzTFbZMPMcdy8syW+qPxiqGgsOR15SQ4Zw5oKyk1jUz8AHiEPuVJzUWgdQTMrp4I+kTrVVyETt5WjH9TVAe9je4axozh5zmJxd8atRwsa305abvt6/VGk9Q2+SWO5U1yjjkE0T8TwmF7C14DHwOBL255yMHC59M7caaVS3oz4rx8/qb9sKsiL6T3XHgaWIppcCahm5amIiSCWJ2SyRpDmOBHwcAVsr8ROCLfjhJ2i3rtsXO+mMElWyBwLKeGviY2Vrj8WVMcEfyJK8puIDgY3mgcdX7fw6QqC8Oc+s0zJSTSOPqZ7fzZHzc4LKLQG3exW8nDXc9r9v7lQ3bbeWGWkfBZrq6ploXyyGcO5pHPfHIJT5rQ/IBA90t6LJkZT34WSg4uL+mneeaMdKE4KSaZoxHRVbJb54OTnzSyWXdx7IT1iguWnmyuHwDpI52A/XyfYuv7v4Q+7FPM78mav0VXQ+jqp9ZSuP1gRSD8V0o7QxpfuOdLBvXccW8LG+tsvFpT0x+ldtO3Chb9bX08/7ISuoeLzTkmlOKjdmglBa5+oqmtAxj3akNqWn7plmLwm+H3uzsVxMaM1nqF2m6uw20Vraqe03OSR7RLRzRMwySFhOXvZ+1fG44uBveDc3iS1RrXRemqfUNkvUNFI0tutNTSRyRUzIHsLJns6/mQ7IyMOHXOQNOOTT1tzUlo48/M2pY9vVVBx4p8jXqiyIf4eHEdnH9C+o+y92zH+Mr3rZ4b3EVX1LY59BU1rjJ/f66/wBDyN+f5qSR34Lp9aoX719znrFvf7TtXwhdMzV+++tNQhgdS2rTjaJx/Vkqapjh/e0j1h1ufqmPXW6OtdTRHMV6v1wuLOuRyy1Mj2j+SWrbRwIcIWs+F/SO4El+uFjm1PqN0HsrbfPLPTwshhkEQkc6Nhz5kzyQ0HoBglY96W8HDUclvgF+3Vtluna1ofFbLFJVNPxxJJNH8+vJ9nouVXmUxyLLJS4cEjpzxbZUQrijXqvGV5giMpaXcoyGju4+gHzJwPtWzybw3OHvbJ1PJuJu9cKecf1u43ugtMMv8Xk5/ueuw9gdI8GUu6UOmttbZYtU60pWPrWVBiq7uIRCWkzNqpw+JuHFmHNcPeI5euFsT2lWo6wi39DXhs+TaU5JHVHFbZ6zYLgW2q2DtlJU12rtUPhZXW6hhfVTSGN4rK7yxGCXZqpImDA6tefgVi9t1wA777kmCSDQs+nLfK4tNdqidtubH83Qnmnx8/KWdfE34nFu2L3Uu+hrDoc6trbQGRV1xnuraSCOdzGyGJgbFI5/K17Q76OHZGOmViNr7xRN9NYtdFaK2x6Jp8uANltwnnLT6GSpMgz82satXF630fuRS3uOr8zayOrb36ktdOGhkTsV4SdrsN1orxupqePUvkFsp07ZoHRUL3g9GzTP/OTRn1aGx59cjIOVm1O/FNuZu/rrROl7KyLSmgmxWqtvLiY2zXInBpaaINx5cLGOD3FwPMWhreXDnYwcEOtb3t5wv7jcQe5upbxqaWr86Shdebi6cvpKTmjZHCXkiMzVTpWBoABxGvv3m73Hgg4Aqy5XKqkbunqgy1NRO88s8l/uWXyPJHMC+BnMfg4U39kudcrLbHGct566Lw8/sbte5XBOC0XNmDHHrvIN6eJ3VFdSyiayWFw07bCMYdHTud58gIJDg+odMQ4d2BnwWPKkUbYI2RMzysaGjPfovJfW1VqqCgu4+Ytsds3N949VMKqLKYi4yoqiAiuE7ogHoiJ2UAKIn2qgIiICIqPrTsgJ6qoncoCdiqiIAoqgKAivqp3VUBFcomEAREVBFUUUBVMKoqAiIO6gCIiAiKqIUKhEQgKmEyqEBMqoioHqnqiEIB6p2RFAE9UTuqBlPVEUA7ImcIVQFOyuEUATHZPVEAygRRAVQqp2VBAqgRAEUyqoB6oidyqB6oh7qICoiIB6p6p6ohAiJhQoKeqJ2VA7onzRAET7UQBERAERMoCK+qeqeqAYUVUUBURFSBEUQpUymEQDKIiAImEUIETHVFSkVREATPVMogHdERAF79gv9x0nqC1X6zT+y3m01kNwoZ8A+XPE8PjOD0I5mjIPcZXodkUaTWjLFuLTRs68QW32viY4PdCb4aei52WkNqqiNr+Z0NJV8sNVC7lHvPiqGwg+g8uT5r4u5kM3FJ4XWmNXNBrNV6BDJakx+/K72Muparnceo56Y+0H4lrV+Phb7l2zXOjNf7CaqPtVur6ae4UFNK9352knb5VdA0/o8rnNkAHX8/If0SuT+HrYK/Z/cfeXhr13TmZg/wCmtAyoh5YrnSOaKaeZpyQ5skXsruUZIJkBwWkD5aWtGsO+t6r0Z9NHS7SfdJaP1NX3Nk5a4EehHqs0PCm3O/cfxGXDSs8zmUWsLU+JkYb0fW0uZoiT6fmTVD7ljBvDtjWbLbq6r0JXGR0tguElHFNK0NdPT9H08xAzjnhfG7HzXy9Ca3uG2eudOawtTPMuNguEF0hiLi0SmJ4c6NxHXle0OYR6hxXfugsihpd6OHTJ0XrXuZ23xY6cvWwnFfuPb7FdrpYG1F1N6o6i11k1GPKqwJ2hnlub0a98kef9jK4hQ8S+8dA9rot3ddgg5Ak1DUyj7pHOBWYXisaRoNX2farejT7varPeaIWmSq5sB8UrDV0Lg30yDUgn5tC16jqsWJuXUxlJLXl9jNlOdVrSfB8TJDazjx3u07rjTRr9xrtdrKbpRtrqK5RU04npzOxsjC90XO3LC4czXAj4rLfxIOKDd3YHdTSlBobU0Vi0/c7K+odG6101UZKmOoc2Q80rHEDkfD0GMd/Vasa17oaKaVhw+NvmNPwLfeH7Fsl8XUN1FprZPU9KAaSX8oRc/wAfPgppmdfqictW+mpZNa3Vo9e4z03WPHm97ijHU+I/xFgYO4NOT8Tp+h/m18u58f3EPe4TBUbo10Ubj2obZQUzh9TmQcw+9Y/KOkEDHSHswFx+zquh1WhfsX2NDrN74bzNqFDvFrS0+FBX69uGqbtW6zucE8bLxUVR9qYZ7oaWMxyDBaWxEEEdR3GFrDvmqLzqSRzrvfbvd3uzl1wuVROT9fO85Wwri+p26A8M/Y/TdORC6vlsjKmEHq4+xS1cp/urQftC1xALSwIRanPTnJm5mzacYp8kfgyhpojllNC0/ERjP34WyjwxdN27abZjdTfbUkJjo4IpaSlkLPznsVEwzVBicThwkmPJj1dTha4aekq7jUwUlvp5KuvqZGwU1PE3mfLM9wbGwD1Jc5o+1bLuO2Wj4ZOCjbzYy0yRmsu4hpaxzGnE8FNy1FZMD+iZKl8XQ9xK8L1ne/uUR/c/wuYw1pvXT/ajW7qDUdx1lqG7ahvMglvF5rZ7lWyNbyh080jpH4HoMuIA+AC9ehtldfK6lttrp3Vd0rpmUdHTxjLpZ5HBkbAPiXuaF+HXKy98MTZCTdDiGi1RW0xlsOiIhcHve0Fj6+QOZSs69ctHmzZGcGNmfpBbt1ioqc/BGlVB32peLM9a/aSCKq2V2Jof6p0tpKkp9Q6hkjBjbVR0QayiilaAWn2it5qgtJ6iik75WvvxGuI1m+W9z7JZ6vz9IaOMtvpXRuzHVVpOKqoHTqAWtiackYjc5pw9Zu+IdxAU3Dnt3X0+mJfZdyNdsFDDWxuImo6OFpbJUAj6PIJC2MZGJJy4Z5XBacY42xRsjYA1jQA0D0C4+zqd99PL6eve/wCx1c63cj0SfF/x3HmnZO6A5X0BwgiIUBFfVECAIBlAeqnYIAqid1AEQIqAn2oiAJ2REBFVO6qAIndEA7JhFFAXuieqKgIVOyvdARVEQBT4KooAp6qoqAnZD8VEARX1UUAVURAVRVEBFUQIAmURAEREA9EREAyiIgCJ6oqAiEJ6qAIidlQPRRVEAQJhFAMKK/UgQBEz1QICK5RRAFQidkAT1RFQERRQFT5onZATsqO6IqAidkQBERCBERChET1UAREQAJhMIqB6phFEA7K/UiKAIidlQRVEQBMp3RCBERCjCfWnREARQKoAndEQBERAE9UyiA5Dt/r2+bV65sWsNNVApb9ZKoVVK9xPI8gEPieAQSyRhcxwyMtcVvV0PrPQG+m3Wit5nU1OyG30c11pLhM4tmtRMT46yJz24JDcSMe05Y4xh2CWtI0E46rMvw2OK2HZLcGbQmp60QaJ1XUsMFRN+92+5HDGvcc+7HMA1jicgObGTyt5yuPtHHdsOkhzX8HWwL1CXRy5P+TIjxB+Eao4hLXad4NrDTakusVuZHVUVulZILzQjL4Z6Z7TyySsD3YGfzjCA05a1rtVz2PhqZqeVj4amB7o5oJWFkkT2nBa9hwWkEEEEZW7DY6vPD3vnf8AY64ROotKXySo1Jt/KWtbD5Lj5lfbGYAAMErnSsYMkRSEkgBoPWnEVutwwaj3dvWhN+9CusOpLf5bo9Rz0MnJVwPbmB8ddSYm5S09Q8BrXNe3J5crRxcudP6TjvLu056G5k4sbvfT0fede8MzH8Vvh1a42o5m1WqdJmSC1x8/PKS0ist5Jd9EF7X04x+jGQta8MoqImShpaHgO5T6fL7Oy3W8HvDps5tbqK+6s2h3BrtVUV0pGUdXQsvlNcaOPlf5kbvzbA8Pbl4HO44EjxjqsUuI7wu9xqvcfVepNvZ7Fe7DdbhPcqe0z1RoqundNIZHwtDmeUWNc4hp529MZHRZsbLqrunFvRPjx8e8x5ONOyqLS1a4Gv6eLzqeWMfpsc37wQtj/GtK7UXhwcPt6B86dr7E6aXvgvtM0b+v8MgfWsX7zwG8QNg96q2sukzc96Cso6vP2RzE/gs1dydjddXfwuNO6RqtLXKXXVgjoZxYaeMT1Z8it5SGtYTzEQOc7AJOOmM9Fmyrq5TqlGSejMONVZGNkJLmjVevCphfU074IhzSTDyWD4uf7oH3uXYx4c93z32i1+AT/wCDNX/7i53sNwr7n6g3v0BR3fbLV9qspvtFPcK262OopaaKmimbLKXSPYGty2MgZ7kgeq6U7q4xb3kaFdNjmvdMnPF4qorLbNmNKUUgbSU0dxqDAD9FsUdNBESPhiSQD6itci2K+Jvsvufuvv7YarSehb/qGx0GnI6cVVvphJD576mZ8gzzdDyiLPr29CM44aY8PviC1VJB5W3NRa6eRwa6pvNwpaVkQ/WczzHSY+phK0MK2urHipSSNzLqstue7E+34b+0Dt1eKKx11TT+dZdIRuv9U5zXcpmaeSkZzDoHec4SgHuIHL0fEM3d/ou8UepDSy+baNLsbpyjcMgOdC5zql5646zvkbzDu2Nq2O8EvCpceFTaPUtJqK7WkaqvVY+sq7ra+Z0NNCyIRwR88zW84jxJJ7zWgOlcMEdTjlFaOA7h1qiK65Q7p6kp8zGSpfLqB0znHqC2JvsYdnr7wByeq045ankytUXLRaLT+TceM40KtvTXizATbTbHVu8uoG2XQ2nq3VNyJAeygZzRQAnAdNMcRxNz+k9wC3acMmyto4PeHeO13e4UrZqKKe96kvDeYQunLOeaQZ6+XHGxsbTgEsiaSASV7HCdvZRb77fVF/05oifROhoKp1DYmVQjikrI4+kkjYIgWRRtflg5XvyWP7Y64deJtxjUt5irtltF1wqI2yhmqrjTkFgcx2Rb2O9XBwBlLe2BGSSZGtwW23Z9qo3dEuf/ANMlddWHW7ddTDDiU32uHEhvHfNcVgkgoqhwpbTRS96SgjJ8mMjJw52XSPwcc8jsdMBdYIi+nhBVxUI8kfOzm7JOcu8eievzRF7PAUVRARFUQBRUd09UAQhEQD0RMIgATuiIB9qIiAeqJ6plARVEUACivZO6AIiKgIERQBERUgHdAiKFAT7U/BEAREVBFUUUKAiIhAqiIAiIgCInZAETsiAIiIAiIqB2RAogLhFOqqAIiZUBFfVPqRAFFUQBERUDKBMp3UACZUVQDKJ6p6oAiIFQRVEQDCd0RQBE7IqAieqd0AwiIgHZE6ogCIiAInqiAfBEwihAiIqUIiIAEHdEQg7oiIUIiIAmECIAiIgIqiiAqYTCIB2+pERAEQJlCALxcxr2ua5ocxwwWn1C81AhfM2PcIW+lHxW6Btuzmu7y+1bmaYcy56K1dhslS6SmGY34d0lmiAxIw/v0PNnqHuXa/iB8Lt23w2Wt+uqa1wjdDSdGX1VNbm84uNIPeqIIz9I8pDpYgcn6Tcc0hxqSt9wq7RcaSvoKuot9wopmVNLWUshjmp5mODmSRvHVrmkAgj4LcjwN8clt4irNBpXVM8Ft3NooMyw4Ecd2jaOtRAOwdjq+IfROSBy9vnMuizGn09PJPX0/wDjPoMW6GRHorOen3/+mn3Q2sbrtxq6zaw0xUCkv1pqGVtFUxZbzuac8j8Y5mPGWOaejmvcD3W1vjZ3z17S8N+3W9e0Gqq3T9pqZKeW4QQ01PUMNNWRN8p8wlY9odFMGRkD1mcD2GMZPEZ4OajZ7V1duRpC1PO395nM1whpGFzLLWvOXuc0fQp5XHId9FjyW+6HRg9jeH7ebZxIcK+5XD1fqhgko4JZbW9+D5dLUudJHIxoOXGCrBfnsOeMLJkyruhDJitUnx9DzRGyqUqJPnyOjrL4nvEBaG4qr5Yb4f1rjYmNP/EvjH4LO7YXi51Xujwa603Uq7VZp9WaabdOe30bJYKSV1LGJmtwXveC6Mt7O7n09NN1ytVwsN1rbVd6V1Fd7fUS0VbSydHQ1ETzHKw/Nr2uC2T+EvVwax2m3j0BVe9Qmsinkbj9GspHQP8A8WKudj0wqVkIpcVy8DxiXWzsdU33M6sl8XbeGXlfBpXQrI3AOAfBWvOD1HXz2/sXc3B14gG63EVv7atG3qx6TpLE+iq62tnttJUsqGMiYOTlc+dzesj4wctPQn61q2o2PiooI5GlskbBE5p7hzfdI+8FZw+EbbX1HErqWtMfPDSaSmjL8fQfLWU3L94if+KyZOLRXRKcYLXQ80ZF071By4anZfF14jG520W/esdCaToNLMtFmfTQRVtdQzz1TnvpYpn5Inazo6UgDl9PVdG6U45eJPeHcTTmkLXr+G0TahulNbG/k2w0gEIlka18mXMe8BjOd5IPQNK6Y4n7vJfeJTditlkEhfqq4wsd8WRTuhZ1/gxBZQ+F9s7TQ6i1JvnqxzbfpTSNHUU9vrqn3YjOYyauozn6MMGWEkEEzPwcsIUlTRj4ym4pvRfVljddbkOKlwRzrxf923CLRe1lLOeSoDtQ3aPqOeNpdFSMJ7OaX+e8tI7xMKws4ZOHK/8AE1uhR6TszZKO1w8s95u7W4ZbqTPVwOMGV+C2Nnqck+61xHLKmza38QLij1DX6co3+ZeqvzvaKxuILPamfm6d0+CQCI2tPI05e9zsdyRse1TfNtvDM4co6S1xNr71VFzKGlmeBWX64lo5pZSO0bRylzvoxsDWjJLGuxdJ1SmOPXxsf9zJudZtds+wjhnG1xM2bhC2ptO0W2EbLZqiotrKWjFM7pY6AAs9oJPV0z8OEYJyXc8jj7oD9SMbRG0Nb2HxOT9vz+a+5rTWN73F1dd9UaluD7rf7vUuqqysk/TecABo/RY1oaxjR0a1rQMAL4o7Lp4uMseGn7nzZzsrId8uHJcgiIt00giJ6oAiiqAInomUAROyIAiIgCJ+CIAiIhBnqp6qp2KhSK5T0RUAInREBFQimUBUygUUAVTv9SICeiuUATKoHYop3VQDuid0+aAJhRFAECqg6FUBVROqgHRUonqgIqE7IgCIiAIERUg7IiIUJ+CeqKAdvVEHdEAREVARPVO6gGOiJ6IqAiKKAvUplPrRAEREA9URFQEKBFACnZEQEVREATCIqAiIoBhERAERMqgivZEUAREVA9U7JhMIAiIhAmERChERQBERUBTsqiAKKogGUwiIAiIgCBPVEAREQBERAMonREA+CBRXPVAF+9uuFXZ7lSXC31lRbrhRzNqKWspJTFNTytOWvje3Ba4EZBC/BFGtVoyptPVG3Tgl8QO376QUO3+4/s1v1++Iww1ha1lHfQB6N7RzkZ5oscrsEswDyM7auOw+xnD3r2j3YjNv2qrTIaCoq6WvFtttc2VhaKeaAnyOUua2QcrWnnja7Jx10Zwyy080U0MslPPC9ssU0LyySN7Tlr2uGC1wIBBHUELanwi8UmmOL7a2u2S3hMNVqqponUnNVuDRfadoBEsbv0aqMgOc0dctErM4cGfNZeE6G7Ktd180j6DFy+mW5PtLkfjxY+HE/fvXNRuTtdqey0VTfmx1FZRXIu9hqX8gHtUM8LXkF7WsJHK4OOXcwJIXKuAPg+3J4WdXa1qNWV+nau03uipI2Cy1c0rjNDJIQXCSGPA5Zn/guD8K51FwQcQVbsNrutlk0Dq6R8+jL7M/lp5qkEAwtd0EckjXNa+PPSVrCwETBx49oGfdjh88RTS+3urdxdWX/Ql+mrX2t18u0tZBXUr6WZ0DHeYTiaOZjGOxgktBxyyDOCUrZVunfTilqvNf5NlQrUlbu6PXj5HR+4/hy77s3B1SdP6CbcrC+7VsluqmXyhZ5tM6d7onFr5WuBLHN6EAhZa+GjwubhbDXHcK7bhafZp+oucVBS2+H26nqnvbG6d8rj5L3BozJGBk56FdKcbXGjvZtfxPax0npLWpsGnbSKIUtJFaqOfIko4ZXvc+WFziS97/AFwABhZVcE25O4e4/C3cda7pasFPLV19XVUV/mpaakEFqiaxplIaxsYbzR1Dg9w+iQckALNkWZDxk57uj08dTDTCiN73NdVqYUbbeGfvXuXuC6p3GoYdEWasrJa66XJ1yp6urlD5XPkZTsic8eY4u6PeQ1oJdhxAac9N7uEiXcjafS20Gj77Tbd7XURYLpS0FIaisq4o3NdHTsc5wa1rn80kkj+dz3hpOff5ujbnxO7x8Ze5D9N8OMsmj9vLZVGG57hXCha8T4wXeW2Vhx0ILImjzHczXPMTScfQ4o+O+g4atKDbPQt8n13ubSxey1+oLo8VEdtkx78s2MNkqCSeWBgDWH6eA0Mfhm8m6cFw3lyS7vNmWKopjJ93ezsrUGrNk/DX2hjtlBEG3GoaJKe1RTNlvF9qMFvnSuOPdyDzSENjYPdaB7rDqW3z3v1RxDbi1msdWVLX1so8mlooSfZ6CnBJbBED6A5JcernEkriGo9R3bWWoK6/X+6Vl8vdc7nqrjcJjLPMQABlx9AAAGjAAAAAAXzl3MXDjQ3OT1k+842Tlu73ILSI7p9qJ2XROeMIqoAhCZVRPVChFFUARMBEAT1RMoCK+iIgCIiAIiIAiIgCIEQEVRPRAFEx0VUAUVT5qgdkRMoCKoiAiKogHqid0UAREVBERPVQDuieqqAd0RFQEURQFURVAEwieqAdkREAQIipAmEU9VClRMIqAnqiYyoAiJ+CAIp6KoAOiJ6J6oAiIEAURXogCiuFMIC5UTuEVBU+1OyIAiIFCBERChMIiAIPrQIqAiIoBlECY+xAERFQEROigCYRRUF7oiIAnZAnogCIiECJhFChE9UVAREQDCfiiIAmETHxQBE7ogCJ2TsgCIiAIiY6oQBecU0lNPDPBLJBUQSNmhnheWSRSNOWvY4EFrgRkEdQV4IE5l1aeqM6Nl/EPtGq9KQbd8SOnIdbaYcGxx6k9lE9TDjo2SphA5nOa1xxPBiQcoPK5xLlsB1HpHbviw0Xpa/ae1FS3KSwXKnu9g1PZ52VEtvq4ix+HE5yHABssMn0geoDg1zdCy+xpPV9+0DeheNL3256auwHL7daKt9NMW/quLCOYfJ2R8lx79nRm96p7r/B1qs9xW7YtTdBvrwA7c8QW71s19qKpusE8cUMFwtlDMyOmubIiSwSnl525B5HFjmksAALSMrnm++zultfba0WmNR3WPS22FsMc93t1JIyhp56SnAMdM+b3RBTNLWucGcpwxoDmjOdTtt8RriJttJ5H9ECOsAaGtkrLHRSSAD+ybG3J+ZBXVO6e/G4u+FQyTXmsrpqSJjhIyhnkbFRxvAwHNpogyIOwfpcufmtKOzsluKnNaLkbcs6hJuK4syz4lPEJoKDTDNr+HelbpLRlHCaV2o6KE00kjMnmZQs6Oiackmd2Huc4loBHO7A9rGsaGtHK0en7ftTPX5phd2iiFEdIffvZxrr53PWXLwKnzUVWwa4RMYQdUBAqEBQIAiIEA9UCIUATuiIB6onqiAJ6oiAFERAE9U7IEAGCnqiYQD1T1REAT1RAgCiqBAAieqIB6oETKAYTsiIAiIgAQJ6ooB2REVAT0URQBECfBClTsg7J3QgRE9VQERFAERFQOyYTsVMKAuET1RAPVETCAfaid0CAJhEVA9URRQFRE9UIE7IohSomOqIAor3+tO3dAET1UQF9EU7K5QDKInZARXPzREA9EQdEQD1REQBEwn1oAid0QBERAETsiAd0TondAE/FO6YQD1REQBOyIqAiYRAD3T1T1RAOyKKoB9qYQJ3+pAETCKAiqIFQMp6oigCeqIqCKoigCKqKkCBEPZCjGUUV7IAihCqAFCiiAqIUQECqJlAEREAHdEUUBQnZEVAREQBERAMJjCYT0UA7qKlTsgRU7oogKoqioCJ3RAERFAE9UCKgdkTCeqAdkynZD81AOyIiAIiKgIiIAmMoiAIgCigL3UVUCAKqKoB6p2TCIAiIUAwiIhAh6phEKE9UH1ogCYRMIAiIgCIEQBERAAiJ2VARO6KAeiJhEATGERAETCIAnZECAIiIAnZPtRAEREAREVAKInooAiJ6IAiIQgCiqYVAwiIhAnqifJQpFSiIAmERUDCIiAIiKAIiKgIifggHdPVFEBfVETsgGETCdkARECABMKdlUA+1MomEAREQBPVPVMIAifUiAIiKAIiKgIqoEAwE9UTsgCfaiIBhEUQFRECAYREwgATCIoAoqgVAT5opgoCqeqIgKoqogKiAIoAAor8FMICqKjugKADuiiucqgJ6oigCIUQBET0QBMIgQERFUA7qKlEA+1RVEAwiFOyAIUT1QD5IUwg+5UDKd0+CKAIiIAiIqCKondQBE9EQgREQoRAp3CoKERMKAIphUdFQRXuiBAMIiKECYRFShAiH7kA9URMKAIidkA+CJ+xPtVIOymFUUKB0TPVO/VFQERFAPVMIgKpAhREKO6IigIqiIB6Iid1QOyInZAMIqhQhERChSKoiAYyiZUKgL3T9iYyioCfinoiAIiFAEREA9URAhAiJ6IUBO6JhAPVMdURQBERAERFQE9UQeqEGE+aIgCfaiIAiIhQiZRARXCBO6AIiZQAon2IgCZwid0IRAqnVQoUVT0VBFU9EQEV7IigInVFR0VBFUQKAdkT0RUD1RECECIqgIieqIUYQJ3TKAInxRAETsiAInoigHqiIgCIiAJ2TsiAIgUQF9EREAUVCIAiIqAnzRPVAE9URQBEQKkHZE9UQoyidlAgKiJ6oAiIhB1TsifsQowiIgCZT1RQBMoipAiIEATsmcooUIU7J9SpAn7ERAEwiqAhCIohSplRVQEVT0TCoATCdlSEITCeiIgGPmnyREA9UQIgCImEKEREAREQgRCiFCIiAIQiqEIieqIAiIEKE/YiIB6KEqogCInZCBEwiAqnqiIAiIhQiFMIAiIgGUCdkQgRAihQiIqB6oiiAqIogKmU7FAhAEREKMdU9URQBPVECoAQ9ERAMIU9EQgRVTsgCImOqFCImUIMZREUKPkiBFQO6BO6d0ATsiKAImVEBUREA9UREAUVRACidVEBU9UUQF9UQIEBEVx8FEA9VURAERFQRFU7oAiIoAEQlCqBhFFcoB2RMYKqgJhERAECeqY691QETuiAnyV7IiAJ9SIgIrhPqRAEwn2ogCeiDug6oAiiuEARRVAMJ3REAT1UKdkBUREARMIgCdkRAERRAX6k/BPwQoAidlEBe6KKoCIqiAIiIAnqiICJlVEAREwgHqihVKgCImOioHZERAAiJhCEV6qKoUBFEQFRREBUwnZOyAJ27IiAJhEQD1RE+SAY6p2T1RAO6eqieqAoRRVAERAOqAIiIAiIgCIqgIonZXGEBCqiIAiIEATsid1AEUVwqB2TsiIAoqgUARMogCIiAfiiftRAAgRAgHqnZPVEBEVRUBRVRAVEz1RQBRVOyoIqid0AREUAwnZMIqApI4MY57jytaC5x+ACq9e6f52Vf9qd+xRvRalitZJHbruE/ewf96LWf2Wpx/yqnhN3sI/0I9Zf+Sz/AM639hrSOwXlyj4BfK+17flR9J7Nr8T+e3UnDvuro6yV15vu2uq7PaKGPzqqvrbY+OGBmQC5zs9AMjK6+/Bf0j3iz0N/tNba7lSQ11urYH01TS1DA+OeJ7S17HtPQtc0kEHuCtCXFPsDWcNO9V50ZL5stnP9XWOrlcHOqLfISI+Yju+MtdE7oMlnNjDhnp4Wf1mThNaM5+Xh9BFThyOpUyiLsHKC+tpXSd611qGjsOnLTV3y91vP7Nb6CPzJpuRjpH8rcjOGNc76gV8lZF+Ha3PGrthn/Tbl/wDwurWG6brrlNdyM1EFZZGD7zhR4Tt7Ow2i1n/5Kd/zo3hN3te4NG0WshnoM2sgf4S39hjcfRH3KPaABgDuPT5r5v2vb8qO97Nr8T+bWrpZqCqnpamGSnqaeV8E0MreV8cjHFr2uHoQ4EEfEL8V93XY/wCrzVPqfyzX9v8AxqVfCX1EXvRTPnZx3ZOI9ERTuvR5HdeMkjIuTmcGlx5Wg93H4AdyfkFkjwo8DWteKKaK7sedLaAbI5kuoqqHndUlpIcykiOPNIcOUyEhjSHdXOaWLa9sTwg7WcPFNC/SmmoX3preWTUNzAqblKcYJ85w9wH1ZGGM/sVycnaNVD3VxZ1MfBnat6XBGnTQvB1vduTD51h2wv7qdzQ9tRdI47ZE9pwQ5jqp0ZcMHu0HK7ls3hRb53WkbNUS6Os8hHWnrrzM57fr8mle37nLcZgZXkuNPat8uzojqR2dSufE06XLwnt8bfC6SKt0TcSB+8014qWvP2yUrR+K6x1rwG7+6Egmqazba4XOkjdyiawVMFyL/mIonmXH+9rewnKCeykdq5C7WjLLZ9D5LQ/mwq6Wa319TQVcEtJX0zzHPSVMTopoXDuHxuAc0/WAvzX9B+8PD3t7v3am0GudLUF9EbS2CskYY6um6g/mqhhEkfUAkNcAcdQQtV3F34d2peHulrNVaSqarWW38DTJUySRg3G1MGcunawASxADJlYBy9eZoA5j2MbaVdz3Z8H+Dl37PnWt6D1X5MQFUB5gCCCCOmPVCuwcoLlm3W0ms93LjW0Gi9M3DU9ZRQtqKiGgawuijc7lDjzOb3II6Z7FcTWefg/DO9OvQQP+t2D/ABorVyrXTU5x5o2catW2KMjHP+kt33/1qNTfZDD/ADqn9Jhvrn/Qm1P/AHCL+dW+zkb+qPuTkb+qPuXzvta7wR3fZ1XiaFf6S/fYdtp9Tf3GH+dU/pLd9/8AWn1Kf96h/nVvr5G/qj7k8tg/RH3J7Wt8EPZ1RoTdwXb7D/vT6m/uMP8AOqjgv32/1p9Tf3GH+dW+vy2/qj7k8tv6o+5Pa13gh7Oq8TQp/SW779P/AKJ9Tf3GH+dXr3Lg/wB7LLbquvrtrtR0tHSQPqJ53ww8scbGlznHEh7AErfnyN/VH3LgO/zR/QM3E6f9zly7f+KyL1HatrklojzLZ1aTep/PUx4kY17TzNcA4H4gjKq/Gi6UNL/aWf4IX7L6lcUfOSWjaCIuU7ZbXaq3n1nS6U0ZZp75fKhhl8mLDY4IgQHTTSH3Y4wSBzO9SAMuIBkpKC1k9EWMZTe7Fas4sB3XJtBbZaw3UqJIdGaTverDHIIpZLPQSVEULj2EkoHls/jOC2ncO3ha6C29p6K7bkmLcPUwDZHUUrS2z0z+h5WQHBnweYc02Q4YPltKzUtVoobFbaa322jp7fb6ZgjgpaWJsUUTB2a1jQA0D4ALg37WjF6VLXzO1Vs1vjYzSvp/w0uIO+v/AKo0lb7AzGQ67XymGfsgMxH2rmTPCU3tkjDvyvoSI4+i+71hP4UWFuBwquc9qZD5NL6G8tn0Lu/LNKepPDF4gLC8to9O2fUYH6VpvsLQfsqBCV0ZuLspuFtF5jtaaIv+mqZknlmtrqF/sjnfBtQzmiP2PX9Dy8ZIWSxvje0PY4EOa4ZBB7ghZYbWuXbSZ4ns2l9nVH81rSHtDmuDmnqC05BVW6Df7w2Nqd4oZ66xUTNuNTOGW3GwU7W00jv9mo+kbx1JJZ5bycZf6LVVv5w6644bNYR2HWlubE2pDn2+7UZMlDcWN+kYnkAhzenNG4B7cg4LS1x7eNnVZPBcH4HHyMOyhb3NHWifaiLomgFzTbbZfXW8Trm3ROk7lqc2zyvbPye2M+R5vP5fNzPb9Ly34xn6PX0XC+62PeDK3Nw3ozg+7ZO/1Vy08u50UuyPNf5NzEqjdbuSMSv6Snff/Wo1J/c4P55P6Svfcf8Aeo1L1/2KD+dW+nkb+qPuTy2/qj7l897Wu8Edr2dUaFf6Srfjp/8ARPqX+5wfzqp4Kt9wf9CfUv8AcoP51b6PLZ+qPuV8tv6o+5Pa13gh7OqNBVbwgb425hdLtLq1wHfyaBs34MeSuDau201nt7TifVejdR6XgccNmvVnqaSNx+T3sDT96/ou5G/AfchaD9XwXuO17Fzijy9m1vvP5q43smZzMe2RnbmY4OH3heWFve3d4JNmd6Ip5L3omgobtJzuF6sbBb65r3DHOZIgPMI9BIHt+RWvHiV8MbXO0UFVfdBTT7i6XjJc+jjgAu9IzJ7xMHLUgANy6MNflx/N4BK6dG0qbXuy4M0Ltn2VrWHEwvReMUrJo2yRuD2u7ELyC65yuXMLxeeRjnH6IGV5L1rn/mCfH6v+UKM9RW9JI7wdwW77BxB2n1Kfqhh/nU/pLt9/9afU39xh/nVvr5Wn9Efcnlt/VH3L5P2td4I+k9nVGhM8GG+w6f0JtT/3GH+dXl/SW77/AOtPqb+5Q/zq31eW39Ufcnlt/VH3K+1rvBD2dV4mhX+ku33/ANafU39xh/nVP6S7ff8A1p9Tf3GH+dW+vkb8B9ycjf1R9ynta7wQ9nVeJoTHBfvt/rT6m/uMP86r/SXb7j/vT6m+yGH+dW+ssb+qPuTkHwH3J7Wu8EPZ1Xifzp7g7Z6r2ovsNl1jYK3Td2mpWVrKOvDBI6Bz3sa/DXOGC6N475y0rjKzU8XAY4orFj/wNov8dr1hWvpMa13UxsfNnCya1Ta4LuGFE+pZG8InBXqjiovL60Tv07oOim8qvv7ow98rxgugpWHo+TqAXn3Y85PM4BhyWWwpjvzeiMddcrZbsFxMc2ZkqIYGNdJUTODIoI2l8kjicANaMlxz6ALuzRXBNvvr6EzWra6+wRA/vl5EVrB+YFS9jyPqaVuR2O4XtteHm2Mp9F6ZpaKuMfl1F6qWie41Xbm8yod7xBLQeRpDAezQu1sL523a0tdKo/c7lezYpe+zTbZfCo31usAkqBpKzvx1hrr3K5w/uVM8fivoz+EpvZBG97broWdwHSOO8VYcfkOaiA/FbgUWm9p5L719jbWBj/L+WaONTeHfxCaZjqJnbfOutNAC4y2e7UlSXD+xjL2SOPyDCV0JqTTV50Xd/wAk6ks1y07dg0ONBeKOSknx8QyRrSR8xkL+kIgHuMrj2utvdM7m6ensWrLDb9RWebq+juVO2aPmwQHAOHuuGThwwR3BC2a9rWJ/qRTNeeza2vceh/OamFsE4vPDDn0PbK/WOzwrLpZqWMz1ekp5HT1UDBkudRyHLpWhv9aeS/3TyueSGLXzHI2VjXscHscMgj1C+hoyK8iO9BnEvx50S0keSNbzOAHUk4RedP8Av8X8Nv7Vsmqdn6U4WN3tcabt2oNP7c3+72W4xefSV1LFEY5mEkBzcyA4OD3AX1P6S/fb/Wn1N/cIf51bbeAdoPB7tTkAn8ix+n9m9d/+W39Ufcvlp7UtjNxSXBn0sdn1uKep/Plrzhz3P2vsAvertCXrTto8+Om9srooxH5j8hjfde45OD6Y+8LrpbgvFla1vC1S9AP+qW3ftkWn1dnCyJZNe/I5OXTGie7EBERdA0QnX7V+tHSVFwraWjo6eetraqZlPT0tLE6WaeV5DWRsY0Eue4kANAJJWxnhd8KkXOipNSb1yzRCUc8WjbfUGMtaQMe11DCHZOT+aiIxhuXk5aNW/Jrx1rNm1RjzvekVwNeWmdNXnWt4/JOm7NctR3bkMnsFmopayflHdxZG1xAGR1OAu+tNeHhxB6oigmZt86008wyJbxdKWmIH9lGJHSD6i0LdTonb/TW21hhsmlLDbtOWmI5ZRWylZTxc2AC4hoGXHAy45J9SvvgAdui+fs2vY3+nFL1O1Xs2tL33qaeqTwlt8KiFr33TQtK5wyYprvVlzfkeWjI+4rjWqPDG4gNPu5aLTtm1KB3daL5EPwqGwrdUi11tTJT1bX2M72fjtcvyz+d7cfZjX20Msjda6LvumIWSeV7ZcKJwpHu+DKhvNE77HlcMaQ5ocHBzSMgg5B+1f0oT00VVBJBNGyaGRpY+ORoc1zSMEEHoQR6LDriO8Mnbndeiq7noeng241aQXsdboeW2VTgBhs1K3DWA4xzw8py4uIf2XRp2tGT0tjp5o0btm8NamadeyLl26+0urNkNcVmkdaWl9ovVO0SsHNzw1UJJDZ4JB0kjdgjI6ggtcGuaQOIrvxkppSi9UcSUXB7slxB6p6onVejyEymOiIAiIoAiIgCJhMqgdlFfRRQBVFMICoET0VARE9UACeqIVAERFQEREAQ90TsgBK9e6f52Vf8AaXfsXsr1roP+llX/AGl/7F5lyZ6h24+p/S0zsqo3sqvzk+6Cxh8QHhjdxGbMSTWam87W2mfMuNmDTh1QOUefSdj++saOXt+cZFkgZWTyFZK7JVTU480eJwU4uL7z+aqN4kaHtzynr16EfI/NeSzG8S7hmOzm7f7uLJS+XpDWdQ+Z7YweWiuhBfNGemA2YB0rev0hMAAGhYcr72i6N9asj3nxl9Tpm4MBZF+Hd141tr/7bcv/AOF1ax0wsifDvH/11dr/AO3XH/8AhdWvGX/Tz9GZcT48PU3kjsEf2H1j9qo6gKSdh9Y/avgT7E/nJ10M681T/tzX/wCNSr4fdfc1x113qnr/AP1mv/xqVfEX6JX2I+h8Nb8SXqzxWVHAdwcu4ntZVF51GyaHbixTBld5ZLHXSpwHCjY8dWsDS10rh7wa5rW4L+ZmN+kNKXXXurbJpexRNmvV6rYbdRMfnl82V4aHOIBw1uS5x9GtJ9F/QTs5tVZNkds9PaI09GWWuzUwgY9/053kl0kz8fpyPc97vm446Ll7RynRBQh2mdLAx1bLflyRyi02misdspLdbqOC32+khZT01JSxNiigiY0NYxjGgBrWgAAAYAAXuKLrPiG3801w3ba1usNSve+KNwpqKggI8+uqnAmOCPPqeVxJ7Na1zj0C+RjFzei4tn0zaitWdkzTRwRPkke2ONgLnOccBoHck+i6H1tx4bBbf1fs113Qsk1R1BjtDpLmWEdw72VknKRjscLUZxFcWG4XEzdp36nuslFpwv5qXS1ulcyggaD7vO3oZ5B3L5M9S7lDBho6ajAjaGsAY0fotGAPsC+hp2TqtbZfRHEt2movStam8OxeIrw76guEVFT7lUdLNIcNdc6GsoYh9ck8LGD7SF37pvVNm1lZqe72C7UN8tNQCYa+3VLKiCUA4JbIwlp6g9iv5wQ8js4j7Vz7ZHfbW3DtqoX7Qt3Nskkew1ltlBfQXFrf0KiEEB3cgPbh7eY8rhlerdkJLWqXHzPNe09XpZHRH9CakkbZGOa5oc1wwWuGQR8F1vw9b52TiK2ps2t7G008dY10VVQSPDpKGqYeWaB56ZLXdjgczS1wGHBdlL5yUXFuL5o7iaktUaafES4Rqfh711Tar0tRtptAamqHsZSwtxHaq/Be6naOzYpAHPjA+iWyNwA1ucQV/QRxIbOUu/mymrND1BZHNc6N3sVQ8kCnq2ESU8pI64bKxhOO4yPVfz7N8zGJonQTAlskTgQWPBw5pB9QQR9i+v2bkO6rdlzifNbQoVc9+PJl9Vnn4P5/+mvX3+5yD/GisDFnl4QBzvbr3r/3OQf40Vm2h/TyMOD8ZG2FEUd1C+IPrTrCTil2Zhkex+7mhWPY4sc12pKMFpBwQfznQ9FP6ajZbP8Aou6D/wDOWi/nFoBq6WJtfWNEbAG1VQ36I9Jnr8PJix+9M/khfTrZEGtd5nBltNptbvI/oFPFRsuP++7oP/zmov51DxUbLj/vu6D/APOai/nF/P15EX+lR/yAnkRZ/eo/5IV9kQ+dk9qP5T+gX+mn2Xz/AKLug/8Azlov5xcL3r4lNor1s5rygoN1NE11dVWCvggpqfUVG+SWR1NIGsa0SZJJIAA6nK0Xiniz+9R/yQoIIs/vcee/0QvUdkwi095nmW0201unjRAtoqYHoRCwEfA8oX6fJUdExld1cDit6vU5Dt7oC/bqa3smkNM0Yrr9eKgU1LC4kMBwXPkeQCWxsaHPc7Bw1pW9Dhf4Y9LcL230dgsLBW3aqDJrxfZow2e5VAGOY9+SNuSI4gSGAnu5znOxi8J/h7Zpnb+v3au1OPyxqXmo7Tzg80FujfhzwD2M0rC71yyKIg4cVn+Avkto5btm6ov3V+WfT4OMqob8ubKplenebxQ6etNbdLnVw0FtooH1NTVVDwyOCJjS573uPQNa0EknsAtM/Fxx+6v4gbtX2TS1xrdLbahz4oaWje6CquseC3zKmQYcGOBOIQQMOHPzEDGjjYs8qW7Hl4m3fkQx470jaFuTxhbMbS1M1Lqfcax0ddBIYpqClnNZVxOHo+CAPkb9rQut5fE64emThjNYXCVmf31mnbhy/jCD+C0qRRsgbyxMbE34RgNH4Ly7ld6OyKkvekzjPacteETexorjx2C19WOpLZufZqaoGMR3nzbWXEnADfamRhxz6NyV3xDNHURMlie2SN7Q5r2nIcD2IPqF/Ne/EjCxwD2HoWuGQfsXdfDVxea/4YbvT/ufr5LtpXzQ6s0lXzE0kzMkv8gnPs0pycPYOUkN52vAwsF2ydE3VLXyZnq2kpPSxaG+hcH3m2Z0rv1oC4aP1fbxXWqrHM17Dyz0swB5J4X4PJIwnIPzIILXEH3NqNz7BvPt5Y9aaYqXVVku9P58DpAGyMIJa+OQAnD2Pa5jhk4c0jJXLV8970JeDR2eEkfz78RWwOoeGzdGv0Zf3isa1vtNtusbOSO40jiQyYN/RcCC17OvK4HBLS1x6zK3a+INw5s382IuFRbaQT6x0uyS62ZzGZkl5W5npRgEkTRtwGjvIyI/orSTG9srGPjPMxwDmn4gjIX2uDk9Zq1lzXM+VzMfoLPd5MvxWyDwZz/0w3p/g2T9lctb/wAVsg8GfrcN6f4Nk/ZXLztL+ll9P5R62d8dejNmaE4CKO7faF8UfVGM9d4kfDnba2ppajcUR1FPK+GVgslxPK9ri1wyKfHQg9ui/EeJjw2k/wCiOP8AyJcf/h1pd1KcamvfU/55Vfr/APeJF87mPxP3r6uOyaGk9X+P8Hz0tpzTa3Ub1dMcevD9q+UR0W6tgpnf/isr7cPvqGxhd0ad1TZtYWqO52G7UF7tsp/N1luqWVEL/qewkH71/OESXDBOQe4PZfZ0PrTUO2WoIb5pC+V+l7xEQRV2ucwucAQ7le0e7IwkDLHhzSOhBWKzZEdP05fc9Q2p88T+jlO6wb4IPEPZvbcaLQW4cVNbNcvjLaG6U7fLpbuWjJaWf1qflHNyj3H4cW8vRizkC+fupnRLcmuJ2q7I2x3oPgYC8fnAHS69t913L20tQg1lCHVV1sdFHht5b3fLGwdqruen771BBeQTqjikbKxr2O5muGQQv6Vlp18Tfhxi2i3hh1pZKbydMa1fLPLFG08lLc2jmnb2w0TNPmgE5LhNgAALu7MzG30E36f4ORn4y3elh9TDZetcx/0vqP4P+UL2V61z/wAwT/wf8oX0jOFX216o/pcb2T1QIvzg+5OJ623a0PtrLRxau1lp/S0lYHupmXu6QUZmDCA4sEjm82OZucdsj4rjJ4qNlu39F7QX/nNRfzqwR8ZCNrtUbS5aCPYrv3Gf67RLXT5EX+ls/khd3F2dHIqVjlpqcjIzugs3N3U/oE/pqdlv9d7QX/nNRfzqo4qNlz/33dB4/wB01F/OL+fryIv9LZ/JCvkx5/e2fyQtv2PD52a/tR/Kf0Cf01Gy/wDru6D/APOai/nU/pp9l84G7ug//Oai/nV/P35MX+ls/khPJj9I2fyQnseHzsntR/KZdeJ/rrTW4nEbZrppTUVp1PbI9J0dM+ss1dFVwtlFZWudGXxuIDgHNJHfDgfVYj/BGsDfotA+oYVXZoqVFarT10OTfb01jnpzOxOHnZW5cQ28endCW6V9Ky4Sukr65jSfY6OMc08ucEB3LhjM9C+RgJGVvw0HoSxbZ6PtGltM22G0WK1U7aako4B7rGD1JPVziSXOcSS5xLiSSStcPg66MgqNQ7naumgBqqWnobNST/BshknqG/by038kLZ6vl9p3Od3R90T6PAqUKlLvZF8zUmqLNo6zVF3v12obJaacAzV1xqWU8EQJwC57yGjqcdSvnbk67t21+3+o9X3fnNssVvnuNQ2LHO9kUZeWtyQC44wBnqSFoP3x331lxF6wl1Fra5PrJA9zqO1tcfY7axx/eoIj0GAGgvOXPxlxK1sTDllN8dEjNk5McdcVq2bg754i/Dtp+vlo6jcyiqZozguttDWV0Z+qSCF7D9hK9Kk8SzhyqpGxu3ENOXEAOqbHcYmfa51Pyj6yVpL53EdXE/aoHkdnEfUV21sinTtP8HK9pz+VH9E+3+7Gi916CSs0bquzaopouXzX2mujqPJJ7B4aSWE4PRwBXLV/OBpPVN50Fqeh1Hpq61Vgv9C/np7lb5PLmYfUEjo5pGQWOy1wJBBBW6rgV4rf6aHbCpku7YafW2n5GUl5gp2cscvOCYamMZOGyBr/AHfR8cgxgAnk5eBLGW/F6xOjjZkch7rWjMlMZWm3xLeG6n2Y3jg1ZYaQU2lNZulqPIiaRHR3FuDPGOmGtlBErRn6XnAABoC3JLGzxEttYtyOEzWx8mN9fp6Aajo5JM/mn0p8yUjHq6Dz2fx1hwr3Rcn3PgzNlVK6prvNH+ei86c/n4v4Q/avAkOPQ5aex+IXlB+/R/wh+1fcnxzN6PAN/wBh7tT/ALSR/wCG9ZALoDgJP/1Pdqf9pI/8N67/APVfnl3xJerPuK+wvQwu8Wf/ALFqm/3S279si0+rcD4s/wD2LlJ/umt3/rFp+AX1WyvgfU+c2j8X/vkF4SSNhY6R55WNGSSvPKyz8NXh8g3q34N+vFKKnTGimRXKaN/Vk9c9xFJE4ZBLWlkkx7jMTA4YcundbGmt2S7jRpqd01BGYXh48ElNs9p6i3H1vbS7cW5wc9HSVjMGxU0jf3trT9Goe0/nHH3mg+WOUc/Pm8OyBOy+DttldNzm+LPsa641xUYhcE3O32292Zp2za31lZtMl8Zmjgr6xjKiZgOCY4c+ZJ1/VaVhzx7+IPV7Z3as202vqY26phAZedRFokbayWgingactfUEEFzjlsYIGC8ny9W1yuNZebrVXW5VtTc7tVv8ypuFdM6epnce7nyvJc4/MldTF2bK6KnY9F+Tn5GdGl7sVqzdPL4mfDnHJyt17PIPV8en7k5v3+zrsHbDjA2b3jroqHSe4VmuFxmf5cNuqJHUdXM74MgnayR/8VpWg7mJ9T968ZY2Ts5ZWNkb8HjOF0HsirT3ZPU0VtOevvRP6VVVqs8PnjxvGn9U2na/cm8VF3sFzkbSWO910hknoKhxxHTTSH3nwvJ5WOcSY3FrT7hHJtSXz2Rjzxp7kzt03RvjvQOmOKnhi05xRbbT2C6tZRXykD57JfGszLb6kjv/AGUT8BskfZzcdnNY5uirVmk7xoLVN301qGgfbb7aKp9HW0r+vJKw9cHs5pGHNcOjmuaR0K/o8WrnxdNk4rPqfSm6ttp2xMu3/SG7loa3nqGMdJSSkAZc4xtnjLiegiiC6my8lwn0MnwfL1NDaFCnDpFzRrywiBOmV9WfMhMIEUARPVVATKBOyIAiJ6qgfWoqnZQEVUVQBPVCioCeqIgCeqYRQDsUREA9U9URAEQp2VAXr3T/ADsq/wC0v/YvYK9e6f52Vf8AanfsXmXJnuvtx9T+lpn0Qqo3sqvzk+5Oq9vt6YNWb0bn7d1jY6e76UnoailYBympt9TRwyNlGXEuLZ/PY4gAAeX6uXaq1N8Vu9Ffw6eJP+7uibLJTUlvtsdzpIic1dBJE5lRHjIDnBrQ9gd0EkUZwcLapYb5b9T2S33i1VcVfa7hTx1dLVQnLJoZGh7HtPqC0gj61t30uuMJrlJGvVYpuUe9M4bv5svZuIDai/aHvf5qnuMP5isa3mfR1DTzQzs6jqx4acZHMMtPRxWgfWejrzt1q686W1FRmgv1mqn0dZAQcCRp+k0kDmY4Fr2u7Oa5pHQr+jla5vFd4Z23Kz0u9FgpQKu2sjoNRxRNAMtKXcsFUfUuie4Md0JLHtPRsS39mZPRWdHLk/5NPPx+lhvx5o1igLIrw8OvGrtd/brl/wDwurWOvUFZFeHec8au139tuX/8Lq19Hl/An6M4OJ8eHqbyR6KP7D6x+1Udgo/t9o/avgj7I/nJ1yP+rvVH+3Nf/jUq+H2K+5rnrrvVP+3Nf/jUq+H2X6JX2F6Hw9nxJerM0PCk2zGsOI+4aqqIHSUWkLQ+aOVrujKyqJgiBHr+ZbV/gtwa1++DxpWnpdqdwtTN6VVw1Cy2v+BjpqWJ7P76qlWwNfG7Rm55MvLgfV4cNyiKITgLSl4kO+FRu/xIXazU9Vz6d0S99loYRkNNUOU1spB/S8wCLp05YAR3OdzmpL3BprT9yu9Vn2agppauXH6kbC8/g0r+cCW6Vd8mludwqHVVfXvdWVM7+rpJZXGR7j8y55K3Nk1KVjsfcau0rHGtRXeeCIi+qPmQFCqohTJbg943LlwlW/VVvZpb919tvc1PVxUr7r7E2jnY1zJHj8zJzGRnkg9seUO+emRT/GXrCPd2ZiHzdqw/5KJa384RaFmDj2yc5x4vzZvwzbq4qKfBGxiXxkbq76G0VC3+FqeQ/sowsB9f6qGu9fao1MKFlsF8utXdfYY5TK2nM8rpTG1xa3mALjg8o+pcfVWSnFqx3rWtNTFbk2XLSbCzz8H/AP0aNff7naf/ABorAtZ5+D9/o1a+/wBzsH+NFYdof00jLg/GRthUf9FVD2XxB9afza3Ectzrx8KyoH/HPXrLsu5cPG7LrpXuZtRr17HVU72uZpauIcDM8gg+V1yCCvW/pdt3M/6Emvwf9ytf/NL9AjdVur3l9z4ydFrk3uPn4M69CLsH+l43bA/0JtfD/wDa1d/NJ/S87uY/0Jdf/wDmrX/zS9dNX8y+546C35H9jr75ZRdg/wBLvu4Mf/RJr/P+5Wv/AJpcX1RozUehrhFQan05eNMV8sQnjpb3b5qOWSIktEjWStaS3ma4ZxjII9F6jZCT0i0ySqsgtZRaXofGX09NaZr9b6ls2m7Xy/lS911Pa6Tndyjzp5WxMJPoAXg5+S+YshfD709FqbjF21gqKf2mno56y5SNP6Bho5nRu+yUxFebp9HVKfgi0Q6S2MfM3b6R0xbtFaVs2nbTCYLVaKOG30kROSyGJgjY3PrhrQvsKNGAFV+e8+J9quHAwI8W7eSo0vtVp7bu3zGOfVtU+e4FhGfYaUscYyO48yZ8IyO7WPHYlaojklZc+KVq4al4tay3e81unrFQ24t9C+TzKpx+sieMfxQsRvVfbbPrVePHz4nyufY53NeBPReSiLpHOCIgQGwDwkd75LBr7UW1dfUtFtvkD71ao3kDlrYg1tQxnTJMkPJJjOB5Dj3cVtTX8/3Cpqqo0RxM7V3mllEL2ajo6SSQ9hBUv9lmH2xzuX9ADey+P2pUq795d6PqsCxzp0fdwK7stAnFftnT7PcSW4ekqGOOG20l0NVRQwt5WRU1SxtTFG35MExZ/EW/tad/FhskFo4p6GphjDXXPStFUSuA+nIyoqosn+I2MfYF62VNxv3fFHnaMFKnXwMNO62QeDN0uG9I+Vk/ZXLW8tkPgz5Nw3o/g2T9lcu3tL+ll9P5Rydn/wBQvRmzNR/YfWP2qrxf2H1j9q+KPqj+b/UjgdTXv/bGr/xiRfO6hfQ1F01Lesf/AGjV/wCMSL56/RYdlHw0+0/Uvqoid17MZ+tLVVFDV09VR1U1DWU0jJ6erppDHLBKxwcyRjh1a5rgCCOxAW+Dg337PEZsHp/VVW6MX+Hmtt6ijwAyuhw2Q4AAaJAWSho7NlA9FoaWxrwddbPhvW5uj5ql7oJYaG9UtMT7rHgyQTvA+LgKYH+CFxtqVKdO/wB6Ovs61xs3O5mzlY2+Ihtizc3hN1s1kEctx0/C3UdFJISPKfSHzJSMeroPPYP4aySXztRWSk1LYrhaK+PzaGvp5KSoj/XjkYWOH2hxXylc3XNTXcfRzjvRcT+b3oerTlp6g/EL1rl/mGb6h+0L9YIJaWFlPMC2aD8zIPg5h5T+LSvxuYzb5/4P+UL9D11R8XFaWJeZ/S6EQIvzg+3NYPjHddT7S/8AiV3/AOVolrqWzbxZNttY6+1BtfLpbSGodUNpKS6sqXWO01FaIC+SkLA8xMdylwY/Ge/KVgV/S7bugf6Eevx/+1q/+aX2Gz7IRx0nJfc+ZzarJXNxi2jr5F2F/S7bu5/0JNf/APmtXfzSf0u27v8ArR6/+3S1d/NLpdNX8y+5z+gt+R/Y69Tuuwjw67ujvtHr8D/ctXfzS9C+bKbkaXtNVdb3txrKy2qlbz1FfcdPVlPTwtzjL5HxhrRkgZJ9VVbW+CkvuHRalruv7HDVMpjCLKYDaF4Od2hl0Xufa2kGop7vR1Th68klLytP3wv+4rYktOnhYbxQbd8QtXpa4VLKe2a1oRRxOfgNNfTl0lOC4kY5mPqWAernMHcrcUvidowcMmT8eJ9fhSUqI6dx03xi6Bu25vDBuRpuxNllu9ZZ5XU1PA0ukqHxkSiFoHcyeXyD5vWg2KZlTG2aMhzJBzA/Ir+lY9Vh/wASPho7f75X24amsVfU6A1XXyGarqKCBs9FVynHNLLSuLfzhwcujfGXFznO5nElZ9n5kcfWFnJmLMxXfpKHNGmvuizI1z4VG9mmXTS2OTTWsqcPIijoq91HUvb8XRztEbT8hKV0lq3hH3s0RMYrttVqoYGTJbqD8oxD630plA+1fSQyqLOzNHBli3Q5xOpO67e4YuJO/wDC3r+4ansNuo7wa+2uttRQV80kcLh5rJGSe5+m0scBkHpI8eq6jrAbbWyUdY11FWRnlfTVbDDK0/AseAR9yYOOxWacIWxcZcUzDGU6ZKS4Mz8i8YbXDBiXbnTsh+Md0qGj8Yyvl6z8V/UuutF6g03X7a2VlJebbU26V8V5n5mtmidGXAGHrjmzjpn4jusFgi01s/HT1UTaedc1pqeEMfkwxx55uRgbk+uBhftB+/x/wx+1eC84P3+P+EP2roGg3rxN6XAV/wBh9tT/ALSR/wCE9d/LoHgJ6cHu1P8AtJH/AIT138vz234kvVn3FfYRhb4tH/YtUo9Dqa3f+sWn4dluB8WcZ4W6Qf8A+zW79si0/BfVbK+B9T5zaPxQBkgZxlbqPDO2yZt9wpaeuEtO+C5aqmm1BVeYc5bKeSnx8G+zxwHHxcT6rShWlwo6jkyXGNwaB3yRgfjhf0dbfaSg0DoTTmmKQ5pLLbaa2wn+whibG38GhYdrzahGHiZtmQ1cpnIF1jxMbut2I2H1prkNElVaqBxoo3M52vq5HCKma4Aj3TNJGD8srs5YF+L5q38nbJ6N07HO6KW76jbPIxp6Sw09PK9zSPUeY+E/WAvnsavpbowfezt3T6OuU/A1TVlZV3Otqq24VUtfcKqZ9RVVdQ4ukqJnuLpJHuPUuc4kkn4r8URffpacEfFNtvVhP/nCZRUh4yxiaNzCS3mGOYdx8CPmDg/YtxW1fiYbNu2s0m/W+tZKXWZtdOLxSxWSumIrBGBN1igczq8OIwcYIWnfCAn4laWTiV5SW/w0NzHypY+u7xTNwl88WPZK0zFlHT6tvzR2koLL5bT/AHeSMrHTjE8Qnb7iN2QvGirLo/U9Jcp6mkqqK4XeKkjigkiqGPc4hk73dYxI3oP0/gsBcK4WtXs2iuSktdUZ57QtmnHRcSdyqiLrHMHZMp3TugHqiJhAFFU+SgCIECoCdlFUBFUxlEAyiJ9qAJ1RFAEx6p3RAOydkRUBETPzQBERAF61z/ztq/7S/wDYV7K9a5j/AKW1f9qf+wrzLss919tep/S2z6IVQdlV+cn3Jpb8UIf/AFu7v/tJbP8ABlWSvhP8RwvWma/Z291WbhZWPuFhfK7rLQufmWAHHUwyPyMkkslAAAjKxq8UH/subvn/AOxLZ/gyrHLbjcC9bT6/0/rPTsoivljq21lMHkhkuMh8L8EHy5GF8bgCMteV9fHHWTgxh36cPU+ad/QZcn3an9GC9G+WSh1LZa+0XSkhr7ZX08lLV0k7eaOeJ7S17HD1Dmkgj4Fcc2e3Ssm9e2mntbaekc+1XilE8bJMc8L8lskL8dOeN7XsdjIyw4JXMV8i04vR80fScGjQDxP7C1vDZvTfNEzmWW1xkVlmrJjl1Vb5CfKcTgZewh0Tzge9GSBghc18O7/s1trv7dcv/wCF1a2L+I5w2yb6bKPvdkpPaNZaQ8y5UEcbXOkq6flHtVKAO5e1rXtGCS+JjRjmK1z+HY5svGptY5juZrn3JzT8R+S6vqvrK8nrGFPXmk9fsfPyo6HLjpybN5Q6hR/YfWP2qjsFH/RH1j9q+SPoT+cnXIxrzVA//Ga//GpV8Nfe15/1/aq/26r/APGpV8HuF+iV9iPofD2fEl6s3IeFXbY6HhSpp4/pVt9uc8nzcJvLH4RhZhrDvwqriys4VIYW/SpL/c4XDPqZRJ+yQLMVfC5WvTT18T7Gj4UTrLieqH0nDXuzPGcSRaSu0jSO4Io5SF/PnTtDaeEDs2No/AL+hHiUpX1/DtulSsGXz6VusbQO5Jo5Qv57qV3PS07/ANaNp/vQu7sfsT9Tj7T5xP2RjeZ7W/EgKD4ryi/fWfwh+1fQnBNiPC14bG3G/Gwejtd3vU+sqK6XmlfNUU9trKRlO1zZpI/cD6ZzgMMHdx9V2wPB+2f9dV6/P/6nSf8Awq7c8PA//Ux2v/8AEJf8ZmWRi+KuzL42SSm9NWfYV49ThF7q5GDI8IDZ3t+6rX//AJUpf/hVR4QOzw6HVGviP9tKX/4VZy5CLD13I+dmTq9XymD/AP0IbZv11Hrw/XdoP/h1iF4gHCVozhUl29j0jX32vN/Nx9qdeqxk/KIBT8nJyxsx+/OznPotzq1n+Mx1q9mB6/8ATr/BolvYOTdZkRjOWq4/wamVRXCiTSNbizz8H/8A0bNeen/U5B/jZWBizz8H7/Rp19/udg/xsruZ/wDTyONg/GRtgVUTsviD60Y/+cpj610MeO7YEOc07rabyDg5qj/7qn9PhsBnH9FfTf8Awo/+6svRWfK/seN+Pid9YTH/AM5XQo48NgD/AN9fTX/Cj/7qDjw2Ad/31tNj66o/+6nRWfK/sN+Pid9LUR4vGRxL6U/3IRf47ULP3+nw2AJ/0VtN/wDCT/7q1r+Jduto/eTfTTV80VqOg1LbINMspJqi3yc7Y5hVzO5D06HlcDj5rqbNrnHITaa4HPzpRdL0Zid6LMbwoqOOs4rp5HsD3Uulq+aMkfRcZ6RmfueR9qw4WZXhP1kdLxV1cbzh1VpWvhYPiRUUb/2NK+gzv6afocPC06xH/vcbikPYoh7EL4Y+vNGviGvD+NPdAnp+ft7futlIsdlkZ4ikJh41tzQez3W2VvzBttKP2tKxzC+9xP6eHoj43K+PP1ATunqi2zVCYwnZRAfT0xVvt+qLFVRfvkFzo5W/W2pjI/Yv6QGdB9pX85u3lnk1FuHpG0xjMtffLdSMHbJfVxNA/Ff0ZN7H618xtjTegvJn0Wy+xL1KtSvi+wNbv7ombPvSaXcw/U2seR/hFbalqY8YCQHfbQzM9RpmQ/fVnH7FpbN/qEbWd8FmCa2QeDN1uG9H8GyfsrlrfWyDwZjm470j+xsn7K5fQ7S/pZfT+UcXZ3x16M2ZqO7faFVH9h9YXxR9Ufzeah/647z/ALY1f+MSL56+lqT/AK5b2P8A8SrP8YkXzl+iw7KPhp9t+oREC9mMeqzW8I6d7OKG/wAWTySaPq8gfFtbR4P98fvWFKzb8Iqinl4l9S1bWONPBpCoie/HQOkraQsB+sRP+4rQzv6afob+D8eJt4Uf2+0ftVUd2+1fDH1x/O5vJao7HvJuHbIyDHQ6mutKzHbDK2Zo/YuDXTpb5/4P+ULme7V0bfN2te3JhDmV2o7pUtI9Q+smcP2rhlz626o/gf5Qv0OrVVR18EfGSa6d6eP9z+l0Ig7Ivzw+zGFOX/5yuA7o7+7e7KzWyLXGrbbpl9ybK6kbcJSzzhGWh/L0PbzGfeuDHjt2B/119M/8M/8A5LIq5yWqizw5RXBs74wi6H/p7dgc/wCivpn/AIYf+ZT+nu2B/wBdfTX/AAs/8yvRWfK/sN+Pid84WOniG5HBnukRkH8msHT/AMYiX0xx27Ak/wCivpr/AIWf+ZdI8a3Fps7uRwt7h6b01uLYrvfK+gZHS0NNUF0kzhNG7laMdTgFZqarFbFuL5ruMdk47j49xqTk+m76yoq85c76yovvT4k/WlqqigqqeroqqehraaVk9PVUshjlglY4OZIxw6tc1wBBHUEBbmuCTjlsnEPp+g01qatp7XuhSxck9FJiJt1DG5NTTDoDloLnxjqwh3TlAK0wLyie6KaKWN74pYniSOWNxY+N4OWua4dWuB6gg5C0cvEjlR0fBrkzexcqWO/FH9KOUWmbZXxPN3traalt2oHUW5FmhAYG3p7oLg1jW4DRVsB5znqXSxyOP6yy3288W7ajUTaaHVll1Fomqc0mad9MLhRRn4CSAmV31mIL5a3Z+RV+3VeR9HXl02cpGcSco+GF0/oPi/2W3KEIsG5mm6ieZ3JHR1Nc2kqnn4CCbkk/vV29HK2Roc0hzXDIcOoI+taEoShwktDaUk+TPj6o0Vp/XFvNBqOx23UFATk0t1o46mIn48sjSFjhuP4Z+xGvm1EtHpup0VXzO5jV6Wq3UoHyEDueAD6ox8sLKkEH1yi9wtsresJNElXGfaWppv4hvDJ3I2eoqi9aTnG5GnIQXyMoqYw3SnZ1yXU4LhMAOUZiPMep8sAZWHUb2zMa9jg5p7OHqv6VSAVrG8T/AIQbfp6mqN6tHULKKOWoa3VNBBhsbnyODWV7W9MPL3NZLy/S52vIyJHO+hwtoynJVXd/JnFysCKjv1fY1yrzh/fo/wCGP2rw7FecH7/F/DH7V9EfPm9LgIOeD7an/aSP/Deu/l0FwFf9h9tR/tJF/hPXfq/PLfiS9WfdQ7KMLvFm68LdL1/7pbcPxkWn0dluB8WfP9K3SD46mt3/AKxafgvqtlfA+p83tH4p97b+0sv+v9K2uRofHXXmgpXNPYh9VE0j8V/Roz6P2lfzmbf3eLT+4Ok7nOQIKG9W+qkPwayqicfwBX9GbO32n9q0Nsa78PQ3dl/Dl6lWs7xlpnit2ZhyeU/lqQj5gUTR/hFbMVrU8ZSgkedna5rMwRSXime/4Oeyle0fdE77lobPemVD6/wbuZ8Cfoa1wndEX258gE9URAERAgIqERAFAidlAVAnqmFQOyeqiqgJhVOxRAMIhRUBCiIAoqigCKqDoqQIiYwoUInr3RUBExkIgARO6fFAOyImUAK9e59LbV/2l/7F7C9e5/521f8Aan/sK8y5M919tep/S03sqVGqr85PuTS54oP/AGXl4Hwsls/wZViessfFCH/1u7vnt+RLb/gyrE5fd4X9ND0Pj8z48zNzwv8Aic/oY7lybaX6r5NL6uqAbc+UgNpLqQGtbkkYbUNDWev5xkWAOdxW3dfzWfDD3xOBBa+N3K5hByHNPoQQCD8Qt4nAnxMjiU2Vpqq61Mb9bWItt1+ibytL5QPzdSGjs2Zg5ugA5xI0D3FxNqYu7Lpo8nzOxs/I349FLmjI89QtZVr4eG8P/irbfG10fs+kdUvu93tAjaGxwPNuqvaqYYAA8uRwc1oGGsmjHoVs1XENc7dUes71pC8OldSXTS91/KdFUMa0n3oJaeaJ2RnkfDPICAR7wY79Fcem11byXKSaOnZBT0fgcub9EfUj+32j9qvoo/t9o/atcyn85Wuf+v3VP+3Nf/jUq+Fnovva8/6/dVf7dV/+NSr4K/RK+xH0Ph7PiS9WbWvB81HTVWzWu7C2Vrq2g1Ma18Y7tiqKSAMP2vgl+4rPlaivCX3JZpbfzUGkKmaOKn1ZZxJTggl8lZRudI1jT26wzVLjn/Swtuq+M2hBwyZefE+rw5qdET0b7aKe/wBlr7ZVt56Wtgkppm/Fj2lrh9xK/m7dbqmzvfbq2J0FbRPdSTxP+kySNxje0/MFpX9KRGQQtIfiG7KVWzvEzqKrZBI2w6vlk1BbqgglrpJHZq4ubAHM2YufyjOGTR57rd2TYo2Srfeam0q3KtSXcY0eioJa4Edx1U6ovqj5s7w2/wCNje7avRdp0lpTW7bTYLVEYaSk/ItFOY2lznEF8kZc7q49SV913iL8SJ/75bW/wdP27+ZWOWEWs8alvVwX2RsrKuXBTZkVVeIzxIRQTS/0Tcckbn9NPW30BP8ApC3NbP1V/rtptF1Gq5DNqiayUUl2kdG2MvrDAwzOLGgNbmQu6AADsAFox4XNl6jiA340loxtO6e2TVTa68PAdyxW+BzXzlxAPLz4bE0npzTNC3+jsvnNqRqrlGFcUn36I72z5WWQc7HqFrA8ZC5xT6n2ltzXj2imo7tUvbnqGvfSMafvY/7ls/Wl/wAULW8Wr+LS42+HPJpmzUVncQctdK7nqnkfMCojafm1YNmR3slPw1MudLdofmYmeizz8H7rvVr7/c7T/wCNFYGLPHwf/wDRt17/ALnIP8bK+i2h/TSOFg/GRtiQoh7L4g+tP5uLlK78r3L33D+ran1P+nvXrec/9d38pftdP89rj/47U/8ALvXrAr9Gj2UfC2Jb79Tz85/67v5RU81xz77vvXifrRejweXmv/Xd968XOL+pJP1oUQALI7w7r2LHxl7dufKIoK019BIXHGfMopnMH2vjYPtWOPp0X3dBazm2413pfV1PD7RNp660l3ZDnHm+RM2RzOn6zWub9qwXw6SqUPFM2MeW5bGXmf0bDqOiL1LPdqO/WqjuVuqY6231kLKinqYXczJYntDmPaR3BBBB+a9xfnx9qafPFi0W/T/Eva77HTPZSag09A91QRhslRTyyRSAfNsb6f8AlBYXYW4HxUNkKjcrYam1fbKV1Td9D1D7g9jOYudb5GhlWGtHT3Q2KYk9mwO+K0/NIOCCCD2I9V9ps21WY6XeuB8rn1uFzl4hPVEXUOaFPqREB3NwZ6Odrnit2qtbDymK+R3RxP6lG11Uc/WYWj+MFvuHZaxfCJ2RqJ7zqvdi4QOZSRRHT1nL29JXFzZKuUAjOG8kMYcDjPnD0K2dL47adqsv0XdwPq8Ct10pvvC06+LFfILvxUUNJDLzG1aXo6aaP9SSSoqZcfyHRn7QtxR7dF/P9xS7lRbwcRu4eraWWKooK27yQUU8BJZNS07W00Egz+syEP8A4697Khre5eCPG0ZbtOnidWYWyLwaOty3p/gWT9lctby2QeDPj8o70/wbJ+yuXb2l/Sy+n8o5Ozv6hejNmaju32qqP7faP2r4o+qP5vtSddTXv/bKs/xiRfO9V7+oBjUd5/2xq/8AGJF6C/RYdlHw1nbfqETCfavZ4GFs68HbQstNpvcrWkrGmGvrqSy0xI95vs0bpZSPkXVTB9cZWtzSmlL1r3VNp01pu3SXa/3aobS0VFEOskjvUns1jRlznHAa1rnEgArfpw7bL2/h+2b0xoWglFT+TKb+qqzGDVVT3GSebr1AdI5xAJOByj0XD2rco1dF3s7Gzam5ux8kdkr5WqdQ0ekdN3W+XB/lW+2Uk1bUSfqxxsc9x+5pX1FjH4jm6Lds+FDV0cUwiuWpQ3TdG1zch5qcif6sUzahwPxaF8vXB2TUF3n0M5bkXJmkSCeWqgZPO8yTzDzpHHu57/ecfvcV+N0/zuqP4P8AlC9o9D0GB6D4Betcv8wT/wAH/KF+hclofFxetifmf0ttVQIvzk+3NYvjIEt1DtD170l5/wCUoVrn8x+Ppu+9bFvGRP8A1QbRf+KXn/lKFa6Mr7TZv9NH6nym0PjsvO79Y/er5r8/TP3rxQLpnNLzu/WP3oXuPdxP1lRFShQK4X51T3RUdS9pw9kT3A/AhpIUb0WpUtXoeYKBbk9v/Dl4d9R6F07dptEVFRPX22mqnzN1Dcm87nxNcXYFQAMk5wOi++fDN4cwCf3B1P8A5x3T/wCJXEe1qk9N1nXWzZta7xpOQdD8F2nxR7UM2P4g9c6MpoHU9roq8z2xhc94bRTtE0DQ95Ln8rX+WXEkkxuyScrqz0XZhNWRU1yZyrIOuTg+48ZGMnbyysbK30EjQ4fiuQaN15qrbqWSTSWqb5pV8hzIbJc56MP/AITWODT9RBXwUVcYyWjRIzlHsvQyz2s8Tve3QFZA2+3Gg3BtLSxr6W9UzKeoEY7+XUwNaQ4/rSMk+pbOOF/ip0lxTaPnutgbNbbvQFkV1sVa5pqKKRwJact6Pidh3JIOjuU5DXBzRoUHzWTHhu6gr7Fxk6HgopnRQ3iG4W2tY3p50HsktQGn5CSnjd9i42bg1Ot2QWjXE6+JmWb6rm9Uzd4vg650fbtwNGX3TF3jMtrvVDPbqpjThxiljMb8H0OHHB9F90dgUIyvk09Hqj6LmfzZ1tqrLFcKu13BhjuFBUS0VS09xLE90b/75hX5Q/vsf8IftXPOIKNjOITdVkYAjbrC8hoHoPbplwSH9/j/AIQ/av0OuW9CMn3o+ItjuzlHwbN6XAR/2Hu1P+0kf+G9d/LoDgK/7D7ak9f85Iv8J67/AF8Bb8SXqz7WHZRhd4s//Ys0v+6W3ftkWn0FbgfFm68LlJ/umt3T7ZVp/HZfVbK+B9T5zaXxf++R+Fa1z6KoDM8/luLcd8gZH4gL+jbbjV0W4G3+mdUQN5Ke92yluUTfg2aFsgH98v5zweUg47LdF4ZG5jdf8Kljtks75blpOpnsNR5rhnkjPmU+B+r5EsTQfiw/BYdrwbhGfgZdmT0coGWKwm8WvSE184abZeoImu/c/qKkqqiUjqyCZktKevoDJPD9wWbS4FvxtTR737O6u0NWuZHHe7fJTRTyAlsE+OaCbAIJ5JWxvx68q+dos6K2M33M7lsd+Dj4n89CL2bparhYLrX2q70j7feLfUyUddRy/Tp6iNxZJGfmHAr1l+gJprVHxLTi9GFFU7qkJ6rwNTAx5Y6eFjx+i6RoP3EqyStgjdI/q1gyQO5+Q+ZW8vhj4WdL6I4c9C6Z1jpGy3q9wW8VNx/K9tgqJGVVQ4zzRkua7IY+QsHXsxq5+XlxxUm1rqb2NjPIb8jRu3843LCHj4tOQqWkHqCFvuvnBrsXqCB0VVtHo2MO7vpLLBTP/lRNa78VjJxi8Fmwey3DjrvWtl0Ibde6Cjaygmp7xXhsdTNKyCF3lmcscA+Rp5S0g4WnXtWuclHderNuezJRTakaq0VfjndjtkqFdw4wQFMqIC/giqiAgVREBFURAOyJ6p6oAiYRQBE7IqQIieqFCIiECIiFCBE9SgCIiEC9a6f521f9qd+xeyvXun+dlX/aX/sK8y5MyV9uPqf0ss+iF5KN7Kr85PuTS54oHTi8vOf/ALEtn+DKsT+yyw8UD/svLz/tJbP8GVYoeq+7wv6aHofHZnx5kXc/CRxFVXDHvRbNUPdLJpyqaLff6SPr5lE5wJkDcHL4XYkbjBID25AeV0wnZbNlcbYOEuTMFdjrmpx7j+kq3XGlu9vpq6hqYqyiqYmzQVFO8PjljcA5r2uHQtIIII6EFeyte/hV8Th1Lpeo2e1FWF92sUJqbBNM8l1Rb8gPpwT3MDnDlGf3t7QABGVsIXwV9MqLHXLuPs6rFbBTj3juo/sPrH7VVH9vtH7VgMp/OXr3pr/VX+3Vf/jUq+Dlfe15019qrB6flmv/AMalXwl+iV9iPofD2/El6s5Bt7rq67W6807rGxu/6bWKuiuFPGXlrZiw+9E4gg8kjC+Nw9WvK/oK2w3Gsm7m39h1jpyqFXZbzSsqqeTpzNB+lG8AnD2ODmObno5rgeoX86n2rLzw/uND+l01PJpHVtSTtxe6gSOnd1Nnq3YaZx/sL8ASN/RIDxj3w7lbSxXdDpIc1/B09n5Crl0cuTNzC6i4nOGvTXFBtvNpi+ufQV0L/abVeadgdPb6kAgPAOA9hB5XxkgOaT1a4Nc3tejrKe4UkNVSzx1NNOxssU0Lw9kjHDLXNcOhBBBBC/VfJRlKElKL0aPo2lJaPkaBd/OFvcbhsussOsbI82cv5afUlva6a21IPb84B+acev5uUNd0OMjBPU0OJ2h0ZEjfiw8wP3L+lGWJk0b43ta9jwWua4ZDge4I9V1FqHhA2S1SXuuG1GkJJXuL3zQ2aCCRzj1JL42tcT9q+gq2u0tLI6vyONZsyLesJaGgt5ELeaQiNo9XnA/FdgbNbCa94gr0y3aD03VXmMSiOe6EeXb6TtkzVJHIMA55WlzyAeVpPRbsrHwd7H6daBRbS6NDgeYPqLLBO8H5Oka4hduUlJDQ00VPTxMggiaGRxRNDWMaBgAAdAB8ArZtdtfpx4+ZK9mJPWctTHjg04ObLwqaSqXS1Ud91xd2s/K16awtYGt6tpqdp6shaSTk+89xLnYHIxmRiI5waCScD5rgWWStk5zerZ2YRUI7seRxXdLcazbR7eag1nqCcU9nslHJWTkFoc8NHuxs5iAXvdysa3PVzgPVfz2ar1Tc9d6rvmp7y5jrxfK+e51hjBDRLNIXua0dcNbnlA9A0LMHxGuMym3wv7NvNE3H2nQdmqPNrrjTPHlXitYSGhjh9OniOcO+i9/vDLWMccKF9VszGdMHOa4v+D53aF6skq48kFnn4P3XerXv+52D/GisDFnn4QBzvXrzH/g5B/jZWztD+mka+D8ZG2BRxwPuVRfEH1p/NjdK2kN2uBFbSkGrqCD7QzqDM8g9/UYK9T2+k/1ZS/3dn/Ov6OjoDTLnFx07aiSS4k0MWST1J+ip/Q+0uP8AuctP/AIv/dX0a2votNw4b2am294/nG9upP8AVlL/AHdn/Ont1IP+3Kb/AIQz/nX9HP8AQ/0x/wCDtp/4BF/7qHb7S/8A4OWn/gEX/up7X/8AAnsxfMfzi+3Uv+rKX+7s/wCdBX0oP+bKb+7s/wCdf0d/0PtMD/udtP8AwCL/AN1enedC6bitNYW6ftIxBJ0NDCQfcPf3VVtf/wACPZiS13j+dcDCY+WR8F+Ft963Uh7kwsyT/BC/fsvo09UmcKS3ZNG3zwt+IOLcfZj+h/dKxrtS6KaylhZI/wB+oth/zNIB0yI8GA4zgRxkn3xnNfuv54Nm929RbFbkWbW+lpxHdLa881PIT5NZA7pLTyj1Y8fa1wa4YLQVvW2B380rxGbeUWrdLVYfFJ+brKCVw9poKgD34Jmg+64eh7OaQ4ZBBXx+0MV02OyK91n1OFkK6G6+aOxamniq6eWCeJk0ErSx8cjQ5r2kYIIPQgjphakeLvw1tVbdX246m2ptU+qdFTvM/wCQqIeZcbVzEl0ccfeohBPu8uZGghpa4NLztyTGVpY+TZjS3oG3dRC+O7M/mslHs9XPSS5hq4XmOWnlBZLG4HBa5jsOaQfQheQhf+o77l/RFrjZ7Qm5bo36u0Zp/VD42ckb7xa4ap8bfg10jSW/YV1pJwIcP8k3mu2n03z5zhtMQ3+SDhd2O2I6e9DicaWy3r7sjRBNUw05xLNHEe+HOAJ+od1lbwy+HluLvvdaGv1Fba7QWhOcPqbncYfJrquLGS2kgeObLgW4mkaGAOLgJC3lO3DROw2222tW2r0poHTOm61rOT2u12iCnnLfgZGsDj9pXPAMLXu2tOS0qjobFWzoQes3qfB0JoWxbZaPtGltM22G0WG1U7aako4AeWNg+JPVziSXOc4lznEuJJJK++ouE7x7x6V2J0FcNX6vuLbfaaQBrWtHNNUykHkghZ3fI7Bw0fAkkAEjhJSnLRcWzr8Io6b8QLiKj2C2FuUdurPI1jqZslosrWP5ZInObiaqGCHAQxuLg4ZxI6IH6S0iRxthjZGwcrGANaPgB2XZ/EZxA6g4l90a7WF/aKSEt9mtlqjfzR26kBJZED+k8n3nv/ScegDQ1o6yC+1wcXq1ej7T5nymbkdPP3eSAC2QeDP/AJ4b0/wbJ+yuWt9bIPBnwa/ej+DZP2Vy87S/pZfT+UetnfHXozZmo/t9o/aqi+KPqj+bXUVdSs1HeWmqga78oVXQyt/0+T5r5/5QpP8AVlN/dm/86/pNFloGk4oqcZOTiFvf7l5C1Ube1LCPqib/AMy+hW12klufk4j2YpNveP5rxX0rnBramF7iegY8OJ+wZK7w2j4Nd5N66yBth0TcLfbJeV35b1DE+3ULWO7SB0jeeUf2pjyt9QY1owAAPkFcLzPa9jWkYpM9x2ZWnrJ6mNnCJwQaV4W7a+4unGpdd1sRirL/ADxcgjjJB8imjyfKj6DJyXPIy44DWtyTwqoThcSyyVsnOb1Z1YQjBbsVogVpV8RTiVg3/wB522uw1TavRmkPNoaGeJ4dHWVbiBU1LSO7PcZEw5IIjc4HEiyI49vENoja7ltltNdW1dXUtfS3vVVG/mipoz0fTUjx0fK4ZDpR7sYOGkvOY9ZrWNYxrWgNaBgNHoF9Fs3DcX09i9Di5+UtOig/Uq9W6f531B/sf8q9perdP87qj+B/lC+hfI4lfbj6n9LjVUHUJ3X5wfcGr/xlKmGPUe0TZKiGJwpLwSJJGtwDJRY7n1wfuK1z+30n+rKX+7s/51/SNdtN2m/SQvuVsorg+EOEbqqnZKWB2OYDmBxnlbnHfA+C9H+h7pfp/wBTlp/4BD/7q7WNtHq9ar3dTlZGD089/U/nG9vpP9WU393Z/wA6CvpP9WU393Z/zr+jr9wGmf8AwetX/AYv/dUO32mD/wBztp/4BF/7q2fa/wD4Gv7LXzH84/t1L/qyl/u7P+dT2+k/1ZTf3dn/ADr+jn+h/pgf9ztpH/5GL/3V5fuB0z/4P2r/AIDF/wC6r7X/APAnstfMfzjxzRzAujkjlaOhMbw4fgvIta9pY/6DgWu+o9CszPFetVFZeJyx01BSU9FAdHUTvKpomxtya2uBOGgDOAPuWGfddzHt6eqNmmmpyL6uhscNeRvW4D9w4NyeE3biuY5gqbfbGWWqjD+ZzJqPNO7m+BcI2vweuHtPqu/lp+8M/ipotlte12gtVVoo9I6rqGS0tZKQIqC5YEYLz+iyZrWMLjkNfHHnAc5w3Ar4zModFzT5Pij6vGtV1akjDjxBuCmq4j7PQat0a2Fu4VkpnUzKSeRsUd2pOYvFOXu6Mka4udG4kNy97XYDg5moHUFiuekL9U2S/wBuq7FeqVwbPbbnA6nqIyRkZjcAeowQR0IIIJC/pGXF9cbY6Q3Mo4aXV2lbLqmmhJdFDerfFVtjJ7lokaeU/MLaxNoTx47klqjBk4Ub3vJ6M/nUGR3UW7e8eGxw7XeeaYbfC3zSEkutt3rqZrT8mMmDB9QavlUvhfbAQSBz9OXeob+pJqGuA/vZAfxXV9rU/KzmezJ/MaXHuEUZe9wjYP0nnA+8rYJ4WnC/fa/X1PvJf7dPbbBbaSaKwGpY6N9fPOzy31DGnqYWxOe0OIw50mWk8pWbuguBzYnbaubW2TbOymtY5r46m6MfcpYnA5DmOqXSFjgfVuCu88LRytp9NB11rRM3cbAVUt+T1aC9S7XSksdrq7lX1DKOgpIX1FRUSu5WRRsaXOc4+gABJPyXtrBrxRuJem292vftdZqs/up1fByVoid1o7USRM53wM3KYWjHVplORyjPHpqldYoR7zp2TVcXJ9xqh1DqKo1lqO76hqxirvFdUXKYd8PnmfKRn+OvSg/fo/4Q/avDp6dB8AvOH99Z/CH7V+gRjupJdx8RN7zcvE3pcBR/+p9tT/tJH/hPXfy6C4Cj/wDU+2p/2kj/AMJ679X59b8SXqz7iHYRhd4s+f6Vmm+H7pbd+2RafVuC8WYZ4W6XHb90tu/bItPoHRfVbK+B9T5zaPxf++QWXPhmb9RbQb/fucuk4g07rlsVse9w92KvYXexvJwTh5fJD0/SljJOGrEf1Xi+MSMcx30T8Oh+z4FdK+pX1ut95z6LXTYpo/pUyiww8Pzjcpd89O0ug9ZVjKfci1wcsU8z+l9p2N/f2Z/r7Wj87H8vMb7pcGZnr4O2qVM3Ca4o+yrsjZFSizBnj04AKjfK4zbg7eCmg115LWXC11LxFFeGsbiNwkPSOdrQGAu91zQ0OLeXK1S6s0vedAagnsOp7TW6bvcP75QXaB1NMB6OAdjmacHDm5aR1BK/pAXw9W6F03r+2C26n0/a9R24O5/ZLvRR1UXN8eSRpGV0sXaM6I7klqjRyMGFz3lwZ/OQI3ejXfcow+ZUxUzMyVMzgyOCMF0kjicANYMucSfQBb3LhwJ7A3KqdUS7U6cjeTnlpqYwM/kMc1v4LsPQWyW321shk0fojT2mJ3M8t89qtkNPK9vwc9rQ532kroS2vDT3YPU0o7MevvS4Gu3gK8Pe+1uqrZuTuraJ7HbLXM2qs2ma5pjqqqoaQWVFVGesccbhlsTsOe4AuDWtAk2jgIquDfkTyJ78zsU0xpjuxC11+L7vBDQaU0ftjRT/ANXXOq/LtxYx/VlLBzMga9uOokmcXDr3pis2d6t59L7B7eXPWOra72S2UbeWOKMB09XMc+XBCzI55HkYA7DqSQ1riNDW827N7313P1BrrUJDLjdp+dlK1/Myjp2jlhp2HAy1jABnA5nczj1cVv7Nx3ZarGuC/k0869V17vezhfYomEX2B8sMJ6phFAERTsqCohRAE9UQIB6plE9UIAiIoUFERUgT1RMIUYROyIAiIFAERMKgfNE6ogC9a6f511Y/2J37F7Kjmh7C1wDmuGCD6hRrVaFi92SZ/Sk1w5R3+5XmHz+5fzwHercU99w9YE/PUld/PLy/o2bjnH/0iax/85K/+eXy3si35l+T6L2pV8r/AAd+eKCxzOLm7FwLQ6x2wtyO45Zh/kKxOX0r5qK7apuBr73dbhea8sbEau5VktVMWN+i3nkc52Bk4GcD0XzV9Fj1umqNb7jhX2K2xzXeEROy2DAfe0Bru97X63ser9N1Psl9slU2spHkkNc4dHRvwQTHIwujcM9WvcFv/wBlt17PvhtZpvXNh5xbbzSidsUn04JASyWF39lHI17DjplhxkYK/niXJNPbl6x0jbfyfYdYaisVvMjpvZLXeaqlh8x2OZ/lxyNbzHAycZOAuXm4XWtHF6NHTxMvq+qktUf0Xcw+f3FRzgQO/ceh+K/njG9+5Hf+iNrPP+6Wu6f8cvL+jhuTzA/0RtZ575/dLX/zy5Psi35kdH2pV8r/AAfH3ABZuDqwEEEXu4Ag+n9VSr4C/SaWSomkllkfNLI90kkkri573OJLnOJ6kkkkk9yV+fovqIrdikfPTlvScvEBEQ916PJlBwl8euseGVtPp+uhfq7bzzc/keWXlqbeCfedRyO6AZPN5L/cJB5TGXOJ2t7H8U22fENbo5dG6npau4+X5k9kqj7Pcabo0uD6d2HYaXYL28zCR0cVoE+Sjo2vex5HvxkOY8ZDmHOQWuHUH5hcnJ2dXe96PBnUoz51LdnxR/SpzDtlFoW0Xxp777f0xp7PujfZICekd5MV0AH6oNUyR7R8g4Ltax+KtvraKZsVR+5G9vH9euFllY8/X5NRGPwXGnsq+PZ0Z1Y7RofPgblFMhacrp4rm+dxgdHDTaMtj3dpaSzzucP7pUuH4Lq/WXHRv5rqmfS3Dc+7UVM53MGWOGC2Fvy8yBjZcfx1I7KvfPRCW0aFyepuX3k4iNu9grSK7XOqaKyueznp6FzjLWVXXH5mnZmSTqQCQ3Az1IHVaseLXxFtU8QFNWaW0hT1WitAzNdDUMdIBcbpGc5bM9hIhicMAxMJLhzBzy13KMRaupmr6+or6ueasr6l5fPV1MrpZpXHuXyOJc4/WSvyXYxtm10ven7zOXftCdq3YLREa0NAAAaAMADoAFR0Tuquwconqs8vCAaRvVr08pwNOQDIH/3srA1fRs+oLrp2aWa03W4WieVnlSS26slpnvZnPK4xuaSMjOD0ytXJqd9TrT01NjHtVNimz+kHnHwP3FOcZ7H7iv50/wCibrIdtZalH/67Wfzq8xunrb01tqj/AMvVv86uB7Hs+ZHa9qV/Kz+ijnHwd/JKvOPgfuK/nUO6GtSf+vXU/wD5erP51U7o61/8NdT/APl6s/nU9j2fOi+1K/lZ/RVzj5/cU5x8/uK/nV/on619daan/wDL1Z/Oqf0UNaf+Gmp//L1Z/Op7Hs+dD2pX8rP6K+cfA/ySvQvnv2ita1rnEwSAANOT7hX88g3R1rn/AK9NT/8Al6s/nV5N3R1qx3u611O36r9W/wA6nsiz5kR7Tr+V/g4dbf8AO2k/tDP8EL98IAGgAANAGAB6IvqEtFofPSerbHfoub7P70ay2F1nBqjRF4da7kwBlRC9vmUtbEDkw1EWQHsPXqMObnLXNOCuEIpKMZpxktUWM5Vy3ovRm4rh48TnbXdWmprZraaLbfVJAa5tzmH5NqHdcmKqOGs7A8s3IcuABf3WYdHXU9xpIaqlnjqaaZgkjmheHse09Q5rh0IPxC/mxOCCCAQe4Izlco0JuhrTa6Uu0brC+6UDpBI+K0XGWCGRw/XiB8t31OaVwLtkxk9anp5Hbq2k0tLEf0WKrSRp3xKOISxytNRrKivsTR0iutjpSPtMLYnH71zF3i073FoH5K0KOnf8kVef8cXPey8hPho/qbq2hQ+/8G4XK8JZ44InySPbHGwFznuOA0DqST6LSnqLxMuIK+Sc1Jqq16eaT+92mxU+PvqPOK6I3A3c11uw4nWusr7qiIyea2mule+Snjd8WQAiJv2MCyw2Tc+20jHPaVSXu6s257/eJTtRs7BU0On65m42p2e6232GdrqWJ3+z1gzGwdCC1nmPBxlnqtVG/HEHrfiP1cy/61ubah1PzNoLXSgx0VvY76TYYyT1OBzPcS92Bk4AA62A5WtaAGtAwGgYA+oJ2C7eNg1Y3FcX4nIvzLL/AHeSGeqJhF0TQGFsh8GcEVu9BweXFkA6fKu//ktbq+nadR3ewCoFru1xtbajl84W+tmpvN5c8vN5bm82OZ2M5xk47rUyqXkVOtPTX/JtY1yx7FNrU/pA5x8/uKnOPgf5JX85n7vtVf8AhVqDr/8AjNV/OJ+7/Veeuq9Q/H/Pqq/nFwvY8/nR2Palfys/o05x8/uKc4+f3FfzmjcLVvrq3UX/AJaq/wCdXidf6qd31VqA/wD6zV/zqex5/Oh7Ur+Vn9GnOM+v3Limsd29Ebd4/dXrCwaaz2/K90gpc/V5jxlfzy3C93K8gi4XO43AH0q6+eYf3zyvmMo6aM5ZTwtd8RG3P34XuOx3+6f4PL2pHuibmdz/ABStlNEU80Wn664bgXRpextPYqVzacPA6c9TNyR8hPTmjMh+RWAnEf4gG5vENS1dlbOzROjahpjksdlmcZKqMjBbU1RDXyNIJBYwRscDhzXLGgku6kk/WVPtXSo2fRS9dNX5mhbn22rRcERrQ0AABrQMANGAAqiZ+xdM5wXq3X/O2px35Oi9pRzQ9paRlp6EKM9Re7JPwP6Ug8D4/wAkp5g+Dv5JX860m6GtJHlztZ6mLickm/Vh/wDWrx/om60HbWeph/8ArtZ/Or5f2PZ86PoPalfys/or8wfB38kpzj4H+SV/Or/RQ1p6a01OP/16s/nUG52tAems9TD/APXaz+dT2PZ8yHtSv5X+D+ivnHwP8kpzj4H7iv51P6J+tR/3Z6m/8vVn86r/AEUNbE/9emp8/wC31Z/Op7Hs+dD2pX8r/B/RT5g+f3FOcfA/ySv51RufrP8A8M9Tf+Xaz+dT+ihrTv8Auz1N/wCXqz+dT2PZ86L7Ur+VmV3i39eKSxeg/cZRen/32vWFQX0LxfbnqKrbVXa5112qWxiJs9wq5amQMBJDA6RziGguccZxlx+K+evoMap0VRrb10OJkWq61zXeeLmNkaWvAcxww5pHQhZw8IniV3vZygodHbj09bqvR9OBDR3WnPmXK2xgYEbmuI9oib0x1EjRnHOA1owgQK3UV5Ed2xCm+dD3oM/oY2q300BvdavyjobVls1JA1gfLFSTD2iAEkATQOxJETg9HtBXO8hfzXwSPpa2GsgkfT1kJ5oqqB7o5Yz6Fr2kOH2FdzaO41t99BwmG1bpX6aFxBMd5dFdBj4A1LJHAfU4LgWbIkvhy+52q9pwfbWhvqRaabF4qO/Foj5aiXSl8dgDnuFlexx/uM8Y/BfYb4uG9o72HQOP9q63/wCMWo9l5PgvubKz8drn+Db+vynqYqWCSaaRkUMbS98j3BrWtAySSegAHqtMGp/FB3+1AB7FebBpk+ptFjY8n7al837F0NuTvfuHvHJIdb62vmpYJJBL7DWVZbRNcOxbTR8sLT9TFlhsm6XbaRintKldnibQuJvxO9DbZUdVZdtp6PcDVxBYKqmk57RRO5QQ6SdpxOfeH5uEnsQ57COup3WGr73uDqq6al1Ldai93+6TGorLhVEF8rsAAYAAa1oAa1jQGta0NaAAAvjgAAAAAAYAHYBX1XfxsSvFXu8/E42RlTyOfBBeUXSRn8ILx9VVvGizerwGsdDwf7UB7XNP5EiOC0joXOI/Bd+c4+f3Ffzl0OudT2uhgoqPU19o6OBvJFTU13qooo29ThrGyBrRknoBjqv2G5esf/DDUmf9vKz+dXzM9k2Sk5KS4s+hjtOtRS3WbYPFiDn8K8BaDgakt2enYcz1p7+C+zd9Z6hv1D7Hc9Q3m50fO2X2euudRURc7c8ruR7y3IycHGRkr4y7GHjvGr3G9Tl5V6yJ70VoPVECLeNI/ehram2XCkrqGqnoK+kmZUU1ZSSuimp5WEOZJG9pBa5pAIcDkFbGeGXxXfYKSm0/vZTTSlh5I9YWum5st6Y9rpoxkEdfzkIOct/Njq46309f+Zal+NXkrSaNqjJsofuvh4H9GGhdxtL7n2KO9aS1DbdSWqQ4FXbKlk7GnGeV3KTyuGerTgj1C5HkfFfzdWG93PSl4Zd7DdK+xXePIZcLVVyUtQ3PfEkbmu/Fd46X4+eILSNJBSUm5ldXUsX6F5oaWve7+FLJH5h+164NmyLE/wBOSfqdqG062vfWhvVUWnCi8VjfKlpxHJHo+udjBlqLLM1x+fuVIH4L5GofE+3/AL3Hy0t8sNhOMc9sscbnfX+ffKM/YtdbLyG+77md7QoXf+DdLzD6/qWNPELx/wC1WwkNXQC6s1jq6IOa3T9hlbM+OQZHLUTDMdOA4YcHEvAOQxy1FbjcR+6u7kVRDq/cPUN5oqlvLNbvbDTUUg+DqeARxH7WldbMjbEzkja2Ng/RYOUfcFu07J462y+iNS3aa00rR2nxD8SOs+JvWrdQasqmRUtLzMtdkoyRR22M9+QHq6R2AXyu95xwByta1rerkRfQwhGuKjFaJHDnOVkt6T1YREXs8BRVEAREQgREQo7lERAET7FEBURPqQDsnxT1QoB6omFFAVE+CKgiqIoB2REyqAhRPtQE9VU9VPVAVRUogIr3TKFACiJhCBETKFGERCgGUREIEHVEQoREAQBO6IgHzTCIhAnZEQoUVRAAUT1RAAiIhCqeqfaiAIiIAiIUA7J8ERChMIiAiqeqdEAUVRARUonZQBEQKgJhPsRAMKFVEAURX1QECqYynqgCiqIC91PVEQgUVQIUfgiKFAFU6AogBQJhVAQoFVEAT1T17ooAUwiKgJhPVM5QA9E9U9VEBUT8EwgCHqURAPVEQIB6p2T0QIBhMJ1QIB6oU9ECAJ2REAwiIgAQdE9EQDoiIgIqiKAiqIqAiKYUBVFVEAVKeiioCFVFARPVXCioAVUVwoB2UVRAETCKgIiKAYRMIqAiJ6qAFAiIAieqdlQPVE9U7FCFU6IndAB3RE7oUd0TKIAndE7oAid07oAh+tPqQoB3REQgTCeqIUDoiIgCIiEHZERAE9UQIUJhEQBMImEBfVRFQEIRET6kKEREAREQgT0REAREyhQiYRQBE7oFQMIndEAT1CJ2QhFcYQBEKMoiYwgCIUKEHqidkQoQInZCBE9U9eqFHwUKqIAiIgCIiAIiIAindVAEREAwiYUQFRVRCDumERCkVREA9ET1RAPiiIgCInohAqoUQBERACievyRChET9qAd0UVPVAEREAP1qK90+KgJhVEwgGERPmqAiBOyhAiJ8EAUV9UQpFU9UQD6kRFQERRAVOyIhAiIoUInqiAIOqdkVAREUAKImeqoIqhTKgCeqKKgvZEynohB3REUKERCqAr6qJ6IQIgTCFHZEQIQJ1TsEKFCImUATunqiAiqeqIAiIgCIiAIiIAiJ6/FACiZ+Cd0A7BO6IfrQBE7p3UATCIqQIiIUIiBQBE7J2VAKInRCBPVAiAd0wiIUYRE+KAFE+pEATCIgGUREAUKqIBlT0V7IgCBEQBRUogGERMIAiIoAiJlUBERAEyiIAiJ2QDoiIgCIiAZREQBERQD0REQDsiJnqqAmURQg9UQIhQnbKIgGMIifagCIioCImUAREQDCInfuoAoiqAIoqEARRAgKiIqAiIoB9qIiAIEUQF7InZPVUBETt3UAwiIUARECoCfgiKECEp6p6oUYROxRCDuUTsipQhT1RAET1RAO6d0AT0QBE/BFACiiqoHUp2wiKAZREVAREQBERAEREATKIfvQDKdlCqgGETCBQBEyioCJ1RAERMIAnqiIAiJ6ICK+qKAIC/gp8VUQBERQBET7VQPVERAPRERAERO5QgKivqnZChFPVXCAdkREAREQBEPdFAAiKKgvZEQIAiIgCIiABB3RAgCKK+qgGMoiKgJ6oiAfFET8FCBOxTKBUoTsUTsgGEREAQIplQFREKoCeqHuigCIOiKgIiKAJlFPVAVEUCAKooqCp6/BRFAEyr3TCAIiKgdkRAoAoqhQBERAECIgCHuiKgKZwiqgCivdEAREQBERAAiIgCIioCIiAJlEQEVRFAAEREARPVAgB6oiICeiqIgGEREAwidkQD0UVRUBMdU7J2QERX/5wnxUAT4IioCIigGOqIn7FQFFUUARFFQFfkiICIqogLhFFUARECAivZMdEUA9U7p6J6qgndVE7IB3TP2oiAftRFCgKiIoCKp9iKgZ6IoqFAETuEQBE7KeiAqnZVPRACERRUFCioTv6qAIiIAoe6qdlQEwnqnqgCIgUAREQBERUBT6leyeqgCIgVBAFUCKAYRRMICkomEVAwoFe6YUAREKAgV/YiKgFERQBQKqfNAFcIiAiuERAEQqIC+qdkUQFUVUQBVRVARVFPVAXCndXsnogJhX5qKoAhCIqAieiKAIiFUD60+pAmUATCJ+CgGERCgHqiIgBREygCIn4qgInZFAEREAUVRAFCiqAIiKgiqJhAERFAERT0VATsqiAnzVRFAMKKqKgqIooC90REARAndAO6FRX1VARRFAFUTCoCImFAMJ3RFQET1TuoAoqioIiqBAPRE9UQEVCdkQEVRFAOyiqKgiqKKAqnorlTsqCoPioqoCFVRVUEVKIoB2+RRRVUBRUooCKphEAT1RPVARVEVAREQBERAET0UUBfwUV7KdkBcJ6oiAIoqgHqor2Cd0AT1RPVAT7FURAEUVQBPVRCgKiJ6oCIqmEAUT1VQBERARVEygCiqICfNVEQBE9EVAUVQKAeqJ6IgJ2VKFEBFfVECAeqd0RAERMqgZ6qKjoigCJhOyoCIiAIiKAiqeiZVAwiIgCeqiqAiqBPVACiKKAK4yimFQVRVRQBXsnZEBEKqIAohVVARPRFAO6ioUQFUV+KKgKJ6KqAnqiKoCImFQgGERFQE/aiqAmUwiDugCZT1RQEV6InoqAphVEAUVUQDvhX1TsnZQBMIp2VA7KphRAVET1QBERARVEygIqn1IgBURX1QBRVRQDKoTsioCIO6eigHqiIeqoCd0RQBAiKgdEUV7KAZUVRAEwmEVAwiiqgJ6K+qIgCJ2TKAKKogInZVOyAdkRRAMIQiqAJ27IhCAIoqgIqndPxQBE7qIAr2UV9UAwmU7IgCiuFEBVAqEQBE9UVA9URPVQBRVFQEKIoBhERUBETsgIr6oiAfUmeqfgiABM4V9VMIQYRTsr6oUIiKAInZFQFFUQBERQBCiIAoqnZUBRX0RQBEwoqCphRCoC46KeqvdPtVARREBURMIB6phMIUBFSE/FEBAFURQBOyIqAFFUQAhE9UQBE/FCgHomERQBERUBERQEVRQKgqZRFAFFeyiAqJ0RUDsiIUARRVAEREARAiAiuE7IoAiIhAnYoiFCZREBPVVE+aoGERPRCBMoEUKEUVQBMInqqB6Ih7ogCJ2QKAfNERAOyIiAInZFQD3REwoAOiIiAiZVKIAAieqIB+KIiAnoqiICYVQphUEVQKICqKhRQFCInqgCIiAeqJ6plCEVRRCl9Ux1REAT7URUBERAERM9VAPTCInZUBPVREBURMKAnZVRXKoCdkRAOyJ6p6oB8EQp8kIPsTCiqhQiIqAnZEwoCfblX1Tuh6qgBRVFAE7J6ogCipU9UBVFfREA7IimeyoHqivqogKiIgCJjCIAUCd0QBERAOyIiAdvrRRMIAr2QhB0KAIiIAEKIoAoqmcIAhUz1VCoHZEQFAEwiIQHoiZTKFCeqIgCKKqAd0wmE9UAREQBETOFQPrTsgKiAuE9U9E7lAB3RMIhAoqFFCl7FRXuoEBfVERUBOxROyAdkT1RQBERUBPVOyd1AFMKp2QBT1VQIAoqogKiiqoIqiKAdiiKKgvb1QphEAREygIqExhFARFVCgKoqiAnqr3UVQBET5IBlERUBERAET1RAET1T4oB6omEQgROyKFCIioIiqKAJ2U9VeyoCDsiIBhECBAEREBAqnYKICqKogCiKoAnZEQBFE9VAVRVFQRXCIoAorlFQEREBEwqnqgIqmEQBRVRQF+tRU90wqAiIgCeqBPRAETsiAJ3REAREQD9iJ3RARX1TsigCYRFQRXsiICIqogCKogCIiAKKp690AUV9VEBURMIAiBAoAgRFQEUKqgH2p6oioGU9URQERPxRCj8VVFVSBECKAJ8kT6kAzlE+1FSDCYRFChECeqoCd0RAO6JlEB/9k=;" vertex="1" parent="1">
          <mxGeometry x="248" y="110" width="1024" height="1024" as="geometry" />
        </mxCell>
      </root>
    </mxGraphModel>
  </diagram>
</mxfile>
